<svg id="t1-ic2" xmlns="http://www.w3.org/2000/svg" width="50" height="50" viewBox="0 0 50 50">
  <path id="Path_157153" data-name="Path 157153" d="M13.225,0H13.7a10.984,10.984,0,0,1,5.5,1.313,4.785,4.785,0,0,1,1.315,1.207,4.922,4.922,0,0,1,3.755,2.424A6.842,6.842,0,0,1,25,8.4c0,2.511.007,5.021,0,7.532a3.374,3.374,0,0,1-2.524,3.147,9.221,9.221,0,0,1-5.8,7.8c0,.348,0,.694,0,1.042.941.688,1.851,1.426,2.812,2.084A8.248,8.248,0,0,1,25,32.634c.006-2.318-.011-4.637.008-6.955A3.34,3.34,0,0,1,28.235,22.5c5.919-.01,11.838,0,17.757,0a4.546,4.546,0,0,1,1.958.258A3.4,3.4,0,0,1,50,25.563V46.9A3.364,3.364,0,0,1,46.824,50H28.186a3.362,3.362,0,0,1-3.092-2.557A10.441,10.441,0,0,1,25,45.376a3.57,3.57,0,0,1-1.753.456q-9.766.006-19.533,0a3.787,3.787,0,0,1-1.845-.343A3.4,3.4,0,0,1,0,42.761v-6.25a6.4,6.4,0,0,1,.829-2.781,7.477,7.477,0,0,1,2.792-2.658A8.6,8.6,0,0,1,7.188,30c.962-.656,1.874-1.393,2.813-2.085,0-.351,0-.7,0-1.05a9.2,9.2,0,0,1-5.8-7.791,3.371,3.371,0,0,1-2.523-3.149c-.01-2.541,0-5.083,0-7.624a6.618,6.618,0,0,1,.8-3.484A4.984,4.984,0,0,1,6.151,2.521,4.756,4.756,0,0,1,7.649,1.2,11.59,11.59,0,0,1,13.225,0M9.234,2.294a4.071,4.071,0,0,0-1.552,1c-.224.238-.308.6-.61.761a1.348,1.348,0,0,1-.62.129A3.247,3.247,0,0,0,3.867,5.723a4.647,4.647,0,0,0-.522,2.184c-.025,1.024,0,2.049-.012,3.073a2.559,2.559,0,0,1,2.079.18A6.543,6.543,0,0,1,9.561,7.535a1.209,1.209,0,0,1,1.26.491A2.97,2.97,0,0,0,13.286,9.17a3.018,3.018,0,0,0,2.18-.735c.334-.279.538-.728.979-.863a1.864,1.864,0,0,1,1.36.206,6.589,6.589,0,0,1,3.449,3.38,2.559,2.559,0,0,1,2.079-.177q0-1.194,0-2.389a6.247,6.247,0,0,0-.405-2.612,3.206,3.206,0,0,0-2.616-1.8,1.467,1.467,0,0,1-.781-.164,1.4,1.4,0,0,1-.382-.508,2.321,2.321,0,0,0-.81-.766,6.77,6.77,0,0,0-2.356-.855,15.785,15.785,0,0,0-3.479-.2,10.525,10.525,0,0,0-3.27.605m-2.482,10.2c-.132.453.033,1-.29,1.383a.838.838,0,0,1-1.275-.019c-.261-.288-.113-.732-.357-1.026a.832.832,0,0,0-1.494.546c0,.851-.009,1.7,0,2.552A1.676,1.676,0,0,0,4.993,17.5a.837.837,0,0,1,.838.847,7.5,7.5,0,0,0,15,0,.829.829,0,0,1,.586-.808,3.72,3.72,0,0,0,.915-.183,1.663,1.663,0,0,0,.99-1.43c.018-.752,0-1.5.008-2.257a1.223,1.223,0,0,0-.2-.87.839.839,0,0,0-1.27-.011c-.3.31-.11.822-.436,1.118a.836.836,0,0,1-1.4-.336,8.871,8.871,0,0,0-.194-1.362,4.75,4.75,0,0,0-2.836-2.95,4.744,4.744,0,0,1-3.623,1.576A4.766,4.766,0,0,1,9.664,9.26a4.661,4.661,0,0,0-2.912,3.233M28.081,24.187a1.672,1.672,0,0,0-1.414,1.68q0,10.411,0,20.823a1.669,1.669,0,0,0,1.645,1.642q8.941.009,17.884,0a2.625,2.625,0,0,0,1.134-.141,1.682,1.682,0,0,0,1-1.607q0-10.109,0-20.218a3.035,3.035,0,0,0-.117-1.146,1.666,1.666,0,0,0-1.525-1.054q-6.5-.009-12.993,0c-1.872.013-3.746-.027-5.617.02M11.666,27.346c0,.214,0,.429,0,.643.554.556,1.11,1.109,1.664,1.666q.835-.831,1.669-1.664,0-.322,0-.645a9.334,9.334,0,0,1-3.335,0m-3.032,3.68c.473.7.942,1.4,1.416,2.092q1.063-1.131,2.122-2.268-.706-.71-1.416-1.416L8.634,31.025m5.86-.174c.707.755,1.412,1.513,2.123,2.265q.709-1.043,1.413-2.091-1.058-.8-2.12-1.59-.709.706-1.416,1.416M3.385,33.271a4.616,4.616,0,0,0-1.719,3.646c.006,1.89-.008,3.779.006,5.668a1.666,1.666,0,0,0,1.651,1.58q3.6.007,7.2,0a16.592,16.592,0,0,1-2.2-3.175,16.255,16.255,0,0,1-1.8-9.237,6.741,6.741,0,0,0-3.137,1.517m16.758-1.513a16.643,16.643,0,0,1-.377,5.4,16.482,16.482,0,0,1-3.62,7.006c2.235,0,4.472,0,6.708,0a2.7,2.7,0,0,0,1.14-.14A1.672,1.672,0,0,0,25,42.482q0-2.836,0-5.67a4.622,4.622,0,0,0-1.037-2.865,6.719,6.719,0,0,0-3.82-2.189m-8.6,2.2.6,1.037q1.188,0,2.377,0c.2-.346.4-.69.6-1.036-.595-.639-1.194-1.271-1.788-1.911-.6.635-1.2,1.273-1.793,1.91m-3.41-.7a14.943,14.943,0,0,0,2.211,7.869c.159-1.7.312-3.406.468-5.109-.2-.344-.4-.687-.6-1.029a1.329,1.329,0,0,1-1.2-.449c-.308-.416-.58-.857-.877-1.281m9.52,1.285a1.335,1.335,0,0,1-1.2.445l-.6,1.03q.236,2.568.471,5.137a14.717,14.717,0,0,0,2.226-7.92c-.3.432-.581.884-.9,1.308m-5.224,2.12c-.194,2.155-.407,4.31-.583,6.467.413.406.772,1.024,1.431,1.011.685.012,1.136-.555,1.554-1.013q-.294-3.233-.592-6.465Z" fill="#ffb600"/>
  <path id="Path_157154" data-name="Path 157154" d="M94.4,204.844a.839.839,0,0,1,.987.3,3.387,3.387,0,0,0,1.624,1.146,3.34,3.34,0,0,0,3.622-1.087.872.872,0,0,1,1.031-.36.833.833,0,0,1,.4,1.23,4.989,4.989,0,0,1-8.06-.009A.831.831,0,0,1,94.4,204.844Z" transform="translate(-84.708 -184.785)" fill="#ffb600"/>
  <path id="Path_157155" data-name="Path 157155" d="M302.35,273.418a.83.83,0,0,1,1.151.027.84.84,0,0,1-.027,1.2q-1.22,1.225-2.444,2.443a.831.831,0,0,1-1.139.069c-.289-.264-.556-.551-.835-.824a.846.846,0,0,1-.271-.812.837.837,0,0,1,.966-.641,1.335,1.335,0,0,1,.673.459C301.068,274.7,301.7,274.05,302.35,273.418Z" transform="translate(-269.587 -246.52)" fill="#ffb600"/>
  <path id="Path_157156" data-name="Path 157156" d="M367.535,290.141a2.386,2.386,0,0,1,.465-.031c2.7.009,5.409-.007,8.113.008a.83.83,0,0,1,.788.959.847.847,0,0,1-.9.7q-4.1,0-8.21,0a.832.832,0,0,1-.26-1.636Z" transform="translate(-331.081 -261.779)" fill="#ffb600"/>
  <path id="Path_157157" data-name="Path 157157" d="M302.351,324.615a.831.831,0,0,1,1.13,1.218q-1.219,1.228-2.444,2.445a.839.839,0,0,1-1.048.154,7.641,7.641,0,0,1-.7-.664c-.215-.219-.488-.434-.518-.763a.836.836,0,0,1,.891-.937,1.232,1.232,0,0,1,.761.47C301.068,325.9,301.7,325.247,302.351,324.615Z" transform="translate(-269.584 -292.721)" fill="#ffb600"/>
  <path id="Path_157158" data-name="Path 157158" d="M367.546,341.319c2.816-.062,5.64-.01,8.458-.026a.836.836,0,1,1-.013,1.666q-4.1,0-8.191,0a.84.84,0,0,1-.863-1.031A.827.827,0,0,1,367.546,341.319Z" transform="translate(-331.077 -307.959)" fill="#ffb600"/>
  <path id="Path_157159" data-name="Path 157159" d="M302.379,375.8a.829.829,0,0,1,1.3.313.885.885,0,0,1-.283,1.012c-.8.792-1.59,1.6-2.394,2.387a.825.825,0,0,1-1.078.07c-.282-.239-.524-.521-.793-.773a.949.949,0,0,1-.366-.728.837.837,0,0,1,.9-.813,1.224,1.224,0,0,1,.757.471C301.083,377.1,301.716,376.433,302.379,375.8Z" transform="translate(-269.592 -338.919)" fill="#ffb600"/>
  <path id="Path_157160" data-name="Path 157160" d="M367.447,392.575a1.591,1.591,0,0,1,.572-.065c2.7.008,5.4-.006,8.094.007a.831.831,0,0,1,.809.927.846.846,0,0,1-.895.734q-4.109,0-8.217,0a.833.833,0,0,1-.363-1.6Z" transform="translate(-331.097 -354.179)" fill="#ffb600"/>
  <path id="Path_157161" data-name="Path 157161" d="M302.272,427.057a.853.853,0,0,1,.812-.273.837.837,0,0,1,.654.882.951.951,0,0,1-.334.618c-.8.795-1.595,1.6-2.4,2.392a.825.825,0,0,1-1.092.066c-.247-.209-.458-.457-.694-.678a1.145,1.145,0,0,1-.451-.731.837.837,0,0,1,.905-.9,1.23,1.23,0,0,1,.75.47Q301.349,427.984,302.272,427.057Z" transform="translate(-269.586 -385.087)" fill="#ffb600"/>
  <path id="Path_157162" data-name="Path 157162" d="M367.449,443.775a1.592,1.592,0,0,1,.564-.065c2.7.009,5.4-.006,8.1.007a.831.831,0,0,1,.795,1,.847.847,0,0,1-.882.664q-4.109,0-8.219,0a.844.844,0,0,1-.86-.662A.833.833,0,0,1,367.449,443.775Z" transform="translate(-331.097 -400.379)" fill="#ffb600"/>
</svg>
