<svg xmlns="http://www.w3.org/2000/svg" width="37.5" height="50" viewBox="0 0 37.5 50">
  <g id="t1-ic1" transform="translate(-64.031)">
    <path id="Path_157147" data-name="Path 157147" d="M81.486,0h.946a23.216,23.216,0,0,1,5.094.834A4.924,4.924,0,0,0,91.392.609a1.222,1.222,0,0,1,1.758.531A10.147,10.147,0,0,1,93.673,7.5a6.392,6.392,0,0,0-.235,1.383c-.077,1.424-.168,2.847-.236,4.271A3.524,3.524,0,0,1,92.015,19a3.844,3.844,0,0,1-1.541.226,7.869,7.869,0,0,1-3.066,5.041q0,.967,0,1.933c2.946,1.134,5.887,2.281,8.832,3.417a10.854,10.854,0,0,1,1.947.881,7.327,7.327,0,0,1,3.33,6.022q.007,1.717,0,3.434a.739.739,0,0,1-.6.758.725.725,0,0,1-.851-.663c-.031-1.241.014-2.485-.021-3.728a5.758,5.758,0,0,0-3.676-5.083c-1.934-.741-3.861-1.5-5.794-2.242-1.234,1.014-2.458,2.04-3.692,3.054a1.521,1.521,0,0,1-1.519.2q-.248.391-.5.779.8,7.755,1.612,15.507,3.85,0,7.7,0,0-6.3,0-12.6a.746.746,0,0,1,.606-.8.731.731,0,0,1,.853.717c.011,4.228,0,8.456,0,12.685,1.283,0,2.566.007,3.849,0a.541.541,0,0,0,.564-.578c.01-1.5-.006-3.006,0-4.509a.731.731,0,1,1,1.46,0c.007,1.469,0,2.938,0,4.407A2.05,2.05,0,0,1,99.7,50h-23a.757.757,0,0,1-.621-.786.726.726,0,0,1,.725-.674c.756-.016,1.513,0,2.27-.006q.806-7.752,1.612-15.5-.25-.39-.5-.781a1.523,1.523,0,0,1-1.518-.2c-1.238-1.017-2.465-2.049-3.7-3.066-1.9.739-3.8,1.485-5.707,2.225A5.774,5.774,0,0,0,65.5,36.528q-.009,5.714,0,11.431a.54.54,0,0,0,.567.572c1.282.01,2.563,0,3.846,0q0-6.3,0-12.6a.736.736,0,1,1,1.464,0q0,6.3,0,12.6c.681.009,1.362-.013,2.042.008a.726.726,0,0,1,.69.868.8.8,0,0,1-.575.59H65.868a2.029,2.029,0,0,1-1.832-1.948q-.01-5.764,0-11.53a7.224,7.224,0,0,1,4.233-6.5c3.29-1.293,6.587-2.565,9.874-3.863,0-.629,0-1.258,0-1.887a7.689,7.689,0,0,1-3.068-5.052,4.027,4.027,0,0,1-1.3-.146,3.525,3.525,0,0,1-1.422-5.929c-.09-1.942-.239-3.883-.256-5.828a2.807,2.807,0,0,1,.666-1.905,3.2,3.2,0,0,1,1.615-.931.873.873,0,0,0,.595-.577,6.048,6.048,0,0,1,2.1-2.59A8.42,8.42,0,0,1,81.486,0M79.479,1.775a4.775,4.775,0,0,0-3.1,2.582,2.569,2.569,0,0,1-.972,1.265c-.429.3-1.012.285-1.411.639a1.291,1.291,0,0,0-.434,1.064c.016,1.666.135,3.329.216,4.993a4.385,4.385,0,0,1,1.214-.137,5.726,5.726,0,0,1,.113-1.624,2.536,2.536,0,0,1,2.9-1.729,22.456,22.456,0,0,0,8.566.193A6.12,6.12,0,0,1,88.357,8.8a2.538,2.538,0,0,1,2.049,1.628,5.02,5.02,0,0,1,.157,1.754,4.291,4.291,0,0,1,1.211.136c.06-1.013.115-2.025.173-3.038a8.541,8.541,0,0,1,.246-1.9A8.788,8.788,0,0,0,91.919,2a5.3,5.3,0,0,1-2.888.565A33.218,33.218,0,0,1,85.21,1.8a12.566,12.566,0,0,0-5.73-.023m-2.326,8.537a1.067,1.067,0,0,0-.694,1.01q0,3.422,0,6.845a6.228,6.228,0,0,0,2.622,4.957,6.578,6.578,0,0,0,4.674,1.11,6.309,6.309,0,0,0,5.342-6.17q0-3.374,0-6.748a1.07,1.07,0,0,0-1.255-1.052,23.9,23.9,0,0,1-9.373.153,2.593,2.593,0,0,0-1.316-.105m-4.02,4.165a2.06,2.06,0,0,0-.026,2.419,2.115,2.115,0,0,0,1.885.864q0-2.055,0-4.112a2.1,2.1,0,0,0-1.858.829m17.431-.829q0,2.057,0,4.112a2.1,2.1,0,0,0,1.922-.922,2.059,2.059,0,0,0-.062-2.358,2.1,2.1,0,0,0-1.86-.832M79.607,25.11c0,.444.007.89-.011,1.334.764.662,1.594,1.254,2.308,1.971q.873.007,1.747,0c.716-.712,1.543-1.3,2.3-1.965-.019-.44-.011-.882-.013-1.322a8.146,8.146,0,0,1-6.336-.018m-3.079,3.26c1.015.833,2.019,1.681,3.035,2.513.372-.545.737-1.095,1.11-1.639-.678-.569-1.36-1.132-2.042-1.7-.7.278-1.4.546-2.1.821m10.37-.8c-.672.556-1.342,1.114-2.014,1.669q.552.825,1.109,1.646,1.507-1.248,3.013-2.5c-.7-.275-1.4-.553-2.108-.817M82,29.884c-.259.409-.537.807-.807,1.208.214.344.437.682.648,1.026q.938.01,1.876,0c.212-.345.436-.683.649-1.025-.27-.4-.548-.8-.808-1.209q-.779,0-1.56,0m.109,3.7q-.025.212-.047.428c.529.538,1.066,1.069,1.6,1.6q-.1-1.015-.211-2.031H82.107M81.866,35.9q-.1.945-.2,1.892,1.238,1.239,2.477,2.477-.12-1.167-.243-2.335-1.017-1.017-2.035-2.033m-.394,3.773q-.091.875-.183,1.75,1.658,1.663,3.321,3.32c-.1-.722-.112-1.465-.253-2.174-.948-.979-1.925-1.931-2.886-2.9M81.1,43.333c-.073.621-.133,1.244-.2,1.866q1.667,1.667,3.333,3.335h.774c-.062-.488-.081-.983-.165-1.468-.415-.467-.882-.887-1.315-1.337-.815-.793-1.589-1.632-2.43-2.4M80.7,47.08q-.078.727-.151,1.455h1.607C81.674,48.049,81.189,47.563,80.7,47.08Z" fill="#ffb600"/>
  </g>
</svg>
