<svg xmlns="http://www.w3.org/2000/svg" width="33.373" height="50" viewBox="0 0 33.373 50">
  <g id="t2-ic1" transform="translate(-84.944)">
    <path id="Path_157144" data-name="Path 157144" d="M99.63,0h.482a10.677,10.677,0,0,1,5.874,2.03,10.511,10.511,0,0,1,4.188,6.837,13.751,13.751,0,0,1,.146,1.858,1.891,1.891,0,0,1,1.414.856,2.811,2.811,0,0,1,.266,1.6c-.013.849.019,1.7-.012,2.546a1.125,1.125,0,0,1-.531.865,3.227,3.227,0,0,1-.92,2.353c-.012.846.019,1.693-.034,2.539a10.634,10.634,0,0,1-2.787,6.545,10.94,10.94,0,0,1-3.248,2.442c0,.657,0,1.314,0,1.972,1.259.567,2.532,1.1,3.794,1.666a12.058,12.058,0,0,1,1.482.792c0-2.552,0-5.1,0-7.653a2.431,2.431,0,0,1,.983-2.032c.235-.2.612-.256.716-.579A3.567,3.567,0,0,1,118,24.571a4.8,4.8,0,0,1,.314,2.091q0,10.885,0,21.771a3.654,3.654,0,0,1-.082,1.145.792.792,0,0,1-.6.422H86a1.146,1.146,0,0,1-1.045-1.166c.008-1.822-.044-3.646.03-5.467a10.552,10.552,0,0,1,1.239-4.489A10.842,10.842,0,0,1,91,34.261c1.362-.628,2.753-1.2,4.121-1.812-.007-.661,0-1.322,0-1.982a10.82,10.82,0,0,1-5.842-7.506,19.235,19.235,0,0,1-.227-4.008,3.428,3.428,0,0,1-.722-1.121,4.459,4.459,0,0,1-.2-1.237,1.127,1.127,0,0,1-.525-.86c-.031-.946,0-1.895-.015-2.842a2.171,2.171,0,0,1,.339-1.419,1.961,1.961,0,0,1,1.349-.754A10.692,10.692,0,0,1,90.357,5.9a.726.726,0,0,1,1.229-.045c.245.337.048.751-.095,1.085a9.363,9.363,0,0,0-.762,3.8c.81.019,1.621-.027,2.43.021a.715.715,0,0,1,.628.857.727.727,0,0,1-.725.581c-1.21.027-2.421-.011-3.631.014a.333.333,0,0,0-.375.378c-.019.881,0,1.762-.006,2.644h21.484c0-.782,0-1.563,0-2.346a1.541,1.541,0,0,0-.06-.535c-.111-.177-.352-.133-.527-.149-1.044,0-2.087,0-3.13.006a1.169,1.169,0,0,1-.789-.186.736.736,0,0,1,0-1.1,1.176,1.176,0,0,1,.8-.189c.674,0,1.348,0,2.022,0a11.579,11.579,0,0,0-.162-1.848,9.038,9.038,0,0,0-3.219-5.409c-.1-.155-.16.039-.165.116-.264,1.421-.535,2.841-.8,4.262a1.1,1.1,0,0,1-.327.716.736.736,0,0,1-1.055-.178,1.048,1.048,0,0,1-.069-.777c.326-1.7.64-3.4.964-5.1a9.162,9.162,0,0,0-8.46-.011c.321,1.7.636,3.4.96,5.1a1.045,1.045,0,0,1-.062.787.73.73,0,0,1-1.045.188.989.989,0,0,1-.327-.652q-.422-2.282-.854-4.562c-.419.313-.763.712-1.169,1.039a.724.724,0,0,1-1.121-.5c-.065-.44.325-.729.6-1A10.665,10.665,0,0,1,99.63,0M89.594,16.7a1.627,1.627,0,0,0,.449,1.163,1.538,1.538,0,0,0,1.353.393A82.691,82.691,0,0,1,108.1,18.25,1.685,1.685,0,0,0,109.389,18a1.567,1.567,0,0,0,.6-1.3q-10.2,0-20.395,0m2,3.01a4.854,4.854,0,0,1-1.078-.006,12.644,12.644,0,0,0,.266,3.262,9.271,9.271,0,0,0,18.165-.692,15.61,15.61,0,0,0,.124-2.572,12.584,12.584,0,0,1-2.431-.118,80.921,80.921,0,0,0-15.046.127m21.466,5.01c.584.021,1.171-.021,1.755.021a.731.731,0,0,1,.646.75c.015.824,0,1.648,0,2.473a1.937,1.937,0,0,0,1.313-1.394,2.219,2.219,0,0,0-.509-2.015,2.142,2.142,0,0,0-3.208.165m-1.818,2.639a.98.98,0,0,0,.948.756c.6.02,1.208,0,1.813.007,0-.645,0-1.289,0-1.933-.635.011-1.27-.017-1.9.011a.962.962,0,0,0-.854,1.159m4.383,2.1a9.465,9.465,0,0,1-2.255.112,6.054,6.054,0,0,1-2.163-.177c0,2.215,0,4.43,0,6.645a5.391,5.391,0,0,1,.744.829.731.731,0,0,1-.633,1.029c-.395.014-.648-.324-.907-.566a9.793,9.793,0,0,0-1.276-1.074q-1.582,2.728-3.162,5.459a2.344,2.344,0,0,1-.489.688.752.752,0,0,1-.832,0c-.67-.4-1.322-.821-1.991-1.221q.564,3.672,1.134,7.343,4.69,0,9.381,0c0-1.532,0-3.063,0-4.6a9.242,9.242,0,0,0-.745-3.632c-.128-.31-.29-.68-.082-.993a.725.725,0,0,1,1.248.012,10.719,10.719,0,0,1,1.041,4.517c.015,1.563,0,3.128.006,4.692.737,0,1.476.006,2.213-.006q-.013-9.816,0-19.633a3.878,3.878,0,0,1-1.223.567M96.583,31.049q0,1.274,0,2.549,1.6,1.91,3.21,3.817,1.61-1.9,3.212-3.815,0-1.274,0-2.548a10.955,10.955,0,0,1-6.42,0m-4.858,4.485q1.525,2.631,3.051,5.262,1.953-1.213,3.909-2.42-1.622-1.931-3.245-3.859a4.172,4.172,0,0,1-.312-.47c-1.133.5-2.271.983-3.4,1.487m11.884-.38q-1.354,1.611-2.707,3.222c1.3.809,2.605,1.61,3.906,2.42q1.531-2.628,3.051-5.262c-1.129-.5-2.269-.985-3.4-1.488a7.433,7.433,0,0,1-.853,1.108M88.486,38.1a9.3,9.3,0,0,0-2.064,5.749c-.016,1.563,0,3.126-.007,4.688q4.69,0,9.381,0,.567-3.671,1.133-7.343c-.628.374-1.244.765-1.865,1.148a.792.792,0,0,1-1.271-.312q-1.666-2.884-3.34-5.764A9.784,9.784,0,0,0,88.486,38.1m10.08,2.077q-.645,4.179-1.288,8.358,2.515,0,5.032,0-.652-4.178-1.289-8.357-.614-.381-1.228-.758Q99.178,39.795,98.566,40.175Z" fill="#ffb600"/>
    <path id="Path_157145" data-name="Path 157145" d="M208.473,86.72a3.013,3.013,0,1,1-2.281,2.29,3.032,3.032,0,0,1,2.281-2.29m.11,1.488a1.552,1.552,0,1,0,2.007.917A1.561,1.561,0,0,0,208.584,88.208Z" transform="translate(-109.34 -78.186)" fill="#ffb600"/>
    <path id="Path_157146" data-name="Path 157146" d="M292.882,468.023a2.4,2.4,0,0,1,.643-.053c1.632.01,3.265-.006,4.9.008a.728.728,0,1,1,0,1.455c-1.73.011-3.461,0-5.19,0a.776.776,0,0,1-.762-.408A.725.725,0,0,1,292.882,468.023Z" transform="translate(-187.194 -422.27)" fill="#ffb600"/>
  </g>
</svg>
