<svg xmlns="http://www.w3.org/2000/svg" width="400" height="530" viewBox="0 0 400 530">
  <g id="t3-i2" transform="translate(-180 -1719)">
    <rect id="Rectangle_36480" data-name="Rectangle 36480" width="400" height="530" transform="translate(180 1719)" fill="none"/>
    <g id="Group_118104" data-name="Group 118104" transform="translate(-3819 4946)">
      <g id="Group_118102" data-name="Group 118102">
        <path id="Trazado_179513" data-name="Trazado 179513" d="M4254.194-2699.369c-26.07-13.16-35.882-43.047-38.938-70.8-.511-4.621-1.725-9.417-.117-13.774s6.332-7.866,10.733-6.521c3.655,1.126,5.717,4.883,8.115,7.9a27.267,27.267,0,0,0,12.3,8.773c3.158,1.1,6.916,1.462,9.592-.512,3.655-2.778,3.319-8.335,2.632-12.911l-3.86-25.6a43.489,43.489,0,0,1-.585-13.818c.789-4.547,3.363-9.051,7.545-10.893s9.943-.117,11.507,4.226a40.889,40.889,0,0,1,.951,5.687c.409,1.887,1.593,3.861,3.48,4.138s3.553-1.3,4.737-2.836c4.05-5.308,6.4-11.7,8.554-18.1s4.167-12.853,7.735-18.511,8.919-10.528,15.426-11.844,14.1,1.711,16.684,7.91-.22,13.335-3.568,19.155a103.6,103.6,0,0,1-18.365,23.4,8.475,8.475,0,0,0-3.012,4.387c-.556,3.2,2.778,5.848,5.936,6.389,3.583.644,7.238-.248,10.879-.351s7.735.922,9.577,4.109c2.544,4.387-.658,9.885-4.05,13.657a88.617,88.617,0,0,1-23.775,18.731c-3.188,1.71-6.58,3.319-8.964,6.068s-3.421,7.121-1.315,10.118,6.477,3.422,9.913,2.252,6.331-3.539,9.5-5.293c5.966-3.29,14.154-4.036,19.009.819a14.621,14.621,0,0,1,3.334,12.531,33.78,33.78,0,0,1-5.308,12.341,88.991,88.991,0,0,1-33.806,31.875c-13.876,7.18-27.211,10.513-42.506,7.311" fill="#f5f5f5"/>
        <path id="Trazado_179514" data-name="Trazado 179514" d="M4258.786-2717.705a413.351,413.351,0,0,1,9.913-46.57q1.622-6.128,3.232-12.078c1.067-3.948,2.12-7.881,3.392-11.7a208.328,208.328,0,0,1,8.554-21.289c3.056-6.638,6.185-12.838,9.168-18.6s5.849-11.084,8.7-15.821a163.452,163.452,0,0,1,15.046-21.319c1.959-2.369,3.538-4.152,4.635-5.351l1.243-1.36a3.7,3.7,0,0,1,.453-.439,2.869,2.869,0,0,1-.38.5l-1.184,1.462c-1.053,1.229-2.588,3.056-4.518,5.454a172.669,172.669,0,0,0-14.769,21.421c-2.749,4.767-5.673,10.06-8.6,15.836s-6.039,11.961-9.066,18.6a207.637,207.637,0,0,0-8.481,21.216c-1.257,3.758-2.31,7.648-3.377,11.625s-2.12,8-3.217,12.063a428.731,428.731,0,0,0-9.958,46.468" fill="#e0e0e0"/>
        <path id="Trazado_179515" data-name="Trazado 179515" d="M4275.557-2788.08a9.786,9.786,0,0,1-.731-1.886c-.424-1.243-.98-3.041-1.623-5.279-1.316-4.459-2.924-10.7-4.635-17.546s-3.422-13.087-4.8-17.546c-.673-2.223-1.243-4.021-1.652-5.249a9.367,9.367,0,0,1-.541-1.945,8.837,8.837,0,0,1,.848,1.828c.511,1.2,1.169,2.924,1.915,5.176,1.535,4.386,3.305,10.6,5.045,17.546s3.216,12.94,4.386,17.634c.541,2.12,1.009,3.9,1.375,5.337a8.776,8.776,0,0,1,.409,1.93Z" fill="#e0e0e0"/>
        <path id="Trazado_179516" data-name="Trazado 179516" d="M4332.89-2807.615a12.5,12.5,0,0,1-2.311.629c-1.462.351-3.655.848-6.3,1.55-5.307,1.36-12.589,3.509-20.47,6.214s-14.988,5.5-20.032,7.647c-2.545,1.068-4.562,1.974-5.966,2.6a11.627,11.627,0,0,1-2.223.892,11.889,11.889,0,0,1,2.077-1.2c1.36-.716,3.363-1.711,5.848-2.851,5-2.3,12.064-5.176,20-7.911a208.729,208.729,0,0,1,20.632-5.98c2.676-.629,4.869-1.053,6.39-1.3a13.8,13.8,0,0,1,2.354-.293Z" fill="#e0e0e0"/>
        <path id="Trazado_179517" data-name="Trazado 179517" d="M4259.356-2718.889a3.034,3.034,0,0,1-.512-.658l-1.316-1.989c-1.126-1.725-2.7-4.284-4.62-7.442-3.817-6.346-8.773-15.265-14.2-25.194s-10.235-18.877-13.979-25.281l-4.386-7.589c-.483-.819-.863-1.462-1.185-2.061a2.907,2.907,0,0,1-.365-.761,3.08,3.08,0,0,1,.512.658l1.316,1.989c1.125,1.725,2.705,4.284,4.62,7.442,3.816,6.346,8.773,15.266,14.2,25.194s10.235,18.877,13.979,25.3c1.8,3.1,3.275,5.673,4.386,7.574.483.819.863,1.462,1.184,2.062A2.9,2.9,0,0,1,4259.356-2718.889Z" fill="#e0e0e0"/>
        <path id="Trazado_179518" data-name="Trazado 179518" d="M4334.015-2755.444a3.089,3.089,0,0,1-.731.424l-2.164,1.1-8,3.933c-6.741,3.319-16.011,8.013-26.246,13.16s-19.55,9.811-26.32,13c-3.407,1.579-6.17,2.851-8.1,3.67l-2.237.95a3.156,3.156,0,0,1-.805.278,3.379,3.379,0,0,1,.732-.438l2.164-1.082,8-3.934c6.74-3.319,16.011-8.013,26.246-13.159s19.55-9.8,26.32-12.985c3.421-1.594,6.185-2.851,8.115-3.684l2.237-.936a2.565,2.565,0,0,1,.789-.293Z" fill="#e0e0e0"/>
      </g>
      <path id="Trazado_179524" data-name="Trazado 179524" d="M4272.646-3156.791a32.793,32.793,0,0,1,6.112-6.325l-1.488-7.937,12.277-5.315,4.766,6.52a32.562,32.562,0,0,1,8.716-.124l4.571-6.662,12.4,4.943-1.258,7.973a32.719,32.719,0,0,1,6.236,6.076l7.955-1.47,5.314,12.277-6.519,4.748a32.609,32.609,0,0,1,.124,8.717l6.661,4.57-4.943,12.4-7.99-1.258a32.241,32.241,0,0,1-6.076,6.254l1.488,7.937-12.278,5.315-4.8-6.5a32.6,32.6,0,0,1-8.716.124l-4.571,6.661-12.4-4.943,1.257-7.972a32.829,32.829,0,0,1-6.253-6.077l-7.937,1.471-5.315-12.278,6.537-4.748a32.6,32.6,0,0,1-.124-8.716l-6.661-4.571,4.943-12.4,7.972,1.258Zm13.34,13.765c-7.111,17.185,20.044,27.957,26.646,10.569C4319.739-3149.641,4292.59-3160.412,4285.986-3143.026Z" fill="#8640c9"/>
      <path id="Trazado_179525" data-name="Trazado 179525" d="M4285.986-3143.026a4,4,0,0,1,.3-.868,11.391,11.391,0,0,1,1.275-2.321,14.179,14.179,0,0,1,7.813-5.616,14.685,14.685,0,0,1,18.153,10.088,14.685,14.685,0,0,1-6.425,16.54,14.378,14.378,0,0,1-8.291,2.214,14.675,14.675,0,0,1-7.423-2.3,14.527,14.527,0,0,1-6.5-14.332,11.58,11.58,0,0,1,.673-2.569,4.014,4.014,0,0,1,.372-.833c.107,0-.425,1.2-.691,3.437a14.275,14.275,0,0,0,2.02,9.071,14,14,0,0,0,19.22,4.728l.2-.122a13.853,13.853,0,0,0,6.059-15.253,13.7,13.7,0,0,0-4.181-6.892,13.939,13.939,0,0,0-13-3.1,14.416,14.416,0,0,0-7.706,5.208C4286.5-3144.2,4286.093-3142.973,4285.986-3143.026Z" fill="#5a189a"/>
      <path id="Trazado_179526" data-name="Trazado 179526" d="M4272.646-3156.791h-.5l-1.524-.2-5.988-.868.16-.089c-1.241,3.207-2.87,7.388-4.855,12.4v-.284l6.679,4.553.142.089v.159a32.213,32.213,0,0,0,.16,8.628v.2l-.142.106-6.52,4.766.107-.39q2.532,5.793,5.314,12.26l-.389-.213,7.937-1.488h.23l.142.195a32.657,32.657,0,0,0,6.183,5.988l.195.142v.23c-.39,2.481-.815,5.209-1.241,7.99l-.265-.443,12.4,4.926-.514.141,4.553-6.661.16-.213h.266a32.652,32.652,0,0,0,8.592-.141h.266l.159.212,4.766,6.538-.549-.16,12.277-5.315-.266.514c-.478-2.516-.974-5.209-1.488-7.937v-.283l.213-.178a31.894,31.894,0,0,0,5.988-6.147h0c.868-.372.23-.106.443-.177h.992l.992.159,2,.319,3.986.62-.5.284,4.943-12.4.159.549-6.661-4.57-.213-.16v-.266a32.348,32.348,0,0,0-.106-8.592v-.266l.23-.159,6.538-4.748-.16.531-5.315-12.3.461.248-7.937,1.471h-.248l-.159-.195a31.875,31.875,0,0,0-6.166-6.024l-.194-.142v-.23c.425-2.746.85-5.315,1.257-7.972l.248.407-12.4-4.96.425-.142-4.588,6.661-.107.16h-.212a32.538,32.538,0,0,0-8.628.088h-.177l-.107-.159-4.712-6.378.319.089-12.295,5.226.124-.23,1.417,7.954v.089h0a34.2,34.2,0,0,0-4.766,4.482l-1.045,1.24a2.935,2.935,0,0,1-.354.408,2.944,2.944,0,0,1,.283-.461c.213-.283.532-.726.992-1.276a31.451,31.451,0,0,1,4.713-4.623v.141c-.425-2.161-.921-4.765-1.541-7.937v-.159h.159l12.242-5.315h.195l.142.159,4.783,6.52-.3-.124a33.713,33.713,0,0,1,8.858-.159l-.319.141,4.553-6.661.16-.23.265.106,12.4,4.907.283.107v.3c-.407,2.6-.815,5.315-1.24,7.99l-.159-.39a33.546,33.546,0,0,1,6.342,6.148l-.407-.16,7.937-1.488h.336l.142.3c1.772,4,3.543,8.079,5.315,12.278l.142.319-.284.212-6.874,4.589.177-.426a33.387,33.387,0,0,1,.124,8.859l-.195-.426,6.662,4.571.3.2-.124.337-4.943,12.4-.142.337h-.354l-3.986-.638-2-.3-.992-.16-.514-.088h-.478l.425-.177h0a33.122,33.122,0,0,1-6.148,6.324l.16-.443c.513,2.729,1.01,5.439,1.47,7.937v.372l-.336.142-12.136,5.226-.337.142-.212-.283c-1.63-2.268-3.26-4.5-4.748-6.538l.425.178a32.885,32.885,0,0,1-8.858.124l.407-.195-4.571,6.572-.195.284-.318-.124-12.4-4.961-.3-.124v-.319c.443-2.781.868-5.509,1.258-7.99l.159.39a33.149,33.149,0,0,1-6.307-6.165l.372.142-7.954,1.47h-.284l-.106-.284c-1.772-4.3-3.543-8.415-5.315-12.277l-.106-.248.212-.159,6.555-4.731-.124.284a33.339,33.339,0,0,1-.106-8.858l.124.265-6.644-4.606-.141-.106v-.177c2.055-5.032,3.738-9.213,5.031-12.4v-.106h.124l5.9,1.01,1.523.265Z" fill="#5a189a"/>
      <path id="Trazado_179527" data-name="Trazado 179527" d="M4285.986-3143.026a17.009,17.009,0,0,1,.8-1.594,14.308,14.308,0,0,1,19.471-5.513,14.31,14.31,0,0,1,5.513,19.471,14.31,14.31,0,0,1-13.646,7.284,14.475,14.475,0,0,1-12.862-10.63,15.235,15.235,0,0,1-.532-4.571,16.862,16.862,0,0,1,.284-2.321,4.218,4.218,0,0,1,.266-1.134l.141-.566.089-.266v-.124h0c0-.107,0,.3.3.39l.549-.213a7.7,7.7,0,0,0-.655,1.772,13.526,13.526,0,0,0,.531,8.734,14.176,14.176,0,0,0,5.422,6.572,14.445,14.445,0,0,0,7.936,2.268,14.332,14.332,0,0,0,14.036-14.623A14.333,14.333,0,0,0,4299-3152.126a14.33,14.33,0,0,0-9.014,3.431,14.027,14.027,0,0,0-3.26,4,11.342,11.342,0,0,0-.584,1.222,2.653,2.653,0,0,1-.195.426,1.573,1.573,0,0,1,.106-.461,8.656,8.656,0,0,1,.514-1.276,13.552,13.552,0,0,1,3.171-4.181,14.743,14.743,0,0,1,7.53-3.543,14.934,14.934,0,0,1,16.971,12.573q.1.708.143,1.423a15.06,15.06,0,0,1-14.115,15.948,15.06,15.06,0,0,1-14.887-9.411,14.581,14.581,0,0,1-.585-9.319,9.05,9.05,0,0,1,.762-1.984l.177-.336.355.124c.318.124.372.549.336.46s0,.107,0,.124v.266l-.088.266-.142.549c-.089.354-.177.709-.248,1.081a15.205,15.205,0,0,0-.266,2.179,14.53,14.53,0,0,0,.5,4.287,13.547,13.547,0,0,0,16.712,9.366,13.547,13.547,0,0,0,9.365-16.712,13.545,13.545,0,0,0-14.721-9.768,14.178,14.178,0,0,0-7.246,3.065,14.614,14.614,0,0,0-3.313,3.791C4286.323-3143.539,4286.075-3142.955,4285.986-3143.026Z" fill="#5a189a"/>
      <path id="Trazado_179528" data-name="Trazado 179528" d="M4272.646-3156.791l-8.079-1.294h.107l-5.05,12.685v-.2l6.786,4.66-.284.248-.106-.23h.372a32.807,32.807,0,0,0,.124,8.716h-.425l.106-.248.337.266-6.715,4.889v-.283l5.492,12.72-.3-.159,8.2-1.524v.55l-.337-.125.337-.442a32.486,32.486,0,0,0,6.254,6.076l-.461.355-.142-.337h.585c-.407,2.5-.85,5.315-1.311,8.256l-.2-.337,12.986,5.156-.407.124,4.748-6.91.425.5-.372.178-.089-.656a32.87,32.87,0,0,0,8.717-.142v.691l-.372-.159.425-.549,4.943,6.8-.443-.124,12.862-5.563-.213.425c-.478-2.516-1.01-5.315-1.541-8.256h.744l-.159.408-.6-.443a33.687,33.687,0,0,0,6.095-6.272l.46.62-.407.16v-.762l8.309,1.293-.443.248,5.173-13.021.142.5-6.927-4.748.62-.532.177.39-.8.124a32.742,32.742,0,0,0-.142-8.7l.815.089-.16.39-.637-.514,6.767-4.961-.141.532c-1.772-3.986-3.544-8.38-5.546-12.827l.479.248-8.238,1.542v-.851l.372.142-.514.691a32.744,32.744,0,0,0-6.236-6.059l.673-.514.142.337-.851.106c.39-2.569.833-5.4,1.276-8.256l.283.478-12.933-5.1.55-.159-4.7,6.874-.567-.674.283-.124.142.869a32.569,32.569,0,0,0-8.681.159l.124-.886.248.106-.549.691-4.89-6.661.549.142-12.56,5.492.265-.514c.5,2.551,1.028,5.315,1.559,8.079h-.885v-.142l.726.531a29.4,29.4,0,0,0-5.315,5.315l-.372.479h-.248c.142,0-.408-.479-.6-.266h0l.8-.957a17.446,17.446,0,0,1,1.771-1.878,33.222,33.222,0,0,1,3.739-3.348l-.178.443c-.478-2.711-.956-5.315-1.435-8.026l.869.124-.124.213-.585-.638,12.313-5.315v.868h-.3l.5-.726,4.836,6.679-.443-.177a33.387,33.387,0,0,1,9.106-.106l-.442.194,4.694-6.785.514.691-.39.106v-.85l12.4,4.96-.567.656-.213-.372.851-.16c-.443,2.746-.886,5.475-1.311,8.185l-.178-.425a32.144,32.144,0,0,1,6.555,6.414l-.425-.178L4333-3158.9l-.124.833-.425-.23.62-.549,5.315,12.277h-.815l.142-.478.673.478c-2.3,1.648-4.517,3.278-6.732,4.89l.159-.408a32.627,32.627,0,0,1,.124,9.195l-.177-.407,6.857,4.73-.638.46-.142-.5h.78c-1.684,4.252-3.331,8.363-4.943,12.4l-.585-.5.443-.266.142.762-8.221-1.311.372-.142a33.333,33.333,0,0,1-6.413,6.591l.142-.39c.531,2.852,1.027,5.545,1.506,8.185l-.709-.107.248-.442.478.531-12.277,5.315v-.691l.478.124-.389.567-4.908-6.715.355.142a32.661,32.661,0,0,1-9.178.124l.319-.142-4.694,6.839-.373-.5.443-.142v.62l-12.4-4.943.39-.443.23.408-.585.106c.461-3.012.886-5.634,1.276-8.2l.124.3a33.462,33.462,0,0,1-6.537-6.36l.283.106-8.149,1.506v-.5l.354.2-.354.336c-2.02-4.641-3.7-8.592-5.315-12.277h.443l-.089.354-.372-.248,6.661-4.854-.088.212a33.1,33.1,0,0,1-.142-9.017v.177l-6.785-4.642.248-.177v.248h-.3l4.925-12.4.141.124h-.141v-.177l7.99,1.222a15.373,15.373,0,0,1-1.985-.195l-6.094-.921h-.3l.266-.142.141-.088.248-.142-.106.266c-1.187,3.047-2.728,7.086-4.819,12.4l-.159.443-.142-.461v-.248l-.142-.443.39.266,6.8,4.606h0v.124a32.414,32.414,0,0,0,.177,8.859v.124l-.106.088-6.626,4.89-.549.39.177-.656v-.354l.177-.638.284.62,5.315,12.242.3.709-.673-.372-.355-.177-.673-.355.762-.141,8.132-1.56h.159l.106.142a32.857,32.857,0,0,0,6.449,6.219l.142.106v.2l-1.258,8.185-.142.886-.443-.78-.23-.39-.443-.779.833.336,12.4,4.89.886.354-.921.284-.443.142-.921.283.531-.8,4.695-6.856.124-.178h.2a32.071,32.071,0,0,0,9-.141h.212l.124.177,4.908,6.714.62.851-1.01-.284-.478-.124-1.01-.283.956-.408,12.26-5.315,1.01-.425-.514.957-.248.461-.514.956-.194-1.08c-.5-2.64-.993-5.315-1.524-8.185v-.231l.2-.141a32.355,32.355,0,0,0,6.254-6.449l.141-.195h.248l8.416,1.4,1.134.178-.993.567-.442.248-1.01.584.425-1.08,4.925-12.4.443-1.1.354,1.134.142.478.354,1.134-.992-.673-6.856-4.7-.213-.16v-.248a32.352,32.352,0,0,0-.124-8.964v-.266l.213-.142,6.732-4.907.992-.726-.319,1.187a.636.636,0,0,1-.141.478l-.319,1.187-.479-1.134q-2.656-6.059-5.314-12.277l-.5-1.152,1.117.585.407.23,1.116.585-1.24.23-8.167,1.524h-.266l-.159-.213a31.9,31.9,0,0,0-6.4-6.236l-.213-.16v-.265c.426-2.711.869-5.439,1.294-8.185l.212-1.258.638,1.1.195.372.656,1.134-1.205-.478-12.4-4.978-1.187-.479,1.241-.372.372-.106,1.24-.39-.744,1.081-4.677,6.785-.16.231h-.266a32.21,32.21,0,0,0-8.858.106h-.283l-.16-.213c-1.612-2.214-3.206-4.447-4.836-6.679l-.762-1.063,1.258.355h.3l1.258.354-1.205.514-12.295,5.315-1.205.5.62-1.152.107-.2.62-1.169.23,1.311q.717,3.96,1.453,8.025v.266l-.213.177a33.364,33.364,0,0,0-3.543,3.26c-.567.6-1.116,1.205-1.648,1.772l-.815.956v.089h-.106c-.195.213-.744-.283-.6-.266h0v-.088a1.514,1.514,0,0,1,0-.266,1.768,1.768,0,0,1,.248-.514l.39-.514a31.169,31.169,0,0,1,5.4-5.492l1.311-1.045-.585,1.577v.124l-.584,1.523-.3-1.594c-.532-2.781-1.063-5.527-1.559-8.079v-.372l.336-.141,12.561-5.475.354-.141.213.283,4.89,6.679.974,1.329-1.524-.638-.248-.106-1.5-.638,1.612-.248a33.514,33.514,0,0,1,8.858-.142l1.63.2-1.506.673-.266.124-1.488.674.921-1.347,4.7-6.874.195-.3.337.142,12.915,5.1.336.142v.354l-1.275,8.238-.248,1.595-.62-1.489-.142-.336-.6-1.471,1.293.939a33.409,33.409,0,0,1,6.4,6.219l.993,1.258-1.489-.567-.354-.142-1.488-.549,1.559-.3,8.238-1.542h.337l.141.319c1.931,4.447,3.827,8.858,5.546,12.827l.141.319-.283.212-6.785,4.943-1.241.9.6-1.418.159-.372.585-1.417.23,1.506a33.8,33.8,0,0,1,.124,8.947l-.177,1.488-.762-1.205-.177-.39-.62-1.364,1.24.85,6.927,4.748.266.2-.107.3c-1.771,4.536-3.543,9-5.19,13.022l-.124.3h-.319l-8.309-1.311-1.4-.213,1.311-.549.408-.159,1.311-.532-.851,1.152a32.878,32.878,0,0,1-6.236,6.378l-1.1.868.5-1.311.159-.39.5-1.311.248,1.382c.532,2.888,1.063,5.74,1.524,8.256v.3l-.284.124-12.862,5.528-.283.106-.16-.231-4.942-6.8-.744-1.027,1.169.5.39.159,1.169.5-1.258.178a33.543,33.543,0,0,1-8.858.106l-1.223-.142,1.117-.514.372-.159,1.133-.514-.708,1.028-4.766,6.891-.142.231-.248-.107-12.968-5.19-.23-.107v-.248c.478-2.905.921-5.74,1.328-8.256l.178-1.063.389.992.142.355.408.992-.851-.638a33.239,33.239,0,0,1-6.36-6.218l-.62-.815.957.372.319.124.956.354-1.01.195-8.2,1.488h-.213v-.195l-5.439-12.755v-.178l.16-.106,6.732-4.854.638-.461-.3.709-.106.266-.3.726-.124-.78a33.707,33.707,0,0,1,0-8.858v-.691l.283.638.107.23.283.638-.567-.407-6.945-4.731h-.106v-.124l5.173-12.614v-.088h.142l6.024,1.08,1.523.284Z" fill="#5a189a"/>
      <g id="freepik--Floor--inject-9">
        <path id="Trazado_179537" data-name="Trazado 179537" d="M4399-2698.506c0,.207-37.131.358-198.284.358s-199.716-.124-199.716-.358,38.52-.358,199.716-.358S4399-2698.7,4399-2698.506Z" fill="#263238"/>
      </g>
      <g id="freepik--Character--inject-9">
        <path id="Trazado_179583" data-name="Trazado 179583" d="M4199.45-2835.794c2.343,5.5,12.136,133.362,11.1,131.424l24.707-1.637,1.608-132.776Z" fill="#ffbe9d"/>
        <path id="Trazado_179584" data-name="Trazado 179584" d="M4236.023-2704.745l-.075-2.283-26.33.481.166,7.509h1.622c7.239.211,36.844.646,41.635-.645C4258.4-2701,4236.023-2704.745,4236.023-2704.745Z" fill="#ff6b00"/>
        <g id="Grupo_118102" data-name="Grupo 118102" opacity="0.3">
          <path id="Trazado_179585" data-name="Trazado 179585" d="M4219.276-2699.323a7.511,7.511,0,0,0-3.454-4.506,10.361,10.361,0,0,0-6.174-1.5l.151,6.008Z"/>
        </g>
        <g id="Grupo_118103" data-name="Grupo 118103" opacity="0.3">
          <path id="Trazado_179586" data-name="Trazado 179586" d="M4246.973-2702.6s7.855,1.712,6.909,2.793-30.881,1.5-44.1.812v-.481l34.906-.316S4245.441-2702.522,4246.973-2702.6Z"/>
        </g>
        <path id="Trazado_179587" data-name="Trazado 179587" d="M4209.393-2699.488h1.757l4.762.1h15.741c6.143,0,11.7-.285,15.725-.466l4.762-.24,1.292-.075h-1.307l-4.762.15c-4.025.135-9.582.286-15.725.376s-11.7.12-15.726.1h-6.519Z" fill="#263238"/>
        <path id="Trazado_179588" data-name="Trazado 179588" d="M4244.72-2699.458a8.335,8.335,0,0,1,.841-1.878,9.523,9.523,0,0,1,1.592-1.5,3.566,3.566,0,0,0-1.862,1.382A2.509,2.509,0,0,0,4244.72-2699.458Z" fill="#263238"/>
        <path id="Trazado_179589" data-name="Trazado 179589" d="M4236.91-2702.552a2.962,2.962,0,0,0,.811-.826c.375-.5.6-.947.525-.977s-.435.331-.8.842S4236.835-2702.582,4236.91-2702.552Z" fill="#263238"/>
        <path id="Trazado_179590" data-name="Trazado 179590" d="M4234.762-2703.438a4.525,4.525,0,0,0,.916-.511c.451-.33.751-.661.691-.706a2.309,2.309,0,0,0-.916.511C4235-2703.814,4234.7-2703.483,4234.762-2703.438Z" fill="#263238"/>
        <path id="Trazado_179591" data-name="Trazado 179591" d="M4233.365-2705.436a3.813,3.813,0,0,0,1.382.12,3.968,3.968,0,0,0,1.367-.135,3.452,3.452,0,0,0-1.382-.12A3.567,3.567,0,0,0,4233.365-2705.436Z" fill="#263238"/>
        <path id="Trazado_179592" data-name="Trazado 179592" d="M4232.869-2706.863a3,3,0,0,0,1.5.346,3.194,3.194,0,0,0,1.5-.2,8.717,8.717,0,0,0-1.5,0A12.186,12.186,0,0,0,4232.869-2706.863Z" fill="#263238"/>
        <path id="Trazado_179593" data-name="Trazado 179593" d="M4237.751-2704.43a6.085,6.085,0,0,0,1.682,0,12.079,12.079,0,0,0,1.787-.345,6.425,6.425,0,0,0,1.022-.361.827.827,0,0,0,.4-.435.525.525,0,0,0-.27-.556,3.515,3.515,0,0,0-3.8.811,2.106,2.106,0,0,0-.526.916.8.8,0,0,0,0,.376,3.7,3.7,0,0,1,.751-1.187,3.383,3.383,0,0,1,3.425-.706c.27.151.165.421-.121.571a5.868,5.868,0,0,1-.946.346,14.14,14.14,0,0,1-1.712.39C4238.4-2704.49,4237.751-2704.475,4237.751-2704.43Z" fill="#263238"/>
        <path id="Trazado_179594" data-name="Trazado 179594" d="M4238.186-2704.37a1.139,1.139,0,0,0,.181-.961,2.164,2.164,0,0,0-.5-1.006,1.727,1.727,0,0,0-1.412-.676.556.556,0,0,0-.517.592.411.411,0,0,0,.006.054,1.51,1.51,0,0,0,.3.615,4.629,4.629,0,0,0,.826.812,2.4,2.4,0,0,0,.976.54,10.468,10.468,0,0,1-.826-.661,5.776,5.776,0,0,1-.721-.826c-.24-.285-.4-.8,0-.871a1.6,1.6,0,0,1,1.127.571,2.12,2.12,0,0,1,.5.886,4.8,4.8,0,0,1,.06.931Z" fill="#263238"/>
        <path id="Trazado_179595" data-name="Trazado 179595" d="M4209.784-2705.361h1.937a9.767,9.767,0,0,1,4.266,1.367,7.25,7.25,0,0,1,2.718,3,11.9,11.9,0,0,1,.526,1.5v-.436a6.239,6.239,0,0,0-.315-1.156,6.862,6.862,0,0,0-2.734-3.154,9.319,9.319,0,0,0-4.506-1.337,9.64,9.64,0,0,0-1.5,0A1.851,1.851,0,0,0,4209.784-2705.361Z" fill="#263238"/>
        <path id="Trazado_179596" data-name="Trazado 179596" d="M4222.521-2701.471a17.809,17.809,0,0,0,3.845.256,17.188,17.188,0,0,0,3.815-.316c0-.075-1.713,0-3.83,0A37.673,37.673,0,0,0,4222.521-2701.471Z" fill="#263238"/>
        <path id="Trazado_179597" data-name="Trazado 179597" d="M4217.384-2701.4s.15.3.33.616.286.6.376.6.135-.346-.09-.706S4217.474-2701.441,4217.384-2701.4Z" fill="#263238"/>
        <path id="Trazado_179598" data-name="Trazado 179598" d="M4215.4-2703.333a1.523,1.523,0,0,0,.391.5c.27.226.555.361.615.3s-.12-.271-.39-.5S4215.461-2703.378,4215.4-2703.333Z" fill="#263238"/>
        <path id="Trazado_179599" data-name="Trazado 179599" d="M4212.607-2704.189c0,.075.376,0,.766.165s.661.27.736.225-.165-.345-.645-.466S4212.577-2704.279,4212.607-2704.189Z" fill="#263238"/>
        <path id="Trazado_179600" data-name="Trazado 179600" d="M4210.625-2704.58a.749.749,0,0,0,.345.24.822.822,0,0,0,.451,0c.03,0-.12-.18-.346-.24S4210.655-2704.655,4210.625-2704.58Z" fill="#263238"/>
        <path id="Trazado_179601" data-name="Trazado 179601" d="M4151.747-2835.178c.691,2.418,13.638,131.725,13.638,131.725l24.708-1.623,1.607-130.1Z" fill="#ffbe9d"/>
        <path id="Trazado_179602" data-name="Trazado 179602" d="M4190.844-2703.814l-.091-2.3-26.314.5.15,7.51h1.637c7.24.21,36.829.646,41.635-.631C4213.208-2700.074,4190.844-2703.814,4190.844-2703.814Z" fill="#ff6b00"/>
        <g id="Grupo_118104" data-name="Grupo 118104" opacity="0.3">
          <path id="Trazado_179603" data-name="Trazado 179603" d="M4174.1-2698.407a7.513,7.513,0,0,0-3.469-4.506,10.354,10.354,0,0,0-6.173-1.5l.15,6.008Z"/>
        </g>
        <g id="Grupo_118105" data-name="Grupo 118105" opacity="0.3">
          <path id="Trazado_179604" data-name="Trazado 179604" d="M4201.778-2701.666s7.855,1.712,6.909,2.779-30.866,1.5-44.1.811v-.481l34.906-.315S4200.261-2701.591,4201.778-2701.666Z"/>
        </g>
        <path id="Trazado_179605" data-name="Trazado 179605" d="M4164.213-2698.557h1.743l4.761.09h15.741c6.143,0,11.7-.285,15.726-.45l4.761-.241,1.292-.09h.45a1.781,1.781,0,0,0-.45,0h-1.307l-4.761.15c-4.011.136-9.568.286-15.711.391s-11.7.1-15.726.1h-6.008Z" fill="#263238"/>
        <path id="Trazado_179606" data-name="Trazado 179606" d="M4199.54-2698.542a7.19,7.19,0,0,1,.841-1.877,10.523,10.523,0,0,1,1.5-1.5,3.527,3.527,0,0,0-1.862,1.4,2.374,2.374,0,0,0-.481,1.983Z" fill="#263238"/>
        <path id="Trazado_179607" data-name="Trazado 179607" d="M4191.715-2701.621a3.113,3.113,0,0,0,.811-.841c.375-.5.6-.931.525-.976s-.435.345-.8.841S4191.64-2701.666,4191.715-2701.621Z" fill="#263238"/>
        <path id="Trazado_179608" data-name="Trazado 179608" d="M4189.567-2702.507a2.143,2.143,0,0,0,.916-.526c.451-.33.751-.661.691-.706a2.217,2.217,0,0,0-.9.511C4189.837-2702.9,4189.507-2702.567,4189.567-2702.507Z" fill="#263238"/>
        <path id="Trazado_179609" data-name="Trazado 179609" d="M4188.185-2704.52a3.412,3.412,0,0,0,1.367.12,3.575,3.575,0,0,0,1.367-.135,3.777,3.777,0,0,0-1.367-.12A3.9,3.9,0,0,0,4188.185-2704.52Z" fill="#263238"/>
        <path id="Trazado_179610" data-name="Trazado 179610" d="M4187.689-2705.932a4.427,4.427,0,0,0,3,.135,11.092,11.092,0,0,0-1.5,0A10.479,10.479,0,0,0,4187.689-2705.932Z" fill="#263238"/>
        <path id="Trazado_179611" data-name="Trazado 179611" d="M4192.556-2703.513a5.709,5.709,0,0,0,1.682,0,11.807,11.807,0,0,0,1.787-.361,6.045,6.045,0,0,0,1.022-.36.771.771,0,0,0,.405-.436.5.5,0,0,0-.27-.541,3.5,3.5,0,0,0-3.8.8,2.209,2.209,0,0,0-.526.932v.375a3.307,3.307,0,0,1,.736-1.186,3.006,3.006,0,0,1,1.412-.8,3.182,3.182,0,0,1,2.013.076c.27.165.18.42-.12.57a6.157,6.157,0,0,1-.932.346,14.555,14.555,0,0,1-1.727.405C4193.2-2703.574,4192.556-2703.559,4192.556-2703.513Z" fill="#263238"/>
        <path id="Trazado_179612" data-name="Trazado 179612" d="M4192.991-2703.453a1.143,1.143,0,0,0,.181-.962,1.925,1.925,0,0,0-.5-.991,1.741,1.741,0,0,0-1.412-.691.57.57,0,0,0-.513.623l0,.023a1.421,1.421,0,0,0,.316.616,4.24,4.24,0,0,0,.811.826,2.671,2.671,0,0,0,.976.541,8.184,8.184,0,0,1-.811-.676,5,5,0,0,1-.736-.811c-.24-.286-.405-.812,0-.887a1.655,1.655,0,0,1,1.127.571,2.223,2.223,0,0,1,.5.886A2.991,2.991,0,0,1,4192.991-2703.453Z" fill="#263238"/>
        <path id="Trazado_179613" data-name="Trazado 179613" d="M4164.589-2704.445a13.358,13.358,0,0,1,1.937,0,9.672,9.672,0,0,1,4.266,1.352,7.1,7.1,0,0,1,2.719,3c.42.916.48,1.5.54,1.5a1.361,1.361,0,0,0,0-.436,4.29,4.29,0,0,0-.315-1.141,6.8,6.8,0,0,0-2.734-3.169,9.251,9.251,0,0,0-4.506-1.322,8.038,8.038,0,0,0-1.5,0,1.922,1.922,0,0,0-.405.21Z" fill="#263238"/>
        <path id="Trazado_179614" data-name="Trazado 179614" d="M4177.341-2700.54a18.048,18.048,0,0,0,3.83.241,17.437,17.437,0,0,0,3.83-.316c0-.075-1.727,0-3.83,0A34.989,34.989,0,0,0,4177.341-2700.54Z" fill="#263238"/>
        <path id="Trazado_179615" data-name="Trazado 179615" d="M4172.2-2700.464c-.075,0,.135.285.33.615s.286.6.376.586.12-.345-.09-.706S4172.249-2700.525,4172.2-2700.464Z" fill="#263238"/>
        <path id="Trazado_179616" data-name="Trazado 179616" d="M4170.206-2702.417a1.381,1.381,0,0,0,.391.5c.27.21.555.36.615.315s-.1-.285-.39-.5S4170.266-2702.462,4170.206-2702.417Z" fill="#263238"/>
        <path id="Trazado_179617" data-name="Trazado 179617" d="M4167.412-2703.273c0,.075.376.075.766.18s.661.255.736.21-.165-.345-.645-.465S4167.4-2703.333,4167.412-2703.273Z" fill="#263238"/>
        <path id="Trazado_179618" data-name="Trazado 179618" d="M4165.43-2703.664a.735.735,0,0,0,.345.241,1.034,1.034,0,0,0,.451,0c.03,0-.12-.181-.346-.241S4165.46-2703.724,4165.43-2703.664Z" fill="#263238"/>
        <path id="Trazado_179619" data-name="Trazado 179619" d="M4299.6-3063.736h0c4.986-3.229,8.1-5.9,11.475-7.84,4.16-2.389,5.707-3.665,5.212-4.4-.676-1.007-.376-.646-8.546,2.6,0,0,11.625-4.746,8.306-5.692-1.5-.421-11.175,3.424-11.175,3.424,8.065-2.373,10.739-4.506,10.318-5.752-.615-1.743-12.361,3-12.361,3a104.83,104.83,0,0,0,10.424-4.5c1.412-1.052-.706-1.5-2.539-1.5-2.072.135-13.938,2.628-17.408,3.169a2.073,2.073,0,0,1-2.551-1.443,2.018,2.018,0,0,1-.062-.315c.165-5.091-2.433-9.132-3.65-9.9s-2.673.646-2.073,2.118a18.49,18.49,0,0,1,.811,5.092,12,12,0,0,1-.45,4.085c-.436,1.5-.871,2.824-1.277,3.89l-23,36.048,9.973,24.648Z" fill="#ffbe9d"/>
        <path id="Trazado_179620" data-name="Trazado 179620" d="M4302.862-3071.291a23.344,23.344,0,0,0,5.693-2.013,23.034,23.034,0,0,0,5.392-2.733,23.76,23.76,0,0,0-5.693,2A23.215,23.215,0,0,0,4302.862-3071.291Z" fill="#eb996e"/>
        <path id="Trazado_179621" data-name="Trazado 179621" d="M4301.285-3074.31a25.81,25.81,0,0,0,6.188-1.787,26.308,26.308,0,0,0,5.918-2.539A51.969,51.969,0,0,0,4301.285-3074.31Z" fill="#eb996e"/>
        <path id="Trazado_179622" data-name="Trazado 179622" d="M4299.663-3077.434a23.491,23.491,0,0,0,5.888-1.607,23.2,23.2,0,0,0,5.617-2.343,23.014,23.014,0,0,0-5.888,1.592A23.531,23.531,0,0,0,4299.663-3077.434Z" fill="#eb996e"/>
        <path id="Trazado_179623" data-name="Trazado 179623" d="M4234.792-3101.286v54.958l.285,39.532-61.326,20.142.616-30.04s-12.677-39.637-12.677-40.3-1.2-43.182-1.2-43.182l22.665-5.513,28.538-.33Z" fill="#ff6b00"/>
        <path id="Trazado_179624" data-name="Trazado 179624" d="M4160.488-3100.189s-8,3.529-11.235,6.158c-2.162,1.757-21.027,35.522-33.269,57.811a21.028,21.028,0,0,0,8.283,28.562q.448.246.909.472l35.222,17.2,10.634-29.529-20.156-10.89,15.23-26.51-5.618-43.272" fill="#ff6b00"/>
        <path id="Trazado_179625" data-name="Trazado 179625" d="M4160.4-2989.988l-13.112-.977v-10.994l19.165-4.837Z" fill="#ff6b00"/>
        <path id="Trazado_179626" data-name="Trazado 179626" d="M4147.391-3030.888a28.987,28.987,0,0,0,6.458.121,9.7,9.7,0,0,0,5.768-2.644c2.073-2.163,2.584-5.332,3-8.291l2.163-15.305c-5.182.315-9.523,4.341-11.761,9.012s-2.733,9.958-3.2,15.11" fill="#ff6b00"/>
        <path id="Trazado_179627" data-name="Trazado 179627" d="M4234.792-3101.286l24.738,56.19,15.906-21.809s16.191,7.945,14.239,31.061l-19.241,26.15a17.843,17.843,0,0,1-25.067-2.9,17.772,17.772,0,0,1-1.5-2.22l-17.3-30.28Z" fill="#ff6b00"/>
        <path id="Trazado_179628" data-name="Trazado 179628" d="M4172.414-3103.073c-.255,0,35.642,39.953,35.642,39.953l7.375-42.191S4193.2-3110.538,4172.414-3103.073Z" fill="#ffbe9d"/>
        <path id="Trazado_179629" data-name="Trazado 179629" d="M4235.077-3034.072a3.777,3.777,0,0,1-.721-.616c-.5-.5-1.141-1.126-1.952-1.892-1.683-1.667-4.071-4.1-7-7.15-5.857-6.083-13.773-14.674-22.349-24.287l-21.9-24.692-6.639-7.51-1.787-2.088a4.246,4.246,0,0,1-.586-.751,6.035,6.035,0,0,1,.706.646l1.892,1.952c1.637,1.713,3.965,4.206,6.819,7.315,5.723,6.218,13.518,14.93,22.079,24.542s16.417,18.25,22.155,24.438l6.834,7.3,1.847,2a5.6,5.6,0,0,1,.6.8Z" fill="#263238"/>
        <path id="Trazado_179630" data-name="Trazado 179630" d="M4172.609-3022.176a11.418,11.418,0,0,1-.645-1.892l-1.5-5.227c-1.292-4.416-3.17-10.514-5.242-17.168s-3.846-12.812-4.942-17.288c-.541-2.238-.961-4.055-1.2-5.317a10.548,10.548,0,0,1-.315-1.968,8.886,8.886,0,0,1,.616,1.908c.375,1.382.856,3.139,1.5,5.242,1.231,4.416,3,10.514,5.137,17.2s3.89,12.8,5.046,17.242c.571,2.223,1.022,4.041,1.292,5.287a9.328,9.328,0,0,1,.255,1.983Z" fill="#263238"/>
        <path id="Trazado_179631" data-name="Trazado 179631" d="M4134.4-3033.7a1.449,1.449,0,0,1-.075-.826,3.14,3.14,0,0,1,1.276-1.923,4.654,4.654,0,0,1,3.29-.9,10.087,10.087,0,0,1,3.845,1.427c4.821,3,9.012,4.6,9.012,4.806a30.061,30.061,0,0,1-9.388-4.115,10.284,10.284,0,0,0-3.559-1.4,4.159,4.159,0,0,0-2.884.631,3.119,3.119,0,0,0-1.292,1.5C4134.459-3034,4134.459-3033.7,4134.4-3033.7Z" fill="#263238"/>
        <path id="Trazado_179632" data-name="Trazado 179632" d="M4163.4-3023.212c.1.1-1.367,1.5-3.469,4.04a56.342,56.342,0,0,0-11.551,22.635c-.8,3.184-1.066,5.212-1.2,5.2a4.783,4.783,0,0,1,0-1.5,31.651,31.651,0,0,1,.6-3.875,49.152,49.152,0,0,1,11.6-22.876,34.181,34.181,0,0,1,2.763-2.778,5.181,5.181,0,0,1,1.262-.841Z" fill="#263238"/>
        <path id="Trazado_179633" data-name="Trazado 179633" d="M4232.749-3087.287a12.962,12.962,0,0,1,.661,2.163c.375,1.4.9,3.439,1.5,6.008a92.164,92.164,0,0,1,2.7,20.2,105.271,105.271,0,0,1-2.253,20.247c-.5,2.554-.947,4.611-1.277,6.008a11.117,11.117,0,0,1-.6,2.178,13.936,13.936,0,0,1,.3-2.238l1.037-6.083a120.026,120.026,0,0,0,2.013-20.142,104.35,104.35,0,0,0-2.464-20.081c-.5-2.434-.916-4.506-1.246-6.008a11.448,11.448,0,0,1-.376-2.253Z" fill="#263238"/>
        <path id="Trazado_179634" data-name="Trazado 179634" d="M4259-3027.133a43.413,43.413,0,0,1,.15-8.185,41.7,41.7,0,0,1,.946-8.141,44.261,44.261,0,0,1-.165,8.186,43.627,43.627,0,0,1-.931,8.14Z" fill="#263238"/>
        <path id="Trazado_179635" data-name="Trazado 179635" d="M4266.138-3027.808a64.086,64.086,0,0,1-4.01-9.118,64.1,64.1,0,0,1-3.3-9.4,61.291,61.291,0,0,1,4.025,9.117,60.969,60.969,0,0,1,3.289,9.4Z" fill="#263238"/>
        <path id="Trazado_179636" data-name="Trazado 179636" d="M4279.055-3021.41c-.135,0,.106-2.058,0-5.347a34.036,34.036,0,0,0-2.748-12.391,39.773,39.773,0,0,0-7.09-10.59c-2.237-2.4-3.785-3.754-3.694-3.86a4.9,4.9,0,0,1,1.171.841,37.658,37.658,0,0,1,10.334,13.293,31.658,31.658,0,0,1,2.583,12.707,29.326,29.326,0,0,1-.27,3.92A4.49,4.49,0,0,1,4279.055-3021.41Z" fill="#263238"/>
        <path id="Trazado_179637" data-name="Trazado 179637" d="M4183.649-3088.955s-.586-.3-1.667-.766a11.8,11.8,0,0,0-4.837-.841,11.053,11.053,0,0,0-6.683,2.449c-2.148,1.712-3.575,4.506-5.708,7.044a10.113,10.113,0,0,1-3.875,3,9.32,9.32,0,0,1-4.506.541,13.888,13.888,0,0,1-6.924-3,28.779,28.779,0,0,1-3.725-3.44,9.256,9.256,0,0,1-1.2-1.412,7.6,7.6,0,0,1,1.412,1.2,41.3,41.3,0,0,0,3.83,3.2,13.883,13.883,0,0,0,6.684,2.734,8.871,8.871,0,0,0,4.16-.541,9.589,9.589,0,0,0,3.575-2.734c2.043-2.418,3.515-5.287,5.843-7.1a11.413,11.413,0,0,1,7.134-2.418,10.88,10.88,0,0,1,4.957,1.111,7.967,7.967,0,0,1,1.187.721C4183.554-3089.05,4183.669-3088.964,4183.649-3088.955Z" fill="#fafafa"/>
        <path id="Trazado_179638" data-name="Trazado 179638" d="M4161.555-3038.352a1.887,1.887,0,0,1-.406.18,4.908,4.908,0,0,1-1.277.24,7.419,7.419,0,0,1-4.506-1.4,12.553,12.553,0,0,1-4.505-5.407c-1.142-2.4-1.863-5.212-3-7.96a17.661,17.661,0,0,0-4.672-6.789,18.7,18.7,0,0,0-5.8-3.5,26.6,26.6,0,0,0-6.174-1.307,5.768,5.768,0,0,1,1.728-.09,15.832,15.832,0,0,1,4.626.871,18.246,18.246,0,0,1,6.1,3.485,18.023,18.023,0,0,1,4.926,7.029c1.127,2.839,1.818,5.633,2.884,7.961a12.524,12.524,0,0,0,4.131,5.257,7.517,7.517,0,0,0,4.205,1.5C4160.954-3038.217,4161.54-3038.428,4161.555-3038.352Z" fill="#fafafa"/>
        <path id="Trazado_179639" data-name="Trazado 179639" d="M4124.951-3006.991a8.4,8.4,0,0,0,1.5-.315,6.091,6.091,0,0,0,2.914-2.929,23.314,23.314,0,0,0,1.832-6.1,31.394,31.394,0,0,1,2.253-7.675,10.96,10.96,0,0,1,2.569-3.35,12.029,12.029,0,0,1,3.364-2.043,16.653,16.653,0,0,1,6.474-1.081,25.922,25.922,0,0,1,4.371.5,6.373,6.373,0,0,1,1.5.42c0,.15-2.283-.36-5.933-.36a16.39,16.39,0,0,0-6.188,1.2,10.516,10.516,0,0,0-5.513,5.077,32.027,32.027,0,0,0-2.253,7.51,22.394,22.394,0,0,1-2.057,6.218,6.176,6.176,0,0,1-3.29,3,3.152,3.152,0,0,1-1.216.12A1.034,1.034,0,0,1,4124.951-3006.991Z" fill="#fafafa"/>
        <path id="Trazado_179640" data-name="Trazado 179640" d="M4166.631-3006.705a50.438,50.438,0,0,0-8.846,1.216,49.672,49.672,0,0,0-8.186,3.545,17.3,17.3,0,0,1,7.975-4.3A17.5,17.5,0,0,1,4166.631-3006.705Z" fill="#fafafa"/>
        <path id="Trazado_179641" data-name="Trazado 179641" d="M4205.608-3064.607a12.83,12.83,0,0,1-1.772.706,21.518,21.518,0,0,0-4.386,2.658c-1.727,1.322-3.6,3.124-5.708,5.122a31.916,31.916,0,0,1-7.51,5.768,15.487,15.487,0,0,1-9.417,1.367,28.859,28.859,0,0,1-7.4-2.359,52.133,52.133,0,0,1-4.611-2.433,8.607,8.607,0,0,1-1.607-1.051c.075-.135,2.433,1.231,6.443,3a29.486,29.486,0,0,0,7.285,2.087,15.021,15.021,0,0,0,9.012-1.366,33.071,33.071,0,0,0,7.435-5.588,64.564,64.564,0,0,1,5.858-5.046,18.784,18.784,0,0,1,4.611-2.494,6.831,6.831,0,0,1,1.772-.375Z" fill="#fafafa"/>
        <path id="Trazado_179642" data-name="Trazado 179642" d="M4237.766-3058.584c0,.24-5.468,0-12.016,1.051s-11.791,2.719-11.866,2.478a13.729,13.729,0,0,1,3.32-1.321,55.025,55.025,0,0,1,8.426-1.938,57.006,57.006,0,0,1,8.621-.586A13.317,13.317,0,0,1,4237.766-3058.584Z" fill="#fafafa"/>
        <path id="Trazado_179643" data-name="Trazado 179643" d="M4233.8-3078.756a14.812,14.812,0,0,1-3.3-.781l-7.84-2.283-7.826-2.313a15.077,15.077,0,0,1-3.214-1.127,14.21,14.21,0,0,1,3.349.586c2.043.481,4.837,1.2,7.916,2.1s5.813,1.8,7.78,2.508a14.388,14.388,0,0,1,3.139,1.307Z" fill="#fafafa"/>
        <path id="Trazado_179644" data-name="Trazado 179644" d="M4245.035-3075.617c.091.225-2.132,1.142-4.506,2.839s-4.025,3.424-4.2,3.274a13.971,13.971,0,0,1,8.726-6.113Z" fill="#fafafa"/>
        <path id="Trazado_179645" data-name="Trazado 179645" d="M4258.448-3048.236a3.332,3.332,0,0,1-.225,1.187,14.3,14.3,0,0,1-1.262,3,22.713,22.713,0,0,1-7.51,7.75,45.22,45.22,0,0,1-9.688,4.611,23.486,23.486,0,0,1-4.25,1.262,27.323,27.323,0,0,1,4.04-1.787,54.289,54.289,0,0,0,9.463-4.747,24.449,24.449,0,0,0,7.389-7.359C4257.892-3046.734,4258.313-3048.341,4258.448-3048.236Z" fill="#fafafa"/>
        <path id="Trazado_179646" data-name="Trazado 179646" d="M4262.654-3005.354a28.324,28.324,0,0,1-.736-4.911c-.346-3-.691-7.255-.9-11.926s-.241-8.907-.166-12.016a28.146,28.146,0,0,1,.3-4.956,36.293,36.293,0,0,1,.24,4.956c.09,3,.195,7.27.406,11.926s.465,8.877.66,11.926a35.79,35.79,0,0,1,.2,5Z" fill="#fafafa"/>
        <path id="Trazado_179647" data-name="Trazado 179647" d="M4288.848-3049.2a51.735,51.735,0,0,0-10.994-4.506,52.558,52.558,0,0,0-11.836-1.111,11.559,11.559,0,0,1,3.515-.511,30.859,30.859,0,0,1,8.516.856,30.526,30.526,0,0,1,7.931,3.2A11.115,11.115,0,0,1,4288.848-3049.2Z" fill="#fafafa"/>
        <path id="Trazado_179648" data-name="Trazado 179648" d="M4297.875-3068.918c0,.075-.5-.345-1.321-.811a6.5,6.5,0,0,0-3.59-.826h-.586l.21-.556a12.106,12.106,0,0,0,.436-1.367,15.552,15.552,0,0,0-.24-6.759,3.92,3.92,0,0,1,.931,1.878,9.935,9.935,0,0,1,0,5.062,10.392,10.392,0,0,1-.481,1.5l-.375-.526a6.145,6.145,0,0,1,3.905,1.186C4297.635-3069.519,4297.936-3068.963,4297.875-3068.918Z" fill="#eb996e"/>
        <path id="Trazado_179649" data-name="Trazado 179649" d="M4176.454-3018.511l-.225,2.238s-27.591,33.359-29.814,56.279c-1.833,18.926,3.184,162.576,3.184,162.576l90.6-10.138-4.055-208.777Z" fill="#263238"/>
        <path id="Trazado_179650" data-name="Trazado 179650" d="M4215.717-2986.984a2.542,2.542,0,0,1,0,.48v1.4c0,1.277-.091,3-.166,5.332-.135,4.641-.465,11.355-.856,19.646-.856,16.522-2.253,39.473-4.055,64.736s-3.62,48.064-5,64.661c-.721,8.231-1.307,14.915-1.712,19.526-.21,2.268-.391,4.055-.511,5.317l-.15,1.382a1.84,1.84,0,0,1-.09.465,1.808,1.808,0,0,1,0-.465l.075-1.4c.09-1.262.21-3,.375-5.332.346-4.671.842-11.355,1.5-19.6,1.232-16.522,2.914-39.443,4.777-64.676s3.289-48.139,4.28-64.706c.466-8.246.842-14.93,1.112-19.631.135-2.268.24-4.055.315-5.332a13.784,13.784,0,0,1,.106-1.382A1.476,1.476,0,0,1,4215.717-2986.984Z" fill="#455a64"/>
        <path id="Trazado_179651" data-name="Trazado 179651" d="M4202.739-2946.4a3.637,3.637,0,0,0-1.156,1.833,2.615,2.615,0,0,0,.435,2.133,2.434,2.434,0,0,0,3.441.029,2.429,2.429,0,0,0,.675-1.231,2.616,2.616,0,0,0-.781-2.028,3.7,3.7,0,0,0-1.953-.931,1.1,1.1,0,0,1,.646-.165,2.715,2.715,0,0,1,1.682.691,2.961,2.961,0,0,1,.211,4.183,2.961,2.961,0,0,1-4.183.211,2.837,2.837,0,0,1-.308-.324,3,3,0,0,1-.406-2.7,2.656,2.656,0,0,1,1.066-1.5C4202.454-2946.431,4202.724-2946.446,4202.739-2946.4Z" fill="#455a64"/>
        <path id="Trazado_179652" data-name="Trazado 179652" d="M4200.021-2913.056a3.636,3.636,0,0,0-1.157,1.832,2.613,2.613,0,0,0,.436,2.133,2.237,2.237,0,0,0,2.418.646,2.281,2.281,0,0,0,1.7-1.848,2.614,2.614,0,0,0-.781-2.027,3.688,3.688,0,0,0-1.952-.932,1.1,1.1,0,0,1,.645-.165,2.782,2.782,0,0,1,1.683.691,3.081,3.081,0,0,1,1.126,2.493,2.915,2.915,0,0,1-2.208,2.524,2.885,2.885,0,0,1-3.2-.946,3.006,3.006,0,0,1-.406-2.7,2.663,2.663,0,0,1,1.067-1.5A1.405,1.405,0,0,1,4200.021-2913.056Z" fill="#455a64"/>
        <path id="Trazado_179653" data-name="Trazado 179653" d="M4196.716-2880.839c.09.121-.856.5-1.141,1.848a2.675,2.675,0,0,0,.42,2.133,2.284,2.284,0,0,0,2.434.631,2.256,2.256,0,0,0,1.7-1.833,2.632,2.632,0,0,0-.781-2.043,3.584,3.584,0,0,0-1.968-.916,1.1,1.1,0,0,1,.646-.165,2.839,2.839,0,0,1,1.7.676,2.993,2.993,0,0,1,.49,4.205,2.994,2.994,0,0,1-4.205.489,2.993,2.993,0,0,1-.971-3.327,2.723,2.723,0,0,1,1.051-1.5C4196.446-2880.854,4196.7-2880.869,4196.716-2880.839Z" fill="#455a64"/>
        <path id="Trazado_179654" data-name="Trazado 179654" d="M4194.073-2843.965c.075.12-.871.5-1.157,1.848a2.612,2.612,0,0,0,.436,2.133,2.268,2.268,0,0,0,2.418.63,2.2,2.2,0,0,0,1.7-1.832,2.584,2.584,0,0,0-.781-2.043,3.589,3.589,0,0,0-1.952-.916,1.1,1.1,0,0,1,.646-.165,2.783,2.783,0,0,1,1.682.676,3.138,3.138,0,0,1,1.126,2.508,3.094,3.094,0,0,1-3.5,2.621,3.1,3.1,0,0,1-1.9-1.044,3.15,3.15,0,0,1-.4-2.718,2.8,2.8,0,0,1,1.066-1.5A1.424,1.424,0,0,1,4194.073-2843.965Z" fill="#455a64"/>
        <path id="Trazado_179655" data-name="Trazado 179655" d="M4232.283-3134.059c.166.2,0,.736-.751,1.4a6.909,6.909,0,0,1-3.845,1.607,8.187,8.187,0,0,1-6.173-1.908,9.01,9.01,0,0,1-3.244-7.33,16.844,16.844,0,0,1,2.313-6.954,46.856,46.856,0,0,1,2.854-4.716c1.8-2.583,3.244-3.95,3.695-3.665s-.136,2.148-1.262,4.972c-.6,1.5-1.292,3.139-2.028,4.941a18.323,18.323,0,0,0-1.667,5.6,6.013,6.013,0,0,0,1.757,4.506,6.16,6.16,0,0,0,3.71,1.817C4230.241-3133.519,4231.938-3134.525,4232.283-3134.059Z" fill="#263238"/>
        <path id="Trazado_179656" data-name="Trazado 179656" d="M4180.48-3172.645a9.658,9.658,0,0,0,6.008-10.229,12.013,12.013,0,0,0-7.9-9.342,15.918,15.918,0,0,0-12.466,1.111,16.27,16.27,0,0,0-7.916,8.561,12.711,12.711,0,0,0,1.157,11.431,13.218,13.218,0,0,0,13.623,4.881,18.638,18.638,0,0,0,11.685-9.267" fill="#263238"/>
        <path id="Trazado_179657" data-name="Trazado 179657" d="M4166.226-3190.925a4.871,4.871,0,0,1,3.139.166,11.181,11.181,0,0,1,6.008,4.7,22.139,22.139,0,0,1,2.7,7.074,10.526,10.526,0,0,1,.345,3.079,14.619,14.619,0,0,1-.976-3,25.948,25.948,0,0,0-2.824-6.774,11.673,11.673,0,0,0-5.467-4.611A19.027,19.027,0,0,0,4166.226-3190.925Z" fill="#455a64"/>
        <path id="Trazado_179658" data-name="Trazado 179658" d="M4179.008-3192.757a5.431,5.431,0,0,1,1.292,2.088,15.687,15.687,0,0,1,1.261,5.8,15.855,15.855,0,0,1-.916,5.858,5.3,5.3,0,0,1-1.172,2.163,27.268,27.268,0,0,0,1.307-8.006A27.711,27.711,0,0,0,4179.008-3192.757Z" fill="#455a64"/>
        <path id="Trazado_179659" data-name="Trazado 179659" d="M4157.574-3180.756c.136,0,.406,1.171,1.4,2.839a12.166,12.166,0,0,0,12.812,5.827c1.908-.345,3-.916,3-.8a6.39,6.39,0,0,1-3,1.337,11.806,11.806,0,0,1-13.413-6.113A6.362,6.362,0,0,1,4157.574-3180.756Z" fill="#455a64"/>
        <path id="Trazado_179660" data-name="Trazado 179660" d="M4181.111-3190.759a1.843,1.843,0,0,1,.51-.346,3.273,3.273,0,0,1,1.622-.33,4.358,4.358,0,0,1,2.359.781,4.895,4.895,0,0,1,1.8,2.448,7.51,7.51,0,0,1-.15,5.407,3.375,3.375,0,0,1-1.037,1.307,1.308,1.308,0,0,1-.54.285,3.932,3.932,0,0,0,1.366-1.682,7.5,7.5,0,0,0,0-5.212,4.924,4.924,0,0,0-1.682-2.313,4.29,4.29,0,0,0-2.193-.811,4.5,4.5,0,0,0-2.057.466Z" fill="#263238"/>
        <path id="Trazado_179661" data-name="Trazado 179661" d="M4183.334-3127.15c-4.506-5.813-9.3-13.233-11.386-20.262a30.757,30.757,0,0,1,.917-21.493c3.6-7.8,11.28-13.278,19.526-15.426a29.214,29.214,0,0,1,21.133,2.058,21.025,21.025,0,0,1,11.219,17.438" fill="#263238"/>
        <path id="Trazado_179662" data-name="Trazado 179662" d="M4208.192-3180.651c1.817-.18,10.093,1.787,14.644,4.987a18.219,18.219,0,0,1,7.675,16.6c-.42,3.529-4.055,8.336-5.512,11.069a108.867,108.867,0,0,1-7.886,12.587" fill="#263238"/>
        <path id="Trazado_179663" data-name="Trazado 179663" d="M4182.928-3155.358a20.306,20.306,0,0,1,20.712-19.893c.21,0,.421.011.631.022a20.727,20.727,0,0,1,19.211,20.788,212.447,212.447,0,0,1-.661,22.53c-1.637,10.288-8.261,13.427-10.875,14.268a13.509,13.509,0,0,1-2.808.286h0l-.075.075.57,12.166c-.1,7.916-5.437,14.194-13.337,14.194s-13.143-6.834-13.2-14.78Z" fill="#ffbe9d"/>
        <path id="Trazado_179664" data-name="Trazado 179664" d="M4218.736-3149.89a1.667,1.667,0,0,1-1.593,1.682,1.591,1.591,0,0,1-1.709-1.465l0-.037a1.651,1.651,0,0,1,1.592-1.667,1.592,1.592,0,0,1,1.711,1.464Z" fill="#263238"/>
        <path id="Trazado_179665" data-name="Trazado 179665" d="M4220.748-3151.993c-.21.21-1.5-.721-3.244-.706s-3.094.886-3.274.676.1-.5.675-.9a4.5,4.5,0,0,1,2.629-.811,4.318,4.318,0,0,1,2.583.826C4220.658-3152.489,4220.853-3152.1,4220.748-3151.993Z" fill="#263238"/>
        <path id="Trazado_179666" data-name="Trazado 179666" d="M4201.613-3149.89a1.666,1.666,0,0,1-1.592,1.682,1.591,1.591,0,0,1-1.71-1.465l0-.037a1.652,1.652,0,0,1,1.608-1.667,1.575,1.575,0,0,1,1.694,1.45l0,.037Z" fill="#263238"/>
        <path id="Trazado_179667" data-name="Trazado 179667" d="M4203.22-3151.663c-.2.211-1.5-.721-3.229-.706s-3.094.887-3.29.676.1-.48.691-.9a4.506,4.506,0,0,1,2.614-.811,4.392,4.392,0,0,1,2.583.826C4203.145-3152.158,4203.325-3151.768,4203.22-3151.663Z" fill="#263238"/>
        <path id="Trazado_179668" data-name="Trazado 179668" d="M4209.694-3138.445a12.143,12.143,0,0,1,2.9-.526c.451,0,.887-.135.962-.45a2.391,2.391,0,0,0-.3-1.337l-1.352-3.47a61.055,61.055,0,0,1-3-9.012,59.966,59.966,0,0,1,3.74,8.8c.451,1.217.887,2.373,1.292,3.485a2.645,2.645,0,0,1,.24,1.787,1.185,1.185,0,0,1-.751.676,3,3,0,0,1-.766.1A11.716,11.716,0,0,1,4209.694-3138.445Z" fill="#263238"/>
        <path id="Trazado_179669" data-name="Trazado 179669" d="M4209.123-3117.327s-6.879.571-15.5-4.611c0,0,2.719,9.1,15.651,7.885Z" fill="#eb996e"/>
        <path id="Trazado_179670" data-name="Trazado 179670" d="M4208.943-3134.149a3.227,3.227,0,0,0-2.884-1.187,3.006,3.006,0,0,0-2.028,1.081,1.863,1.863,0,0,0-.135,2.118,2.163,2.163,0,0,0,2.343.6,6.782,6.782,0,0,0,2.268-1.367,1.906,1.906,0,0,0,.511-.525.588.588,0,0,0,0-.661" fill="#eb996e"/>
        <path id="Trazado_179671" data-name="Trazado 179671" d="M4204.452-3137.213c.285,0,.285,1.922,1.952,3.289s3.71,1.171,3.725,1.5-.451.375-1.322.39a4.834,4.834,0,0,1-3.124-1.081,4.17,4.17,0,0,1-1.5-2.764C4204.106-3136.748,4204.316-3137.229,4204.452-3137.213Z" fill="#263238"/>
        <path id="Trazado_179672" data-name="Trazado 179672" d="M4204.031-3154.787c-.18.481-1.953.256-4.055.511s-3.77.826-4.056.39c-.12-.21.165-.675.856-1.141a7.077,7.077,0,0,1,6.174-.676C4203.716-3155.4,4204.106-3155.012,4204.031-3154.787Z" fill="#263238"/>
        <path id="Trazado_179673" data-name="Trazado 179673" d="M4220.087-3155.643c-.3.406-1.5,0-3,0s-2.718.27-3-.15,0-.616.616-.991a4.126,4.126,0,0,1,2.448-.676,4.187,4.187,0,0,1,2.4.826C4220.057-3156.259,4220.237-3155.838,4220.087-3155.643Z" fill="#263238"/>
        <path id="Trazado_179674" data-name="Trazado 179674" d="M4180.795-3148.869c7.165,1.772,14.269-1.592,20.082-6.293a27.79,27.79,0,0,0,9.868-20.1c0-1.577.21-5.062-1.307-5.392-3.184-.706-3.59-.586-5.6,0-6.008,1.667-17.093,2.749-20.908,8.051s-4.6,13.938-4.6,20.682" fill="#263238"/>
        <path id="Trazado_179675" data-name="Trazado 179675" d="M4223.947-3156.814a12.679,12.679,0,0,0,1.292-.3,6.955,6.955,0,0,0,3-1.892,7.516,7.516,0,0,0,2.1-4.717,10.519,10.519,0,0,0-1.5-6.188,15.475,15.475,0,0,0-4.506-4.641,27.184,27.184,0,0,0-4.671-2.553c-1.382-.616-2.539-1.052-3.335-1.367l-.916-.361a1.371,1.371,0,0,1-.315-.15.949.949,0,0,1,.33.09l.946.3c.8.285,1.968.691,3.38,1.276a26.906,26.906,0,0,1,4.746,2.524,15.512,15.512,0,0,1,4.6,4.716,10.664,10.664,0,0,1,1.5,6.383,7.781,7.781,0,0,1-2.223,4.852,6.951,6.951,0,0,1-3.109,1.847A4.165,4.165,0,0,1,4223.947-3156.814Z" fill="#263238"/>
        <path id="Trazado_179676" data-name="Trazado 179676" d="M4171.468-3164.279a13.433,13.433,0,0,0,1.5,1.051,10.641,10.641,0,0,0,4.626,1.5,15.013,15.013,0,0,0,7.119-1.2,48.547,48.547,0,0,0,7.9-4.355,46.6,46.6,0,0,0,7.164-5.483,23.174,23.174,0,0,0,6.97-12.016,6.074,6.074,0,0,1-.2,1.848,17.813,17.813,0,0,1-1.742,4.746,24.349,24.349,0,0,1-4.506,6.008,44.4,44.4,0,0,1-7.24,5.633,47.886,47.886,0,0,1-8.05,4.37,15.27,15.27,0,0,1-7.51,1.082,10.413,10.413,0,0,1-4.746-1.772,8.022,8.022,0,0,1-1.037-.917A3.413,3.413,0,0,1,4171.468-3164.279Z" fill="#455a64"/>
        <path id="Trazado_179677" data-name="Trazado 179677" d="M4187.434-3181.372a64.113,64.113,0,0,0-8.111,5.647,63.908,63.908,0,0,0-6.578,7.375,8.868,8.868,0,0,1,1.381-2.613,28.284,28.284,0,0,1,10.514-9.358A8.272,8.272,0,0,1,4187.434-3181.372Z" fill="#455a64"/>
        <path id="Trazado_179678" data-name="Trazado 179678" d="M4185.572-3147.923a4.837,4.837,0,0,0-5.257.706,4.986,4.986,0,0,0-.093,7.052,4.99,4.99,0,0,0,.994.789,4.254,4.254,0,0,0,3.214,1.021" fill="#ffbe9d"/>
        <path id="Trazado_179679" data-name="Trazado 179679" d="M4183.934-3141.509c0,.09-.39.405-1.186.3a2.278,2.278,0,0,1-1.247-.6,2.372,2.372,0,0,1-.751-1.5,2.434,2.434,0,0,1,.481-1.667,2.285,2.285,0,0,1,1.126-.8c.766-.24,1.247,0,1.217.09s-.451.1-1.006.421a1.967,1.967,0,0,0-1.037,1.892,1.941,1.941,0,0,0,1.337,1.683C4183.469-3141.539,4183.9-3141.614,4183.934-3141.509Z" fill="#eb996e"/>
        <path id="Trazado_179680" data-name="Trazado 179680" d="M4184.851-3125.032c0,.225-1.172.706-3.47.54a14,14,0,0,1-8.606-4.37,13.519,13.519,0,0,1-3.35-6.114,14.476,14.476,0,0,1,.421-8.035,15.136,15.136,0,0,1,5.182-7.3,19.958,19.958,0,0,1,8.711-3.334,40.7,40.7,0,0,0,7.961-1.908,25.249,25.249,0,0,0,14.073-13.518,30.207,30.207,0,0,0,2.208-8.411c.241-2.088.3-3.289.586-3.319s.721,1.111.946,3.334a23.635,23.635,0,0,1-1.156,9.373,25.83,25.83,0,0,1-7.961,11.73,26.907,26.907,0,0,1-7.284,4.4,40.265,40.265,0,0,1-8.637,2.178,17.174,17.174,0,0,0-7.164,2.583,11.812,11.812,0,0,0-4.071,5.422,11.61,11.61,0,0,0-.646,6.159,11.457,11.457,0,0,0,2.268,4.986,14.181,14.181,0,0,0,6.819,4.671C4183.619-3125.393,4184.836-3125.333,4184.851-3125.032Z" fill="#455a64"/>
        <path id="Trazado_179681" data-name="Trazado 179681" d="M4169.771-3156.6c0-.556,3-.916,7.615-1.5a52.758,52.758,0,0,0,17.077-4.506,25.052,25.052,0,0,0,7.42-5.723,20.716,20.716,0,0,0,3.845-6.593c1.5-4.176,1.022-7.135,1.622-7.24.241,0,.706.616,1.037,1.983a14.225,14.225,0,0,1,0,6.008,20.227,20.227,0,0,1-3.71,8.14,25.046,25.046,0,0,1-8.426,6.924,34.259,34.259,0,0,1-10.2,3.29,45.785,45.785,0,0,1-8.546.556C4172.684-3155.463,4169.771-3156.079,4169.771-3156.6Z" fill="#455a64"/>
        <path id="Trazado_179682" data-name="Trazado 179682" d="M4184.76-3042.708,4180.6-2991a3.935,3.935,0,0,0,3.589,4.254,4.035,4.035,0,0,0,.451.012l38.722-1.051a3.936,3.936,0,0,0,3.815-3.545l5.317-50.647a3.951,3.951,0,0,0-3.524-4.335,3.716,3.716,0,0,0-.4-.021h-39.893a3.936,3.936,0,0,0-3.921,3.62Z" fill="#455a64"/>
        <path id="Trazado_179683" data-name="Trazado 179683" d="M4211.211-3038.172a2.314,2.314,0,0,1-2.33,2.3,2.312,2.312,0,0,1-2.3-2.329,2.313,2.313,0,0,1,2.329-2.3,2.316,2.316,0,0,1,1.619.678A2.327,2.327,0,0,1,4211.211-3038.172Z" fill="#fafafa"/>
        <path id="Trazado_179684" data-name="Trazado 179684" d="M4184.175-3023.047s-5.3,1.5-6.234,2.553a24.614,24.614,0,0,1-4.415,2.689l-3.981,1.066-5.572,16.808,33.78,1.081s9.312-6.609,8.14-7.33-4.761-.12-6.323,1.5c-2.463,2.539-6.473-1.021-6.473-1.021s16.762-3.425,18.159-5.137,3-1.953,2.1-3.665-7.9-.691-10.258-.691a64.485,64.485,0,0,0-7.675.977s10.514-3.695,11.265-4.131c2.1-1.141-.091-3.454-2.929-2.779-2.539.6-12.016,3.981-13.7,3.74s-6.007-.736-6.007-.736Z" fill="#ffbe9d"/>
      </g>
      <g id="freepik--Plants--inject-9">
        <rect id="Rectángulo_36669" data-name="Rectángulo 36669" width="89.231" height="12.258" transform="translate(4043.553 -2773.021)" fill="#263238"/>
        <path id="Trazado_179685" data-name="Trazado 179685" d="M4132.944-2760.657h-89.537v-12.563h89.537Zm-89.231-.3h88.979v-11.953h-88.979Z" fill="#263238"/>
        <path id="Trazado_179686" data-name="Trazado 179686" d="M4051.827-2764.84l12.855,63.361H4112.2l12.417-59.271Z" fill="#263238"/>
        <path id="Trazado_179687" data-name="Trazado 179687" d="M4051.827-2707.469l6.853,9.416h57.77l8.167-9.416Z" fill="#455a64"/>
        <path id="Trazado_179688" data-name="Trazado 179688" d="M4084.829-2762.981c-.186,0-.412-29.363-.505-65.565s0-65.553.133-65.553.4,29.337.5,65.553S4085-2762.981,4084.829-2762.981Z" fill="#263238"/>
        <path id="Trazado_179689" data-name="Trazado 179689" d="M4104.7-2836.448a2.765,2.765,0,0,1-.239.69c-.212.492-.464,1.129-.8,1.9l-.585,1.328c-.186.518-.372,1.076-.584,1.661s-.452,1.248-.691,1.912-.425,1.421-.664,2.178a88.9,88.9,0,0,0-2.5,10.93,134.492,134.492,0,0,0-1.329,13.665,184.386,184.386,0,0,0,.7,24.954c.293,3.188.585,5.764.8,7.53.08.837.16,1.514.226,2.059a2.712,2.712,0,0,1,0,.717,3.478,3.478,0,0,1-.159-.7c-.093-.531-.2-1.208-.346-2.032-.292-1.766-.637-4.343-.982-7.53a165.657,165.657,0,0,1-.9-25.034,124.424,124.424,0,0,1,1.448-13.718,83.491,83.491,0,0,1,2.656-10.97c.252-.757.452-1.5.7-2.178s.5-1.328.744-1.9l.637-1.66c.226-.491.452-.943.638-1.328.371-.744.677-1.328.9-1.846A5.9,5.9,0,0,1,4104.7-2836.448Z" fill="#263238"/>
        <path id="Trazado_179690" data-name="Trazado 179690" d="M4102.412-2860.18a4.741,4.741,0,0,1-.279.969c-.225.677-.544,1.581-.929,2.656-.213.6-.439,1.328-.678,1.966s-.464,1.527-.717,2.377c-.531,1.7-1.129,3.626-1.673,5.8-.279,1.075-.584,2.2-.89,3.386s-.544,2.43-.837,3.719c-.624,2.549-1.075,5.312-1.646,8.22-.983,5.83-1.846,12.285-2.444,19.071s-.81,13.28-.9,19.23,0,11.235.3,15.711c.08,2.231.213,4.249.332,6.029s.213,3.293.332,4.542.16,2.165.213,2.882a9.4,9.4,0,0,1,0,1.009,5.1,5.1,0,0,1-.159-1c-.093-.717-.2-1.673-.346-2.869s-.292-2.775-.438-4.541-.319-3.8-.425-6.043c-.3-4.462-.425-9.8-.438-15.737s.279-12.444.85-19.27,1.487-13.281,2.5-19.124c.6-2.9,1.063-5.684,1.714-8.234l.876-3.719c.332-1.181.638-2.31.943-3.386.558-2.178,1.2-4.1,1.753-5.79l.77-2.364.744-1.952c.425-1.129.77-2.019,1.036-2.656A5.982,5.982,0,0,1,4102.412-2860.18Z" fill="#263238"/>
        <path id="Trazado_179691" data-name="Trazado 179691" d="M4079.185-2757.788a.911.911,0,0,1,0-.345,4.282,4.282,0,0,0-.093-1.01c0-.943-.146-2.244-.253-3.891-.212-3.426-.518-8.3-.9-14.3-.77-12.059-1.885-28.739-3.917-47.079-1.036-9.164-2.245-17.876-3.493-25.764-.664-3.984-1.328-7.7-1.952-11.182s-1.328-6.747-1.926-9.708-1.248-5.618-1.766-7.969-1.023-4.356-1.435-5.989-.7-2.882-.929-3.785c-.093-.412-.173-.73-.226-1a.883.883,0,0,1,0-.332l.12.319a4.473,4.473,0,0,0,.278.969c.253.9.6,2.165,1.05,3.759s.982,3.625,1.54,5.976,1.235,4.98,1.859,7.968,1.328,6.2,2.006,9.695,1.328,7.238,2,11.182c1.328,7.9,2.51,16.627,3.546,25.8,2.032,18.353,3.081,35.047,3.745,47.119.332,6.042.558,10.943.691,14.316,0,1.66.106,2.962.146,3.891v1.023C4079.278-2757.855,4079.185-2757.788,4079.185-2757.788Z" fill="#263238"/>
        <path id="Trazado_179692" data-name="Trazado 179692" d="M4084.1-2880c-.385-4.156-4.595-7.291-8.765-7.33a13.742,13.742,0,0,0-10.624,5.763,32.807,32.807,0,0,0-5.113,11.355c-2.815,9.788-4.356,20.08-3.147,30.213s5.312,20.08,12.563,27.238c1.182,1.156,2.656,2.324,4.329,1.979a5.232,5.232,0,0,0,2.285-1.421,67.6,67.6,0,0,0,21.952-51.409c-.119-3.851-.624-7.848-2.749-11.062s-7.1-6.64-10.731-5.312" fill="#ff6b00"/>
        <path id="Trazado_179693" data-name="Trazado 179693" d="M4052.916-2913.3l-5.883,10.624c-.146.253-.319.531-.611.558s-.531-.266-.7-.531l-15.551-23.905,3.585-2.032Z" fill="#ff6b00"/>
        <g id="Grupo_118106" data-name="Grupo 118106" opacity="0.2">
          <path id="Trazado_179694" data-name="Trazado 179694" d="M4052.916-2913.3l-5.883,10.624c-.146.253-.319.531-.611.558s-.531-.266-.7-.531l-15.551-23.905,3.585-2.032Z"/>
        </g>
        <path id="Trazado_179695" data-name="Trazado 179695" d="M4084.43-2894.1l-53.028-31.235a2.746,2.746,0,0,1-1.328-1.328c-.2-.624.372-1.541.943-2.125a36.56,36.56,0,0,1,28.393-11.156,32.379,32.379,0,0,1,25.631,15.937c5.113,9.15,5.313,21.249-.584,29.934" fill="#ff6b00"/>
        <path id="Trazado_179696" data-name="Trazado 179696" d="M4039.051-2935.4a2.4,2.4,0,0,1,.691-.079c.465,0,1.142-.107,2.005-.107a40.851,40.851,0,0,1,7.358.585,42.794,42.794,0,0,1,34.343,31.076,40.626,40.626,0,0,1,1.328,7.264c.093.864,0,1.089.079,1.541a2.667,2.667,0,0,1-.411,1.169,8.9,8.9,0,0,0,.079-2.657,43.505,43.505,0,0,0-35.472-37.915,45.323,45.323,0,0,0-7.291-.784C4040.021-2935.374,4039.051-2935.348,4039.051-2935.4Z" fill="#263238"/>
        <path id="Trazado_179697" data-name="Trazado 179697" d="M4077.272-2915.706a13.79,13.79,0,0,1-2.656,1.222c-1.686.664-3.984,1.514-6.64,2.351s-5.06,1.5-6.826,1.939a12.255,12.255,0,0,1-2.9.544,15.517,15.517,0,0,1,2.775-.983l6.76-2.111,6.733-2.165A13.7,13.7,0,0,1,4077.272-2915.706Z" fill="#263238"/>
        <path id="Trazado_179698" data-name="Trazado 179698" d="M4068.919-2938.15a22.45,22.45,0,0,1,.624,5.923,22.229,22.229,0,0,1-.319,5.937,36.323,36.323,0,0,1-.318-5.923A37.6,37.6,0,0,1,4068.919-2938.15Z" fill="#263238"/>
        <path id="Trazado_179699" data-name="Trazado 179699" d="M4030.937-2926a24.9,24.9,0,0,1,3.864-1.328c2.4-.744,5.764-1.687,9.5-2.656s7.171-1.594,9.655-2.032a23.765,23.765,0,0,1,3.984-.545,27.147,27.147,0,0,1-3.984.983c-2.457.558-5.844,1.328-9.575,2.218s-7.1,1.766-9.536,2.39A29.421,29.421,0,0,1,4030.937-2926Z" fill="#263238"/>
        <path id="Trazado_179700" data-name="Trazado 179700" d="M4062.079-2889.012c-4.568-3.466-9.389-4.144-15.113-3.984a46.112,46.112,0,0,0-16.534,4.263c-8.938,3.917-17.357,9.694-22.7,17.875s-7.211,18.991-3.2,27.889a3.981,3.981,0,0,0,1.807,2.191,4.368,4.368,0,0,0,3-.225c10.173-3.321,20.412-6.641,29.775-11.873s17.862-12.417,22.882-21.873a18.819,18.819,0,0,0,2.417-7.251,9.085,9.085,0,0,0-2.338-7.092" fill="#ff6b00"/>
        <path id="Trazado_179701" data-name="Trazado 179701" d="M4062.172-2890.088a3.7,3.7,0,0,1-.743.292l-2.125.744-1.541.5c-.557.2-1.155.451-1.806.7-1.328.518-2.789,1.049-4.356,1.806l-2.5,1.142c-.864.4-1.727.89-2.657,1.328-1.846.9-3.705,2.058-5.7,3.24a98.436,98.436,0,0,0-12.045,8.925,100.41,100.41,0,0,0-10.4,10.81c-1.421,1.833-2.8,3.533-3.984,5.312-.584.85-1.182,1.634-1.687,2.444l-1.447,2.337c-.956,1.461-1.66,2.869-2.337,4.09-.332.611-.665,1.169-.93,1.7l-.7,1.461-1,2.019a2.951,2.951,0,0,1-.4.69,4.588,4.588,0,0,1,.278-.743c.226-.532.518-1.222.89-2.072l.664-1.5c.253-.531.558-1.1.877-1.726.651-1.235,1.328-2.656,2.271-4.157l1.421-2.364c.5-.81,1.089-1.62,1.66-2.483a65.558,65.558,0,0,1,3.984-5.312,87.136,87.136,0,0,1,22.577-19.921c2-1.169,3.891-2.311,5.763-3.2.93-.465,1.793-.943,2.656-1.328l2.524-1.1c1.593-.744,3.107-1.235,4.422-1.726.651-.24,1.328-.465,1.82-.651l1.567-.465,2.178-.624A3.15,3.15,0,0,1,4062.172-2890.088Z" fill="#263238"/>
        <path id="Trazado_179702" data-name="Trazado 179702" d="M4026.528-2870.791a108.085,108.085,0,0,1-11.156,3.572,103.235,103.235,0,0,1-11.222,2.975,105.339,105.339,0,0,1,11.1-3.573A110.968,110.968,0,0,1,4026.528-2870.791Z" fill="#263238"/>
        <path id="Trazado_179703" data-name="Trazado 179703" d="M4026.063-2846.3a18.075,18.075,0,0,1-.239-3.453c-.066-2.138-.066-5.1,0-8.354s.266-6.215.438-8.34a17.544,17.544,0,0,1,.438-3.439,18.622,18.622,0,0,1,0,3.453c-.079,2.35-.159,5.192-.265,8.34s-.146,6-.2,8.34A20.037,20.037,0,0,1,4026.063-2846.3Z" fill="#263238"/>
        <path id="Trazado_179704" data-name="Trazado 179704" d="M4047.046-2856.98c-.173,0-.73-6-1.248-13.413s-.784-13.453-.611-13.466.73,6,1.248,13.413A131.912,131.912,0,0,1,4047.046-2856.98Z" fill="#263238"/>
        <path id="Trazado_179705" data-name="Trazado 179705" d="M4020.937-2884.43a17.9,17.9,0,0,1,3.546-.107c2.2,0,5.232.08,8.565.186s6.375.239,8.566.372a19.465,19.465,0,0,1,3.546.345,19.5,19.5,0,0,1-3.559.107c-2.191,0-5.219-.08-8.566-.186s-6.374-.253-8.566-.385A19.861,19.861,0,0,1,4020.937-2884.43Z" fill="#263238"/>
        <path id="Trazado_179706" data-name="Trazado 179706" d="M4071.3-2811.361a2.674,2.674,0,0,1-.08-.718,16.819,16.819,0,0,0-.093-2.032c-.079-1.779-.106-4.342,0-7.516s.266-6.946.651-11.129,1.01-8.752,1.859-13.533,1.939-9.3,3.028-13.28,2.245-7.677,3.307-10.625,1.979-5.405,2.656-7.052l.8-1.872a3.054,3.054,0,0,1,.332-.651,3.407,3.407,0,0,1-.212.691c-.173.5-.412,1.142-.691,1.925-.624,1.66-1.487,4.077-2.483,7.092s-2.085,6.64-3.174,10.624-2.072,8.54-2.949,13.281-1.474,9.3-1.912,13.466-.677,7.968-.8,11.089-.172,5.724-.172,7.491v2.045a5.2,5.2,0,0,1-.067.7Z" fill="#263238"/>
        <path id="Trazado_179707" data-name="Trazado 179707" d="M4074.085-2846.1a13.9,13.9,0,0,1-2.112,2.324c-1.328,1.328-3.32,3.214-5.551,5.153s-4.289,3.652-5.83,4.834a14.831,14.831,0,0,1-2.576,1.793,14.573,14.573,0,0,1,2.284-2.152l5.711-4.953,5.657-4.994A17.048,17.048,0,0,1,4074.085-2846.1Z" fill="#263238"/>
        <path id="Trazado_179708" data-name="Trazado 179708" d="M4090.885-2832.57a23.851,23.851,0,0,1-2.258-3.121c-1.447-2.125-3.254-4.741-5.312-7.65l-5.312-7.583a22.775,22.775,0,0,1-2.138-3.2,22,22,0,0,1,2.5,2.935c1.474,1.872,3.44,4.5,5.512,7.476s3.864,5.751,5.1,7.769A21.539,21.539,0,0,1,4090.885-2832.57Z" fill="#263238"/>
        <path id="Trazado_179709" data-name="Trazado 179709" d="M4082.08-2875.108c.093.147-5.485,3.905-12.457,8.38s-12.71,7.969-12.8,7.849,5.485-3.891,12.457-8.38S4081.987-2875.254,4082.08-2875.108Z" fill="#263238"/>
        <path id="Trazado_179710" data-name="Trazado 179710" d="M4097.817-2858.135a102.444,102.444,0,0,1-8.446-7.8,109.407,109.407,0,0,1-7.968-8.247,99.686,99.686,0,0,1,8.446,7.8A106.612,106.612,0,0,1,4097.817-2858.135Z" fill="#263238"/>
        <path id="Trazado_179711" data-name="Trazado 179711" d="M4101.761-2858.48l4.795-.4a23.648,23.648,0,0,0,9.668-2.948,37.4,37.4,0,0,1,4.5-2.271c5.923-2.377,12.523-1.952,18.9-2.271a78.11,78.11,0,0,0,30.067-7.689,2.872,2.872,0,0,0,1.328-1.182c.983-1.793-.837-3.387-2.417-4.356-8.061-4.967-16.269-10-25.419-12.471s-19.535-2.058-27.344,3.32c-9.164,6.309-12.5,19.257-14.051,30.267" fill="#ff6b00"/>
        <path id="Trazado_179712" data-name="Trazado 179712" d="M4171.1-2875.825a8.266,8.266,0,0,1-.811-.385l-2.271-1.182c-1.965-1.036-4.794-2.563-8.379-4.289a78.209,78.209,0,0,0-12.975-4.994A42.825,42.825,0,0,0,4129.85-2888a28.773,28.773,0,0,0-15.339,6.64,34.138,34.138,0,0,0-7.969,11.209c-1.673,3.586-2.656,6.64-3.466,8.739-.358,1-.637,1.792-.85,2.4a3.567,3.567,0,0,1-.345.837,6.008,6.008,0,0,1,.212-.863l.744-2.457a79.89,79.89,0,0,1,3.307-8.845,33.778,33.778,0,0,1,7.968-11.461,29.115,29.115,0,0,1,15.645-6.773,42.936,42.936,0,0,1,17.091,1.328,75.8,75.8,0,0,1,13.015,5.166c3.573,1.78,6.375,3.36,8.3,4.462l2.217,1.328a3.226,3.226,0,0,1,.718.465Z" fill="#263238"/>
        <path id="Trazado_179713" data-name="Trazado 179713" d="M4159.6-2869.649c-.093.146-6.348-3.905-13.985-9.044s-13.718-9.443-13.625-9.575,6.361,3.9,13.984,9.044S4159.7-2869.795,4159.6-2869.649Z" fill="#263238"/>
        <path id="Trazado_179714" data-name="Trazado 179714" d="M4152.931-2888.6a15.489,15.489,0,0,1-4.569.81,15.033,15.033,0,0,1-4.648,0,29.422,29.422,0,0,1,4.6-.465,29.8,29.8,0,0,1,4.622-.345Z" fill="#263238"/>
        <path id="Trazado_179715" data-name="Trazado 179715" d="M4125.507-2892.133a12.1,12.1,0,0,1-2.045,3.2,13.886,13.886,0,0,1-2.656,2.961,12.221,12.221,0,0,1,2.045-3.214A13.576,13.576,0,0,1,4125.507-2892.133Z" fill="#263238"/>
        <path id="Trazado_179716" data-name="Trazado 179716" d="M4131.124-2865.957a17.73,17.73,0,0,1-3.014-1.634c-1.806-1.1-4.25-2.656-6.866-4.608s-4.914-3.692-6.574-5.007a18.32,18.32,0,0,1-2.656-2.231,18.109,18.109,0,0,1,2.961,1.912l6.641,4.848c2.656,1.886,4.993,3.546,6.733,4.741A21.473,21.473,0,0,1,4131.124-2865.957Z" fill="#263238"/>
        <path id="Trazado_179717" data-name="Trazado 179717" d="M4108.813-2838.135c-4.568-1.208-10.013,3.241-10.956,7.862s.8,9.363,2.829,13.626a69.7,69.7,0,0,0,18.884,24.715,46.723,46.723,0,0,0,28.885,10.624c-1.925-8.977.5-18.34-.571-27.45a35.683,35.683,0,0,0-31.58-31.289c-2.909-.319-6.282-.784-7.451,1.912" fill="#ff6b00"/>
        <path id="Trazado_179718" data-name="Trazado 179718" d="M4148.455-2781.295a3.774,3.774,0,0,1-.65-.305,11.975,11.975,0,0,1-1.713-1.142,17.784,17.784,0,0,1-4.5-6.043c-.73-1.407-1.54-2.948-2.337-4.648l-2.457-5.432a52.6,52.6,0,0,0-3.028-5.8,46.065,46.065,0,0,0-4.143-5.644c-3.134-3.679-6.481-6.853-9.389-9.894a64.174,64.174,0,0,1-7.172-8.579,31.577,31.577,0,0,1-3.493-6.641c-.292-.836-.5-1.5-.611-1.952a3.285,3.285,0,0,1-.146-.7s.319.93.983,2.577a35.172,35.172,0,0,0,3.639,6.507,67.368,67.368,0,0,0,7.211,8.446c2.922,3,6.295,6.163,9.456,9.881a44.2,44.2,0,0,1,4.2,5.737,51.542,51.542,0,0,1,3.028,5.883c.85,1.913,1.647,3.746,2.4,5.459s1.554,3.24,2.258,4.661a18.339,18.339,0,0,0,4.263,6.043C4147.592-2781.786,4148.5-2781.361,4148.455-2781.295Z" fill="#263238"/>
        <path id="Trazado_179719" data-name="Trazado 179719" d="M4124.843-2788.745a12.643,12.643,0,0,1,.412-3.081c.358-1.886.942-4.462,1.739-7.278s1.634-5.312,2.311-7.1a13.32,13.32,0,0,1,1.248-2.842,15.712,15.712,0,0,1-.823,2.988c-.558,1.82-1.328,4.33-2.125,7.132s-1.447,5.312-1.912,7.2a17.962,17.962,0,0,1-.85,2.988Z" fill="#263238"/>
        <path id="Trazado_179720" data-name="Trazado 179720" d="M4147.592-2810.764a18.115,18.115,0,0,1-3.214-.744c-1.978-.5-4.688-1.208-7.716-1.9s-5.777-1.208-7.782-1.58a18.914,18.914,0,0,1-3.214-.717,15.823,15.823,0,0,1,3.294.265c2.018.266,4.807.731,7.848,1.421s5.751,1.461,7.69,2.086A15.533,15.533,0,0,1,4147.592-2810.764Z" fill="#263238"/>
        <path id="Trazado_179721" data-name="Trazado 179721" d="M4107.884-2804.363a18.509,18.509,0,0,1,.5-3.559c.4-2.191,1.036-5.179,1.886-8.459s1.766-6.2,2.484-8.3a19.216,19.216,0,0,1,1.328-3.346,19.959,19.959,0,0,1-.877,3.479c-.6,2.125-1.434,5.073-2.284,8.327s-1.567,6.242-2.072,8.393A21.511,21.511,0,0,1,4107.884-2804.363Z" fill="#263238"/>
        <path id="Trazado_179722" data-name="Trazado 179722" d="M4137.114-2829.954a122.781,122.781,0,0,1-12.736-1.023c-7.012-.743-12.683-1.487-12.67-1.66a127.377,127.377,0,0,1,12.736,1.023C4131.456-2830.87,4137.127-2830.127,4137.114-2829.954Z" fill="#263238"/>
        <path id="Trazado_179723" data-name="Trazado 179723" d="M4132.931-2760.8c0,.173-20.041.319-44.755.319s-44.769-.146-44.769-.319,20.04-.319,44.769-.319S4132.931-2760.989,4132.931-2760.8Z" fill="#455a64"/>
        <path id="Trazado_179724" data-name="Trazado 179724" d="M4118.96-2735.012c0,.172-13.493.318-30.147.318s-30.16-.146-30.16-.318,13.493-.319,30.16-.319S4118.96-2735.185,4118.96-2735.012Z" fill="#455a64"/>
        <path id="Trazado_179725" data-name="Trazado 179725" d="M4118.468-2731.334c0,.186-13.28.319-29.628.319s-29.642-.133-29.642-.319,13.28-.3,29.642-.3S4118.468-2731.44,4118.468-2731.334Z" fill="#455a64"/>
        <path id="Trazado_179726" data-name="Trazado 179726" d="M4119.517-2738.08c0,.173-13.971.319-31.2.319s-31.2-.146-31.2-.319,13.971-.319,31.2-.319S4119.517-2738.226,4119.517-2738.08Z" fill="#455a64"/>
        <path id="Trazado_179727" data-name="Trazado 179727" d="M4364.077-2780.14a15.587,15.587,0,0,1,8.057,9.124,27.578,27.578,0,0,1,1.067,12.355c-.906,8.028-5.468,16.084-10.367,22.533-6.755-5.849-8.305-16.172-8.773-21.436-.731-8.334,3.012-23.819,10.016-22.576" fill="#ff6b00"/>
        <path id="Trazado_179728" data-name="Trazado 179728" d="M4371.286-2722.077a13.26,13.26,0,0,1,3.363-12.882,17.547,17.547,0,0,1,12.648-4.986,7.316,7.316,0,0,1,5.848,2.135,5.659,5.659,0,0,1,.5,5.732,11.361,11.361,0,0,1-3.934,4.474c-5.571,4.094-11.7,7.019-18.453,5.527" fill="#ff6b00"/>
        <path id="Trazado_179729" data-name="Trazado 179729" d="M4362.381-2698.4a5.2,5.2,0,0,1,.19-1.681c.19-1.082.5-2.618.921-4.518a56.6,56.6,0,0,1,5.074-14.374,28.587,28.587,0,0,1,10.382-11.127,18.194,18.194,0,0,1,4.269-1.842,5.585,5.585,0,0,1,1.667-.322,40.327,40.327,0,0,0-5.6,2.72,29.7,29.7,0,0,0-9.914,11,65.28,65.28,0,0,0-5.249,14.1A52.3,52.3,0,0,1,4362.381-2698.4Z" fill="#263238"/>
        <path id="Trazado_179730" data-name="Trazado 179730" d="M4362.615-2768.019a17.677,17.677,0,0,1,.263,2.779c.117,1.8.234,4.386.351,7.6.249,6.434.424,15.309.4,25.135s-.307,18.687-.6,25.12c-.146,3.217-.292,5.849-.424,7.6a16.48,16.48,0,0,1-.278,2.778,14.914,14.914,0,0,1-.073-2.793c0-1.959.088-4.518.132-7.618.132-6.419.292-15.294.336-25.106s0-18.672-.117-25.1c0-3.086,0-5.644-.073-7.6A15.521,15.521,0,0,1,4362.615-2768.019Z" fill="#263238"/>
        <path id="Trazado_179731" data-name="Trazado 179731" d="M4358.813-2717.778a31.011,31.011,0,0,0-16.464-23.073c-2.223-1.126-5.162-1.9-7.048-.263s-1.535,4.664-.687,7.018a26.539,26.539,0,0,0,24.024,16.976" fill="#ff6b00"/>
        <path id="Trazado_179732" data-name="Trazado 179732" d="M4343.007-2733.35a6.071,6.071,0,0,1,1.462.614,12.145,12.145,0,0,1,1.682.892,21.853,21.853,0,0,1,2.134,1.36,32.917,32.917,0,0,1,4.972,4.313,38.034,38.034,0,0,1,4.811,6.478,37.516,37.516,0,0,1,3.187,7.413,32.349,32.349,0,0,1,1.243,6.478,19.668,19.668,0,0,1,.117,2.515,12.791,12.791,0,0,1,0,1.915,5.689,5.689,0,0,1-.234,1.608c-.175,0,0-2.324-.439-5.965a36.675,36.675,0,0,0-1.462-6.3,40.238,40.238,0,0,0-3.187-7.209,40.767,40.767,0,0,0-4.636-6.36,37.758,37.758,0,0,0-4.737-4.387C4345.069-2732.18,4342.919-2733.16,4343.007-2733.35Z" fill="#263238"/>
      </g>
      <path id="Trazado_179524-2" data-name="Trazado 179524" d="M4360.761-3141.205a13.091,13.091,0,0,1,2.433-2.517l-.592-3.159,4.886-2.115,1.9,2.6a12.949,12.949,0,0,1,3.469-.05l1.82-2.651,4.936,1.967-.5,3.173a13.028,13.028,0,0,1,2.482,2.419l3.166-.585,2.116,4.886-2.6,1.89a13,13,0,0,1,.049,3.469l2.651,1.82-1.967,4.935-3.18-.5a12.88,12.88,0,0,1-2.419,2.489l.593,3.159-4.887,2.115-1.911-2.587a13,13,0,0,1-3.469.049l-1.82,2.651-4.935-1.967.5-3.173a13.035,13.035,0,0,1-2.489-2.419l-3.159.585-2.115-4.886,2.6-1.89a12.957,12.957,0,0,1-.05-3.469l-2.651-1.819,1.967-4.936,3.173.5Zm5.31,5.479c-2.83,6.84,7.978,11.128,10.6,4.207C4379.5-3138.359,4368.7-3142.646,4366.071-3135.726Z" fill="#8640c9"/>
      <path id="Trazado_179525-2" data-name="Trazado 179525" d="M4366.071-3135.726a1.606,1.606,0,0,1,.12-.345,4.533,4.533,0,0,1,.508-.924,5.634,5.634,0,0,1,3.109-2.235,5.844,5.844,0,0,1,7.225,4.015,5.844,5.844,0,0,1-2.557,6.583,5.72,5.72,0,0,1-3.3.881,5.837,5.837,0,0,1-2.954-.916,5.784,5.784,0,0,1-2.588-5.705,4.592,4.592,0,0,1,.268-1.022,1.572,1.572,0,0,1,.148-.332c.042,0-.169.48-.275,1.368a5.685,5.685,0,0,0,.8,3.611,5.57,5.57,0,0,0,7.65,1.881l.078-.048a5.516,5.516,0,0,0,2.412-6.071,5.446,5.446,0,0,0-1.665-2.743,5.546,5.546,0,0,0-5.175-1.234,5.739,5.739,0,0,0-3.068,2.073C4366.276-3136.191,4366.113-3135.705,4366.071-3135.726Z" fill="#5a189a"/>
      <path id="Trazado_179526-2" data-name="Trazado 179526" d="M4360.761-3141.205h-.2l-.606-.077-2.384-.346.064-.035c-.494,1.276-1.143,2.941-1.932,4.936v-.113l2.658,1.812.056.036v.063a12.837,12.837,0,0,0,.064,3.434v.078l-.057.042-2.595,1.9.043-.155q1.008,2.306,2.115,4.879l-.155-.084,3.159-.593h.092l.056.078a13.018,13.018,0,0,0,2.461,2.383l.078.057v.091c-.155.987-.325,2.073-.494,3.18l-.106-.176,4.936,1.96-.2.057,1.812-2.651.063-.085h.106a13.008,13.008,0,0,0,3.42-.056h.106l.063.084,1.9,2.6-.218-.063,4.886-2.116-.106.2c-.19-1-.387-2.073-.592-3.159v-.113l.085-.071a12.684,12.684,0,0,0,2.383-2.446h0c.346-.149.092-.043.176-.071h.4l.4.063.8.127,1.586.247-.2.113,1.967-4.936.064.219-2.652-1.82-.084-.063v-.106a12.915,12.915,0,0,0-.042-3.42v-.105l.091-.064,2.6-1.89-.063.212-2.116-4.894.184.1-3.159.585h-.1l-.064-.077a12.7,12.7,0,0,0-2.453-2.4l-.078-.056V-3144c.169-1.093.338-2.115.5-3.173l.1.162-4.936-1.974.17-.057-1.827,2.652-.042.063h-.085a12.949,12.949,0,0,0-3.434.035h-.07l-.042-.063-1.876-2.539.127.036-4.894,2.08.05-.092.564,3.166v.035h0a13.708,13.708,0,0,0-1.9,1.784l-.416.494a1.127,1.127,0,0,1-.141.162,1.129,1.129,0,0,1,.113-.183c.084-.113.211-.289.4-.508a12.535,12.535,0,0,1,1.875-1.84v.056c-.169-.86-.367-1.9-.613-3.159v-.063h.063l4.873-2.116h.077l.057.064,1.9,2.6-.119-.05a13.418,13.418,0,0,1,3.525-.063l-.127.056,1.813-2.651.063-.092.106.043,4.936,1.953.113.042v.12c-.163,1.037-.325,2.115-.494,3.18l-.063-.155a13.4,13.4,0,0,1,2.524,2.447l-.162-.064,3.159-.592h.134l.056.12c.705,1.594,1.41,3.215,2.116,4.887l.056.126-.113.085-2.736,1.826.071-.169a13.3,13.3,0,0,1,.049,3.526l-.078-.169,2.652,1.819.12.077-.05.134-1.967,4.936-.056.134h-.141l-1.587-.253-.8-.12-.4-.064-.2-.035h-.191l.17-.071h0a13.2,13.2,0,0,1-2.447,2.518l.063-.177c.205,1.086.4,2.165.586,3.159v.149l-.134.056-4.831,2.08-.134.056-.084-.112c-.649-.9-1.3-1.791-1.89-2.6l.169.07a13.093,13.093,0,0,1-3.525.05l.162-.078-1.819,2.616-.078.113-.127-.049-4.936-1.975-.12-.049v-.127c.177-1.107.346-2.193.5-3.18l.063.155a13.238,13.238,0,0,1-2.51-2.454l.148.056-3.166.586h-.113l-.042-.113c-.705-1.714-1.41-3.35-2.115-4.887l-.043-.1.085-.063,2.609-1.883-.05.113a13.258,13.258,0,0,1-.042-3.526l.05.106-2.645-1.833-.056-.042v-.071c.818-2,1.488-3.667,2-4.936v-.042h.05l2.348.4.606.1Z" fill="#5a189a"/>
      <path id="Trazado_179527-2" data-name="Trazado 179527" d="M4366.071-3135.726a6.707,6.707,0,0,1,.317-.634,5.7,5.7,0,0,1,7.75-2.195,5.7,5.7,0,0,1,2.195,7.75,5.7,5.7,0,0,1-5.432,2.9,5.761,5.761,0,0,1-5.119-4.231,6.066,6.066,0,0,1-.212-1.819,6.834,6.834,0,0,1,.113-.924,1.657,1.657,0,0,1,.106-.451l.056-.225.036-.106v-.05h0c0-.042,0,.12.12.156l.218-.085a3.1,3.1,0,0,0-.261.705,5.378,5.378,0,0,0,.212,3.476,5.641,5.641,0,0,0,2.157,2.616,5.747,5.747,0,0,0,3.159.9,5.706,5.706,0,0,0,5.587-5.82,5.707,5.707,0,0,0-5.821-5.587,5.7,5.7,0,0,0-3.587,1.366,5.557,5.557,0,0,0-1.3,1.593,4.422,4.422,0,0,0-.232.487,1.061,1.061,0,0,1-.078.169.64.64,0,0,1,.042-.183,3.4,3.4,0,0,1,.205-.508,5.389,5.389,0,0,1,1.262-1.664,5.867,5.867,0,0,1,3-1.41,5.944,5.944,0,0,1,6.755,5c.028.188.046.377.056.566a5.993,5.993,0,0,1-5.617,6.348,5.994,5.994,0,0,1-5.926-3.746,5.8,5.8,0,0,1-.232-3.709,3.542,3.542,0,0,1,.3-.789l.07-.134.141.049c.127.049.148.219.134.183s0,.043,0,.05v.1l-.035.106-.056.219c-.036.141-.071.282-.1.43a6.088,6.088,0,0,0-.106.867,5.786,5.786,0,0,0,.2,1.707,5.39,5.39,0,0,0,6.651,3.727,5.391,5.391,0,0,0,3.728-6.651,5.391,5.391,0,0,0-5.859-3.888,5.628,5.628,0,0,0-2.884,1.22,5.811,5.811,0,0,0-1.319,1.509C4366.205-3135.93,4366.106-3135.7,4366.071-3135.726Z" fill="#5a189a"/>
      <path id="Trazado_179528-2" data-name="Trazado 179528" d="M4360.761-3141.205l-3.215-.514h.042l-2.009,5.048v-.077l2.7,1.854-.113.1-.042-.092h.148a13.044,13.044,0,0,0,.05,3.47h-.17l.043-.1.134.106-2.673,1.946v-.113l2.186,5.063-.12-.063,3.265-.607v.219l-.134-.05.134-.176a12.945,12.945,0,0,0,2.489,2.419l-.183.141-.057-.134h.233c-.162.994-.338,2.115-.522,3.286l-.077-.134,5.168,2.052-.162.049,1.89-2.75.169.2-.148.071-.035-.261a13.133,13.133,0,0,0,3.469-.056v.275l-.148-.064.169-.218,1.968,2.707-.177-.049,5.12-2.214-.085.169c-.19-1-.4-2.115-.614-3.286h.3l-.064.162-.24-.176a13.379,13.379,0,0,0,2.426-2.5l.183.247-.162.063v-.3l3.307.515-.176.1,2.059-5.182.056.2-2.757-1.89.247-.211.071.155-.318.049a12.987,12.987,0,0,0-.056-3.462l.324.035-.063.155-.254-.2,2.694-1.974-.057.211c-.705-1.586-1.41-3.335-2.207-5.1l.191.1-3.279.613v-.338l.148.056-.205.275a13.027,13.027,0,0,0-2.482-2.412l.268-.2.057.134-.339.042c.155-1.022.332-2.15.508-3.286l.113.191-5.148-2.031.219-.064-1.869,2.736-.226-.268.113-.049.057.346a12.954,12.954,0,0,0-3.455.063l.049-.353.1.043-.219.275-1.946-2.652.218.057-5,2.186.106-.205c.2,1.016.409,2.116.62,3.216h-.352v-.057l.289.212a11.625,11.625,0,0,0-2.115,2.115l-.149.191h-.1c.056,0-.162-.191-.24-.106h0l.317-.381a6.959,6.959,0,0,1,.705-.747,13.235,13.235,0,0,1,1.488-1.333l-.07.176c-.191-1.079-.381-2.115-.571-3.194l.345.049-.049.085-.233-.254,4.9-2.115v.345h-.12l.2-.289,1.925,2.658-.176-.07a13.258,13.258,0,0,1,3.624-.042l-.176.077,1.869-2.7.2.275-.155.042v-.339l4.936,1.975-.226.261-.084-.148.338-.064c-.176,1.093-.352,2.179-.522,3.258l-.07-.169a12.783,12.783,0,0,1,2.609,2.552l-.169-.07,3.25-.6-.049.332-.169-.092.247-.219,2.115,4.887h-.324l.056-.19.268.19c-.917.656-1.8,1.3-2.68,1.946l.064-.162a13,13,0,0,1,.049,3.66l-.07-.163,2.729,1.883-.254.184-.057-.2h.311c-.67,1.692-1.326,3.328-1.968,4.936l-.232-.2.176-.106.056.3-3.272-.522.149-.056a13.276,13.276,0,0,1-2.553,2.623l.056-.155c.212,1.135.409,2.207.6,3.258l-.282-.043.1-.176.191.211-4.887,2.116v-.275l.191.049-.156.226-1.953-2.673.141.057a12.989,12.989,0,0,1-3.652.049l.127-.056-1.869,2.722-.148-.2.176-.056v.247l-4.936-1.968.155-.176.092.162-.233.042c.184-1.2.353-2.242.508-3.264l.049.12a13.338,13.338,0,0,1-2.6-2.532l.113.042-3.243.6v-.2l.141.078-.141.134c-.8-1.848-1.474-3.42-2.116-4.887h.177l-.036.141-.148-.1,2.652-1.932-.036.084a13.208,13.208,0,0,1-.056-3.589v.071l-2.7-1.848.1-.07v.1h-.12l1.96-4.936.057.05h-.057v-.071l3.18.487a6.116,6.116,0,0,1-.789-.078l-2.426-.367h-.12l.106-.056.056-.035.1-.057-.042.106c-.473,1.213-1.086,2.821-1.918,4.936l-.064.176-.056-.183v-.1l-.057-.176.156.106,2.707,1.833h0v.05a12.9,12.9,0,0,0,.071,3.525v.05l-.042.035-2.638,1.946-.218.155.07-.261v-.141l.071-.254.113.247,2.115,4.873.12.282-.268-.148-.141-.071-.268-.141.3-.056,3.237-.621h.063l.042.057a13.12,13.12,0,0,0,2.567,2.475l.057.042v.077l-.5,3.258-.056.353-.177-.311-.091-.155-.177-.31.332.134,4.936,1.946.352.141-.366.113-.177.057-.366.112.211-.317,1.869-2.729.049-.07h.078a12.8,12.8,0,0,0,3.582-.057h.084l.05.071,1.953,2.672.247.339-.4-.113-.191-.049-.4-.113.38-.163,4.88-2.115.4-.169-.2.381-.1.183-.205.381-.078-.43c-.2-1.051-.394-2.116-.606-3.258v-.092l.078-.056a12.889,12.889,0,0,0,2.489-2.567l.056-.077h.1l3.349.557.452.07-.4.226-.177.1-.4.233.17-.43,1.96-4.936.176-.437.141.451.057.191.141.451-.4-.268-2.729-1.869-.085-.063v-.1a12.862,12.862,0,0,0-.049-3.568v-.106l.085-.056,2.679-1.953.4-.289-.127.472a.251.251,0,0,1-.056.19l-.127.473-.191-.451q-1.058-2.412-2.115-4.887l-.2-.458.444.232.162.092.444.233-.493.091-3.251.607h-.106l-.063-.085a12.717,12.717,0,0,0-2.546-2.482l-.084-.063v-.106c.169-1.079.345-2.165.514-3.258l.085-.5.254.437.077.148.261.451-.479-.19-4.936-1.982-.473-.19.494-.148.148-.042.494-.156-.3.431-1.861,2.7-.064.092h-.1a12.853,12.853,0,0,0-3.526.042h-.113l-.063-.084c-.642-.882-1.277-1.77-1.925-2.659l-.3-.423.5.141h.12l.5.141-.48.205-4.893,2.115-.48.2.247-.459.042-.077.247-.466.092.522c.19,1.051.38,2.115.578,3.194v.106l-.085.071a13.1,13.1,0,0,0-1.41,1.3c-.226.24-.444.48-.656.705l-.324.381v.035h-.042c-.078.085-.3-.113-.24-.106h0v-.035a.64.64,0,0,1,0-.106.7.7,0,0,1,.1-.2l.156-.205a12.384,12.384,0,0,1,2.15-2.185l.522-.416-.233.627v.049l-.232.607-.12-.635c-.212-1.107-.423-2.2-.621-3.215v-.148l.134-.057,5-2.179.141-.056.084.113,1.946,2.658.388.529-.606-.254-.1-.042-.6-.254.641-.1a13.373,13.373,0,0,1,3.526-.056l.649.078-.6.268-.106.049-.593.268.367-.536,1.869-2.736.077-.12.134.057,5.141,2.03.134.057v.141l-.508,3.279-.1.634-.247-.592-.056-.134-.24-.585.515.373a13.333,13.333,0,0,1,2.546,2.475l.394.5-.592-.226-.141-.056-.592-.219.62-.119,3.279-.614h.134l.057.127c.768,1.77,1.523,3.526,2.207,5.1l.056.127-.113.085-2.7,1.967-.494.36.24-.564.063-.148.233-.565.092.6a13.481,13.481,0,0,1,.049,3.561l-.071.592-.3-.48-.07-.155-.247-.543.493.339,2.758,1.89.1.077-.042.12c-.705,1.805-1.41,3.582-2.066,5.183l-.049.12h-.127l-3.307-.522-.558-.085.522-.218.162-.064.522-.211-.338.458a13.064,13.064,0,0,1-2.482,2.538l-.437.346.2-.522.063-.155.2-.522.1.55c.211,1.15.423,2.285.606,3.286v.12l-.113.049-5.119,2.2-.113.043-.063-.092-1.968-2.708-.3-.409.466.2.155.063.465.2-.5.07a13.378,13.378,0,0,1-3.525.043l-.487-.057.444-.2.149-.064.451-.2-.282.409-1.9,2.743-.056.091-.1-.042-5.162-2.066-.091-.042v-.1c.19-1.157.366-2.285.528-3.286l.071-.423.155.4.056.141.163.4-.339-.254a13.223,13.223,0,0,1-2.531-2.475l-.247-.325.381.149.127.049.38.141-.4.077-3.265.593h-.085v-.078l-2.165-5.077v-.07l.064-.043,2.679-1.932.254-.183-.12.282-.042.106-.12.289-.049-.31a13.319,13.319,0,0,1,0-3.526v-.275l.113.254.042.092.113.253-.226-.162-2.764-1.883h-.042v-.049l2.059-5.02v-.036h.056l2.4.43.607.113Z" fill="#5a189a"/>
      <g id="Group_118103" data-name="Group 118103">
        <path id="Trazado_179524-3" data-name="Trazado 179524" d="M4336.759-3213.042a21.9,21.9,0,0,1,4.091-4.234l-1-5.313,8.218-3.557,3.19,4.364a21.792,21.792,0,0,1,5.835-.083l3.06-4.459,8.3,3.308-.842,5.337a21.922,21.922,0,0,1,4.174,4.068l5.325-.985,3.558,8.219-4.364,3.178a21.883,21.883,0,0,1,.083,5.835l4.459,3.059-3.309,8.3-5.348-.842a21.617,21.617,0,0,1-4.068,4.186l1,5.313-8.218,3.557-3.214-4.352a21.792,21.792,0,0,1-5.835.083l-3.059,4.459-8.3-3.308.842-5.337a21.981,21.981,0,0,1-4.186-4.068l-5.313.985-3.558-8.219,4.376-3.178a21.9,21.9,0,0,1-.083-5.835l-4.459-3.059,3.309-8.3,5.337.842Zm8.929,9.214c-4.76,11.5,13.417,18.715,17.837,7.075C4368.282-3208.256,4350.109-3215.466,4345.688-3203.828Z" fill="#8640c9"/>
        <path id="Trazado_179525-3" data-name="Trazado 179525" d="M4345.688-3203.828a2.715,2.715,0,0,1,.2-.581,7.59,7.59,0,0,1,.854-1.553,9.486,9.486,0,0,1,5.23-3.76,9.831,9.831,0,0,1,12.151,6.753,9.831,9.831,0,0,1-4.3,11.072,9.638,9.638,0,0,1-5.551,1.482,9.82,9.82,0,0,1-4.968-1.542,9.724,9.724,0,0,1-4.353-9.594,7.758,7.758,0,0,1,.451-1.719,2.65,2.65,0,0,1,.249-.558c.071,0-.285.807-.463,2.3a9.559,9.559,0,0,0,1.352,6.072,9.37,9.37,0,0,0,12.866,3.165l.132-.082a9.275,9.275,0,0,0,4.056-10.21,9.172,9.172,0,0,0-2.8-4.614,9.334,9.334,0,0,0-8.705-2.075,9.658,9.658,0,0,0-5.158,3.487C4346.032-3204.61,4345.76-3203.792,4345.688-3203.828Z" fill="#5a189a"/>
        <path id="Trazado_179526-3" data-name="Trazado 179526" d="M4336.759-3213.042h-.332l-1.02-.131-4.009-.581.107-.059c-.83,2.147-1.921,4.945-3.249,8.3v-.189l4.471,3.048.094.059v.107a21.6,21.6,0,0,0,.107,5.775v.13l-.1.071-4.364,3.191.071-.261q1.7,3.877,3.558,8.206l-.261-.142,5.313-1h.154l.095.13a21.863,21.863,0,0,0,4.139,4.009l.13.094v.155c-.261,1.66-.545,3.486-.83,5.348l-.178-.3,8.3,3.3-.344.1,3.048-4.459.106-.142h.178a21.858,21.858,0,0,0,5.752-.095h.178l.106.142,3.19,4.376-.367-.106,8.218-3.558-.178.344c-.32-1.684-.652-3.487-1-5.313v-.19l.142-.118a21.328,21.328,0,0,0,4.009-4.116h0c.581-.249.154-.071.3-.118h.664l.665.107,1.34.213,2.668.415-.332.19,3.309-8.3.106.367-4.459-3.059-.142-.107v-.178a21.67,21.67,0,0,0-.071-5.752v-.178l.154-.106,4.376-3.179-.107.356-3.558-8.23.309.166-5.313.984h-.166l-.107-.13a21.333,21.333,0,0,0-4.127-4.032l-.13-.095v-.154c.284-1.838.569-3.558.842-5.337l.166.273-8.3-3.321.285-.094-3.071,4.459-.072.106h-.142a21.821,21.821,0,0,0-5.775.06h-.119l-.071-.107-3.155-4.269.214.059-8.23,3.5.083-.154.948,5.325v.059h0a23.037,23.037,0,0,0-3.19,3l-.7.831a1.968,1.968,0,0,1-.237.272,2.012,2.012,0,0,1,.189-.308c.143-.19.356-.486.664-.854a21.137,21.137,0,0,1,3.155-3.095v.095c-.285-1.447-.617-3.19-1.032-5.313v-.107h.107l8.195-3.558h.13l.095.107,3.2,4.364-.2-.083a22.559,22.559,0,0,1,5.93-.106l-.214.094,3.048-4.459.107-.154.178.071,8.3,3.285.19.072v.2c-.273,1.743-.546,3.558-.83,5.349l-.107-.261a22.428,22.428,0,0,1,4.245,4.115l-.272-.107,5.313-1h.225l.095.2c1.186,2.68,2.372,5.407,3.558,8.218l.094.213-.189.143-4.6,3.071.119-.284a22.323,22.323,0,0,1,.083,5.929l-.131-.284,4.459,3.059.2.131-.083.225-3.309,8.3-.1.226h-.237l-2.668-.427-1.34-.2-.664-.107-.344-.059h-.32l.284-.119h0a22.15,22.15,0,0,1-4.115,4.234l.107-.3c.344,1.826.676,3.64.984,5.313v.249l-.225.094-8.124,3.5-.225.095-.142-.19c-1.091-1.518-2.182-3.012-3.178-4.376l.284.119a22.009,22.009,0,0,1-5.929.083l.272-.131-3.059,4.4-.131.19-.213-.083-8.3-3.321-.2-.083v-.213c.3-1.862.581-3.689.842-5.349l.107.261a22.141,22.141,0,0,1-4.222-4.127l.249.095-5.325.984h-.19l-.071-.19c-1.186-2.881-2.372-5.633-3.558-8.218l-.071-.166.143-.107,4.387-3.166-.083.19a22.328,22.328,0,0,1-.071-5.93l.083.178-4.447-3.083-.1-.072v-.118c1.376-3.368,2.5-6.167,3.368-8.3v-.072h.083l3.949.676,1.02.178Z" fill="#5a189a"/>
        <path id="Trazado_179527-3" data-name="Trazado 179527" d="M4345.688-3203.828a11.51,11.51,0,0,1,.534-1.067,9.579,9.579,0,0,1,13.034-3.69,9.578,9.578,0,0,1,3.69,13.033,9.577,9.577,0,0,1-9.134,4.876,9.688,9.688,0,0,1-8.61-7.115,10.225,10.225,0,0,1-.356-3.06,11.35,11.35,0,0,1,.19-1.553,2.834,2.834,0,0,1,.178-.759l.1-.38.059-.178v-.083h0c0-.071,0,.2.2.261l.368-.142a5.127,5.127,0,0,0-.439,1.186,9.041,9.041,0,0,0,.356,5.846,9.487,9.487,0,0,0,3.628,4.4,9.683,9.683,0,0,0,5.313,1.518,9.593,9.593,0,0,0,9.4-9.789,9.593,9.593,0,0,0-9.788-9.4,9.591,9.591,0,0,0-6.034,2.3,9.388,9.388,0,0,0-2.182,2.681,7.527,7.527,0,0,0-.392.818,1.765,1.765,0,0,1-.13.285,1.05,1.05,0,0,1,.071-.309,5.846,5.846,0,0,1,.344-.854,9.044,9.044,0,0,1,2.123-2.8,9.858,9.858,0,0,1,5.04-2.372,10,10,0,0,1,11.36,8.416q.07.474.1.952a10.081,10.081,0,0,1-9.448,10.676,10.081,10.081,0,0,1-9.966-6.3,9.76,9.76,0,0,1-.391-6.237,6.037,6.037,0,0,1,.51-1.329l.118-.225.238.083c.213.083.249.368.225.308s0,.072,0,.083v.178l-.059.178-.095.368c-.06.237-.119.474-.166.723a10.124,10.124,0,0,0-.178,1.459,9.731,9.731,0,0,0,.332,2.87A9.067,9.067,0,0,0,4357-3191.7a9.066,9.066,0,0,0,6.269-11.186,9.066,9.066,0,0,0-9.853-6.539,9.489,9.489,0,0,0-4.851,2.052,9.744,9.744,0,0,0-2.217,2.537C4345.914-3204.172,4345.748-3203.78,4345.688-3203.828Z" fill="#5a189a"/>
        <path id="Trazado_179528-3" data-name="Trazado 179528" d="M4336.759-3213.042l-5.408-.866h.071l-3.38,8.491v-.13l4.542,3.119-.19.166-.071-.154h.249a21.977,21.977,0,0,0,.083,5.834h-.284l.071-.166.225.178-4.494,3.273v-.189l3.676,8.514-.2-.106,5.491-1.02v.367l-.225-.083.225-.3a21.738,21.738,0,0,0,4.186,4.068l-.308.237-.1-.226h.391c-.272,1.673-.569,3.558-.877,5.527l-.131-.226,8.693,3.451-.273.084,3.179-4.626.284.333-.249.118-.059-.439a21.965,21.965,0,0,0,5.835-.095v.463l-.249-.107.284-.367,3.309,4.554-.3-.083,8.61-3.724-.142.284c-.32-1.684-.676-3.557-1.032-5.526h.5l-.107.273-.4-.3a22.532,22.532,0,0,0,4.08-4.2l.308.415-.273.107v-.51l5.562.866-.3.166,3.463-8.717.094.332-4.636-3.178.415-.356.118.261-.533.083a21.951,21.951,0,0,0-.095-5.822l.545.059-.107.261-.426-.344,4.53-3.321-.1.356c-1.186-2.668-2.372-5.609-3.712-8.586l.32.166-5.514,1.032v-.569l.249.094-.344.463a21.944,21.944,0,0,0-4.175-4.056l.451-.344.1.226-.569.071c.261-1.72.557-3.617.854-5.527l.189.321-8.657-3.416.368-.107-3.143,4.6-.379-.451.189-.083.095.581a21.774,21.774,0,0,0-5.811.107l.083-.593.166.071-.367.463-3.273-4.459.367.094-8.408,3.677.178-.344c.332,1.708.688,3.558,1.044,5.408h-.593v-.095l.486.355a19.7,19.7,0,0,0-3.558,3.558l-.249.32h-.166c.095,0-.273-.32-.4-.178h0l.534-.64a11.52,11.52,0,0,1,1.186-1.257,22.167,22.167,0,0,1,2.5-2.241l-.119.3c-.32-1.814-.64-3.558-.96-5.372l.581.083-.083.142-.392-.427,8.242-3.557v.581h-.2l.332-.487,3.237,4.471-.3-.118a22.344,22.344,0,0,1,6.1-.071l-.3.13,3.143-4.542.344.463-.261.071v-.57l8.3,3.321-.379.439-.143-.249.569-.107c-.3,1.838-.593,3.664-.877,5.479l-.119-.285a21.537,21.537,0,0,1,4.388,4.293l-.285-.118,5.468-1.008-.083.557-.285-.154.415-.368,3.558,8.219h-.546l.095-.321.451.321c-1.542,1.1-3.024,2.194-4.507,3.273l.107-.273a21.9,21.9,0,0,1,.083,6.155l-.119-.273,4.59,3.166-.427.309-.1-.332h.522c-1.127,2.846-2.23,5.6-3.309,8.3l-.391-.332.3-.178.095.51-5.5-.877.249-.095a22.339,22.339,0,0,1-4.293,4.411l.094-.261c.356,1.91.688,3.712,1.009,5.479l-.475-.071.166-.3.32.355-8.218,3.558v-.462l.32.083-.261.379-3.285-4.5.238.095a21.833,21.833,0,0,1-6.143.083l.213-.095-3.143,4.578-.249-.332.3-.095v.415l-8.3-3.308.261-.3.154.273-.391.071c.308-2.016.593-3.771.854-5.491l.083.2a22.388,22.388,0,0,1-4.376-4.258l.19.072-5.455,1.008v-.332l.237.13-.237.225c-1.352-3.107-2.479-5.751-3.558-8.218h.3l-.059.237-.249-.166,4.459-3.249-.059.142a22.154,22.154,0,0,1-.095-6.036v.118l-4.542-3.107.166-.118v.166h-.2l3.3-8.3.1.083h-.1v-.118l5.349.818a10.406,10.406,0,0,1-1.329-.13l-4.079-.617h-.2l.178-.095.1-.059.166-.095-.071.178c-.795,2.04-1.827,4.743-3.226,8.3l-.107.3-.095-.309v-.166l-.094-.3.26.178,4.554,3.083h0v.083a21.694,21.694,0,0,0,.119,5.93v.083l-.071.059-4.435,3.273-.368.261.118-.439v-.237l.119-.427.19.415,3.558,8.2.2.474-.45-.249-.238-.119-.45-.237.51-.095,5.443-1.043h.107l.071.095a21.932,21.932,0,0,0,4.317,4.162l.094.071v.131l-.842,5.479-.094.593-.3-.522-.154-.261-.3-.522.558.225,8.3,3.274.593.237-.617.19-.3.094-.617.19.356-.534,3.143-4.589.083-.119h.13a21.48,21.48,0,0,0,6.025-.094h.142l.083.118,3.285,4.495.415.569-.676-.19-.32-.083-.676-.189.64-.273,8.207-3.558.676-.285-.344.641-.166.308-.344.641-.131-.724c-.332-1.767-.664-3.558-1.02-5.479v-.154l.131-.095a21.627,21.627,0,0,0,4.186-4.316l.095-.131h.166l5.633.937.759.118-.664.38-.3.166-.676.391.284-.723,3.3-8.3.3-.736.237.759.095.321.237.758-.664-.45-4.59-3.143-.142-.107v-.166a21.664,21.664,0,0,0-.083-6v-.178l.142-.095,4.507-3.285.664-.486-.214.794a.425.425,0,0,1-.1.321l-.213.794-.32-.759q-1.779-4.056-3.558-8.218l-.332-.771.747.391.273.154.747.392-.83.154-5.467,1.02h-.178l-.107-.142a21.328,21.328,0,0,0-4.281-4.175l-.142-.107v-.177c.284-1.815.581-3.641.865-5.479l.143-.842.427.735.13.249.439.759-.806-.32-8.3-3.333-.794-.32.83-.249.249-.071.83-.261-.5.723-3.131,4.543-.107.154h-.178a21.6,21.6,0,0,0-5.929.071h-.19l-.107-.142c-1.079-1.483-2.146-2.977-3.237-4.471l-.51-.712.842.237h.2l.842.238-.807.343-8.23,3.558-.806.332.415-.771.071-.13.415-.783.154.878c.32,1.767.64,3.558.972,5.372v.178l-.142.118a22.257,22.257,0,0,0-2.372,2.183c-.379.4-.747.806-1.1,1.185l-.545.641v.059h-.071c-.131.142-.5-.19-.4-.178h0v-.059a.9.9,0,0,1,0-.178,1.162,1.162,0,0,1,.166-.344l.26-.344a20.88,20.88,0,0,1,3.617-3.676l.878-.7-.391,1.056v.083l-.392,1.02-.2-1.068c-.356-1.862-.712-3.7-1.044-5.407v-.25l.225-.094,8.409-3.665.237-.095.142.19,3.273,4.471.652.889-1.019-.427-.166-.071-1.009-.427,1.08-.166a22.5,22.5,0,0,1,5.929-.095l1.091.131-1.008.451-.178.083-1,.45.617-.9,3.142-4.6.131-.2.225.095,8.646,3.415.225.095v.237l-.854,5.515-.166,1.067-.415-1-.095-.225-.4-.985.866.629a22.417,22.417,0,0,1,4.281,4.162l.664.842-1-.379-.238-.095-1-.368,1.044-.2,5.514-1.032h.226l.095.214c1.292,2.976,2.561,5.929,3.711,8.585l.1.214-.189.142-4.542,3.309-.831.6.4-.949.106-.249.392-.949.154,1.008a22.628,22.628,0,0,1,.083,5.989l-.119,1-.51-.806-.118-.261-.415-.913.83.569,4.637,3.178.178.131-.072.2c-1.186,3.036-2.371,6.025-3.474,8.717l-.083.2h-.214l-5.562-.877-.937-.143.878-.367.273-.107.877-.356-.569.771a21.965,21.965,0,0,1-4.174,4.269l-.736.581.332-.877.107-.261.332-.878.166.925c.356,1.933.712,3.843,1.02,5.527v.2l-.19.083-8.609,3.7-.19.072-.107-.155-3.308-4.553-.5-.688.783.332.261.106.783.333-.842.118a22.433,22.433,0,0,1-5.93.071l-.818-.095.747-.343.249-.107.759-.344-.474.688-3.19,4.613-.095.154-.166-.071-8.681-3.475-.154-.071v-.166c.32-1.945.616-3.842.889-5.526l.119-.712.261.664.1.237.272.665-.569-.427a22.262,22.262,0,0,1-4.257-4.163l-.415-.545.64.249.213.083.641.237-.676.13-5.491,1h-.142v-.13l-3.641-8.539v-.118l.107-.071,4.506-3.25.427-.308-.2.474-.072.178-.2.486-.083-.521a22.533,22.533,0,0,1,0-5.93v-.462l.19.426.071.155.189.427-.379-.273-4.649-3.167h-.071v-.083l3.463-8.443v-.06h.095l4.032.724,1.02.189Z" fill="#5a189a"/>
      </g>
    </g>
  </g>
</svg>
