<svg xmlns="http://www.w3.org/2000/svg" width="502.424" height="354" viewBox="0 0 502.424 354">
  <g id="t4-i1" transform="translate(-180 -511)">
    <g id="Group_117228" data-name="Group 117228" transform="translate(561.029 511) rotate(90)" opacity="0.3">
      <ellipse id="Ellipse_5705" data-name="Ellipse 5705" cx="155.5" cy="155.5" rx="155.5" ry="155.5" fill="#ffb600" opacity="0.5"/>
      <ellipse id="Ellipse_5706" data-name="Ellipse 5706" cx="29.5" cy="29" rx="29.5" ry="29" transform="translate(5 323)" fill="#ffb600" opacity="0.5"/>
      <ellipse id="Ellipse_5707" data-name="Ellipse 5707" cx="14.5" cy="14.5" rx="14.5" ry="14.5" transform="translate(287 19)" fill="#ffb600" opacity="0.5"/>
      <g id="Group_117209" data-name="Group 117209" transform="translate(289.063 289.416)">
        <g id="Group_57690" data-name="Group 57690" transform="translate(0 0)">
          <g id="Group_57688" data-name="Group 57688" transform="translate(0 0)">
            <rect id="Rectangle_5195" data-name="Rectangle 5195" width="2.843" height="14.394" transform="translate(10.178 0) rotate(45)" fill="#5a189a"/>
          </g>
          <g id="Group_57689" data-name="Group 57689" transform="translate(0 0)">
            <rect id="Rectangle_5196" data-name="Rectangle 5196" width="2.843" height="14.394" transform="translate(12.188 10.178) rotate(135)" fill="#5a189a"/>
          </g>
        </g>
        <g id="Group_57693" data-name="Group 57693" transform="translate(0 26.475)">
          <g id="Group_57691" data-name="Group 57691" transform="translate(0 0)">
            <rect id="Rectangle_5197" data-name="Rectangle 5197" width="2.843" height="14.394" transform="translate(10.178 0) rotate(45)" fill="#5a189a"/>
          </g>
          <g id="Group_57692" data-name="Group 57692" transform="translate(0 0)">
            <rect id="Rectangle_5198" data-name="Rectangle 5198" width="2.843" height="14.394" transform="translate(12.188 10.178) rotate(135)" fill="#5a189a"/>
          </g>
        </g>
        <g id="Group_57696" data-name="Group 57696" transform="translate(0 52.95)">
          <g id="Group_57694" data-name="Group 57694" transform="translate(0 0)">
            <rect id="Rectangle_5199" data-name="Rectangle 5199" width="2.843" height="14.394" transform="translate(10.178 0) rotate(45)" fill="#5a189a"/>
          </g>
          <g id="Group_57695" data-name="Group 57695" transform="translate(0 0)">
            <rect id="Rectangle_5200" data-name="Rectangle 5200" width="2.843" height="14.394" transform="translate(12.188 10.178) rotate(135)" fill="#5a189a"/>
          </g>
        </g>
        <g id="Group_57699" data-name="Group 57699" transform="translate(0 79.425)">
          <g id="Group_57697" data-name="Group 57697" transform="translate(0 0)">
            <rect id="Rectangle_5201" data-name="Rectangle 5201" width="2.843" height="14.394" transform="translate(10.178 0) rotate(45)" fill="#5a189a"/>
          </g>
          <g id="Group_57698" data-name="Group 57698" transform="translate(0 0)">
            <rect id="Rectangle_5202" data-name="Rectangle 5202" width="2.843" height="14.394" transform="translate(12.188 10.178) rotate(135)" fill="#5a189a"/>
          </g>
        </g>
      </g>
      <g id="Group_117211" data-name="Group 117211" transform="translate(25.227 21.214)">
        <g id="Group_117210" data-name="Group 117210">
          <path id="Path_178449" data-name="Path 178449" d="M25.89,0A25.89,25.89,0,1,0,51.781,25.89,25.92,25.92,0,0,0,25.89,0Zm0,40.875A14.985,14.985,0,1,1,40.876,25.89,15,15,0,0,1,25.89,40.875Z" fill="#5a189a"/>
        </g>
      </g>
    </g>
    <g id="Group_117226" data-name="Group 117226" transform="translate(-2346.788 3964)">
      <g id="freepik--Table--inject-2">
        <path id="Path_178450" data-name="Path 178450" d="M3029.212-3099.307c0,.154-122.2.266-250.7.266s-251.722-.112-251.722-.266,123.178-.266,251.722-.266S3029.212-3099.45,3029.212-3099.307Z" fill="#263238"/>
      </g>
      <g id="freepik--Books--inject-2">
        <rect id="Rectangle_36618" data-name="Rectangle 36618" width="19.536" height="37.005" transform="translate(2888.081 -3138.409)" fill="#f5f5f5"/>
        <rect id="Rectangle_36619" data-name="Rectangle 36619" width="91.683" height="40.126" transform="translate(2907.627 -3139.709)" fill="#ff6b00"/>
        <rect id="Rectangle_36620" data-name="Rectangle 36620" width="57.257" height="17.9" transform="translate(2924.84 -3128.596)" fill="#c45200"/>
        <path id="Path_178451" data-name="Path 178451" d="M2886.425-3099.594h20.991v-2.6h-20.991a1.233,1.233,0,0,0-1.168,1.29v.01h0a1.235,1.235,0,0,0,1.159,1.3Z" fill="#c45200"/>
        <path id="Path_178452" data-name="Path 178452" d="M2907.443-3137.11H2886.27a1.07,1.07,0,0,1-1-1.126h0v-.347a1.07,1.07,0,0,1,1-1.126h21.173v2.6Z" fill="#c45200"/>
        <path id="Path_178453" data-name="Path 178453" d="M2888.091-3133.467c0,.062,4.37.113,9.763.113s9.763-.051,9.763-.113-4.37-.112-9.763-.112S2888.091-3133.467,2888.091-3133.467Z" fill="#e0e0e0"/>
        <path id="Path_178454" data-name="Path 178454" d="M2888.091-3128.708c0,.061,4.37.112,9.763.112s9.763-.051,9.763-.112-4.37-.113-9.763-.113S2888.091-3128.769,2888.091-3128.708Z" fill="#e0e0e0"/>
        <path id="Path_178455" data-name="Path 178455" d="M2888.091-3123.96c0,.062,4.37.113,9.763.113s9.763,0,9.763-.113-4.37-.112-9.763-.112S2888.091-3124.021,2888.091-3123.96Z" fill="#e0e0e0"/>
        <path id="Path_178456" data-name="Path 178456" d="M2888.091-3119.211c0,.061,4.37.112,9.763.112s9.763-.051,9.763-.112-4.37-.113-9.763-.113S2888.091-3119.273,2888.091-3119.211Z" fill="#e0e0e0"/>
        <path id="Path_178457" data-name="Path 178457" d="M2888.091-3114.463c0,.061,4.37.1,9.763.1s9.763,0,9.763-.1-4.37-.112-9.763-.112S2888.091-3114.535,2888.091-3114.463Z" fill="#e0e0e0"/>
        <path id="Path_178458" data-name="Path 178458" d="M2888.091-3109.725c0,.062,4.37.113,9.763.113s9.763-.051,9.763-.113-4.37-.112-9.763-.112S2888.091-3109.786,2888.091-3109.725Z" fill="#e0e0e0"/>
        <path id="Path_178459" data-name="Path 178459" d="M2888.091-3104.976c0,.061,4.37.112,9.763.112s9.763-.051,9.763-.112-4.37-.113-9.763-.113S2888.091-3105.038,2888.091-3104.976Z" fill="#e0e0e0"/>
        <rect id="Rectangle_36621" data-name="Rectangle 36621" width="18.85" height="22.401" transform="translate(2974.913 -3178.177)" fill="#f5f5f5"/>
        <rect id="Rectangle_36622" data-name="Rectangle 36622" width="85.174" height="25.277" transform="translate(2890.394 -3179.63)" fill="#ffb600"/>
        <path id="Path_178460" data-name="Path 178460" d="M2994.336-3177.471h-21.05v-2.118h21.05a1.023,1.023,0,0,1,1.024,1.023h0a1.023,1.023,0,0,1-.949,1.092C2994.386-3177.472,2994.361-3177.471,2994.336-3177.471Z" fill="#ffb600"/>
        <path id="Path_178461" data-name="Path 178461" d="M2994.336-3154.364h-21.05v-2.118h21.05a1.023,1.023,0,0,1,1.024,1.023h0a1.025,1.025,0,0,1-.949,1.093C2994.386-3154.364,2994.361-3154.364,2994.336-3154.364Z" fill="#ffb600"/>
        <g id="Group_117216" data-name="Group 117216" opacity="0.4">
          <rect id="Rectangle_36623" data-name="Rectangle 36623" width="10.06" height="25.277" transform="translate(2958.805 -3179.63)"/>
        </g>
        <g id="Group_117217" data-name="Group 117217" opacity="0.4">
          <rect id="Rectangle_36624" data-name="Rectangle 36624" width="10.06" height="25.277" transform="translate(2897.946 -3179.63)"/>
        </g>
        <path id="Path_178462" data-name="Path 178462" d="M2993.763-3174.462c0,.061-4.093.1-9.108.1s-9.107,0-9.107-.1,4.093-.113,9.107-.113S2993.763-3174.534,2993.763-3174.462Z" fill="#e0e0e0"/>
        <path id="Path_178463" data-name="Path 178463" d="M2993.763-3171.106c0,.062-4.093.113-9.108.113s-9.107-.051-9.107-.113,4.093-.112,9.107-.112S2993.763-3171.167,2993.763-3171.106Z" fill="#e0e0e0"/>
        <path id="Path_178464" data-name="Path 178464" d="M2993.763-3166.971c0,.061-4.093.112-9.108.112s-9.107-.051-9.107-.112,4.093-.113,9.107-.113S2993.763-3167.033,2993.763-3166.971Z" fill="#e0e0e0"/>
        <path id="Path_178465" data-name="Path 178465" d="M2993.763-3162.837c0,.061-4.093.113-9.108.113s-9.107-.052-9.107-.113,4.093-.113,9.107-.113S2993.763-3162.9,2993.763-3162.837Z" fill="#e0e0e0"/>
        <path id="Path_178466" data-name="Path 178466" d="M2993.763-3158.692c0,.061-4.093.112-9.108.112s-9.107,0-9.107-.112,4.093-.113,9.107-.113S2993.763-3158.754,2993.763-3158.692Z" fill="#e0e0e0"/>
        <g id="Group_117218" data-name="Group 117218" opacity="0.2">
          <rect id="Rectangle_36625" data-name="Rectangle 36625" width="38.315" height="4.554" transform="translate(2915.077 -3169.243)"/>
        </g>
        <rect id="Rectangle_36626" data-name="Rectangle 36626" width="19.137" height="13.652" transform="translate(2974.432 -3153.862)" fill="#fafafa"/>
        <rect id="Rectangle_36627" data-name="Rectangle 36627" width="81.439" height="14.644" transform="translate(2893.219 -3154.364)" fill="#263238"/>
        <path id="Path_178467" data-name="Path 178467" d="M2974.053-3153.371h20.57a.491.491,0,0,0,.5-.481v-.01h0a.5.5,0,0,0-.5-.5h-20.57Z" fill="#263238"/>
        <path id="Path_178468" data-name="Path 178468" d="M2974.053-3140.7h20.631a.43.43,0,0,1,.43.43h0v.133a.43.43,0,0,1-.43.43h-20.631v-.993Z" fill="#263238"/>
        <path id="Path_178469" data-name="Path 178469" d="M2993.569-3151.273c0,.061-4.237.112-9.456.112s-9.466,0-9.466-.112,4.237-.113,9.466-.113S2993.569-3151.334,2993.569-3151.273Z" fill="#e0e0e0"/>
        <path id="Path_178470" data-name="Path 178470" d="M2993.569-3148.684c0,.061-4.237.113-9.456.113s-9.466-.052-9.466-.113,4.237-.113,9.466-.113S2993.569-3148.745,2993.569-3148.684Z" fill="#e0e0e0"/>
        <path id="Path_178471" data-name="Path 178471" d="M2993.569-3146.1c0,.061-4.237.112-9.456.112s-9.466-.051-9.466-.112,4.237-.113,9.466-.113S2993.569-3146.167,2993.569-3146.1Z" fill="#e0e0e0"/>
        <path id="Path_178472" data-name="Path 178472" d="M2993.569-3143.526c0,.071-4.237.112-9.456.112s-9.466,0-9.466-.112,4.237-.1,9.466-.1S2993.569-3143.588,2993.569-3143.526Z" fill="#e0e0e0"/>
      </g>
      <path id="Path_178473" data-name="Path 178473" d="M2968.859-3320.383v28.112h0a9.6,9.6,0,0,1-9.6,9.6h-61.882c-1.945,4.073-6.662,9.957-17.295,11.666,0,0,4.482-5.147,4.861-11.666h-11.472a9.6,9.6,0,0,1-9.6-9.6v-28.081h0a9.6,9.6,0,0,1,9.6-9.6h85.788A9.6,9.6,0,0,1,2968.859-3320.383Z" fill="#fafafa"/>
      <path id="Path_178474" data-name="Path 178474" d="M2959.915-3329.47a7.888,7.888,0,0,1,1.73.235,9.642,9.642,0,0,1,7.317,8.187,25.352,25.352,0,0,1,.081,2.814v25.819a10.285,10.285,0,0,1-.808,4.462,10,10,0,0,1-2.886,3.756,9.675,9.675,0,0,1-4.492,1.985,13.944,13.944,0,0,1-2.518.144h-60.951l.235-.144a20.113,20.113,0,0,1-7.1,7.972,24.567,24.567,0,0,1-4.953,2.467,34.954,34.954,0,0,1-5.434,1.381l-.7.123.45-.563a21.182,21.182,0,0,0,4.8-11.513l.266.287h-8.381c-1.331,0-2.62.082-3.981,0a9.865,9.865,0,0,1-8.627-7.266,13.454,13.454,0,0,1-.338-3.868v-25.881a10.232,10.232,0,0,1,1.965-6.764,9.772,9.772,0,0,1,5.792-3.736,15.418,15.418,0,0,1,3.4-.225h39.061l33.239.082h0l-33.239.092h-38.979a14.723,14.723,0,0,0-3.295.225,9.346,9.346,0,0,0-5.506,3.551,9.743,9.743,0,0,0-1.852,6.478v25.881a13.29,13.29,0,0,0,.327,3.735,9.313,9.313,0,0,0,8.187,6.867h12.6v.286a19.057,19.057,0,0,1-1.616,6.386,23.468,23.468,0,0,1-3.316,5.434l-.235-.43a32.243,32.243,0,0,0,5.331-1.361,23.241,23.241,0,0,0,4.851-2.405,19.58,19.58,0,0,0,6.918-7.757l.071-.143h61.126a13.819,13.819,0,0,0,2.456-.133,9.413,9.413,0,0,0,7.081-5.485,10.033,10.033,0,0,0,.8-4.319v-25.819c0-.972.02-1.914-.062-2.794a9.54,9.54,0,0,0-7.163-8.187,15.689,15.689,0,0,0-2.3-.337Z" fill="#263238"/>
      <path id="Path_178475" data-name="Path 178475" d="M2873.375-3452.754h-59.661a15.268,15.268,0,0,0-15.269,15.268v26.966a15.259,15.259,0,0,0,15.259,15.258h38.478c0,7.8-5.506,14.092-5.506,14.092,12.833-2.047,17.94-9.518,19.9-14.092h6.847a15.257,15.257,0,0,0,15.268-15.248v-27.027a15.268,15.268,0,0,0-15.319-15.217Z" fill="#fafafa"/>
      <path id="Path_178476" data-name="Path 178476" d="M2873.375-3452.754a3.563,3.563,0,0,1,.389,0h1.136a15.807,15.807,0,0,1,4.3,1.023,15.352,15.352,0,0,1,9.518,12.853c0,.451.051.911.071,1.372v24.468c0,1.239,0,2.5-.061,3.8a18.151,18.151,0,0,1-.287,1.944,13.836,13.836,0,0,1-.552,1.9,15.412,15.412,0,0,1-12.455,10.151,30.653,30.653,0,0,1-4.441.164h-4.482l.215-.143a22.375,22.375,0,0,1-7.86,9.548,27.216,27.216,0,0,1-5.782,3.019,37.627,37.627,0,0,1-6.437,1.678l-.675.123.44-.543a26.584,26.584,0,0,0,3.807-6.385,20.3,20.3,0,0,0,1.627-7.542l.266.266h-38.4a9.788,9.788,0,0,1-1.893-.123,15.535,15.535,0,0,1-6.959-2.651,16.028,16.028,0,0,1-4.871-5.485,15.833,15.833,0,0,1-1.791-6.989v-27.1a15.343,15.343,0,0,1,1.31-6.294,15.588,15.588,0,0,1,8.739-8.278A16.247,16.247,0,0,1,2814-3453h16.077l31.724.082h11.615l-.767.164H2861.8l-31.724.082H2814a15.558,15.558,0,0,0-5.6,1.023,15.1,15.1,0,0,0-8.412,8.1c-1.822,3.8-1.106,8.258-1.249,12.649s0,8.954,0,13.58v7.02a15.242,15.242,0,0,0,1.729,6.744,15.485,15.485,0,0,0,4.708,5.3,15.2,15.2,0,0,0,6.723,2.558c.6.082,1.228.072,1.832.123h38.683v.266a20.747,20.747,0,0,1-1.668,7.726,27.171,27.171,0,0,1-3.9,6.529l-.235-.419a38.487,38.487,0,0,0,6.345-1.648,26.386,26.386,0,0,0,5.669-2.957,21.964,21.964,0,0,0,7.716-9.333l.061-.144h4.667a34.068,34.068,0,0,0,4.38-.153,15,15,0,0,0,12.127-9.835,14.888,14.888,0,0,0,.542-1.862c.113-.624.225-1.259.287-1.883.092-1.259.061-2.528.071-3.766v-24.458l-.061-1.351a15.228,15.228,0,0,0-9.3-12.731A16.782,16.782,0,0,0,2873.375-3452.754Z" fill="#263238"/>
      <g id="Group_117219" data-name="Group 117219">
        <path id="Path_178477" data-name="Path 178477" d="M2674.011-3288.892a9.15,9.15,0,0,1,9.149,9.149v23.046a9.138,9.138,0,0,1-9.149,9.128H2669.6a22.6,22.6,0,0,0,4.738,10.234c-9.4-1.566-14.143-6.325-16.5-10.234h-38.5a9.138,9.138,0,0,1-9.139-9.138v-23.036h0a9.149,9.149,0,0,1,9.149-9.149Z" fill="#fafafa"/>
        <path id="Path_178478" data-name="Path 178478" d="M2675-3288.759a9.339,9.339,0,0,1,2.9.788,9.209,9.209,0,0,1,3.7,3.07,9.482,9.482,0,0,1,1.31,2.8,11.653,11.653,0,0,1,.348,3.48c.051,4.912.051,10.878.051,17.714v2.609a27.009,27.009,0,0,1-.062,2.712,9.2,9.2,0,0,1-2.292,5.117,9.374,9.374,0,0,1-5.117,2.978,14.89,14.89,0,0,1-3.07.184h-3.131l.225-.266a22,22,0,0,0,4.666,10.193l.4.5-.624-.1a27.648,27.648,0,0,1-9.282-3.152,20.31,20.31,0,0,1-7.388-7.164l.215.133h-37.588a12.256,12.256,0,0,1-2.978-.245,9.417,9.417,0,0,1-7.246-8.4c-.051-7.614,0-14.879,0-21.838,0-.88-.061-1.72,0-2.61a8.726,8.726,0,0,1,.553-2.558,9.375,9.375,0,0,1,7.491-6.059,16.019,16.019,0,0,1,2.405-.092h19.485l24.908.082,6.775.051h0l-6.806.133-24.908.082H2620.4a17.753,17.753,0,0,0-2.343.1,8.9,8.9,0,0,0-7.1,5.771,13.084,13.084,0,0,0-.542,5c.051,6.938-.031,14.275.051,21.8a8.863,8.863,0,0,0,6.846,7.921,11.464,11.464,0,0,0,2.856.235h37.792l.072.123a19.962,19.962,0,0,0,7.163,6.969,27.01,27.01,0,0,0,9.118,3.07l-.225.4a22.383,22.383,0,0,1-4.748-10.305v-.266h3.4a16.1,16.1,0,0,0,3.008-.174,8.966,8.966,0,0,0,7.164-7.747c.071-.88.071-1.78.071-2.661v-2.609c.051-6.836.051-12.8.051-17.714a11.428,11.428,0,0,0-.307-3.418,9.3,9.3,0,0,0-1.248-2.753,9.2,9.2,0,0,0-3.592-3.07,10.553,10.553,0,0,0-3.868-.952A4.457,4.457,0,0,1,2675-3288.759Z" fill="#263238"/>
      </g>
      <path id="Path_178479" data-name="Path 178479" d="M2686.255-3423.65h-90.649a17.623,17.623,0,0,0-17.623,17.622h0v28.859a17.632,17.632,0,0,0,17.623,17.632h76.1c1.628,4.831,7.01,15.351,23.681,18.052,0,0-7.327-8.4-6.253-18.307a17.624,17.624,0,0,0,14.747-17.4v-28.858A17.623,17.623,0,0,0,2686.255-3423.65Z" fill="#fafafa"/>
      <path id="Path_178480" data-name="Path 178480" d="M2686.255-3423.65h1.473a16.811,16.811,0,0,1,4.206.839,17.234,17.234,0,0,1,6.018,3.449l.777.706c.256.256.491.532.747.809a19.836,19.836,0,0,1,1.433,1.79,19.164,19.164,0,0,1,2.231,4.513,19.618,19.618,0,0,1,.88,5.547v27.733a24.633,24.633,0,0,1-.256,4.042,17.916,17.916,0,0,1-6.4,10.879,19.082,19.082,0,0,1-3.837,2.364,19.618,19.618,0,0,1-4.421,1.35l.184-.194c-.614,6.222,1.955,12.843,6.212,18.134l.389.491-.6-.1a34.652,34.652,0,0,1-14.215-5.475,26.645,26.645,0,0,1-5.792-5.516,25.608,25.608,0,0,1-3.868-7.225l.235.174h-73.917a31.236,31.236,0,0,1-4.881-.236,17.843,17.843,0,0,1-8.791-3.909,19.315,19.315,0,0,1-3.224-3.551,17.987,17.987,0,0,1-2.138-4.247,19.051,19.051,0,0,1-.645-2.272,20.483,20.483,0,0,1-.3-2.343c-.123-1.576,0-3.07-.061-4.636v-22.36c0-1.443,0-2.886.061-4.35a17.335,17.335,0,0,1,2.61-8.115,17.312,17.312,0,0,1,5.864-5.853,17.654,17.654,0,0,1,7.644-2.559c1.341-.092,2.651-.092,3.95-.082h32.226l41.1.082h11.165l-11.165.051-41.1.082h-32.185c-1.3,0-2.609,0-3.9.092a17.208,17.208,0,0,0-7.45,2.508,18.091,18.091,0,0,0-3.183,2.486,18.486,18.486,0,0,0-2.527,3.224,16.883,16.883,0,0,0-2.518,7.89c-.1,1.4,0,2.865-.061,4.319v22.606c0,3.07-.154,6.14,1.023,9.077a17.55,17.55,0,0,0,2.047,4.093,18.214,18.214,0,0,0,3.131,3.449,17.183,17.183,0,0,0,8.494,3.848,28.735,28.735,0,0,0,4.8.235h74.152l.062.174a25.246,25.246,0,0,0,3.776,7.071,26.328,26.328,0,0,0,5.68,5.424,34.087,34.087,0,0,0,14.009,5.414l-.215.378a30.1,30.1,0,0,1-4.994-8.872,21.852,21.852,0,0,1-1.289-9.62V-3360h.164a18.681,18.681,0,0,0,4.318-1.31,18.46,18.46,0,0,0,3.756-2.3,17.52,17.52,0,0,0,5.117-6.7,17.816,17.816,0,0,0,1.166-3.909,23.66,23.66,0,0,0,.256-3.981v-27.733a19.063,19.063,0,0,0-.849-5.464,18.671,18.671,0,0,0-2.108-4.513,19.2,19.2,0,0,0-1.4-1.781c-.246-.266-.481-.542-.727-.8l-.767-.706a17.218,17.218,0,0,0-5.936-3.47,18.177,18.177,0,0,0-4.175-.9Z" fill="#263238"/>
      <g id="freepik--Character--inject-2">
        <path id="Path_178481" data-name="Path 178481" d="M2833.639-3296.9a7.963,7.963,0,0,1-7.461-3.336c1.924.3,4,.573,5.731-.317s2.722-3.439,1.361-4.831c-1.023-1.084-2.814-.9-4.329-1.023a9.352,9.352,0,0,1-7.961-6.14c-1.28-3.684-.1-7.706.358-11.584a31.912,31.912,0,0,0-13.365-29.361l-24.274-14.03c-8.811,11.257-11.554,26.464-9.732,40.648s7.849,27.518,15.084,39.911a47.006,47.006,0,0,0,7.327,10.08,18.7,18.7,0,0,0,10.909,5.608,11.259,11.259,0,0,0-1.8-10.162,24.558,24.558,0,0,0,18.042-6.56l-5.209-3.991A18.994,18.994,0,0,0,2833.639-3296.9Z" fill="#565656"/>
        <path id="Path_178482" data-name="Path 178482" d="M2740.124-3336.5c.43-10.152,6.744-18.645,16.507-21.439l30.445-8.7c13.211-1.811,22.514,14.245,23.772,27.518,1.392,14.757,2.426,30.333,1.024,41.416-2.835,22.278-19.741,25.584-19.741,25.584s.563,20.078.737,26.556l-15.494,32.42-30.005-41.416-7.317-81.674C2740.032-3336.613,2740.1-3336,2740.124-3336.5Z" fill="#ffbf9d"/>
        <path id="Path_178483" data-name="Path 178483" d="M2801.74-3319.718a2.855,2.855,0,0,1-2.66,2.958,2.722,2.722,0,0,1-3-2.41l-.007-.067a2.865,2.865,0,0,1,2.651-2.957,2.733,2.733,0,0,1,3.013,2.419Z" fill="#263238"/>
        <path id="Path_178484" data-name="Path 178484" d="M2807.768-3330.34c-.338.389-2.538-1.146-5.6-1.024s-5.26,1.709-5.6,1.341c-.174-.164.163-.839,1.125-1.586a7.807,7.807,0,0,1,4.462-1.525,7.473,7.473,0,0,1,4.472,1.289C2807.6-3331.169,2807.942-3330.5,2807.768-3330.34Z" fill="#263238"/>
        <path id="Path_178485" data-name="Path 178485" d="M2774.744-3319.718a2.855,2.855,0,0,1-2.66,2.958,2.724,2.724,0,0,1-3-2.41l-.006-.067a2.855,2.855,0,0,1,2.65-2.957,2.733,2.733,0,0,1,3.014,2.419Z" fill="#263238"/>
        <path id="Path_178486" data-name="Path 178486" d="M2778.705-3329.511c-.338.389-2.548-1.136-5.6-1.024s-5.26,1.709-5.608,1.341c-.164-.164.174-.839,1.136-1.586a7.789,7.789,0,0,1,4.462-1.525,7.506,7.506,0,0,1,4.472,1.289C2778.5-3330.34,2778.879-3329.675,2778.705-3329.511Z" fill="#263238"/>
        <path id="Path_178487" data-name="Path 178487" d="M2788.959-3305.749c0-.164,1.872-.553,4.943-1.023.777-.1,1.514-.287,1.627-.819a3.972,3.972,0,0,0-.584-2.3l-2.5-5.874c-3.469-8.381-6.007-15.268-5.669-15.411s3.428,6.539,6.9,14.91c.829,2.047,1.638,4.093,2.4,5.925a4.518,4.518,0,0,1,.5,3.07,1.983,1.983,0,0,1-1.248,1.187,5.905,5.905,0,0,1-1.32.225C2790.9-3305.647,2788.979-3305.575,2788.959-3305.749Z" fill="#263238"/>
        <path id="Path_178488" data-name="Path 178488" d="M2762.484-3279.131s7.645,15.022,29.78,12.28l-.143-5.219A55.95,55.95,0,0,1,2762.484-3279.131Z" fill="#ff9a6c"/>
        <path id="Path_178489" data-name="Path 178489" d="M2777.477-3339.376c-.277.839-3.347.542-6.928,1.084s-6.448,1.607-6.949.88c-.225-.348.256-1.146,1.4-2.046a12.207,12.207,0,0,1,10.571-1.494C2776.863-3340.41,2777.548-3339.776,2777.477-3339.376Z" fill="#263238"/>
        <path id="Path_178490" data-name="Path 178490" d="M2806.509-3339.673c-.522.716-2.65.061-5.188.1s-4.667.614-5.178-.1c-.236-.348.082-1.024,1.023-1.74a7.167,7.167,0,0,1,4.175-1.269,7.282,7.282,0,0,1,4.176,1.269C2806.417-3340.717,2806.734-3340.011,2806.509-3339.673Z" fill="#263238"/>
        <path id="Path_178491" data-name="Path 178491" d="M2777.477-3299.773a3.981,3.981,0,0,1,4.032-3.141,4.091,4.091,0,0,1,3.274,2.19,5.116,5.116,0,0,1,.3,3.991l-.051.286a4.553,4.553,0,0,1-5.117,1.228A4.236,4.236,0,0,1,2777.477-3299.773Z" fill="#ff9a6c"/>
        <path id="Path_178492" data-name="Path 178492" d="M2787.26-3296.447c0-.47-3.07-.235-5.506-2.7s-2.313-5.792-2.753-5.782c-.194,0-.542.778-.47,2.18a7.7,7.7,0,0,0,2.128,4.83,6.663,6.663,0,0,0,4.595,2.046C2786.554-3295.833,2787.291-3296.242,2787.26-3296.447Z" fill="#263238"/>
        <path id="Path_178493" data-name="Path 178493" d="M2750.358-3371.827c3.428-5.444,11.512-11.124,17.847-12.28,7.225-1.259,11.574,0,16.323,4.308,0,0,3.694,3.561,7.163,4.237s6.355.1,10.49,2.22c5.638,2.886,8.115,10.428,10.724,16.2,3.255,7.164,7.88,13.774,10,21.358s1.023,16.905-5.394,21.49c1.095-5.813,2.047-12.209-.388-17.469a15.214,15.214,0,0,1-.389,6.294c-1.2-3.408-2.456-6.928-4.933-9.568-2.333-2.487-5.567-3.971-7.982-6.386-3.531-3.551-5.117-8.965-9.466-11.533-4.472-2.682-10.121-1.351-15.351-1.321a29.407,29.407,0,0,1-22.851-11.011l1.289-.112A36.755,36.755,0,0,1,2750.358-3371.827Z" fill="#565656"/>
        <path id="Path_178494" data-name="Path 178494" d="M2717.743-3317.579c2.047-6.529,5.485-12.495,7.675-18.953,2.129-6.293,3.009-13.017,5.834-19.024,3.806-8.084,10.919-18.553,21.992-17.98l.757.665a23.823,23.823,0,0,1,11.165,1.33l.174,8.638,2.118,1.872c-.89,1.709-1.729,3.367-2.548,4.994a53.471,53.471,0,0,1-2.784,9.507,24.55,24.55,0,0,1-5.311,8.085c-19.086,45.693-1.781,48.579-10.377,74.766l-5.4-14.992a26.735,26.735,0,0,1-10.694-11.523c-.317,1.576-.645,3.162-.962,4.749a27.566,27.566,0,0,1-7.45-17.019l-2.477,4.554C2715.482-3303.477,2715.758-3311.06,2717.743-3317.579Z" fill="#565656"/>
        <path id="Path_178495" data-name="Path 178495" d="M2750.307-3319.247c-.3-.747-14.092-5.281-13.857,9.21.225,14.1,14.327,10.93,14.389,10.52S2750.307-3319.247,2750.307-3319.247Z" fill="#ffbf9d"/>
        <path id="Path_178496" data-name="Path 178496" d="M2746.387-3304.756c-.061,0-.246.174-.655.378a2.466,2.466,0,0,1-1.832.072c-1.5-.522-2.8-2.865-2.916-5.4a8.184,8.184,0,0,1,.614-3.531,2.845,2.845,0,0,1,1.811-1.924,1.249,1.249,0,0,1,1.463.645c.195.4.113.675.185.706s.307-.246.174-.829a1.6,1.6,0,0,0-.563-.87,1.914,1.914,0,0,0-1.372-.337,3.467,3.467,0,0,0-2.527,2.241,8.371,8.371,0,0,0-.768,3.95c.144,2.835,1.648,5.465,3.7,6.017a2.619,2.619,0,0,0,2.241-.419C2746.367-3304.367,2746.438-3304.736,2746.387-3304.756Z" fill="#ff9a6c"/>
        <path id="Path_178497" data-name="Path 178497" d="M2744.852-3302.218a2.793,2.793,0,0,0-3.2,2.313,2.793,2.793,0,0,0,2.313,3.2,2.794,2.794,0,0,0,3.2-2.313,2.794,2.794,0,0,0-1.648-3.009" fill="#fff"/>
        <path id="Path_178498" data-name="Path 178498" d="M2745.517-3302.024a3.781,3.781,0,0,1,1.32,1.852,2.4,2.4,0,0,1-.481,2.231,2.464,2.464,0,0,1-3.465.393,2.464,2.464,0,0,1-.915-1.651,2.424,2.424,0,0,1,.768-2.149,3.8,3.8,0,0,1,2.108-.87,1.213,1.213,0,0,0-.665-.133,2.87,2.87,0,0,0-1.74.665,2.8,2.8,0,0,0-1.023,2.568,3.07,3.07,0,0,0,3.441,2.648,3.07,3.07,0,0,0,1.972-1.092,2.8,2.8,0,0,0,.471-2.743,2.833,2.833,0,0,0-1.126-1.484C2745.753-3302.034,2745.527-3302.065,2745.517-3302.024Z" fill="#263238"/>
        <path id="Path_178499" data-name="Path 178499" d="M2766.343-3357.5c-.287.112-1.587-4.667-5.516-9.1s-8.423-6.437-8.279-6.693a7.887,7.887,0,0,1,2.978,1.188,22.907,22.907,0,0,1,10.039,11.5A8.027,8.027,0,0,1,2766.343-3357.5Z" fill="#455a64"/>
        <path id="Path_178500" data-name="Path 178500" d="M2814.717-3255.082c-1.341-.348,15.544,78.685,15.544,78.685l27.631,39.911H2884.3l7.593-5.874s-14.132-28.122-20.8-38.273S2838.295-3249.024,2814.717-3255.082Z" fill="#5a189a"/>
        <path id="Path_178501" data-name="Path 178501" d="M2814.717-3255.082l-21.409-4.258c-5.117,19.628-32.328,17.9-47.074,0l-11.81,3.2c-15.78,4.647-19.444,6.417-19.444,6.417-11.492,4.492-18.645,16.834-21.49,25.389l28.173,78.124-7.164,47.074,121.432-.133-11.042-39.911,2.415-12.843,3.571-11.124c3.562-11.431-1.238-32.4-4.738-43.861l-3.807-16.619Z" fill="#5a189a"/>
        <g id="Group_117220" data-name="Group 117220" opacity="0.3">
          <path id="Path_178502" data-name="Path 178502" d="M2729.379-3222.038s1.371,16.373,0,24.56-4.656,48.559-4.656,48.559l40.985,12.2,22.514-7.849L2775.113-3113l-23.937,3.429-27.078-29.012-7-20.816,3.847-11.256Z" fill="#1a1a1a"/>
        </g>
        <path id="Path_178503" data-name="Path 178503" d="M2813.356-3124.993l-21.818-10.879,3.551-2.046,6.795,2.169c0,.307,6.334,3.07,8.668,2.467a6.142,6.142,0,0,0,3.612-2.682c.328-.634-8.023-4.9-8.023-4.9l-10.52-5.382-11.257,2.957-20.078,12.526-15.054-4.687c-.379.624-5.762,24.417-5.762,24.417s14.788,4.841,23.282,4.094c5.772-.481,10.725-4.493,13.6-7.348l2.579,1.382s9.435,4.594,13.447,4.779,1.412-3.592,1.412-3.592l-7.01-4.534-2.855-2.517,4.339,1.545s7.358,3.766,8.852,4.186c1.914.532,3.428.112,4.155-2.559s-14.327-11.492-14.327-11.492l14.665,6.14a8.282,8.282,0,0,0,4.329.624,3.5,3.5,0,0,0,3-1.872C2814.021-3124.891,2813.356-3124.993,2813.356-3124.993Z" fill="#ffbf9d"/>
        <path id="Path_178504" data-name="Path 178504" d="M2779.155-3133.876a4.89,4.89,0,0,1,1.484-1.279,11.483,11.483,0,0,1,9.21-1.382,4.635,4.635,0,0,1,1.791.788,18.1,18.1,0,0,1-1.883-.419,13.222,13.222,0,0,0-8.883,1.33A17.356,17.356,0,0,1,2779.155-3133.876Z" fill="#ff9a6c"/>
        <path id="Path_178505" data-name="Path 178505" d="M2793.523-3125.628a9.959,9.959,0,0,1-1.934-1.187,20.107,20.107,0,0,0-4.79-2.446,8.952,8.952,0,0,0-5.229-.112,16.534,16.534,0,0,0-2.047.941,3.881,3.881,0,0,1,1.9-1.289,8.525,8.525,0,0,1,5.526-.051,16.375,16.375,0,0,1,4.851,2.65A8.841,8.841,0,0,1,2793.523-3125.628Z" fill="#ff9a6c"/>
        <path id="Path_178506" data-name="Path 178506" d="M2784.732-3122.414a9.529,9.529,0,0,1-1.187-.44,6.726,6.726,0,0,0-2.906-.328,6.565,6.565,0,0,0-2.773.952c-.655.4-1.024.747-1.024.685a2.6,2.6,0,0,1,.839-1.023,5.874,5.874,0,0,1,6.048-.665C2784.425-3122.844,2784.773-3122.455,2784.732-3122.414Z" fill="#ff9a6c"/>
        <path id="Path_178507" data-name="Path 178507" d="M2790.627-3115.926a14.051,14.051,0,0,1-4.892-4.749,15.679,15.679,0,0,1,2.528,2.293A15.046,15.046,0,0,1,2790.627-3115.926Z" fill="#ff9a6c"/>
        <path id="Path_178508" data-name="Path 178508" d="M2731.548-3208.622c6.059-32.226-28.94-41.589-37.321-17.827,0,0-8.382,24.223-11.923,37.711-3.295,12.556-7.163,28.654-9.691,44.25-1.75,10.765,1.187,23.537,7.3,26.126,15.954,6.775,79.249,16.906,79.249,16.906l3.929-32.267-46.91-11.093s1.954-5.28-1.658-5.771l11.308-39.164Z" fill="#5a189a"/>
        <path id="Path_178509" data-name="Path 178509" d="M2714.52-3150.587l.419.2a2.28,2.28,0,0,1,.481.307,2.752,2.752,0,0,1,.594.532,3.075,3.075,0,0,1,.788,2.047,5.376,5.376,0,0,1-.911,2.865l-.092-.225c3.817.686,9.067,1.832,15.227,3.316l20.856,5.117c3.91.931,7.7,1.78,11.257,2.466h.246v.235l-2.906,23.108c-.379,2.824-.676,5.117-.891,6.713-.112.747-.2,1.341-.266,1.8a2.63,2.63,0,0,1-.122.614,4.669,4.669,0,0,1,0-.624c.051-.461.1-1.023.184-1.811.174-1.617.43-3.9.737-6.734.685-5.782,1.627-13.836,2.722-23.128l.2.287c-3.561-.676-7.368-1.525-11.257-2.446-7.593-1.812-14.685-3.643-20.835-5.168s-11.38-2.722-15.177-3.48h-.2l.112-.184a5.168,5.168,0,0,0,.921-2.7,2.98,2.98,0,0,0-.675-1.955,3.367,3.367,0,0,0-.542-.542,2.7,2.7,0,0,0-.461-.338A2.027,2.027,0,0,1,2714.52-3150.587Z" fill="#263238"/>
        <path id="Path_178510" data-name="Path 178510" d="M2728.857-3198.859a1.554,1.554,0,0,1-.092.5l-.41,1.443-1.463,5.2c-1.248,4.38-3.009,10.428-4.994,17.09s-3.8,12.69-5.117,17.049c-.665,2.108-1.217,3.848-1.617,5.117-.194.552-.348,1.023-.47,1.392a2.113,2.113,0,0,1-.2.47,1.581,1.581,0,0,1,.092-.5l.369-1.423c.368-1.31.859-3.07,1.453-5.2,1.259-4.38,3.07-10.428,4.994-17.09s3.807-12.69,5.117-17.049c.665-2.109,1.217-3.848,1.617-5.117.184-.553.337-1.024.47-1.392S2728.836-3198.869,2728.857-3198.859Z" fill="#263238"/>
        <path id="Path_178511" data-name="Path 178511" d="M2730.668-3219a42.09,42.09,0,0,0-.911-5.117,22.512,22.512,0,0,0-17.4-16.373,39.969,39.969,0,0,0-5.2-.594,6.2,6.2,0,0,1,1.412-.112,19.966,19.966,0,0,1,3.858.337,22.105,22.105,0,0,1,17.673,16.64,19.97,19.97,0,0,1,.563,3.838A7.149,7.149,0,0,1,2730.668-3219Z" fill="#263238"/>
        <path id="Path_178512" data-name="Path 178512" d="M2714.52-3150.178c0,.082-.727-.113-1.873-.174a9.754,9.754,0,0,0-7.921,3.264c-.767.86-1.126,1.484-1.2,1.443a4.093,4.093,0,0,1,.911-1.678,8.861,8.861,0,0,1,3.663-2.8,9.052,9.052,0,0,1,4.585-.6A3.952,3.952,0,0,1,2714.52-3150.178Z" fill="#263238"/>
        <path id="Path_178513" data-name="Path 178513" d="M2715.717-3145.645c0,.164-1.852.328-3.94,1.218s-3.52,2.108-3.623,1.985A9.378,9.378,0,0,1,2715.717-3145.645Z" fill="#263238"/>
        <path id="Path_178514" data-name="Path 178514" d="M2820.847-3220.81a3.236,3.236,0,0,1,.368.614c.256.46.573,1.023.972,1.8s.931,1.75,1.453,2.906,1.187,2.436,1.771,3.909,1.3,3.071,1.913,4.851c.307.88.666,1.781,1.024,2.733s.6,1.934.911,2.947a88.665,88.665,0,0,1,2.9,13.4,81.266,81.266,0,0,1,.573,13.692c-.174,2.1-.277,4.094-.594,5.956-.143.931-.245,1.832-.409,2.681s-.358,1.668-.522,2.456c-.287,1.566-.747,2.937-1.075,4.155-.184.614-.327,1.177-.5,1.7s-.358.962-.512,1.392l-.726,1.913a3.678,3.678,0,0,1-.277.655,2.9,2.9,0,0,1,.185-.685c.153-.5.358-1.147.624-1.955.143-.42.3-.89.46-1.4s.3-1.085.461-1.7c.307-1.218.727-2.589,1.023-4.155.154-.777.318-1.6.481-2.445s.246-1.74.379-2.671c.3-1.842.379-3.828.542-5.915a83.677,83.677,0,0,0-.614-13.611,93.69,93.69,0,0,0-2.834-13.3c-.3-1.023-.6-1.975-.891-2.926s-.634-1.853-.941-2.733c-.594-1.77-1.259-3.377-1.842-4.851s-1.2-2.783-1.7-3.939-.972-2.139-1.361-2.938-.655-1.371-.88-1.842A4.638,4.638,0,0,1,2820.847-3220.81Z" fill="#263238"/>
        <path id="Path_178515" data-name="Path 178515" d="M2822.156-3227.882c.133.082-.583,1.525-.951,3.459s-.266,3.541-.42,3.551a6.28,6.28,0,0,1-.1-3.653A6.379,6.379,0,0,1,2822.156-3227.882Z" fill="#263238"/>
        <g id="Group_117221" data-name="Group 117221" opacity="0.3">
          <path id="Path_178516" data-name="Path 178516" d="M2835.808-3198.235c-1.32-5.2-3.8-10-6.253-14.757q-3.018-5.8-6.027-11.553c-.389-.737-.87-1.556-1.689-1.72a1.942,1.942,0,0,0-2.047,1.791,5.575,5.575,0,0,0,.727,2.906,212.545,212.545,0,0,1,9.149,23.63c2.507,7.859,4.308,18.359,2.906,26.484C2837.292-3179.385,2838.059-3189.25,2835.808-3198.235Z" fill="#1a1a1a"/>
        </g>
        <path id="Path_178517" data-name="Path 178517" d="M2798.517-3176.959a1.369,1.369,0,0,1-.062.47c-.061.3-.122.747-.276,1.321a31.784,31.784,0,0,1-1.555,4.727,35.6,35.6,0,0,1-23.978,20.918,32.88,32.88,0,0,1-4.891.9c-.584.072-1.024.072-1.351.093a1.62,1.62,0,0,1-.481,0,16.875,16.875,0,0,1,1.8-.287,39.172,39.172,0,0,0,4.83-1.023,36.564,36.564,0,0,0,23.722-20.693,38.708,38.708,0,0,0,1.668-4.687A15.412,15.412,0,0,1,2798.517-3176.959Z" fill="#263238"/>
        <path id="Path_178518" data-name="Path 178518" d="M2924.687-3161.22l-2.682-2.947s-19.617,8.811-26.29,12.546c-9.629,5.383-10.857,8.125-10.857,8.125l-1.269,6.141,4.533,3.07Z" fill="#fff"/>
        <path id="Path_178519" data-name="Path 178519" d="M2888.122-3134.316h0l-4.544-3.07h0l1.269-6.14a7.473,7.473,0,0,1,1.822-2.047,51.266,51.266,0,0,1,9.036-6.089c6.6-3.694,26.1-12.464,26.3-12.557h0l2.712,3.019h0Zm-4.5-3.07,4.493,3.07,36.534-26.853-2.651-3c-.675.3-19.761,8.893-26.269,12.536a51.122,51.122,0,0,0-9.026,6.078,8.054,8.054,0,0,0-1.812,2.047Z" fill="#263238"/>
        <path id="Path_178520" data-name="Path 178520" d="M2887.262-3134.93s-1.34-13.048-9.834-16.742-34.405,9.568-34.958,9.752-53.122,34.211-53.122,34.211l2.916,3.582,47.781-5.8Z" fill="#fff"/>
        <path id="Path_178521" data-name="Path 178521" d="M2791.1-3106.256l51.914-33.77s27.529-13.908,35.194-9.446,6.836,13.017,6.836,13.017L2835-3107.75l-41.457,5.025Z" fill="#e0e0e0"/>
        <path id="Path_178522" data-name="Path 178522" d="M2884.673-3140.937s-4.257-7-22.565-3.858a114.735,114.735,0,0,0-20.272,5.567l-49.643,33.863,1.719,2.046,78.8-29.349,12.373-2.456,1.023-2.17Z" fill="#fff"/>
        <path id="Path_178523" data-name="Path 178523" d="M2788.181-3101.374l45.632-30.731,46.246-7,6.99,3.346,38.611-27.375,1.852,2.129-61.35,49.551-13.16-3.162-14.337,10.09-49.315,5.219Z" fill="#ffb600"/>
        <path id="Path_178524" data-name="Path 178524" d="M2789.348-3099.307l-.307-.481c-.2-.358-.492-.87-.9-1.566h0c5.035-3.459,21.644-14.716,45.55-30.864h0l46.235-7.041h.143l7,3.346h-.256l38.6-27.4.195-.133.163.184.5.573,1.351,1.556.194.215-.235.174-39.205,28.848-.133.092-.143-.071-7.686-4.094h.154l-45.386,7.389h.082l-33.607,21.49-9.211,5.844-2.394,1.514-.829.492s.266-.195.788-.543l2.374-1.555,9.118-5.936,33.515-21.664h0l45.56-7.6h.164l7.7,4.094h-.276l39.195-28.869v.389l-1.361-1.556-.5-.573h.358l-38.652,27.539-.123.092-.1-.092-7-3.357h.143l-46.245,6.959h.082c-23.947,16.077-40.628,27.231-45.724,30.588v-.061c.4.716.676,1.238.87,1.586Z" fill="#263238"/>
        <path id="Path_178525" data-name="Path 178525" d="M2833.291-3131.359c.122-.081.583.41,1.023,1.085s.706,1.3.583,1.382-.583-.41-1.023-1.085S2833.168-3131.277,2833.291-3131.359Z" fill="#263238"/>
        <path id="Path_178526" data-name="Path 178526" d="M2880.836-3135.892a2.144,2.144,0,0,1-.389.368c-.328.256-.716.584-1.187.973l-4.431,3.479c-3.746,2.927-8.955,6.949-14.726,11.349-2.9,2.19-5.6,4.349-8.187,6.14l-6.867,4.769-4.656,3.172-1.28.84c-.3.194-.46.286-.47.266a2.433,2.433,0,0,1,.409-.348l1.218-.921,4.564-3.316,6.795-4.861c2.559-1.821,5.25-3.991,8.187-6.14,5.772-4.4,11.011-8.361,14.818-11.257l4.524-3.346,1.248-.891A2.081,2.081,0,0,1,2880.836-3135.892Z" fill="#263238"/>
        <path id="Path_178527" data-name="Path 178527" d="M2897.138-3134.1c-1.249,1.709-4.769,7.307-4.769,7.307a61.528,61.528,0,0,1-2.763,10,17.937,17.937,0,0,1-13.887,10.54c-7.03.88-18.758-3.622-18.758-3.622l-15.013-5.608s-3.377-2.9-.573-4.646c0,0-2.487-2.8,2.436-4.043s18.42,5.117,18.42,5.117-5.618-4.738-8.964-5.966-1.924-4.093.88-4.4,4.9.7,9.64,2.271,8.985,4.759,10.919,4.759.726-3.131-1.023-4.359c-7.113-4.9-4.749-6.529-4.749-6.529s.706-2.457,4.39-.881a94.709,94.709,0,0,1,10.07,5.67c4.094-.266,5.393-1.279,6.314-3.694a8.675,8.675,0,0,1,2.681-3.562l1.791-1.453a2.17,2.17,0,0,1,3.053.308,2.17,2.17,0,0,1,.11,2.6Z" fill="#ffbf9d"/>
        <path id="Path_178528" data-name="Path 178528" d="M2859.581-3111.7a99.784,99.784,0,0,1-9.446-4.093,98.079,98.079,0,0,1-9.21-4.564,101.231,101.231,0,0,1,9.445,4.093A97.976,97.976,0,0,1,2859.581-3111.7Z" fill="#ff9a6c"/>
        <path id="Path_178529" data-name="Path 178529" d="M2866.826-3114.975a11.379,11.379,0,0,1-2.917-1.975,11.692,11.692,0,0,1-2.517-2.394,11.977,11.977,0,0,1,2.906,1.975A11.891,11.891,0,0,1,2866.826-3114.975Z" fill="#ff9a6c"/>
        <path id="Path_178530" data-name="Path 178530" d="M2884.929-3122.547c.062,0,.236.337.184.962a2.916,2.916,0,0,1-3.2,2.6,2.8,2.8,0,0,1-.3-.047c-.6-.143-.89-.409-.859-.461s.368.062.911.082a3.072,3.072,0,0,0,1.954-.552,3.075,3.075,0,0,0,1.116-1.7C2884.837-3122.21,2884.806-3122.537,2884.929-3122.547Z" fill="#ff9a6c"/>
        <path id="Path_178531" data-name="Path 178531" d="M2875.279-3113.9c.051,0,0,.327-.266.716a2.746,2.746,0,0,1-1.525,1.024,2.791,2.791,0,0,1-1.822-.123c-.429-.205-.614-.45-.573-.491a5.547,5.547,0,0,0,2.262.1C2874.593-3113,2875.146-3113.972,2875.279-3113.9Z" fill="#ff9a6c"/>
        <path id="Path_178532" data-name="Path 178532" d="M2866.509-3109.387c.082.112-.686.645-1.75.481s-1.648-.88-1.535-.972.726.327,1.606.45S2866.437-3109.52,2866.509-3109.387Z" fill="#ff9a6c"/>
        <path id="Path_178533" data-name="Path 178533" d="M2889.3-3131.42c.051,0,0,.5-.43,1.146a4.7,4.7,0,0,1-2.415,1.658,5.408,5.408,0,0,1-2.927.143c-.747-.2-1.1-.563-1.023-.6s.44.143,1.136.235a6.235,6.235,0,0,0,2.691-.287,5.269,5.269,0,0,0,2.282-1.381C2889.023-3131,2889.207-3131.42,2889.3-3131.42Z" fill="#ff9a6c"/>
        <path id="Path_178534" data-name="Path 178534" d="M2884.438-3141.48a.872.872,0,0,1-.123-.214c-.071-.174-.174-.379-.3-.645a21.153,21.153,0,0,0-1.258-2.415,11.845,11.845,0,0,0-2.825-3.224,10.048,10.048,0,0,0-2.343-1.3,13.358,13.358,0,0,0-2.937-.686,21.127,21.127,0,0,0-3.357-.123,17.789,17.789,0,0,0-1.77.184c-.594.123-1.208.205-1.832.348a62.919,62.919,0,0,0-7.757,2.426,182.9,182.9,0,0,0-17.295,7.613h0l-5.71,3.572c-12.8,8.043-24.336,15.422-32.625,20.846l-9.793,6.467-2.63,1.771-.7.45-.246.133a1.321,1.321,0,0,1,.215-.184l.665-.491,2.6-1.853c2.272-1.586,5.578-3.858,9.7-6.6,8.187-5.516,19.74-12.946,32.543-20.989l5.72-3.572h0a176.11,176.11,0,0,1,17.4-7.583,62.457,62.457,0,0,1,7.829-2.4c.634-.143,1.259-.225,1.862-.348s1.229-.1,1.822-.163a20.574,20.574,0,0,1,3.408.163,12.488,12.488,0,0,1,3.009.747,10.142,10.142,0,0,1,2.4,1.361,11.862,11.862,0,0,1,2.815,3.347A17.041,17.041,0,0,1,2884.438-3141.48Z" fill="#263238"/>
        <path id="Path_178535" data-name="Path 178535" d="M2884.223-3139.985a1.967,1.967,0,0,1-.307-.369,6.3,6.3,0,0,0-.849-1.023,12.291,12.291,0,0,0-4.094-2.733,22.718,22.718,0,0,0-7.112-1.688,52.293,52.293,0,0,0-9.026.46,74.828,74.828,0,0,0-15.883,4.206c-1.964.758-3.54,1.433-4.615,1.914l-1.248.553a2.71,2.71,0,0,1-.44.174,8.474,8.474,0,0,1,1.6-.921c1.023-.532,2.61-1.259,4.574-2.047a67.72,67.72,0,0,1,15.944-4.38,49.324,49.324,0,0,1,9.118-.43,22.2,22.2,0,0,1,7.246,1.832,12.018,12.018,0,0,1,4.093,2.937,6.025,6.025,0,0,1,.788,1.126C2884.162-3140.149,2884.244-3140,2884.223-3139.985Z" fill="#263238"/>
        <path id="Path_178536" data-name="Path 178536" d="M2842.972-3133.6c-.123.113-1.024-.849-1.628-2.241a4.794,4.794,0,0,1-.726-2.671Q2841.852-3136.084,2842.972-3133.6Z" fill="#263238"/>
      </g>
      <g id="freepik--Device--inject-2">
        <path id="Path_178537" data-name="Path 178537" d="M2570.308-3174.677,2585.72-3099h133.8a2.671,2.671,0,0,0,2.671-2.671h0a2.671,2.671,0,0,0-2.671-2.671h-26.935l-14.327-70.376a2.906,2.906,0,0,0-2.824-2.344l-102.264-1.115a2.918,2.918,0,0,0-2.925,2.909A2.938,2.938,0,0,0,2570.308-3174.677Z" fill="#e0e0e0"/>
        <path id="Path_178538" data-name="Path 178538" d="M2570.308-3174.677a1.649,1.649,0,0,1,0-.225,2.9,2.9,0,0,1,0-.686,2.979,2.979,0,0,1,2.292-2.569,5.175,5.175,0,0,1,1.024-.061h8.432l38.663.368,26.955.266,15.1.154,7.921.082h5.116a3.248,3.248,0,0,1,1.024.3,3.067,3.067,0,0,1,1.473,1.545,4.228,4.228,0,0,1,.277,1.023l.215,1.023c.133.676.276,1.362.409,2.047.276,1.372.563,2.753.839,4.094q.849,4.164,1.719,8.422,1.73,8.514,3.541,17.4c2.415,11.871,4.922,24.213,7.512,36.923l-.185-.144h26.485a4.546,4.546,0,0,1,1.023.062,2.865,2.865,0,0,1,2.188,3.411,2.861,2.861,0,0,1-1.42,1.9,3,3,0,0,1-1.259.338H2585.6v-.113c-4.707-23.261-8.545-42.183-11.257-55.261-1.31-6.56-2.343-11.656-3.07-15.125-.338-1.73-.6-3.07-.778-3.94s-.255-1.351-.255-1.351.112.46.3,1.34l.819,3.94c.716,3.459,1.77,8.556,3.121,15.1,2.681,13.1,6.56,32.021,11.319,55.261l-.144-.122h133.9a2.752,2.752,0,0,0,1.095-.3,2.5,2.5,0,0,0,.984-3.392,2.5,2.5,0,0,0-1.649-1.234,5.018,5.018,0,0,0-.972-.051H2692.4v-.143c-2.589-12.72-5.117-25.062-7.491-36.933-1.208-5.925-2.385-11.748-3.541-17.4q-.859-4.247-1.7-8.412c-.286-1.392-.563-2.763-.839-4.094-.143-.685-.276-1.371-.42-2.046l-.2-1.024a4.8,4.8,0,0,0-.256-.962,2.83,2.83,0,0,0-1.31-1.381,2.758,2.758,0,0,0-.931-.266h-1.024l-4.093-.051-7.921-.092-15.094-.174-26.956-.318-38.6-.47-6.027-.082h-2.405a4.782,4.782,0,0,0-1.023.061,3.253,3.253,0,0,0-.87.328,2.925,2.925,0,0,0-1.413,2.159A3.873,3.873,0,0,0,2570.308-3174.677Z" fill="#263238"/>
        <path id="Path_178539" data-name="Path 178539" d="M2631.965-3140.037a4.42,4.42,0,0,1-4.42,4.421,4.421,4.421,0,0,1-4.421-4.421,4.421,4.421,0,0,1,4.421-4.421,4.411,4.411,0,0,1,4.42,4.4Z" fill="#fff"/>
        <path id="Path_178540" data-name="Path 178540" d="M2570.431-3174.063h7.02l19.127.092,63.12.44,9.129.071h2.241a5.494,5.494,0,0,1,1.146.072,2.972,2.972,0,0,1,1.085.44,3.175,3.175,0,0,1,1.361,1.842c.164.737.286,1.443.44,2.159,1.126,5.7,2.221,11.2,3.254,16.436,2.047,10.479,3.94,19.9,5.506,27.835s2.8,14.327,3.674,18.779c.43,2.2.757,3.919,1.023,5.116.113.573.2,1.024.246,1.331a3.594,3.594,0,0,1,.071.45,1.548,1.548,0,0,0-.1-.44c-.1-.3-.164-.757-.287-1.33-.245-1.177-.593-2.886-1.023-5.117-.9-4.431-2.2-10.838-3.8-18.748l-5.577-27.825c-1.023-5.23-2.149-10.735-3.285-16.374-.143-.706-.276-1.443-.44-2.139a2.782,2.782,0,0,0-1.2-1.627,3.078,3.078,0,0,0-.962-.389,6.036,6.036,0,0,0-1.024-.061h-2.241l-9.128-.072-63.121-.552-19.126-.2-5.209-.082H2571Z" fill="#263238"/>
      </g>
      <g id="Group_117222" data-name="Group 117222">
        <path id="Path_178541" data-name="Path 178541" d="M2838.574-3427.3a7.506,7.506,0,0,1-.83,2.665,8.6,8.6,0,0,1-1.842,2.165q-1.234,1.088-1.542,1.381a6.76,6.76,0,0,0-2.32,4.148,3.723,3.723,0,0,0,.617,2.787,2.937,2.937,0,0,0,2.408,1.067,3.88,3.88,0,0,0,2.775-.943,5.029,5.029,0,0,0,1.556-2.86l1.718-.015a6.225,6.225,0,0,1-2.041,3.95,5.846,5.846,0,0,1-4.126,1.4,4.633,4.633,0,0,1-3.641-1.571,4.9,4.9,0,0,1-1.028-3.8,8.487,8.487,0,0,1,3.069-5.389l2.026-1.762a5.715,5.715,0,0,0,1.512-3.2Zm1.145-4.905a1.217,1.217,0,0,1-.411.852,1.209,1.209,0,0,1-.837.353,1.042,1.042,0,0,1-.837-.338,1.138,1.138,0,0,1-.294-.867,1.237,1.237,0,0,1,.412-.822,1.278,1.278,0,0,1,.851-.352,1.066,1.066,0,0,1,.83.323A1.03,1.03,0,0,1,2839.719-3432.2Z" fill="#ffb600"/>
        <path id="Path_178542" data-name="Path 178542" d="M2848.955-3423.1a7.555,7.555,0,0,1,.9-2.863,9.431,9.431,0,0,1,2.158-2.482,19.222,19.222,0,0,0,2.048-1.93,7.034,7.034,0,0,0,.969-1.454,4.753,4.753,0,0,0,.463-1.667,3.781,3.781,0,0,0-.565-2.716,2.807,2.807,0,0,0-2.328-1.116,4.144,4.144,0,0,0-2.856.962,4.842,4.842,0,0,0-1.549,2.782l-1.688.015a6.091,6.091,0,0,1,2.07-3.906,5.943,5.943,0,0,1,4.156-1.409,4.522,4.522,0,0,1,3.5,1.527,4.97,4.97,0,0,1,1.036,3.847,8.192,8.192,0,0,1-3.025,5.227l-1.659,1.4a6.533,6.533,0,0,0-2.012,3.759Zm-1.219,4.875a1.307,1.307,0,0,1,.4-.844,1.244,1.244,0,0,1,.866-.36,1.038,1.038,0,0,1,.837.338,1.135,1.135,0,0,1,.294.866,1.211,1.211,0,0,1-.412.815,1.3,1.3,0,0,1-.851.345,1.072,1.072,0,0,1-.837-.316A1.066,1.066,0,0,1,2847.736-3418.225Z" fill="#ffb600"/>
      </g>
      <g id="Group_117223" data-name="Group 117223">
        <path id="Path_178543" data-name="Path 178543" d="M2641.462-3271.143a7.493,7.493,0,0,1-.829,2.665,8.613,8.613,0,0,1-1.843,2.166q-1.233,1.088-1.542,1.38a6.767,6.767,0,0,0-2.32,4.148,3.726,3.726,0,0,0,.617,2.788,2.939,2.939,0,0,0,2.408,1.067,3.871,3.871,0,0,0,2.775-.944,5.026,5.026,0,0,0,1.556-2.859l1.718-.015a6.222,6.222,0,0,1-2.041,3.95,5.844,5.844,0,0,1-4.126,1.4,4.635,4.635,0,0,1-3.641-1.571,4.9,4.9,0,0,1-1.028-3.8,8.484,8.484,0,0,1,3.069-5.389l2.026-1.762a5.708,5.708,0,0,0,1.513-3.2Zm1.145-4.9a1.217,1.217,0,0,1-.411.852,1.207,1.207,0,0,1-.837.352,1.044,1.044,0,0,1-.837-.337,1.133,1.133,0,0,1-.293-.867,1.232,1.232,0,0,1,.411-.822,1.278,1.278,0,0,1,.852-.352,1.061,1.061,0,0,1,.829.323A1.03,1.03,0,0,1,2642.607-3276.047Z" fill="#ff6b00"/>
        <path id="Path_178544" data-name="Path 178544" d="M2651.843-3266.943a7.555,7.555,0,0,1,.9-2.863,9.434,9.434,0,0,1,2.158-2.482,19.346,19.346,0,0,0,2.049-1.931,7.128,7.128,0,0,0,.969-1.453,4.747,4.747,0,0,0,.462-1.667,3.776,3.776,0,0,0-.565-2.716,2.805,2.805,0,0,0-2.327-1.116,4.14,4.14,0,0,0-2.856.962,4.833,4.833,0,0,0-1.549,2.782l-1.689.015a6.09,6.09,0,0,1,2.07-3.906,5.95,5.95,0,0,1,4.156-1.41,4.528,4.528,0,0,1,3.5,1.527,4.966,4.966,0,0,1,1.035,3.847,8.186,8.186,0,0,1-3.025,5.228l-1.659,1.4a6.527,6.527,0,0,0-2.012,3.758Zm-1.218,4.875a1.3,1.3,0,0,1,.4-.845,1.241,1.241,0,0,1,.866-.359,1.038,1.038,0,0,1,.837.337,1.135,1.135,0,0,1,.294.867,1.213,1.213,0,0,1-.411.815,1.3,1.3,0,0,1-.852.345,1.078,1.078,0,0,1-.837-.316A1.063,1.063,0,0,1,2650.625-3262.068Z" fill="#ff6b00"/>
      </g>
      <g id="Group_117224" data-name="Group 117224">
        <path id="Path_178545" data-name="Path 178545" d="M2910.6-3308.933a11.4,11.4,0,0,1-.776,3.879,7.165,7.165,0,0,1-1.97,2.63l-1.57,1.284q-2.46,2.121-2.264,4.315a1.411,1.411,0,0,0,1.48,1.462q2.318.054,2.889-2.96l5.884-.035a7.714,7.714,0,0,1-2.7,5.59,9.169,9.169,0,0,1-6.286,1.97,7.885,7.885,0,0,1-5.466-1.881,5.86,5.86,0,0,1-1.774-5.02q.16-2.96,3.459-5.652l2.283-1.819a5.98,5.98,0,0,0,1.961-3.727Zm2.122-5.492a2.862,2.862,0,0,1-.91,2.22,3.242,3.242,0,0,1-2.353.918,3.275,3.275,0,0,1-2.265-.829,2.8,2.8,0,0,1-.963-2.095,2.813,2.813,0,0,1,.936-2.238,3.3,3.3,0,0,1,2.327-.9,3.279,3.279,0,0,1,2.265.829A2.806,2.806,0,0,1,2912.727-3314.425Z" fill="#5a189a"/>
        <path id="Path_178546" data-name="Path 178546" d="M2922.446-3305.848a8.761,8.761,0,0,1,2.728-6.455l1.48-1.177a8.069,8.069,0,0,0,1.828-1.98,4.037,4.037,0,0,0,.561-2.336,1.511,1.511,0,0,0-1.658-1.622,2.136,2.136,0,0,0-1.739.749,4.6,4.6,0,0,0-.989,2.211l-5.867.035a7.691,7.691,0,0,1,2.728-5.608,9.187,9.187,0,0,1,6.259-1.97,9.43,9.43,0,0,1,4.022.909,5.683,5.683,0,0,1,2.558,2.408,6.521,6.521,0,0,1,.7,3.619q-.215,3.015-3.388,5.6l-2.087,1.658a6.339,6.339,0,0,0-2.229,3.923Zm-1.855,5.51a2.844,2.844,0,0,1,.927-2.265,3.293,3.293,0,0,1,2.318-.891,3.237,3.237,0,0,1,2.283.838,2.839,2.839,0,0,1,.945,2.086,2.828,2.828,0,0,1-.918,2.256,3.3,3.3,0,0,1-2.327.883,3.373,3.373,0,0,1-2.256-.794A2.734,2.734,0,0,1,2920.591-3300.338Z" fill="#5a189a"/>
      </g>
      <g id="Group_117225" data-name="Group 117225">
        <path id="Path_178547" data-name="Path 178547" d="M2634.893-3394.9a11.405,11.405,0,0,1-.776,3.878,7.151,7.151,0,0,1-1.971,2.631l-1.569,1.284q-2.46,2.121-2.265,4.315a1.412,1.412,0,0,0,1.48,1.462q2.319.054,2.889-2.96l5.885-.035a7.712,7.712,0,0,1-2.7,5.59,9.168,9.168,0,0,1-6.286,1.97,7.878,7.878,0,0,1-5.465-1.881,5.856,5.856,0,0,1-1.774-5.02q.16-2.96,3.459-5.653l2.283-1.818a5.986,5.986,0,0,0,1.961-3.727Zm2.122-5.492a2.869,2.869,0,0,1-.91,2.22,3.245,3.245,0,0,1-2.354.918,3.274,3.274,0,0,1-2.264-.829,2.8,2.8,0,0,1-.963-2.1,2.815,2.815,0,0,1,.936-2.238,3.3,3.3,0,0,1,2.327-.9,3.281,3.281,0,0,1,2.265.829A2.806,2.806,0,0,1,2637.015-3400.387Z" fill="#5a189a"/>
        <path id="Path_178548" data-name="Path 178548" d="M2646.733-3391.81a8.763,8.763,0,0,1,2.729-6.455l1.48-1.177a8.065,8.065,0,0,0,1.827-1.98,4.033,4.033,0,0,0,.562-2.336,1.511,1.511,0,0,0-1.658-1.622,2.134,2.134,0,0,0-1.739.749,4.6,4.6,0,0,0-.99,2.211l-5.866.035a7.689,7.689,0,0,1,2.728-5.608,9.186,9.186,0,0,1,6.259-1.97,9.406,9.406,0,0,1,4.021.909,5.7,5.7,0,0,1,2.559,2.407,6.525,6.525,0,0,1,.7,3.62q-.215,3.015-3.389,5.6l-2.086,1.658a6.34,6.34,0,0,0-2.229,3.923Zm-1.854,5.51a2.845,2.845,0,0,1,.927-2.265,3.294,3.294,0,0,1,2.318-.891,3.24,3.24,0,0,1,2.283.838,2.841,2.841,0,0,1,.945,2.086,2.829,2.829,0,0,1-.919,2.256,3.3,3.3,0,0,1-2.327.883,3.376,3.376,0,0,1-2.256-.794A2.732,2.732,0,0,1,2644.879-3386.3Z" fill="#5a189a"/>
      </g>
    </g>
  </g>
</svg>
