<svg xmlns="http://www.w3.org/2000/svg" width="152.999" height="153.001" viewBox="0 0 152.999 153.001">
  <g id="t4-ic1" transform="translate(-15.952 -15.922)">
    <rect id="Rectangle_36615" data-name="Rectangle 36615" width="147.873" height="107.081" transform="translate(18.514 18.493)" fill="#ffdf8f"/>
    <rect id="Rectangle_36616" data-name="Rectangle 36616" width="122.361" height="81.586" transform="translate(31.277 31.24)" fill="#afafaf"/>
    <path id="Path_178413" data-name="Path 178413" d="M411.285,304h23.4v3.369h-23.4Q411.276,305.682,411.285,304Z" transform="translate(-269.342 -196.272)" fill="#cececc"/>
    <path id="Path_178414" data-name="Path 178414" d="M111.325,28.019c2.7-.809,7.868-.957,10.653-.922,3.356.073,8.891,1.274,11.476,3.38.1,2.718.65,6.93.612,9.649-6.253,5.9-13.681,12.344-22.228,13.4a104.6,104.6,0,0,1-10.653.717c.022-1.979-.656-7.977-.512-9.95a144.382,144.382,0,0,1,24.687-6.337c-.169-1.689-2.226-.677-2.459-2.356-7.205,1.2-10.252,2.306-17.209,4.527-.825.249-3.644-.1-4.507,0C103.223,35.107,106.1,29.45,111.325,28.019Z" transform="translate(-57.707 -7.611)" fill="#727997"/>
    <path id="Path_178415" data-name="Path 178415" d="M213.171,42.857A12.79,12.79,0,0,1,222.528,53.9c.138,3.074.047,6.16.055,9.242a18.267,18.267,0,0,1-9.4-11.564C213.089,48.675,213.128,45.762,213.171,42.857Z" transform="translate(-134.337 -18.352)" fill="#727997"/>
    <path id="Path_178416" data-name="Path 178416" d="M405.988,397.41c7.222-.017,14.448-.029,21.67,0,1.632-.059,2.959,2.2,2.484,4.215a2.82,2.82,0,0,1-2.848,2.518c-7.1,0-14.2.013-21.3-.008A9.414,9.414,0,0,0,405.988,397.41Z" transform="translate(-265.738 -259.903)" fill="#ffb600"/>
    <path id="Path_178417" data-name="Path 178417" d="M154.393,321.585c1.577-.962,5.256-2.648,6.849-3.585,1.552.915,4.182,1.084,5.75,1.966-.36,1.517-.577,6.379-1.051,7.867-2.167.006-6.374-.013-8.538,0C156.891,326.38,154.887,323.045,154.393,321.585Z" transform="translate(-94.322 -205.811)" fill="#ffb600"/>
    <path id="Path_178418" data-name="Path 178418" d="M405.978,462.01c7.212-.008,14.425-.02,21.638,0,1.4-.048,2.641,1.489,2.605,3.185.023,1.684-1.209,3.193-2.6,3.157-7.213.032-14.425.012-21.638.012A8.345,8.345,0,0,0,405.978,462.01Z" transform="translate(-265.731 -303.92)" fill="#5a189a"/>
    <path id="Path_178419" data-name="Path 178419" d="M136.547,83.073c.9-.637,1.716-1.386,2.629-2.009a21.521,21.521,0,0,0,12.018,10.853q0,8.52,0,17.048a21.792,21.792,0,1,1-43.584,0q-.011-8.173,0-16.343a49.076,49.076,0,0,0,28.94-9.549" transform="translate(-62.445 -44.383)" fill="#fdc8a2"/>
    <path id="Path_178420" data-name="Path 178420" d="M140.2,245.8c4.917,2.04,10.373,3.277,15.683,2.161,2.51-.25,4.782-1.359,7.132-2.172.007,1.458,0,2.917.007,4.375-3.787,4.554-7.56,9.121-11.386,13.639-3.908-4.454-7.61-9.1-11.439-13.629C140.192,248.713,140.188,247.255,140.2,245.8Z" transform="translate(-84.646 -156.61)" fill="#fdc8a2"/>
    <path id="Path_178421" data-name="Path 178421" d="M252.741,376h7.225a5.321,5.321,0,0,1-1.517,3.48,2.538,2.538,0,0,0,1.313,4.086c1.476.207,2.97-.01,4.455.105a4.24,4.24,0,0,1,0,5.054c-1.488.112-2.989-.105-4.468.105a2.71,2.71,0,0,0-1.96,2.467h-5.048c0-.851-2.3,1.625-2.3.774-2.071-.067-2.6-1.163-4.644-1.571-2.177-.373-3.625-2.715-5.8-3.069,0-.733,0-1.466,0-2.2,2.757-1.361,4.665-4.495,7.447-5.8,1.491-.1,2.261-1.129,3.756-1.161C251.193,376.575,252.741,377.7,252.741,376Z" transform="translate(-152.64 -245.327)" fill="#fdc8a2"/>
    <path id="Path_178422" data-name="Path 178422" d="M26.143,379.332c4.26-.007,8.516.007,12.773-.007a3.074,3.074,0,0,1,1.615.226c4.943,2.484,9.9,4.943,14.84,7.439v15.553a25.316,25.316,0,0,1-14.716-7.015,3.911,3.911,0,0,0-2.806-1.571c-3.9-.029-7.8,0-11.706-.011Z" transform="translate(-6.943 -247.591)" fill="#fdc8a2"/>
    <g id="_fdb683ff" data-name="#fdb683ff" transform="translate(38.914 49.753)">
      <path id="Path_178423" data-name="Path 178423" d="M88.022,126.2a5.3,5.3,0,0,1,2.467-4.063c.118,2.941.083,5.892.019,8.834A5.221,5.221,0,0,1,88.022,126.2Z" transform="translate(-88.004 -122.121)" fill="#fdb683"/>
      <path id="Path_178424" data-name="Path 178424" d="M256.031,122.08a5.536,5.536,0,0,1,2.326,3.152,5.125,5.125,0,0,1-2.368,5.689C256,127.976,255.92,125.025,256.031,122.08Z" transform="translate(-202.443 -122.08)" fill="#fdb683"/>
    </g>
    <g id="_fdbf92ff" data-name="#fdbf92ff" transform="translate(55.542 86.828)">
      <path id="Path_178425" data-name="Path 178425" d="M140.182,238.43a28.683,28.683,0,0,0,22.828-.01c0,.892,0,2.418,0,3.309-2.351.813-4.623,1.923-7.134,2.172-5.311,1.117-10.768-.121-15.687-2.161C140.178,240.847,140.182,239.318,140.182,238.43Z" transform="translate(-140.181 -238.419)" fill="#fdbf92"/>
    </g>
    <path id="Path_178426" data-name="Path 178426" d="M117.857,270.05c1.154-.347,4.161-1.46,5.292-1.871,3.26,3.882,8.043,9.509,11.268,13.419-2.524,1.5-7.4,4.77-9.936,6.248C122.62,282.817,119.632,275.1,117.857,270.05Z" transform="translate(-69.429 -171.867)" fill="#d1a1ff"/>
    <path id="Path_178427" data-name="Path 178427" d="M180.429,281.393c3.228-3.9,8.222-9.326,11.473-13.214,1.141.373,4.6,1.5,5.736,1.871-1.727,5.061-4.823,12.767-6.658,17.8C188.437,286.374,182.953,282.894,180.429,281.393Z" transform="translate(-112.061 -171.867)" fill="#d1a1ff"/>
    <path id="Path_178428" data-name="Path 178428" d="M121.405,401.5c13.713,2.253,27.791,4.406,41.5,6.682,2.4.555,2.911,1.2,5.349,1.264,0-.851,2.3.074,2.3-.774H175.6c.054,1.37,1.342,2.122,1.8,3.321a4.633,4.633,0,0,1-.57,4.538,4.171,4.171,0,0,0-1.154,2,2.542,2.542,0,0,0,2.18,2.852c1.412.092,2.827.019,4.242.025a4.759,4.759,0,0,1-.758,6.017,9.105,9.105,0,0,1-5.4,1.651c0-.851-5.609.341-5.6-.507-5.733-.016-6.8-.2-12.531-.2a57.323,57.323,0,0,1-6.279-1.127c-11.256-2.989-20.905-6.618-32.164-9.582-.022-4.3,2.052-11.857,2.049-16.152" transform="translate(-70.451 -262.699)" fill="#ba73ff"/>
    <g id="_2d7dbeff" data-name="#2d7dbeff" transform="translate(18.513 98.183)">
      <path id="Path_178429" data-name="Path 178429" d="M33.69,284.486c5.367-1.479,11.406-1.364,16.773-2.846,2.285,6.049,5.722,10.527,8.016,16.573.376,1.115.473,1.97,1.639,1.773a29.663,29.663,0,0,0,3.892-.953,47.436,47.436,0,0,1,2.459,6.078c-.217,4.573-1.329,10.037-1.571,14.61-2.591-.411-6.911-1.252-9.5-1.635a18.623,18.623,0,0,1-2.858-1.024c-2.61-1.326-3.806-2.167-6.419-3.483,0-2.868-4.029-3.181-4.029-1.161a6.154,6.154,0,0,0-3-.706c-4.149-.006-8.686-1.128-12.839-1.138,0-1.7-.611-2.277-.614-3.976-.851,0-.788-2.538-1.636-2.535q0-2.548,0-5.1c.848,0-.513-2.319.338-2.322.016-1.816-.381-1.325-.342-3.141a8.841,8.841,0,0,1,3.688-6.416A29.059,29.059,0,0,1,33.69,284.486Z" transform="translate(-23.989 -279.221)" fill="#9c36ff"/>
      <path id="Path_178430" data-name="Path 178430" d="M207.973,274.05c6.16,1.676,7.644,1.791,13.794,3.49,2.336.6,9.4,3.051,10.171,5.326.743,2.444,2.117,4.642,2.257,7.156.848,0-.122,3.77.729,3.77v5.1c-2.667.029-5.338-.057-8,.038a2.524,2.524,0,0,0-1.721,3.952,5.661,5.661,0,0,1,1.651,3.659h-7.225c-1.593.006-1.184,1.435-2.777,1.447-1.217-.067-2.639,1.443-3.694,1.921-2.683,1.316-4.654,3.037-7.369,4.276-2.849.577-8.328.461-11.2.914-.2-3.808-2.759-6.162-2.967-9.97-.041-1.166-.5-5.133,0-6.245.472-1.138,1.958-5.086,2.557-6.15a26.34,26.34,0,0,0,3.96.868c1.166.194,1.673-.609,2.049-1.721C202.482,285.838,205.688,280.1,207.973,274.05Z" transform="translate(-138.041 -274.05)" fill="#9c36ff"/>
    </g>
    <path id="Path_178431" data-name="Path 178431" d="M411.282,290.571h23.4c0,1.428,0,2.851,0,4.28h-23.4C411.278,293.422,411.278,292,411.282,290.571Z" transform="translate(-269.342 -187.123)" fill="#de5540"/>
    <path id="Path_178432" data-name="Path 178432" d="M389.952,366.219c7.25,0,14.5-.016,21.75.008,1.552-.07,2.877,1.75,2.61,3.554a2.838,2.838,0,0,1-2.593,2.658c-7.25.027-14.5,0-21.753.012A7.957,7.957,0,0,0,389.952,366.219Z" transform="translate(-254.812 -238.66)" fill="#ff6b00"/>
    <path id="Path_178433" data-name="Path 178433" d="M160.3,357.367c1.778-.207,7.6.067,9.4,0,.293,4.178.223,9.712.475,13.893-1.119.233-4-.108-5.134,0-1.135-.15-4.006-.156-5.131-.363C160.117,366.741,160.155,361.526,160.3,357.367Z" transform="translate(-98.081 -232.579)" fill="#ffb600"/>
    <path id="Path_178434" data-name="Path 178434" d="M163.523,476.555a3.494,3.494,0,0,1,1.991.2c1.45.436,2.948.71,4.361,1.258.03,1.54.143,3.084.278,4.62q-6.046-.1-12.1,0c.12-1.54.229-3.08.274-4.62C160.026,477.415,161.788,477.035,163.523,476.555Z" transform="translate(-96.816 -313.775)" fill="#ffb600"/>
    <path id="Path_178435" data-name="Path 178435" d="M315.084,366.218q11.928.006,23.859,0a7.956,7.956,0,0,1,.013,6.231q-11.938.006-23.873,0A15.338,15.338,0,0,0,315.084,366.218Z" transform="translate(-203.803 -238.663)" fill="#e9d6bb"/>
    <path id="Path_178436" data-name="Path 178436" d="M315.084,428.9h23.869a10.2,10.2,0,0,1,0,7.075H315.084A20.006,20.006,0,0,0,315.084,428.9Z" transform="translate(-203.803 -281.369)" fill="#e9d6bb"/>
    <path id="Path_178437" data-name="Path 178437" d="M331.5,397.4c7.914.008,15.827-.017,23.738.012a9.414,9.414,0,0,1,.01,6.729c-7.917.021-15.831,0-23.748.008A17.913,17.913,0,0,0,331.5,397.4Z" transform="translate(-214.988 -259.907)" fill="#f1ddc1"/>
    <path id="Path_178438" data-name="Path 178438" d="M331.5,462c7.911.008,15.821-.012,23.735.008a8.345,8.345,0,0,1,.007,6.357q-11.871.018-23.738,0A16.028,16.028,0,0,0,331.5,462Z" transform="translate(-214.988 -303.922)" fill="#f1ddc1"/>
    <g id="_ffb431ff" data-name="#ffb431ff" transform="translate(135.15 147.529)">
      <path id="Path_178439" data-name="Path 178439" d="M389.983,428.9c7.254.009,14.509-.018,21.763.013,1.546-.062,2.864,2,2.587,4.046-.165,1.676-1.332,3.038-2.6,3-7.251.031-14.5,0-21.753.013A10.2,10.2,0,0,0,389.983,428.9Z" transform="translate(-389.983 -428.893)" fill="#ff6b00"/>
    </g>
    <g id="_3289d1ff" data-name="#3289d1ff" transform="translate(19.427 149.829)">
      <path id="Path_178440" data-name="Path 178440" d="M26.891,436.115c3.506.015,7.009-.033,10.511.026a30.759,30.759,0,0,0,19.346,8.627,12.985,12.985,0,0,1,2.376.233c2.854.755,5.7,1.553,8.569,2.267-.157.438-.722.35-1.068.514-3.652.929-7.275,1.972-10.931,2.876-6.812.076-13.632.025-20.447.029a8.462,8.462,0,0,1-7.811-5.449C26.443,442.308,27.066,439.148,26.891,436.115Z" transform="translate(-26.857 -436.111)" fill="#ba73ff"/>
    </g>
    <g id="_000000ff" data-name="#000000ff" transform="translate(15.952 15.922)">
      <path id="Path_178441" data-name="Path 178441" d="M15.968,18.8A2.589,2.589,0,0,1,18.5,15.956c7.652-.022,15.306,0,22.961-.01v5.1H24.68c2.54,2.546,5.1,5.077,7.623,7.636,1.351.022,2.706.01,4.057.013q0,1.276,0,2.549V33.79c-.851,0-1.7,0-2.546,0-.01,5.631,0,11.262-.006,16.89,0,.752.051,1.5.118,2.253a10.246,10.246,0,0,1,4.987-7.617c.048-4.707-.408-9.58,1.307-14.076A23.128,23.128,0,0,1,51.332,18.506a24.022,24.022,0,0,1,12.135-2.562A20.767,20.767,0,0,1,74.6,18.5,22.154,22.154,0,0,1,77.98,20.87c.481.373,1.138.277,1.7.411a15.34,15.34,0,0,1,11.893,9.984c1.447,4.188.679,8.684.883,13.021a10.479,10.479,0,0,1,6.071,4.468,10.2,10.2,0,0,1,.443,10.083,10.412,10.412,0,0,1-6.5,5.242,25.819,25.819,0,0,1-10.217,20.7q0,4.168,0,8.34c9.038,2.62,18.1,5.153,27.133,7.792a12.527,12.527,0,0,1,8.563,11.909c0,1.7,0,3.4,0,5.1h-5.1c-.14-2.514.338-5.115-.4-7.559a7.385,7.385,0,0,0-5.048-4.72c-6.151-1.7-12.311-3.365-18.471-5.042-2.285,6.049-4.529,12.113-6.823,18.155a2.541,2.541,0,0,1-2.744,1.673c-1.2-.182-2.043-1.176-3.155-1.552a31.588,31.588,0,0,0-1.256,3.483,7.584,7.584,0,0,0-.185,3.5c.207,3.808.43,7.613.634,11.422,2.871-.453,5.755-.88,8.6-1.456,2.715-1.24,5.354-2.658,8.037-3.974,1.055-.478,2.062-1.249,3.279-1.182,1.593-.013,3.187.006,4.78,0v5.1c-1.495.032-3-.064-4.487.038-2.782,1.3-5.507,2.738-8.263,4.1,0,.73,0,1.463,0,2.2q3.27.531,6.536,1.09a37.747,37.747,0,0,0,6.211.226v2.549q0,1.272,0,2.549c-2.438-.067-4.914.217-7.317-.338-13.707-2.275-27.407-4.592-41.12-6.845,0,4.3-.013,8.592.01,12.888,11.259,2.964,22.5,6,33.758,8.99a12.087,12.087,0,0,0,2.862.606c5.73,0,11.463-.013,17.2,0q-.01,1.272,0,2.549c0,.845,0,1.689,0,2.537-6.253-.01-12.508,0-18.761-.105-3.251-.743-6.434-1.8-9.7-2.483.041.841.086,1.683.105,2.527-1.679-.1-3.356.131-5.035.013-.115-1.3-.21-2.613-.236-3.92-1.2-.465-2.47-.7-3.7-1.068a2.964,2.964,0,0,0-1.689-.172c-1.472.408-2.967.73-4.407,1.24-.038,1.307-.131,2.613-.233,3.92-1.679.121-3.362-.112-5.042-.013.016-.848.064-1.692.1-2.534-3.26.717-6.447,1.746-9.7,2.492-6.157.1-12.317.086-18.474.108a12.583,12.583,0,0,1-8.633-3.241,12.45,12.45,0,0,1-4.1-9.184q-.019-16.731-.006-33.465c.851,0,1.7,0,2.553,0s1.7,0,2.546,0c0,1.7,0,3.4,0,5.1,4.152.01,8.3,0,12.454,0a5.822,5.822,0,0,1,2.843.966c0-2.02,0-4.041,0-6.065,1.7,0,3.394,0,5.1,0q0,4.3,0,8.608c2.613,1.316,5.239,2.61,7.849,3.936a4.643,4.643,0,0,0,1.444.449c2.591.382,5.169.86,7.76,1.272.242-4.573.532-9.143.749-13.716a26.869,26.869,0,0,0-1.574-4.666c-1.1.341-1.941,1.348-3.126,1.523a2.539,2.539,0,0,1-2.75-1.67c-2.295-6.045-4.538-12.113-6.823-18.162-5.367,1.482-10.743,2.926-16.109,4.4A15.317,15.317,0,0,0,24.4,106.59a7.432,7.432,0,0,0-3.324,5.88c-.038,1.816,0,3.636-.013,5.453q-1.276,0-2.546,0H15.968c.006-1.816-.013-3.63.01-5.44a12.44,12.44,0,0,1,8.71-11.606c2.186-.663,4.4-1.249,6.59-1.9,6.482-1.836,12.948-3.722,19.43-5.545.319-.169,1.033-.092.937-.644.045-2.667,0-5.338.016-8.009a25.757,25.757,0,0,1-10.214-20.7,10.054,10.054,0,0,1-7.47-8.665,17.367,17.367,0,0,0-.163,1.95q0,18.8,0,37.6-1.272,0-2.546,0H28.715q-.014-31.354-.01-62.7c-2.556-2.534-5.089-5.086-7.636-7.626q-.014,36.44,0,72.877h-5.1q0-39.365,0-78.728m41.085,2.913A17.943,17.943,0,0,0,45.347,32.129a14.8,14.8,0,0,0,2.486-.73A152.413,152.413,0,0,1,69.1,26.2c.233,1.679.612,3.34.781,5.029a158.283,158.283,0,0,0-25.8,6.826c-.143,1.973-.038,3.958-.061,5.937a53.7,53.7,0,0,0,7.642-.338A41,41,0,0,0,74.574,32.77c.038-2.718.08-5.443-.019-8.161a15.219,15.219,0,0,0-9.169-3.544c-2.785-.035-5.634-.159-8.334.65m22.681,4.732c-.035,2.349-.067,4.7.01,7.052a14.77,14.77,0,0,0,7.6,9.35c-.006-2.492.067-4.987-.045-7.473a10.341,10.341,0,0,0-7.566-8.93m-6.09,13.71a45.924,45.924,0,0,1-27.082,8.936q0,7.644,0,15.294a20.29,20.29,0,0,0,1.756,8.289A20.57,20.57,0,0,0,62.757,84.343,20.412,20.412,0,0,0,87.35,64.387q.01-7.978,0-15.953A20.138,20.138,0,0,1,76.1,38.277c-.854.583-1.616,1.284-2.46,1.88M38.932,53.835a5.221,5.221,0,0,0,2.486,4.771c.064-2.941.1-5.892-.019-8.834a5.3,5.3,0,0,0-2.467,4.063M92.5,49.753c-.112,2.945-.032,5.9-.041,8.84A5.125,5.125,0,0,0,94.829,52.9,5.536,5.536,0,0,0,92.5,49.753m-35.744,38c0,.794,0,1.59,0,2.387-.006,1.3,0,2.607,0,3.91,3.423,4.047,6.731,8.2,10.223,12.18,3.419-4.038,6.791-8.12,10.176-12.19-.006-1.3,0-2.607-.006-3.91,0-.8,0-1.59,0-2.387a25.627,25.627,0,0,1-20.4.01M49.92,99.082c1.775,5.054,3.741,10.045,5.6,15.074,2.537-1.479,5.035-3.024,7.559-4.525q-4.838-5.865-9.736-11.686-1.7.617-3.426,1.138m20.912,10.545c2.524,1.5,5.026,3.047,7.569,4.519,1.836-5.029,3.847-10,5.574-15.064-1.141-.37-2.272-.762-3.413-1.135q-4.876,5.832-9.729,11.68M62.221,116.1c.494,1.46.969,2.926,1.482,4.379,2.164-.013,4.331,0,6.5-.006.475-1.488,1.058-2.951,1.418-4.468-1.568-.883-3.094-1.842-4.646-2.757q-2.39,1.405-4.752,2.852m2.008,9.561c-.147,4.159-.449,8.308-.656,12.464,1.125.207,2.253.4,3.388.554a31.169,31.169,0,0,0,3.381-.564c-.252-4.181-.433-8.372-.727-12.55-1.794.067-3.608-.112-5.386.1m-43.163,7.559V145.97c3.4.01,6.807-.016,10.211.01a3.411,3.411,0,0,1,2.447,1.37,22.083,22.083,0,0,0,12.837,6.119V139.9c-4.309-2.177-8.633-4.321-12.945-6.488a2.682,2.682,0,0,0-1.409-.2c-3.713.013-7.425,0-11.141.006m0,17.846c.153,2.651-.392,5.414.478,7.977a7.4,7.4,0,0,0,6.829,4.764c5.959,0,11.922.041,17.878-.026,3.2-.79,6.364-1.7,9.557-2.514.3-.143.8-.067.934-.449-2.508-.625-5-1.323-7.492-1.982a11.34,11.34,0,0,0-2.078-.2,26.9,26.9,0,0,1-16.916-7.543C27.195,151.04,24.132,151.081,21.066,151.069Z" transform="translate(-15.952 -15.922)"/>
      <path id="Path_178442" data-name="Path 178442" d="M240,16q39.528.01,79.059.01a2.6,2.6,0,0,1,2.521,2.862q0,50.828,0,101.657h-5.1c0-1.7,0-3.4,0-5.1q-20.4,0-40.792,0v-2.549c0-.851,0-1.7,0-2.549,2.769-.013,5.539.019,8.308-.006.57.089.7-.577.959-.934,2.964-5.214,5.921-10.434,8.936-15.616,1.469.829,2.929,1.679,4.4,2.5-.7,1.294-1.46,2.559-2.186,3.843,2.54.019,5.08.006,7.62.006q.01-33.142,0-66.283-26.765,0-53.533,0c0-.848-.006-1.7,0-2.546V28.744q27.53-.014,55.056-.01,3.8-3.834,7.629-7.639-36.44,0-72.883,0V18.546q0-1.272,0-2.549M308.852,32.32q-.057,33.906-.016,67.81h7.648q-.01-37.7-.01-75.4c-2.549,2.521-5.061,5.083-7.623,7.594m-12.763,72.909c0,.851,0,1.7,0,2.549s-.006,1.7,0,2.549h20.4v-2.549c0-.851,0-1.7,0-2.549Z" transform="translate(-168.6 -15.972)"/>
      <path id="Path_178443" data-name="Path 178443" d="M132.173,128.047A5.1,5.1,0,1,1,128,133.4,5.138,5.138,0,0,1,132.173,128.047Z" transform="translate(-92.281 -92.246)"/>
      <path id="Path_178444" data-name="Path 178444" d="M196.2,128.041A5.1,5.1,0,1,1,192,133.379,5.136,5.136,0,0,1,196.2,128.041Z" transform="translate(-135.888 -92.243)"/>
      <path id="Path_178445" data-name="Path 178445" d="M168.289,178.3c1.17-.312,2.234-.9,3.384-1.259.688,1.523,1.482,3,2.215,4.5A28.351,28.351,0,0,1,160,184.357v-5.1A25.181,25.181,0,0,0,168.289,178.3Z" transform="translate(-114.094 -125.694)"/>
      <path id="Path_178446" data-name="Path 178446" d="M296.366,355.972a2.524,2.524,0,0,1,1.721-3.952c2.664-.1,5.335-.01,8-.038q20.4,0,40.8.006a7.684,7.684,0,0,1,5.688,2.54,7.546,7.546,0,0,1,1.405,7.817,8.11,8.11,0,0,1,5.475,5.9,7.676,7.676,0,0,1-5.408,8.933,8.068,8.068,0,0,1-.064,5.577,8.392,8.392,0,0,1,4.63,3.681,7.659,7.659,0,0,1-6.938,11.438c-16.058-.013-32.117.013-48.175-.013a2.572,2.572,0,0,1-1.925-4.184,4.759,4.759,0,0,0,.758-6.017c-1.415-.006-2.83.067-4.242-.025a2.541,2.541,0,0,1-2.18-2.852,4.171,4.171,0,0,1,1.154-2,4.633,4.633,0,0,0,.57-4.538c-.456-1.2-1.743-1.95-1.8-3.321a2.71,2.71,0,0,1,1.96-2.467c1.479-.21,2.98.006,4.468-.105a4.24,4.24,0,0,0,0-5.054c-1.485-.115-2.98.1-4.455-.105a2.538,2.538,0,0,1-1.313-4.086,5.321,5.321,0,0,0,1.517-3.48,5.661,5.661,0,0,0-1.651-3.659m6.4,1.109a10.654,10.654,0,0,1,0,5.1q11.544,0,23.086,0c7.011-.006,14.025.013,21.036-.01a2.54,2.54,0,1,0-.016-5.08c-7.011-.019-14.022-.006-21.033-.006q-11.535-.01-23.073,0m5.1,10.2a10.575,10.575,0,0,1,0,5.1c7.7-.006,15.4.01,23.1-.006,6.9.016,13.805,0,20.711.006a2.624,2.624,0,0,0,2.769-1.9,2.548,2.548,0,0,0-2.416-3.184q-10.536-.038-21.075,0c-7.693-.022-15.389,0-23.085-.01m-5.093,10.2a10.817,10.817,0,0,1,0,5.1H325.85c7.011-.01,14.022.013,21.033-.01a2.54,2.54,0,0,0,.01-5.08c-7.014-.022-14.028,0-21.043-.01H302.771m5.093,10.2a10.615,10.615,0,0,1,0,5.1q11.544,0,23.085,0c7.014,0,14.028.016,21.043-.01a2.538,2.538,0,0,0-.006-5.077q-10.521-.029-21.043,0C323.25,387.665,315.557,387.681,307.864,387.675Z" transform="translate(-206.644 -244.879)"/>
      <path id="Path_178447" data-name="Path 178447" d="M144,432c1.7,0,3.4,0,5.1,0v5.1H144Z" transform="translate(-103.193 -299.399)"/>
    </g>
  </g>
</svg>
