<svg xmlns="http://www.w3.org/2000/svg" width="101.197" height="153.001" viewBox="0 0 101.197 153.001">
  <g id="t6-i9" transform="translate(-3136.716 3378.241)">
    <path id="Path_178549" data-name="Path 178549" d="M3203.68-3353.365s-18.78,17.162-39.015,17.418v9.349s-6.656,1.655-9.99,6.276c0,0-4.227-11.655-2.561-20.491,0,0-9.862-1.024-11.142-4.867,0,0,8.325-5.763,12.038-11.142a40.547,40.547,0,0,1,34.451-18.186l17.8,5.123s20.235-.64,24.461,12.807.641,34.757.641,34.757l-9.349-3.38-.128-8.709S3205.043-3341.838,3203.68-3353.365Z" transform="translate(-1.727 -1.311)" fill="#12263f"/>
    <g id="_86dcffff" data-name="#86dcffff" transform="translate(3145.432 -3286.286)">
      <path id="Path_178550" data-name="Path 178550" d="M3163.208-3214.48c5.681-5.732,15.353-8.7,23.418-9.029,1.288,3.323,20.022,3.218,21.278,0a32.988,32.988,0,0,1,18.117,6.34c.639.452,1.362,3.2,2.2,3.159a3.3,3.3,0,0,0,1.745-.75c1.061.986,2.074,2.023,3.048,3.1a3.338,3.338,0,0,0-.765,1.694c-.063.843,3.3,2.334,3.75,2.983,3.966,5.391,5.725,13.145,5.763,19.83.018,6.273,0,22.433,0,22.433l-88.213-1.617s.11-7.5-.078-9.293a2.524,2.524,0,0,0-2.086-1.841c0-1.437,0-2.874,0-4.309,1.052-.233-.01-4.195,0-5.373.12-2.779.906-6.113,1.241-8.88C3153.392-3203.347,3158-3209.3,3163.208-3214.48Z" transform="translate(-3151.383 3223.509)" fill="#85709a"/>
    </g>
    <g id="_ff5876ff" data-name="#ff5876ff" transform="translate(3181.146 -3273.858)">
      <path id="Path_178551" data-name="Path 178551" d="M3216.494-3202.576c2.89-.035,5.779-.011,8.668-.015,1.691,9.294,3.4,18.586,5.08,27.885-2.67,2.278-4.988,4.922-7.493,7.37-.657.619-1.556,1.33-2.51.934a11.824,11.824,0,0,1-2.689-2.379c-1.99-2.147-4.238-4.05-6.071-6.34Q3214.026-3188.844,3216.494-3202.576Z" transform="translate(-3211.479 3202.595)" fill="#ff9547"/>
    </g>
    <path id="Path_178552" data-name="Path 178552" d="M3211.9-3337.3s3.12,13.957,16.567,17.353v9.735s10.617,2.381,10.617,10.288-10.617,8.539-10.617,8.539-5.127,20.746-28.018,20.746c0,0-27.309-3.841-27.309-20.746,0,0-11.911-.6-11.911-8.559s10.374-10.077,10.374-10.077l.96-9.927S3194.378-3321.177,3211.9-3337.3Z" transform="translate(-9.945 -16.612)" fill="#ffddc8"/>
    <path id="Path_178553" data-name="Path 178553" d="M3189.7-3298.324a10.8,10.8,0,0,1,12.668,7.908,10.8,10.8,0,0,1-6.646,12.645,10.777,10.777,0,0,1-12.549-3.859,10.773,10.773,0,0,1,.912-13.5,10.72,10.72,0,0,1,5.614-3.192" transform="translate(-18.057 -32.317)" fill="#e4eef9"/>
    <path id="Path_178554" data-name="Path 178554" d="M3245.482-3298.421a10.874,10.874,0,0,1,12.748,7.672,10.858,10.858,0,0,1-6.2,12.83,10.849,10.849,0,0,1-12.936-3.57,10.834,10.834,0,0,1,.6-13.5,10.835,10.835,0,0,1,5.783-3.429" transform="translate(-40.696 -32.272)" fill="#e4eef9"/>
    <path id="Path_178555" data-name="Path 178555" d="M3213.554-3221.052q8.126-.01,16.259,0-1.9,4.882-3.8,9.762-4.335,0-8.679,0Q3215.451-3216.176,3213.554-3221.052Z" transform="translate(-31.174 -63.773)" fill="#ff6b00"/>
    <path id="Path_178556" data-name="Path 178556" d="M3214.38-3160.21c.117-.714.24-1.423.362-2.131,1.425,1.781,3.174,3.26,4.721,4.931a9.192,9.192,0,0,0,2.092,1.85c.741.308,1.44-.245,1.951-.727,1.949-1.9,3.75-3.959,5.828-5.732q.166.879.337,1.763c-2.537,2.591-5.1,5.161-7.647,7.743C3219.476-3155.08,3216.941-3157.658,3214.38-3160.21Z" transform="translate(-31.51 -87.594)" fill="#ff6b00"/>
    <g id="_56caedff" data-name="#56caedff" transform="translate(3147.597 -3233.012)">
      <path id="Path_178557" data-name="Path 178557" d="M3155.025-3133.859c4.449-.006,8.9,0,13.349-.006v3.291h-13.349C3155.025-3131.671,3155.028-3132.765,3155.025-3133.859Z" transform="translate(-3155.025 3133.865)" fill="#744f9a"/>
      <path id="Path_178558" data-name="Path 178558" d="M3185.045-3133.856q25.07-.022,50.144-.009c0,1.1,0,2.191,0,3.288q-25.071.009-50.144,0Z" transform="translate(-3167.205 3133.865)" fill="#744f9a"/>
      <path id="Path_178559" data-name="Path 178559" d="M3276.978-3133.855c4.45-.015,8.9,0,13.349-.006q0,1.641,0,3.288h-13.349Q3276.973-3132.215,3276.978-3133.855Z" transform="translate(-3204.502 3133.864)" fill="#744f9a"/>
    </g>
    <g id="_000000ff" data-name="#000000ff" transform="translate(3136.716 -3378.241)">
      <path id="Path_178560" data-name="Path 178560" d="M3184.227-3378.241h3.18a33.78,33.78,0,0,1,15.727,4.507c.768.427,1.47,1.183,2.42,1.087a28.985,28.985,0,0,1,13.92,2.621,22.947,22.947,0,0,1,10.029,9.336c2.824,4.9,3.888,10.615,4.1,16.212a85.809,85.809,0,0,1-2.833,22.9,4.36,4.36,0,0,0,.26,2.172,11.545,11.545,0,0,1-2.761,10.779,12.025,12.025,0,0,1-8.839,3.753,31.192,31.192,0,0,1-13.492,16.594,37.037,37.037,0,0,1,17.729,7.566,2.436,2.436,0,0,1,.347,3.173,3.3,3.3,0,0,1-1.745.75,3.6,3.6,0,0,1-2.143-.987,32.206,32.206,0,0,0-17.876-6.314c-1.255,3.219-2.487,6.449-3.765,9.658a2.926,2.926,0,0,0-.3,1.719c1.518,8.34,3.057,16.68,4.557,25.024a2.477,2.477,0,0,1-.8,2.424c-3.278,3.3-6.532,6.631-9.832,9.912a2.255,2.255,0,0,1-3.26-.069c-3.191-3.188-6.341-6.422-9.536-9.6a2.676,2.676,0,0,1-1.042-2.6q2.241-12.448,4.539-24.889a2.544,2.544,0,0,0-.159-1.6q-1.95-4.979-3.879-9.969a32.6,32.6,0,0,0-21.617,9.53,32.506,32.506,0,0,0-9.356,19.472c-.335,2.768-.107,5.564-.228,8.344a2.458,2.458,0,0,1-2.13,2.175,2.463,2.463,0,0,1-2.268-1.945c-.153-1.778-.031-3.562-.054-5.343a36.914,36.914,0,0,1,9-23.862,37.22,37.22,0,0,1,23.031-12.554,31,31,0,0,1-13.558-16.609,11.943,11.943,0,0,1-9.288-4.265,11.54,11.54,0,0,1-2.322-10.235,4.351,4.351,0,0,0,.257-2.31,75.922,75.922,0,0,1-2.223-18.364,17.612,17.612,0,0,1-8.613-3.44,9.354,9.354,0,0,1-2.471-2.591,2.282,2.282,0,0,1,1.213-3.015,26.885,26.885,0,0,0,7.829-6.261c4.01-4.542,7.5-9.622,12.315-13.384a2.434,2.434,0,0,1,3.311.439,3.167,3.167,0,0,1,.143,2.146,5.6,5.6,0,0,1-1.419,1.572c-4.626,3.87-7.907,9.01-12.052,13.34a36.189,36.189,0,0,1-5.519,4.7,13.309,13.309,0,0,0,6.309,2.036c1.03.122,2.313-.013,3.018.923a3.459,3.459,0,0,1,.481,2.406,62.829,62.829,0,0,0,1.407,15.443,13.233,13.233,0,0,1,6-2.519c.006-2.42.063-4.841.021-7.262a3.681,3.681,0,0,1,.591-2.561,3.085,3.085,0,0,1,1.963-.813,83.687,83.687,0,0,0,20.6-5.585c5.75-2.457,11.332-5.735,15.438-10.531.822-.93,1.62-2.34,3.069-2.158a2.549,2.549,0,0,1,2.095,1.921c2.636,6.763,7.465,12.859,13.976,16.224,1.2.663,3.117.965,3.251,2.636.161,2.713-.063,5.442.14,8.158a13.727,13.727,0,0,1,5.989,2.462,71.455,71.455,0,0,0,1.948-19.92c-.359-5.561-1.8-11.319-5.469-15.659-4.136-4.946-10.848-7.043-17.135-6.831-1.217-.021-2.612.434-3.661-.4a27.45,27.45,0,0,0-13.94-5.041,42.126,42.126,0,0,0-20.539,3.854,2.509,2.509,0,0,1-3.039-.824,3.045,3.045,0,0,1,.036-2.187c.49-.938,1.593-1.24,2.486-1.656a50.384,50.384,0,0,1,16.445-3.816m-.338,38.345a88.32,88.32,0,0,1-19.4,5.29c0,1.41,0,2.824,0,4.237a13.99,13.99,0,0,1,13.86-2.923,14.055,14.055,0,0,1,9.273,10.913h5.782a14.139,14.139,0,0,1,3.358-7,13.884,13.884,0,0,1,10.884-4.642,14.063,14.063,0,0,1,8.891,3.649c-.009-1.407,0-2.815-.006-4.222a34.2,34.2,0,0,1-15.728-16.146,49.349,49.349,0,0,1-16.911,10.838m-11.962,10.564a9.382,9.382,0,0,0-4.912,2.794,9.428,9.428,0,0,0-.8,11.815,9.431,9.431,0,0,0,10.982,3.377,9.448,9.448,0,0,0,5.815-11.065,9.454,9.454,0,0,0-11.087-6.921m33.165.012a9.425,9.425,0,0,0-5.029,2.982,9.421,9.421,0,0,0-.523,11.744,9.436,9.436,0,0,0,11.251,3.1,9.443,9.443,0,0,0,5.388-11.158,9.456,9.456,0,0,0-11.086-6.673m-49.513,8.4a7.159,7.159,0,0,0-.326,8.212,7.477,7.477,0,0,0,5.149,3.275c-.72-4.712-.3-9.494-.418-14.239a7.7,7.7,0,0,0-4.4,2.752m65.449-2.713c-.134,4.73.32,9.506-.43,14.2a7.6,7.6,0,0,0,4.48-2.381,7.153,7.153,0,0,0,1.019-8.065,7.251,7.251,0,0,0-5.069-3.753m-33.412,5.738a14.041,14.041,0,0,1-10.2,11.185,14.033,14.033,0,0,1-12.425-2.746,26.3,26.3,0,0,0,7.659,13.72,25.9,25.9,0,0,0,17.658,7.112,25.832,25.832,0,0,0,16.266-5.561,26.346,26.346,0,0,0,9.452-15.279,14,14,0,0,1-13.5,2.43,14,14,0,0,1-9.117-10.842c-1.934-.042-3.864-.015-5.8-.018m-4.041,33.789q1.614,4.16,3.228,8.322,3.7,0,7.4,0,1.622-4.159,3.237-8.325-6.934,0-13.866,0m3.556,12.82q-1.936,10.677-3.9,21.351c-.123.708-.246,1.417-.362,2.131,2.561,2.552,5.1,5.13,7.644,7.7,2.546-2.582,5.11-5.152,7.647-7.743q-.171-.883-.338-1.763c-1.3-7.231-2.635-14.457-3.951-21.686C3191.626-3271.3,3189.379-3271.313,3187.132-3271.287Z" transform="translate(-3136.716 3378.241)"/>
      <path id="Path_178561" data-name="Path 178561" d="M3201.938-3289.467a2.237,2.237,0,0,1,2.928,1.895c.068,2.185.033,4.375.018,6.563a2.244,2.244,0,0,1-2.185,2.247,2.24,2.24,0,0,1-2.28-2.235c-.024-2.1-.021-4.2,0-6.305A2.245,2.245,0,0,1,3201.938-3289.467Z" transform="translate(-3162.555 3342.273)"/>
      <path id="Path_178562" data-name="Path 178562" d="M3248.136-3289.5a2.249,2.249,0,0,1,2.842,2.19c.021,2.107.024,4.214,0,6.32a2.238,2.238,0,0,1-2.1,2.22,2.24,2.24,0,0,1-2.364-2.235c-.027-2.1-.021-4.2,0-6.293A2.238,2.238,0,0,1,3248.136-3289.5Z" transform="translate(-3181.254 3342.274)"/>
      <path id="Path_178563" data-name="Path 178563" d="M3214.509-3259.882a2.179,2.179,0,0,1,2.659.923c1.324,2.454,4.778,2.7,7.07,1.59,1.306-.52,1.5-2.381,2.974-2.608a2.246,2.246,0,0,1,2.639,2.647,6.256,6.256,0,0,1-2.008,2.889,10.263,10.263,0,0,1-8.631,1.961,8.285,8.285,0,0,1-5.949-4.378A2.243,2.243,0,0,1,3214.509-3259.882Z" transform="translate(-3167.688 3330.283)"/>
      <path id="Path_178564" data-name="Path 178564" d="M3231.416-3203.875a2.68,2.68,0,0,1,2.507-.191,8.27,8.27,0,0,1,2.038,2.42,36.786,36.786,0,0,1,6.3,20.383c.006,8.063.021,16.128-.006,24.19a2.423,2.423,0,0,1-1.76,2.4h-91.12a2.3,2.3,0,0,1-1.88-2.086c-.093-3.087.012-6.18-.045-9.267.039-.927-.122-2,.535-2.755a3.152,3.152,0,0,1,1.8-.906,2.524,2.524,0,0,1,2.086,1.841c.188,1.793.03,3.6.078,5.406,0,1.094,0,2.188,0,3.285H3165.3v-3.291c.009-4.685-.015-9.371.009-14.057a2.255,2.255,0,0,1,2.142-2.4,2.26,2.26,0,0,1,2.334,2.384c.019,4.692,0,9.387.007,14.078v3.282q25.07,0,50.144,0c0-1.1,0-2.19,0-3.288.009-4.682-.015-9.365.006-14.047a2.255,2.255,0,0,1,2.206-2.406,2.26,2.26,0,0,1,2.274,2.4c.018,4.688,0,9.377.006,14.065q0,1.641,0,3.282h13.349q0-1.646,0-3.288c-.006-6.272.009-12.548-.009-18.82a32.158,32.158,0,0,0-6.153-18.745,3.546,3.546,0,0,1-.962-2.173A3.336,3.336,0,0,1,3231.416-3203.875Z" transform="translate(-3141.07 3307.674)"/>
    </g>
  </g>
</svg>
