<svg xmlns="http://www.w3.org/2000/svg" width="121.988" height="150" viewBox="0 0 121.988 150">
  <g id="t6-i1" transform="translate(-1595.021 3323.07)">
    <path id="Path_178580" data-name="Path 178580" d="M1636.019-3299.044a49.116,49.116,0,0,1,29.846-2.021,49.431,49.431,0,0,1,25.764,16,49.212,49.212,0,0,1,11.625,28.413c.2,2.078-.024,4.2.457,6.247a12,12,0,0,0,2.708,5.241,25.216,25.216,0,0,0,3.182,2.792c2.867,2.324,5.759,4.617,8.611,6.955a2.616,2.616,0,0,1-.924,4.488c-3.543,1.638-7.095,3.247-10.635,4.892a5.727,5.727,0,0,0-3.244,4.933c-.048,1.615-.012,3.229-.027,4.846-1,.921-2.434,1.579-2.841,2.978-.371,1.124.206,2.236.511,3.3a13,13,0,0,1,.8,5.63c-.266,2.6-.556,5.209-.846,7.813a5.748,5.748,0,0,1-5.516,4.766c-5.289.039-10.578.006-15.868.018a17.892,17.892,0,0,1-7.187-1.387c-5.867-2.437-11.572-5.253-17.384-7.81-.825-.347-.967.144-1.09,1.015-.141.685.556.344,1.2.6,4.443,2.027,8.714,3.956,13.157,5.98-.006,8.177.021,16.943,0,25.118.057.76-1.707,2-2.41,1.883q-22.46-.014-44.918-.009a1.139,1.139,0,0,1-1.193-1.477q2.363-13.931,4.772-27.855a45.154,45.154,0,0,0,.837-6.231,22.919,22.919,0,0,0-4.566-14.507,36.756,36.756,0,0,0-2.8-3.163,48.932,48.932,0,0,1-12.827-27.191,49.05,49.05,0,0,1,4.685-28.189,50.162,50.162,0,0,1,26.123-24.069" transform="translate(-3.929 -8.271)" fill="#dae6f1"/>
    <path id="Path_178581" data-name="Path 178581" d="M1732.579-3323.07h.1a7.641,7.641,0,0,0,1.945,3.475,7.561,7.561,0,0,0,3.595,1.819,7.686,7.686,0,0,0-3.706,1.945,7.673,7.673,0,0,0-1.861,3.478,7.864,7.864,0,0,0-1.984-3.58,7.849,7.849,0,0,0-3.568-1.846A6.874,6.874,0,0,0,1732.579-3323.07Z" transform="translate(-53.091 0)" fill="#ff6b00"/>
    <path id="Path_178582" data-name="Path 178582" d="M1607.7-3294.5a5.474,5.474,0,0,0,4.259-4.228,5.392,5.392,0,0,0,4.351,4.207,5.489,5.489,0,0,0-4.351,4.228A5.43,5.43,0,0,0,1607.7-3294.5Z" transform="translate(-5.097 -9.784)" fill="#983ef0"/>
    <path id="Path_178583" data-name="Path 178583" d="M1596.6-3173.1a1.981,1.981,0,0,1,2.244,2.623,1.989,1.989,0,0,1-3.3.662A1.985,1.985,0,0,1,1596.6-3173.1Z" transform="translate(0 -60.259)" fill="#ffb600"/>
    <path id="Path_178584" data-name="Path 178584" d="M1757.268-3298.534a2,2,0,0,1,2.267,2.619,2,2,0,0,1-3.322.674A2,2,0,0,1,1757.268-3298.534Z" transform="translate(-64.582 -9.841)" fill="#ffb600"/>
    <path id="Path_178585" data-name="Path 178585" d="M1605.725-3150.087a1.888,1.888,0,0,1,2.806.2c.56.7.355,1.646.4,2.476.859.043,1.864-.17,2.567.454a1.886,1.886,0,0,1-.053,2.877c-.7.591-1.673.386-2.514.43-.047.832.164,1.793-.4,2.5a1.884,1.884,0,0,1-2.9.053c-.627-.7-.416-1.7-.46-2.552-.875-.041-1.913.17-2.616-.5a1.891,1.891,0,0,1,.128-2.856c.7-.569,1.658-.366,2.49-.407C1605.209-3148.309,1604.99-3149.4,1605.725-3150.087Z" transform="translate(-2.79 -69.318)" fill="#983ef0"/>
    <path id="Path_178586" data-name="Path 178586" d="M1729.726-3234.931l10.167-9.569-1.2-2.99h-1.783l-5.393,2.99s-1.2-22.127-21.529-30.5l-2.99,1.2v3.6s16.147,5.371,19.137,25.7l-2.945-2.83s-2.437-1.356-3.633-.16,0,4.187,0,4.187l8.415,8.373Z" transform="translate(-45.011 -19.322)" fill="#983ef0"/>
    <path id="Path_178587" data-name="Path 178587" d="M1671.321-3283.55v2.073l-8.682,9.408h-3.812v-4.131l2.617-3.643s-19.735,2.99-25.716,19.137l-3.28,1.238-1.59-2.733s8.458-20.632,30.586-23.024l-2.99-4.186.6-3.588,3.524.792Z" transform="translate(-14.405 -12.087)" fill="#ffb600"/>
    <path id="Path_178588" data-name="Path 178588" d="M1687.911-3188.3l2.175,1.816-2.99,5.98s19.232-2.691,23.969-17.792l4.331-2.307,1.6,2.854s-7.177,20.213-29.9,22.616l2.392,5.393-1.577,2.681-11.089-9.045v-2.924l10.274-9.848Z" transform="translate(-32.881 -49.225)" fill="#ffb600"/>
    <path id="Path_178589" data-name="Path 178589" d="M1625.858-3229.536l9.26,9.291-.758,3.588h-2.691l-4.923-3.588s2.214,17.524,19.048,26.4l1.83,3.18-4.1,1.3s-11.393-4.571-16.177-13.542a58.452,58.452,0,0,1-5.98-16.745l-2.862,2.99h-4.037v-4.229l9.291-8.33Z" transform="translate(-7.816 -37.597)" fill="#983ef0"/>
    <path id="Path_178590" data-name="Path 178590" d="M1693.1-3226.269v-6.173l-4.784-.6-.6-1.794,3.236-3.033-4.432-4.742-3.588,2.99-2.008-.556-.384-4.229-.385-.6h-5.6v4.186l-2.392,1.794-4.058-3.718-4.314,4.316,3.417,4.1-1.025,1.884L1662-3232.8v6.941h4.186l.545,2.99-3.124,2.755,5.013,4.517,2.948-3.683,2.392,1.2v4.784l6.578-.406v-4.357l1.938-.833,4.341,3.3,4.133-4.26-3.236-3.609.6-2.392Zm-14.956,3.7a6.739,6.739,0,0,1-7.386-5.676,6.76,6.76,0,0,1,4.887-7.483,6.756,6.756,0,0,1,8.319,5.118A6.761,6.761,0,0,1,1678.142-3222.564Z" transform="translate(-26.923 -31.381)" fill="#ff6b00"/>
    <g id="_000000ff" data-name="#000000ff" transform="translate(1599.091 -3312.325)">
      <path id="Path_178591" data-name="Path 178591" d="M1624.066-3296.034a50.536,50.536,0,0,1,25.292-8.933,50.957,50.957,0,0,1,26.593,5.291,51.725,51.725,0,0,1,21.639,20.555,50.844,50.844,0,0,1,6.688,24.817,9.586,9.586,0,0,0,1.163,4.846c.929,1.755,2.592,2.909,4.1,4.122,2.742,2.229,5.519,4.418,8.247,6.662a5.442,5.442,0,0,1,1.453,6.451,5.551,5.551,0,0,1-2.853,2.751c-3.411,1.576-6.832,3.129-10.246,4.7a2.755,2.755,0,0,0-1.81,2.213c-.161,1.8.1,3.626-.12,5.431-.255,1.523-1.781,2.259-2.833,3.2a19.914,19.914,0,0,1,1.435,7.342c-.19,2.848-.589,5.678-.87,8.517a8.57,8.57,0,0,1-8.341,7.333c-5.376.023-10.752.008-16.125.005a20.858,20.858,0,0,1-8.508-1.954c-.011,7.585.012,15.173-.011,22.758a4.11,4.11,0,0,1-3.616,4.084h-45.334a4.081,4.081,0,0,1-3.484-4.69c1.714-10.149,3.484-20.285,5.209-30.431a19.664,19.664,0,0,0-3.211-14.569c-1.222-1.776-2.853-3.208-4.239-4.849a50.869,50.869,0,0,1-11.23-22.251,51.3,51.3,0,0,1,2.385-30.114,52.03,52.03,0,0,1,18.624-23.282m11.282-2.757a49.152,49.152,0,0,0-25.6,23.584,48.06,48.06,0,0,0-4.59,27.622,47.943,47.943,0,0,0,12.568,26.643,36.122,36.122,0,0,1,2.739,3.1,22.459,22.459,0,0,1,4.474,14.215,44.34,44.34,0,0,1-.82,6.105q-2.333,13.65-4.676,27.293a1.116,1.116,0,0,0,1.169,1.447q22,.022,44.013.009a1.177,1.177,0,0,0,1.4-1.148c.02-8.01,0-16.022.008-24.035-4.353-1.984-8.7-3.993-13.052-5.98a1.47,1.47,0,0,1-.908-1.611,1.449,1.449,0,0,1,1.913-1.122c5.7,2.5,11.286,5.264,17.033,7.652a17.541,17.541,0,0,0,7.043,1.36c5.183-.011,10.365.021,15.548-.018a5.632,5.632,0,0,0,5.405-4.67c.285-2.552.569-5.1.829-7.655a12.738,12.738,0,0,0-.779-5.517c-.3-1.046-.864-2.136-.5-3.237.4-1.371,1.8-2.015,2.783-2.918.014-1.586-.02-3.167.026-4.749a5.613,5.613,0,0,1,3.178-4.834c3.469-1.611,6.949-3.187,10.421-4.793a2.562,2.562,0,0,0,.905-4.4c-2.795-2.291-5.628-4.538-8.438-6.815a24.761,24.761,0,0,1-3.117-2.736,11.746,11.746,0,0,1-2.654-5.136c-.472-2.008-.255-4.084-.449-6.12a48.22,48.22,0,0,0-11.39-27.841,48.44,48.44,0,0,0-25.246-15.677A48.12,48.12,0,0,0,1635.348-3298.791Z" transform="translate(-1601.826 3305.103)"/>
      <path id="Path_178592" data-name="Path 178592" d="M1659.1-3294.893a4.185,4.185,0,0,1,3.976,1.25c2.578,2.6,5.191,5.162,7.755,7.776a4.131,4.131,0,0,1-.082,5.774c-2.634,2.642-5.265,5.3-7.928,7.916a4.1,4.1,0,0,1-6.281-.838,4.425,4.425,0,0,1,1.066-5.561,29.945,29.945,0,0,0-20.976,16.822,4.207,4.207,0,0,1-4.849,2.64,4.118,4.118,0,0,1-2.859-5.49,38.078,38.078,0,0,1,14.935-17.177,38.366,38.366,0,0,1,14.262-5.212,5.658,5.658,0,0,1-2.13-3.41,4.065,4.065,0,0,1,3.112-4.491m.58,2.873a1.178,1.178,0,0,0-.46,1.955c1.017,1.137,2.185,2.13,3.2,3.27a1.436,1.436,0,0,1-.17,2.044,4.292,4.292,0,0,1-2.095.475,35.052,35.052,0,0,0-28.535,20.839,1.16,1.16,0,0,0,1.887,1.2c.753-1.063,1.142-2.341,1.855-3.436a32.657,32.657,0,0,1,26.522-16.368,1.44,1.44,0,0,1,.987,2.332c-1.1,1.225-2.327,2.321-3.463,3.51a1.4,1.4,0,0,0-.5,1.354,1.159,1.159,0,0,0,1.99.463c2.551-2.525,5.08-5.077,7.623-7.615a1.219,1.219,0,0,0,.234-1.784c-2.5-2.569-5.074-5.08-7.6-7.629A1.428,1.428,0,0,0,1659.685-3292.02Z" transform="translate(-1612.598 3301.041)"/>
      <path id="Path_178593" data-name="Path 178593" d="M1705.024-3275.7a4.116,4.116,0,0,1,4.863-1.125,38.249,38.249,0,0,1,13.954,10.857,38.106,38.106,0,0,1,7.934,18.106c.935-.891,1.849-1.96,3.188-2.206a4.061,4.061,0,0,1,4.658,2.344,4.122,4.122,0,0,1-.9,4.55c-2.634,2.64-5.256,5.288-7.916,7.9a4.106,4.106,0,0,1-5.643-.009c-2.66-2.619-5.279-5.279-7.925-7.909a4.064,4.064,0,0,1-.961-4.324,4.032,4.032,0,0,1,4.395-2.61,4.771,4.771,0,0,1,2.613,1.356,30.087,30.087,0,0,0-14.651-19.506c-1.262-.771-2.85-1.146-3.747-2.408a4.1,4.1,0,0,1,.14-5.012m2.534,1.608a1.173,1.173,0,0,0-.205,1.8,8.6,8.6,0,0,0,1.509.835,32.769,32.769,0,0,1,17.956,26.9,1.431,1.431,0,0,1-2.309,1.122c-1.245-1.093-2.326-2.364-3.551-3.477a1.226,1.226,0,0,0-1.6-.1,1.157,1.157,0,0,0-.068,1.72c2.572,2.61,5.183,5.182,7.77,7.778a1.233,1.233,0,0,0,1.834.023c2.564-2.531,5.1-5.092,7.644-7.641a1.231,1.231,0,0,0,.331-1.584,1.193,1.193,0,0,0-1.857-.182c-.92.83-1.758,1.747-2.64,2.616-.5.472-1,1.142-1.772,1.084a1.549,1.549,0,0,1-1.424-1.635,35.29,35.29,0,0,0-3.442-12.718,35.239,35.239,0,0,0-16.893-16.538A1.254,1.254,0,0,0,1707.558-3274.1Z" transform="translate(-1642.935 3293.886)"/>
      <path id="Path_178594" data-name="Path 178594" d="M1671.458-3247.258c1-1.391,2.883-.885,4.339-.973,1.47.105,3.36-.439,4.4.932.97,1.424.311,3.267.545,4.869,1.368-.888,2.145-2.684,3.829-3.035,1.7-.263,2.655,1.409,3.75,2.376.958,1.113,2.628,2.024,2.461,3.708-.279,1.752-2.133,2.552-3.05,3.935,1.576.208,3.34-.37,4.775.48,1.441.981.949,2.9,1.029,4.377-.094,1.488.431,3.413-.99,4.436-1.433.905-3.24.287-4.831.507.753.949,1.708,1.708,2.5,2.622a2.384,2.384,0,0,1-.093,3.208q-1.736,1.784-3.522,3.521a2.4,2.4,0,0,1-3.228.123c-.908-.8-1.679-1.75-2.622-2.514-.079,1.213.012,2.435-.062,3.651a2.383,2.383,0,0,1-2.276,2.162c-1.655.029-3.311.012-4.963.009a2.409,2.409,0,0,1-2.449-2.233c-.061-1.189.026-2.385-.056-3.574-1.347.935-2.162,2.728-3.87,3.053-1.714.219-2.637-1.474-3.756-2.441-1.031-1.142-2.839-2.217-2.338-4.022.539-1.5,2.095-2.3,3.006-3.56-1.242-.082-2.487.029-3.726-.071a2.385,2.385,0,0,1-2.083-2.25c-.041-1.652-.02-3.311-.012-4.966a2.4,2.4,0,0,1,2.136-2.456c1.216-.093,2.44,0,3.659-.058-.9-1.385-2.751-2.174-3.044-3.908-.2-1.693,1.479-2.61,2.438-3.718,1.134-1.013,2.168-2.8,3.952-2.365,1.544.492,2.376,2.066,3.612,3.027.3-1.6-.393-3.416.545-4.855m2.449,1.957c-.035,1.342.068,2.69-.05,4.026-.126.987-1.236,1.174-1.98,1.523-.7.3-1.594.782-2.28.17-.978-.861-1.866-1.825-2.771-2.762-.975.864-1.861,1.822-2.792,2.733.944,1.005,2.019,1.9,2.88,2.974.5.764-.1,1.594-.363,2.325-.3.692-.527,1.665-1.421,1.779-1.345.108-2.7.009-4.049.043,0,1.3,0,2.593,0,3.888,1.392.047,2.8-.088,4.181.073.864.216,1.02,1.213,1.354,1.9.29.709.808,1.587.214,2.294-.864,1.008-1.866,1.889-2.789,2.844.9.932,1.822,1.837,2.737,2.754.978-.928,1.86-1.96,2.895-2.83.759-.583,1.655.021,2.4.308.721.3,1.731.559,1.8,1.509.091,1.315.009,2.64.038,3.958h3.876c.029-1.325-.059-2.652.038-3.97.082-1.006,1.192-1.219,1.943-1.559.694-.285,1.562-.806,2.262-.238,1.028.867,1.91,1.892,2.889,2.818q1.371-1.366,2.74-2.739c-.92-.981-1.954-1.858-2.818-2.889-.562-.7-.05-1.558.231-2.253.331-.686.478-1.647,1.313-1.905,1.4-.181,2.821-.029,4.23-.081q0-1.943,0-3.888c-1.365-.037-2.74.074-4.1-.052-.881-.158-1.078-1.125-1.389-1.817-.3-.744-.872-1.658-.258-2.4.87-1.01,1.881-1.884,2.8-2.853-.914-.911-1.822-1.828-2.74-2.737-.958.911-1.834,1.91-2.833,2.777-.714.615-1.614.091-2.338-.208-.694-.331-1.7-.492-1.893-1.376-.158-1.375-.026-2.763-.067-4.14C1676.491-3245.3,1675.2-3245.3,1673.906-3245.3Z" transform="translate(-1624.465 3282.251)"/>
      <path id="Path_178595" data-name="Path 178595" d="M1619.971-3230.38a4.243,4.243,0,0,1,6.305-.446q3.907,3.877,7.787,7.782a4.119,4.119,0,0,1,.855,4.722,4.062,4.062,0,0,1-4.564,2.2,5.4,5.4,0,0,1-2.731-1.735,29.893,29.893,0,0,0,16.629,20.9,5.037,5.037,0,0,1,2.771,2.233,4.1,4.1,0,0,1-1.344,5.3,4.132,4.132,0,0,1-3.844.383,38.191,38.191,0,0,1-18.267-16.508,38.432,38.432,0,0,1-4.306-12.5,5.477,5.477,0,0,1-3.266,2.021,4.048,4.048,0,0,1-4.521-3.393,4.349,4.349,0,0,1,1.327-3.785q3.582-3.586,7.169-7.175m2.842,1.385c-2.768,2.6-5.408,5.346-8.094,8.033-.952.829.056,2.543,1.248,1.928,1.353-1.017,2.353-2.431,3.683-3.478a1.482,1.482,0,0,1,2.188,1.324,35.466,35.466,0,0,0,3.6,12.885,35.178,35.178,0,0,0,17.458,16.515,1.158,1.158,0,0,0,1.664-.938c.109-.673-.492-1.122-1.037-1.344a32.874,32.874,0,0,1-13.658-11.315,32.5,32.5,0,0,1-5.707-16.632,1.438,1.438,0,0,1,2.3-1.122c1.357,1.2,2.549,2.581,3.885,3.8a1.235,1.235,0,0,0,1.667.114,1.179,1.179,0,0,0-.035-1.758q-3.8-3.832-7.62-7.641A1.306,1.306,0,0,0,1622.813-3228.994Z" transform="translate(-1605.683 3275.729)"/>
      <path id="Path_178596" data-name="Path 178596" d="M1680.754-3230.906a7.525,7.525,0,0,1,9.267,5.7,7.531,7.531,0,0,1-6.484,8.957,7.507,7.507,0,0,1-8.227-6.323,7.53,7.53,0,0,1,5.443-8.334m.811,2.818a4.582,4.582,0,0,0-3.337,5.239,4.569,4.569,0,0,0,5.473,3.606,4.581,4.581,0,0,0,3.463-5.326A4.575,4.575,0,0,0,1681.565-3228.089Z" transform="translate(-1631.324 3275.389)"/>
      <path id="Path_178597" data-name="Path 178597" d="M1710.553-3201.49a4.114,4.114,0,0,1,4.978-.247,4.111,4.111,0,0,1,1.456,4.931,38.21,38.21,0,0,1-14.473,16.832,38.158,38.158,0,0,1-14.406,5.451,6.488,6.488,0,0,1,2,2.763,4.073,4.073,0,0,1-2.285,4.966,4.159,4.159,0,0,1-4.532-.937c-2.414-2.393-4.8-4.811-7.213-7.2a5.526,5.526,0,0,1-1.6-2.244,4.138,4.138,0,0,1,1.072-4.245q3.884-3.894,7.778-7.779a4.1,4.1,0,0,1,4.394-.929,4.026,4.026,0,0,1,2.543,4.3,4.965,4.965,0,0,1-1.529,2.862,30.1,30.1,0,0,0,19.509-14.672c.8-1.266,1.14-2.844,2.3-3.849m2.332,2c-.738.223-.911,1.081-1.25,1.673a32.656,32.656,0,0,1-27.3,18.369,1.446,1.446,0,0,1-.923-2.338c1.113-1.239,2.365-2.347,3.5-3.56a1.324,1.324,0,0,0,.331-1.574,1.153,1.153,0,0,0-1.837-.2c-2.6,2.566-5.177,5.162-7.761,7.752a1.18,1.18,0,0,0-.07,1.752c2.526,2.563,5.089,5.085,7.62,7.64a1.33,1.33,0,0,0,1.456.475,1.159,1.159,0,0,0,.455-1.825c-1.035-1.2-2.265-2.215-3.311-3.4a1.44,1.44,0,0,1,.829-2.323,49.913,49.913,0,0,0,5.593-.9,35.093,35.093,0,0,0,24.123-20.191A1.165,1.165,0,0,0,1712.885-3199.487Z" transform="translate(-1630.95 3263.844)"/>
    </g>
  </g>
</svg>
