<svg xmlns="http://www.w3.org/2000/svg" width="977.915" height="116.643" viewBox="0 0 977.915 116.643">
  <g id="t1-i2-1" transform="translate(2236 1687.829)">
    <rect id="Rectangle_36638" data-name="Rectangle 36638" width="28.83" height="1.613" transform="translate(-2120.244 -1672.892)" fill="#ff6b00"/>
    <path id="Path_179526" data-name="Path 179526" d="M-2131.2-1656.98H-2234v-31.488h102.8l16.323,15.744Z" transform="translate(0.013 0.639)" fill="#ff6b00"/>
    <rect id="Rectangle_36639" data-name="Rectangle 36639" width="28.83" height="1.613" transform="translate(-1979.18 -1672.892)" fill="#ffb600"/>
    <path id="Path_179527" data-name="Path 179527" d="M-1991.035-1656.98h-102.8v-31.488h102.8l16.323,15.744Z" transform="translate(0.911 0.639)" fill="#ffb600"/>
    <rect id="Rectangle_36640" data-name="Rectangle 36640" width="28.83" height="1.613" transform="translate(-1838.117 -1672.892)" fill="#565656"/>
    <path id="Path_179528" data-name="Path 179528" d="M-1850.87-1656.98h-102.8v-31.488h102.8l16.323,15.744Z" transform="translate(1.81 0.639)" fill="#565656"/>
    <rect id="Rectangle_36641" data-name="Rectangle 36641" width="28.83" height="1.613" transform="translate(-1697.054 -1672.892)" fill="#5a189a"/>
    <path id="Path_179529" data-name="Path 179529" d="M-1710.705-1656.98h-102.8v-31.488h102.8l16.323,15.744Z" transform="translate(2.708 0.639)" fill="#5a189a"/>
    <rect id="Rectangle_36642" data-name="Rectangle 36642" width="28.83" height="1.613" transform="translate(-1555.99 -1672.892)" fill="#ff6b00"/>
    <path id="Path_179530" data-name="Path 179530" d="M-1570.54-1656.98h-102.8v-31.488h102.8l16.323,15.744Z" transform="translate(3.606 0.639)" fill="#ff6b00"/>
    <rect id="Rectangle_36643" data-name="Rectangle 36643" width="28.83" height="1.613" transform="translate(-1414.927 -1672.892)" fill="#ffb600"/>
    <path id="Path_179531" data-name="Path 179531" d="M-1430.375-1656.98h-102.8v-31.488h102.8l16.323,15.744Z" transform="translate(4.505 0.639)" fill="#ffb600"/>
    <path id="Path_179532" data-name="Path 179532" d="M-1279.812-1656.98h-113.2v-31.488h113.2l16.323,15.744Z" transform="translate(5.403 0.639)" fill="#565656"/>
    <g id="Group_118118" data-name="Group 118118" transform="translate(-2236 -1647.672)">
      <g id="Group_118115" data-name="Group 118115" transform="translate(1.479 1.914)">
        <rect id="Rectangle_36644" data-name="Rectangle 36644" width="1.072" height="72.656" fill="#ff6b00"/>
      </g>
      <g id="Group_118116" data-name="Group 118116" transform="translate(0 72.454)">
        <path id="Path_179533" data-name="Path 179533" d="M-2231.969-1699.213a2.016,2.016,0,0,1-2.016,2.015,2.016,2.016,0,0,1-2.015-2.015,2.016,2.016,0,0,1,2.015-2.016A2.016,2.016,0,0,1-2231.969-1699.213Z" transform="translate(2236 1701.229)" fill="#ff6b00"/>
      </g>
      <g id="Group_118117" data-name="Group 118117">
        <path id="Path_179534" data-name="Path 179534" d="M-2231.969-1783.417a2.015,2.015,0,0,0-2.016-2.015,2.015,2.015,0,0,0-2.015,2.015,2.016,2.016,0,0,0,2.015,2.016A2.016,2.016,0,0,0-2231.969-1783.417Z" transform="translate(2236 1785.432)" fill="#ff6b00"/>
      </g>
    </g>
    <path id="Path_180207" data-name="Path 180207" d="M7.008-3.079A3.456,3.456,0,0,1,6.119-.686,3.139,3.139,0,0,1,3.809.127,2.911,2.911,0,0,1,1.406-.9,4.571,4.571,0,0,1,.571-3.847V-5.4a4.453,4.453,0,0,1,.863-2.936,2.958,2.958,0,0,1,2.4-1.031,2.979,2.979,0,0,1,2.295.844A3.839,3.839,0,0,1,7.021-6.1H5.148a2.489,2.489,0,0,0-.3-1.349A1.19,1.19,0,0,0,3.834-7.82a1.132,1.132,0,0,0-1.06.524,3.662,3.662,0,0,0-.33,1.723v1.746a4.028,4.028,0,0,0,.308,1.892,1.131,1.131,0,0,0,1.057.514,1.222,1.222,0,0,0,1.016-.359,2.362,2.362,0,0,0,.317-1.3Zm.851-.578a3.729,3.729,0,0,1,.736-2.45A2.5,2.5,0,0,1,10.632-7a2.516,2.516,0,0,1,2.05.889,3.75,3.75,0,0,1,.736,2.463v.438a3.736,3.736,0,0,1-.73,2.45,2.506,2.506,0,0,1-2.044.882A2.518,2.518,0,0,1,8.592-.759a3.748,3.748,0,0,1-.733-2.46Zm1.8.451q0,1.841.984,1.841.908,0,.978-1.536l.006-.755a2.89,2.89,0,0,0-.26-1.393.811.811,0,0,0-.736-.454.79.79,0,0,0-.714.454,2.921,2.921,0,0,0-.257,1.393ZM16.18-6.868l.051.679A1.905,1.905,0,0,1,17.824-7Q19.6-7,19.646-4.513V0h-1.8V-4.38a1.578,1.578,0,0,0-.175-.847.68.68,0,0,0-.613-.263.839.839,0,0,0-.762.5V0h-1.8V-6.868Zm7.795,5.027a.561.561,0,0,0-.219-.422,4.325,4.325,0,0,0-.974-.524,4.053,4.053,0,0,1-1.527-.933,1.773,1.773,0,0,1-.416-1.2,1.918,1.918,0,0,1,.651-1.489A2.474,2.474,0,0,1,23.213-7a2.679,2.679,0,0,1,1.809.584A1.963,1.963,0,0,1,25.7-4.843h-1.8q0-.838-.7-.838a.648.648,0,0,0-.47.178.656.656,0,0,0-.184.5.52.52,0,0,0,.2.4,4.467,4.467,0,0,0,.958.5,3.966,3.966,0,0,1,1.552.9,1.844,1.844,0,0,1,.454,1.292,1.806,1.806,0,0,1-.692,1.479,2.8,2.8,0,0,1-1.815.559,2.89,2.89,0,0,1-1.333-.3,2.239,2.239,0,0,1-.9-.822,2.116,2.116,0,0,1-.327-1.136h1.708a1.088,1.088,0,0,0,.219.7.858.858,0,0,0,.676.235Q23.975-1.187,23.975-1.841Zm4.951-6.716v1.688h.92v1.346h-.92v3.414a1.007,1.007,0,0,0,.111.559.5.5,0,0,0,.428.153,1.678,1.678,0,0,0,.425-.044l-.013,1.4a2.8,2.8,0,0,1-.99.171q-1.739,0-1.758-2V-5.522h-.793V-6.868h.793V-8.557ZM32.716,0h-1.8V-6.868h1.8ZM30.831-8.646a.928.928,0,0,1,.267-.686.961.961,0,0,1,.711-.267.961.961,0,0,1,.711.267.928.928,0,0,1,.267.686.948.948,0,0,1-.263.686.946.946,0,0,1-.714.273.946.946,0,0,1-.714-.273A.948.948,0,0,1,30.831-8.646Zm5.364.089v1.688h.92v1.346h-.92v3.414a1.007,1.007,0,0,0,.111.559.5.5,0,0,0,.428.153,1.678,1.678,0,0,0,.425-.044l-.013,1.4a2.8,2.8,0,0,1-.99.171q-1.739,0-1.758-2V-5.522H33.6V-6.868H34.4V-8.557ZM41.476-.628a1.769,1.769,0,0,1-1.5.755,1.683,1.683,0,0,1-1.435-.651,3.119,3.119,0,0,1-.489-1.895v-4.45h1.8v4.494q.013,1,.667,1a.927.927,0,0,0,.889-.533V-6.868h1.809V0H41.526Zm5.5-.736q.781,0,.793-1.016h1.688a2.523,2.523,0,0,1-.692,1.815,2.348,2.348,0,0,1-1.752.692A2.5,2.5,0,0,1,44.992-.7a3.725,3.725,0,0,1-.711-2.431v-.546a3.845,3.845,0,0,1,.689-2.469A2.463,2.463,0,0,1,47-7a2.328,2.328,0,0,1,1.79.7,2.853,2.853,0,0,1,.667,1.99H47.772a1.8,1.8,0,0,0-.19-.889.652.652,0,0,0-.609-.311.726.726,0,0,0-.673.333,2.841,2.841,0,0,0-.216,1.292v.7a5.6,5.6,0,0,0,.083,1.171.882.882,0,0,0,.273.489A.832.832,0,0,0,46.979-1.365ZM52.362,0h-1.8V-6.868h1.8ZM50.477-8.646a.928.928,0,0,1,.267-.686.961.961,0,0,1,.711-.267.961.961,0,0,1,.711.267.928.928,0,0,1,.267.686.948.948,0,0,1-.263.686.946.946,0,0,1-.714.273.946.946,0,0,1-.714-.273A.948.948,0,0,1,50.477-8.646Zm3.066,4.989a3.729,3.729,0,0,1,.736-2.45A2.5,2.5,0,0,1,56.316-7a2.516,2.516,0,0,1,2.05.889A3.75,3.75,0,0,1,59.1-3.644v.438a3.736,3.736,0,0,1-.73,2.45,2.506,2.506,0,0,1-2.044.882,2.518,2.518,0,0,1-2.053-.885,3.748,3.748,0,0,1-.733-2.46Zm1.8.451q0,1.841.984,1.841.908,0,.978-1.536l.006-.755a2.89,2.89,0,0,0-.26-1.393.811.811,0,0,0-.736-.454.79.79,0,0,0-.714.454,2.921,2.921,0,0,0-.257,1.393Zm1.32-6.544h2.019L56.919-7.782h-1.5Zm5.2,2.882.051.679A1.905,1.905,0,0,1,63.508-7q1.771,0,1.822,2.482V0h-1.8V-4.38a1.578,1.578,0,0,0-.175-.847.68.68,0,0,0-.613-.263.839.839,0,0,0-.762.5V0h-1.8V-6.868ZM71.57-3.25V0H69.7V-9.242h3.148a2.888,2.888,0,0,1,2.187.851,3.059,3.059,0,0,1,.816,2.209,2.861,2.861,0,0,1-.806,2.146,3.062,3.062,0,0,1-2.234.787Zm0-1.555h1.282a1.016,1.016,0,0,0,.825-.349,1.546,1.546,0,0,0,.292-1.016,1.832,1.832,0,0,0-.3-1.1.957.957,0,0,0-.8-.416h-1.3Zm5.148,1.149a3.729,3.729,0,0,1,.736-2.45A2.5,2.5,0,0,1,79.492-7a2.516,2.516,0,0,1,2.05.889,3.75,3.75,0,0,1,.736,2.463v.438a3.736,3.736,0,0,1-.73,2.45A2.506,2.506,0,0,1,79.5.127a2.518,2.518,0,0,1-2.053-.885,3.748,3.748,0,0,1-.733-2.46Zm1.8.451q0,1.841.984,1.841.908,0,.978-1.536l.006-.755a2.89,2.89,0,0,0-.26-1.393.811.811,0,0,0-.736-.454.79.79,0,0,0-.714.454,2.921,2.921,0,0,0-.257,1.393ZM85.281,0h-1.8V-9.75h1.8ZM88.6,0H86.8V-6.868h1.8ZM88.08-9.655H90.1L88.334-7.687h-1.5Zm4.088,1.1v1.688h.92v1.346h-.92v3.414a1.007,1.007,0,0,0,.111.559.5.5,0,0,0,.428.153,1.678,1.678,0,0,0,.425-.044l-.013,1.4a2.8,2.8,0,0,1-.99.171q-1.739,0-1.758-2V-5.522h-.793V-6.868h.793V-8.557ZM95.958,0h-1.8V-6.868h1.8ZM94.072-8.646a.928.928,0,0,1,.267-.686A.961.961,0,0,1,95.05-9.6a.961.961,0,0,1,.711.267.928.928,0,0,1,.267.686.948.948,0,0,1-.263.686.946.946,0,0,1-.714.273.946.946,0,0,1-.714-.273A.948.948,0,0,1,94.072-8.646ZM99.83-1.365q.781,0,.793-1.016h1.688a2.523,2.523,0,0,1-.692,1.815,2.348,2.348,0,0,1-1.752.692A2.5,2.5,0,0,1,97.843-.7a3.725,3.725,0,0,1-.711-2.431v-.546a3.845,3.845,0,0,1,.689-2.469A2.463,2.463,0,0,1,99.855-7a2.328,2.328,0,0,1,1.79.7,2.853,2.853,0,0,1,.667,1.99h-1.688a1.8,1.8,0,0,0-.19-.889.652.652,0,0,0-.609-.311.726.726,0,0,0-.673.333,2.841,2.841,0,0,0-.216,1.292v.7a5.6,5.6,0,0,0,.083,1.171.882.882,0,0,0,.273.489A.832.832,0,0,0,99.83-1.365ZM106.59,0a2.51,2.51,0,0,1-.152-.533,1.535,1.535,0,0,1-1.308.66A1.935,1.935,0,0,1,103.7-.444a2.007,2.007,0,0,1-.568-1.479,2.079,2.079,0,0,1,.689-1.669,3.012,3.012,0,0,1,1.984-.6h.546v-.552a1.035,1.035,0,0,0-.159-.654.569.569,0,0,0-.463-.19q-.673,0-.673.787h-1.8a1.988,1.988,0,0,1,.714-1.571A2.658,2.658,0,0,1,105.777-7a2.441,2.441,0,0,1,1.749.587,2.2,2.2,0,0,1,.619,1.679V-1.5a3.381,3.381,0,0,0,.254,1.39V0Zm-1.06-1.282a1,1,0,0,0,.508-.121.854.854,0,0,0,.311-.286V-3.117h-.432a.921.921,0,0,0-.72.292,1.121,1.121,0,0,0-.263.781Q104.933-1.282,105.53-1.282ZM.413,12.356a4.484,4.484,0,0,1,.571-2.52A1.891,1.891,0,0,1,2.647,9a1.6,1.6,0,0,1,1.32.686V6.25H5.776V16H4.145l-.083-.7a1.655,1.655,0,0,1-1.422.825A1.876,1.876,0,0,1,.993,15.3a4.34,4.34,0,0,1-.581-2.425Zm1.8.451a3.277,3.277,0,0,0,.216,1.419.761.761,0,0,0,.73.4.876.876,0,0,0,.806-.476V11.017a.856.856,0,0,0-.8-.508.773.773,0,0,0-.724.4,3.112,3.112,0,0,0-.229,1.422Zm7.655,3.32A2.816,2.816,0,0,1,7.712,15.3a3.322,3.322,0,0,1-.774-2.361v-.546a3.905,3.905,0,0,1,.711-2.507A2.465,2.465,0,0,1,9.687,9a2.333,2.333,0,0,1,1.949.827,3.947,3.947,0,0,1,.667,2.45v.881H8.728a1.87,1.87,0,0,0,.336,1.119,1.137,1.137,0,0,0,.92.354,2.02,2.02,0,0,0,1.5-.616l.7,1.085a2.32,2.32,0,0,1-.958.74A3.29,3.29,0,0,1,9.871,16.127Zm-1.13-4.215h1.8v-.165a1.92,1.92,0,0,0-.2-.933.706.706,0,0,0-.66-.317.747.747,0,0,0-.682.336A2.316,2.316,0,0,0,8.741,11.912Zm13.927,1.009a3.456,3.456,0,0,1-.889,2.393,3.139,3.139,0,0,1-2.311.813,2.911,2.911,0,0,1-2.4-1.031,4.571,4.571,0,0,1-.835-2.942V10.6a4.453,4.453,0,0,1,.863-2.936,2.958,2.958,0,0,1,2.4-1.031,2.979,2.979,0,0,1,2.295.844A3.839,3.839,0,0,1,22.68,9.9H20.808a2.489,2.489,0,0,0-.3-1.349,1.19,1.19,0,0,0-1.012-.371,1.132,1.132,0,0,0-1.06.524,3.662,3.662,0,0,0-.33,1.723v1.746a4.028,4.028,0,0,0,.308,1.892,1.131,1.131,0,0,0,1.057.514,1.222,1.222,0,0,0,1.016-.359,2.362,2.362,0,0,0,.317-1.3Zm.851-.578a3.729,3.729,0,0,1,.736-2.45,2.795,2.795,0,0,1,4.088,0,3.75,3.75,0,0,1,.736,2.463v.438a3.736,3.736,0,0,1-.73,2.45,2.506,2.506,0,0,1-2.044.882,2.518,2.518,0,0,1-2.053-.885,3.748,3.748,0,0,1-.733-2.46Zm1.8.451q0,1.841.984,1.841.908,0,.978-1.536l.006-.755a2.89,2.89,0,0,0-.26-1.393.811.811,0,0,0-.736-.454.79.79,0,0,0-.714.454,2.921,2.921,0,0,0-.257,1.393ZM32.081,16h-1.8V6.25h1.8Zm1.181-3.656A3.729,3.729,0,0,1,34,9.894a2.795,2.795,0,0,1,4.088,0,3.75,3.75,0,0,1,.736,2.463v.438a3.736,3.736,0,0,1-.73,2.45,2.816,2.816,0,0,1-4.1,0,3.748,3.748,0,0,1-.733-2.46Zm1.8.451q0,1.841.984,1.841.908,0,.978-1.536l.006-.755a2.89,2.89,0,0,0-.26-1.393.811.811,0,0,0-.736-.454.79.79,0,0,0-.714.454,2.921,2.921,0,0,0-.257,1.393Zm6.563-3.663.051.635A1.932,1.932,0,0,1,43.272,9a1.482,1.482,0,0,1,1.454.927A1.882,1.882,0,0,1,46.408,9q1.8,0,1.847,2.495V16h-1.8V11.614a1.63,1.63,0,0,0-.165-.851.615.615,0,0,0-.559-.254q-.5,0-.749.616l.013.216V16H43.2V11.626a1.727,1.727,0,0,0-.159-.854.6.6,0,0,0-.565-.263.823.823,0,0,0-.736.5V16h-1.8V9.132Zm13.311,3.656a4.714,4.714,0,0,1-.533,2.5,1.844,1.844,0,0,1-1.676.835,1.653,1.653,0,0,1-1.435-.806L51.238,16H49.582V6.25h1.8V9.69A1.588,1.588,0,0,1,52.717,9a1.849,1.849,0,0,1,1.676.828,4.586,4.586,0,0,1,.546,2.428Zm-1.8-.451a3.363,3.363,0,0,0-.209-1.457.767.767,0,0,0-.73-.371.866.866,0,0,0-.825.514v3.129a.859.859,0,0,0,.838.482.761.761,0,0,0,.714-.336,2.945,2.945,0,0,0,.213-1.308ZM57.9,16H56.1V9.132h1.8ZM56.018,7.354a.928.928,0,0,1,.267-.686,1.081,1.081,0,0,1,1.422,0,.928.928,0,0,1,.267.686.978.978,0,1,1-1.955,0ZM62.556,16a2.51,2.51,0,0,1-.152-.533,1.535,1.535,0,0,1-1.308.66,1.935,1.935,0,0,1-1.431-.571,2.007,2.007,0,0,1-.568-1.479,2.079,2.079,0,0,1,.689-1.669,3.012,3.012,0,0,1,1.984-.6h.546v-.552a1.035,1.035,0,0,0-.159-.654.569.569,0,0,0-.463-.19q-.673,0-.673.787h-1.8a1.988,1.988,0,0,1,.714-1.571A2.658,2.658,0,0,1,61.744,9a2.441,2.441,0,0,1,1.749.587,2.2,2.2,0,0,1,.619,1.679V14.5a3.381,3.381,0,0,0,.254,1.39V16ZM61.5,14.718A1,1,0,0,0,62,14.6a.854.854,0,0,0,.311-.286V12.883h-.432a.921.921,0,0,0-.72.292,1.122,1.122,0,0,0-.263.781Q60.9,14.718,61.5,14.718ZM72.313,16h-1.8V8.941l-1.758.679v-1.5l3.371-1.377h.19Zm6.106-3.574a1.724,1.724,0,0,1-1.25.584,1.932,1.932,0,0,1-1.66-.847A3.813,3.813,0,0,1,74.9,9.9a4.015,4.015,0,0,1,.343-1.673A2.765,2.765,0,0,1,76.2,7.05a2.368,2.368,0,0,1,1.368-.419,2.236,2.236,0,0,1,1.39.463,2.969,2.969,0,0,1,.946,1.33,5.414,5.414,0,0,1,.336,1.971v.654A5.863,5.863,0,0,1,79.2,14.74,3.58,3.58,0,0,1,76.261,16.1h-.184V14.546H76.2A2.146,2.146,0,0,0,77.781,14,2.553,2.553,0,0,0,78.419,12.426Zm-.793-.825q.521,0,.819-.711v-.825A3.359,3.359,0,0,0,78.2,8.64q-.248-.517-.641-.517t-.625.511a2.941,2.941,0,0,0-.238,1.247,2.68,2.68,0,0,0,.248,1.26A.757.757,0,0,0,77.625,11.6Zm7.37.825a1.724,1.724,0,0,1-1.25.584,1.932,1.932,0,0,1-1.66-.847A3.813,3.813,0,0,1,81.479,9.9a4.015,4.015,0,0,1,.343-1.673,2.765,2.765,0,0,1,.955-1.177,2.368,2.368,0,0,1,1.368-.419,2.236,2.236,0,0,1,1.39.463,2.969,2.969,0,0,1,.946,1.33,5.414,5.414,0,0,1,.336,1.971v.654a5.863,5.863,0,0,1-1.038,3.691A3.58,3.58,0,0,1,82.837,16.1h-.184V14.546h.121A2.146,2.146,0,0,0,84.357,14,2.553,2.553,0,0,0,85,12.426ZM84.2,11.6q.521,0,.819-.711v-.825a3.359,3.359,0,0,0-.248-1.425q-.248-.517-.641-.517t-.625.511a2.941,2.941,0,0,0-.238,1.247,2.68,2.68,0,0,0,.248,1.26A.757.757,0,0,0,84.2,11.6ZM92.041,16h-1.8V8.941l-1.758.679v-1.5l3.371-1.377h.19Zm2.818-.914a.946.946,0,0,1,.289-.711A1.037,1.037,0,0,1,95.9,14.1a1.06,1.06,0,0,1,.749.276.929.929,0,0,1,.3.714.912.912,0,0,1-.3.714,1.078,1.078,0,0,1-.746.27,1.056,1.056,0,0,1-.746-.273A.924.924,0,0,1,94.859,15.086Z" transform="translate(-2225.476 -1629.94)" fill="#ff6b00"/>
    <path id="Path_180208" data-name="Path 180208" d="M-31.223-2.474h-3.329L-35.2,0h-2.582L-34-12.086h2.233L-27.969,0h-2.606Zm-2.8-2.034h2.258l-1.129-4.308Zm11.5-2.208-.78-.066a1.282,1.282,0,0,0-1.3.847V0h-2.357V-8.981h2.216l.066.971a1.7,1.7,0,0,1,1.536-1.137,1.645,1.645,0,0,1,.647.108Zm4.35-4.474v2.208h1.2v1.76h-1.2v4.464a1.317,1.317,0,0,0,.145.732.656.656,0,0,0,.56.2,2.195,2.195,0,0,0,.556-.058l-.017,1.826a3.659,3.659,0,0,1-1.295.224q-2.274,0-2.3-2.609V-7.222h-1.038v-1.76h1.038v-2.208ZM-13.161,0H-15.51V-8.981h2.349Zm-.681-12.625h2.64l-2.308,2.573h-1.959Zm5.86,10.841q1.021,0,1.038-1.328h2.208a3.3,3.3,0,0,1-.9,2.374,3.07,3.07,0,0,1-2.291.9A3.275,3.275,0,0,1-10.579-.913a4.872,4.872,0,0,1-.93-3.179v-.714a5.028,5.028,0,0,1,.9-3.229,3.221,3.221,0,0,1,2.66-1.112,3.044,3.044,0,0,1,2.341.917,3.731,3.731,0,0,1,.872,2.6H-6.944A2.355,2.355,0,0,0-7.193-6.79a.853.853,0,0,0-.8-.407.949.949,0,0,0-.88.436,3.716,3.716,0,0,0-.282,1.689v.913a7.329,7.329,0,0,0,.108,1.531,1.153,1.153,0,0,0,.357.639A1.088,1.088,0,0,0-7.981-1.785Zm8.99.963A2.314,2.314,0,0,1-.95.166,2.2,2.2,0,0,1-2.826-.685a4.079,4.079,0,0,1-.639-2.478V-8.981h2.349V-3.1q.017,1.312.872,1.312a1.212,1.212,0,0,0,1.162-.7V-8.981H3.283V0H1.075ZM7.425,0H5.068V-12.75H7.425ZM8.969-4.781a4.877,4.877,0,0,1,.963-3.2A3.272,3.272,0,0,1,12.6-9.147a3.291,3.291,0,0,1,2.681,1.162,4.9,4.9,0,0,1,.963,3.221v.573a4.885,4.885,0,0,1-.955,3.2A3.277,3.277,0,0,1,12.613.166,3.293,3.293,0,0,1,9.928-.992a4.9,4.9,0,0,1-.959-3.217Zm2.357.589q0,2.407,1.287,2.407,1.187,0,1.278-2.009l.008-.988a3.779,3.779,0,0,0-.34-1.822A1.06,1.06,0,0,0,12.6-7.2a1.033,1.033,0,0,0-.934.594,3.819,3.819,0,0,0-.336,1.822Zm15.83-8.019v1.992h-.133a2.842,2.842,0,0,0-2.1.793,3.618,3.618,0,0,0-.942,2.2,2.41,2.41,0,0,1,1.893-.863,2.438,2.438,0,0,1,2.1,1.121,5.116,5.116,0,0,1,.784,2.988,4.978,4.978,0,0,1-.448,2.142A3.489,3.489,0,0,1,27.052-.361a3.28,3.28,0,0,1-1.83.527,3.135,3.135,0,0,1-2.635-1.32,5.778,5.778,0,0,1-.992-3.553v-.872a9.049,9.049,0,0,1,.627-3.5,5.083,5.083,0,0,1,1.81-2.312,4.815,4.815,0,0,1,2.76-.818ZM25.139-6.159a1.059,1.059,0,0,0-.751.283,1.746,1.746,0,0,0-.452.7v.848a4.171,4.171,0,0,0,.34,1.913,1.013,1.013,0,0,0,.9.632,1.018,1.018,0,0,0,.9-.611,3.2,3.2,0,0,0,.34-1.568,3.145,3.145,0,0,0-.353-1.584A1.049,1.049,0,0,0,25.139-6.159Zm12.1-4.574L33.423,0H30.941l3.835-10.135H29.928v-1.951h7.313Z" transform="translate(-2182.827 -1667.228)" fill="#fff"/>
    <path id="Path_180209" data-name="Path 180209" d="M-35.523-2.474h-3.329L-39.5,0h-2.582L-38.3-12.086h2.233L-32.269,0h-2.606Zm-2.8-2.034h2.258l-1.129-4.308Zm11.5-2.208-.78-.066a1.282,1.282,0,0,0-1.3.847V0h-2.357V-8.981h2.216l.066.971a1.7,1.7,0,0,1,1.536-1.137,1.645,1.645,0,0,1,.647.108Zm4.35-4.474v2.208h1.2v1.76h-1.2v4.464a1.317,1.317,0,0,0,.145.732.656.656,0,0,0,.56.2,2.195,2.195,0,0,0,.556-.058l-.017,1.826a3.659,3.659,0,0,1-1.295.224q-2.274,0-2.3-2.609V-7.222h-1.038v-1.76h1.038v-2.208ZM-17.461,0H-19.81V-8.981h2.349Zm-.681-12.625h2.64l-2.308,2.573h-1.959Zm5.86,10.841q1.021,0,1.038-1.328h2.208a3.3,3.3,0,0,1-.9,2.374,3.07,3.07,0,0,1-2.291.9A3.275,3.275,0,0,1-14.879-.913a4.872,4.872,0,0,1-.93-3.179v-.714a5.028,5.028,0,0,1,.9-3.229,3.221,3.221,0,0,1,2.66-1.112,3.044,3.044,0,0,1,2.341.917,3.731,3.731,0,0,1,.872,2.6h-2.208a2.355,2.355,0,0,0-.249-1.162.853.853,0,0,0-.8-.407.949.949,0,0,0-.88.436,3.716,3.716,0,0,0-.282,1.689v.913a7.329,7.329,0,0,0,.108,1.531,1.153,1.153,0,0,0,.357.639A1.088,1.088,0,0,0-12.281-1.785Zm8.99.963A2.314,2.314,0,0,1-5.25.166,2.2,2.2,0,0,1-7.126-.685a4.079,4.079,0,0,1-.639-2.478V-8.981h2.349V-3.1q.017,1.312.872,1.312a1.212,1.212,0,0,0,1.162-.7V-8.981h2.366V0H-3.225ZM3.125,0H.768V-12.75H3.125ZM4.669-4.781a4.877,4.877,0,0,1,.963-3.2A3.272,3.272,0,0,1,8.3-9.147a3.291,3.291,0,0,1,2.681,1.162,4.9,4.9,0,0,1,.963,3.221v.573a4.885,4.885,0,0,1-.955,3.2A3.277,3.277,0,0,1,8.313.166,3.293,3.293,0,0,1,5.628-.992a4.9,4.9,0,0,1-.959-3.217Zm2.357.589q0,2.407,1.287,2.407,1.187,0,1.278-2.009L9.6-4.781A3.779,3.779,0,0,0,9.26-6.6,1.06,1.06,0,0,0,8.3-7.2a1.033,1.033,0,0,0-.934.594,3.819,3.819,0,0,0-.336,1.822ZM22.425,0H20.067V-9.23l-2.3.888V-10.3l4.408-1.8h.249Zm5.52-7.114h1.137a1.062,1.062,0,0,0,.95-.452,2.139,2.139,0,0,0,.3-1.208A1.8,1.8,0,0,0,30.024-9.9a1,1,0,0,0-.834-.4.987.987,0,0,0-.8.382,1.474,1.474,0,0,0-.311.963H25.728a3.32,3.32,0,0,1,.436-1.7,3.06,3.06,0,0,1,1.22-1.175,3.6,3.6,0,0,1,1.739-.423,3.589,3.589,0,0,1,2.615.921,3.359,3.359,0,0,1,.946,2.523,2.873,2.873,0,0,1-.427,1.523,2.911,2.911,0,0,1-1.125,1.075,2.585,2.585,0,0,1,1.274,1.1,3.41,3.41,0,0,1,.419,1.727A3.389,3.389,0,0,1,31.8-.805a3.756,3.756,0,0,1-2.694.971,3.424,3.424,0,0,1-2.519-.959,3.39,3.39,0,0,1-.967-2.519h2.349a1.724,1.724,0,0,0,.34,1.087,1.047,1.047,0,0,0,.863.44,1.155,1.155,0,0,0,.959-.448,1.879,1.879,0,0,0,.353-1.2q0-1.785-1.386-1.793H27.945Zm13.6-3.619L37.723,0H35.241l3.835-10.135H34.228v-1.951h7.313Z" transform="translate(-2041.665 -1667.228)" fill="#12263f"/>
    <path id="Path_180213" data-name="Path 180213" d="M-28.449-2.328h-3.133L-32.191,0h-2.43l3.555-11.375h2.1L-25.387,0H-27.84Zm-2.633-1.914h2.125L-30.02-8.3Zm10.82-2.078L-21-6.383a1.206,1.206,0,0,0-1.227.8V0h-2.219V-8.453h2.086l.063.914a1.6,1.6,0,0,1,1.445-1.07,1.548,1.548,0,0,1,.609.1Zm4.094-4.211v2.078h1.133V-6.8h-1.133v4.2a1.239,1.239,0,0,0,.137.689.617.617,0,0,0,.527.188,2.066,2.066,0,0,0,.523-.055L-15-.055a3.444,3.444,0,0,1-1.219.211q-2.141,0-2.164-2.456V-6.8h-.977V-8.453h.977v-2.078ZM-11.449,0H-13.66V-8.453h2.211Zm-.641-11.883h2.484l-2.172,2.422h-1.844Zm5.516,10.2q.961,0,.977-1.25H-3.52A3.106,3.106,0,0,1-4.371-.7,2.89,2.89,0,0,1-6.527.156,3.082,3.082,0,0,1-9.02-.859a4.585,4.585,0,0,1-.875-2.992v-.672a4.732,4.732,0,0,1,.848-3.039,3.032,3.032,0,0,1,2.5-1.047,2.865,2.865,0,0,1,2.2.863A3.512,3.512,0,0,1-3.52-5.3H-5.6a2.216,2.216,0,0,0-.234-1.094.8.8,0,0,0-.75-.383.894.894,0,0,0-.828.41,3.5,3.5,0,0,0-.266,1.59v.859a6.9,6.9,0,0,0,.1,1.441,1.086,1.086,0,0,0,.336.6A1.024,1.024,0,0,0-6.574-1.68Zm8.461.906A2.178,2.178,0,0,1,.043.156a2.071,2.071,0,0,1-1.766-.8,3.839,3.839,0,0,1-.6-2.332V-8.453H-.113v5.531Q-.1-1.687.707-1.687A1.141,1.141,0,0,0,1.8-2.344V-8.453H4.027V0H1.949ZM7.926,0H5.707V-12H7.926ZM9.379-4.5a4.59,4.59,0,0,1,.906-3.016,3.079,3.079,0,0,1,2.508-1.094,3.1,3.1,0,0,1,2.523,1.094,4.616,4.616,0,0,1,.906,3.031v.539a4.6,4.6,0,0,1-.9,3.016A3.084,3.084,0,0,1,12.809.156a3.1,3.1,0,0,1-2.527-1.09,4.613,4.613,0,0,1-.9-3.027Zm2.219.555q0,2.266,1.211,2.266,1.117,0,1.2-1.891l.008-.93a3.557,3.557,0,0,0-.32-1.715,1,1,0,0,0-.906-.559.973.973,0,0,0-.879.559A3.6,3.6,0,0,0,11.6-4.5ZM26.09,0H23.871V-8.687l-2.164.836V-9.7l4.148-1.7h.234Zm3.469-9.375A2.067,2.067,0,0,1,30.2-10.9a2.06,2.06,0,0,1,1.5-.629,2,2,0,0,1,1.473.629,2.093,2.093,0,0,1,.621,1.527,2.05,2.05,0,0,1-.621,1.52,2.025,2.025,0,0,1-1.473.613A2.091,2.091,0,0,1,30.2-7.855,2.019,2.019,0,0,1,29.559-9.375Zm2.133.969a.894.894,0,0,0,.68-.281.964.964,0,0,0,.266-.687,1.02,1.02,0,0,0-.266-.7.871.871,0,0,0-.68-.3.938.938,0,0,0-.7.293.977.977,0,0,0-.285.707A.913.913,0,0,0,31-8.684.972.972,0,0,0,31.691-8.406Z" transform="translate(-1479.373 -1668.228)" fill="#12263f"/>
    <path id="Path_180214" data-name="Path 180214" d="M-44.567,0V-12.086h3.2A4.4,4.4,0,0,1-38-10.741a5.269,5.269,0,0,1,1.282,3.686V-5.1a5.289,5.289,0,0,1-1.258,3.74A4.492,4.492,0,0,1-41.437,0Zm2.44-10.052v8.027h.73a2.047,2.047,0,0,0,1.718-.643,3.828,3.828,0,0,0,.523-2.22v-2.1a4.292,4.292,0,0,0-.473-2.362,1.91,1.91,0,0,0-1.61-.7ZM-31.452.166A3.682,3.682,0,0,1-34.274-.913,4.344,4.344,0,0,1-35.287-4v-.714a5.107,5.107,0,0,1,.93-3.279,3.223,3.223,0,0,1,2.665-1.154,3.051,3.051,0,0,1,2.548,1.082,5.161,5.161,0,0,1,.872,3.2V-3.71h-4.673a2.445,2.445,0,0,0,.44,1.463,1.487,1.487,0,0,0,1.2.463,2.641,2.641,0,0,0,1.967-.805l.921,1.419A3.034,3.034,0,0,1-29.667-.2,4.3,4.3,0,0,1-31.452.166Zm-1.478-5.512h2.349v-.216a2.51,2.51,0,0,0-.266-1.22.924.924,0,0,0-.863-.415.977.977,0,0,0-.892.44A3.029,3.029,0,0,0-32.929-5.346Zm9.23,3.561q1.021,0,1.038-1.328h2.208a3.3,3.3,0,0,1-.9,2.374,3.07,3.07,0,0,1-2.291.9A3.275,3.275,0,0,1-26.3-.913a4.872,4.872,0,0,1-.93-3.179v-.714a5.028,5.028,0,0,1,.9-3.229,3.221,3.221,0,0,1,2.66-1.112,3.044,3.044,0,0,1,2.341.917,3.731,3.731,0,0,1,.872,2.6h-2.208A2.355,2.355,0,0,0-22.91-6.79a.853.853,0,0,0-.8-.407.949.949,0,0,0-.88.436,3.716,3.716,0,0,0-.282,1.689v.913a7.329,7.329,0,0,0,.108,1.531,1.153,1.153,0,0,0,.357.639A1.088,1.088,0,0,0-23.7-1.785Zm9.006-4.931-.78-.066a1.282,1.282,0,0,0-1.3.847V0h-2.357V-8.981h2.216l.066.971a1.7,1.7,0,0,1,1.536-1.137,1.645,1.645,0,0,1,.647.108ZM-9.861.166A3.682,3.682,0,0,1-12.684-.913,4.344,4.344,0,0,1-13.7-4v-.714a5.107,5.107,0,0,1,.93-3.279A3.223,3.223,0,0,1-10.1-9.147,3.051,3.051,0,0,1-7.554-8.066a5.161,5.161,0,0,1,.872,3.2V-3.71h-4.673a2.445,2.445,0,0,0,.44,1.463,1.487,1.487,0,0,0,1.2.463A2.641,2.641,0,0,0-7.745-2.59l.921,1.419A3.034,3.034,0,0,1-8.077-.2,4.3,4.3,0,0,1-9.861.166Zm-1.478-5.512H-8.99v-.216a2.51,2.51,0,0,0-.266-1.22.924.924,0,0,0-.863-.415.977.977,0,0,0-.892.44A3.029,3.029,0,0,0-11.339-5.346Zm8.716-5.844v2.208h1.2v1.76h-1.2v4.464a1.317,1.317,0,0,0,.145.732.656.656,0,0,0,.56.2,2.195,2.195,0,0,0,.556-.058L-1.378-.058A3.659,3.659,0,0,1-2.673.166q-2.274,0-2.3-2.609V-7.222H-6.01v-1.76h1.038v-2.208ZM-.656-4.781a4.877,4.877,0,0,1,.963-3.2A3.272,3.272,0,0,1,2.972-9.147,3.291,3.291,0,0,1,5.653-7.985a4.9,4.9,0,0,1,.963,3.221v.573a4.885,4.885,0,0,1-.955,3.2A3.277,3.277,0,0,1,2.988.166,3.293,3.293,0,0,1,.3-.992,4.9,4.9,0,0,1-.656-4.208ZM1.7-4.192q0,2.407,1.287,2.407,1.187,0,1.278-2.009l.008-.988A3.779,3.779,0,0,0,3.935-6.6,1.06,1.06,0,0,0,2.972-7.2a1.033,1.033,0,0,0-.934.594A3.819,3.819,0,0,0,1.7-4.781Zm16.419-.374H19.15v1.951H18.121V0H15.771V-2.615h-4l-.108-1.519,4.1-7.952h2.357Zm-4.175,0h1.826V-8.608l-.05.091Zm11.14-.108a2.255,2.255,0,0,1-1.635.764,2.527,2.527,0,0,1-2.171-1.108,4.986,4.986,0,0,1-.793-2.959,5.25,5.25,0,0,1,.448-2.187,3.616,3.616,0,0,1,1.249-1.54,3.1,3.1,0,0,1,1.789-.548,2.924,2.924,0,0,1,1.818.606,3.883,3.883,0,0,1,1.237,1.739,7.08,7.08,0,0,1,.44,2.577v.855A7.668,7.668,0,0,1,26.11-1.648,4.681,4.681,0,0,1,22.263.125h-.241V-1.9h.158a2.807,2.807,0,0,0,2.071-.714A3.339,3.339,0,0,0,25.085-4.673ZM24.047-5.752q.681,0,1.071-.93V-7.761a4.393,4.393,0,0,0-.324-1.864q-.324-.677-.838-.677t-.818.668A3.846,3.846,0,0,0,22.827-8a3.5,3.5,0,0,0,.324,1.648A.99.99,0,0,0,24.047-5.752ZM36.15-5a6.77,6.77,0,0,1-.909,3.835A2.956,2.956,0,0,1,32.647.166,2.966,2.966,0,0,1,30.07-1.125a6.537,6.537,0,0,1-.942-3.7V-7.105a6.756,6.756,0,0,1,.9-3.823,2.956,2.956,0,0,1,2.6-1.324,2.965,2.965,0,0,1,2.6,1.312A6.635,6.635,0,0,1,36.15-7.2ZM33.792-7.446a6.152,6.152,0,0,0-.282-2.142.941.941,0,0,0-.88-.714q-1.121,0-1.162,2.615v3.013A6.2,6.2,0,0,0,31.755-2.5a.952.952,0,0,0,.892.714.911.911,0,0,0,.851-.668A5.83,5.83,0,0,0,33.792-4.5Zm10.127,2.88h1.029v1.951H43.919V0H41.57V-2.615h-4l-.108-1.519,4.1-7.952h2.357Zm-4.175,0H41.57V-8.608l-.05.091Z" transform="translate(-1331.614 -1667.228)" fill="#fff"/>
    <path id="Path_180210" data-name="Path 180210" d="M-31.223-2.474h-3.329L-35.2,0h-2.582L-34-12.086h2.233L-27.969,0h-2.606Zm-2.8-2.034h2.258l-1.129-4.308Zm11.5-2.208-.78-.066a1.282,1.282,0,0,0-1.3.847V0h-2.357V-8.981h2.216l.066.971a1.7,1.7,0,0,1,1.536-1.137,1.645,1.645,0,0,1,.647.108Zm4.35-4.474v2.208h1.2v1.76h-1.2v4.464a1.317,1.317,0,0,0,.145.732.656.656,0,0,0,.56.2,2.195,2.195,0,0,0,.556-.058l-.017,1.826a3.659,3.659,0,0,1-1.295.224q-2.274,0-2.3-2.609V-7.222h-1.038v-1.76h1.038v-2.208ZM-13.161,0H-15.51V-8.981h2.349Zm-.681-12.625h2.64l-2.308,2.573h-1.959Zm5.86,10.841q1.021,0,1.038-1.328h2.208a3.3,3.3,0,0,1-.9,2.374,3.07,3.07,0,0,1-2.291.9A3.275,3.275,0,0,1-10.579-.913a4.872,4.872,0,0,1-.93-3.179v-.714a5.028,5.028,0,0,1,.9-3.229,3.221,3.221,0,0,1,2.66-1.112,3.044,3.044,0,0,1,2.341.917,3.731,3.731,0,0,1,.872,2.6H-6.944A2.355,2.355,0,0,0-7.193-6.79a.853.853,0,0,0-.8-.407.949.949,0,0,0-.88.436,3.716,3.716,0,0,0-.282,1.689v.913a7.329,7.329,0,0,0,.108,1.531,1.153,1.153,0,0,0,.357.639A1.088,1.088,0,0,0-7.981-1.785Zm8.99.963A2.314,2.314,0,0,1-.95.166,2.2,2.2,0,0,1-2.826-.685a4.079,4.079,0,0,1-.639-2.478V-8.981h2.349V-3.1q.017,1.312.872,1.312a1.212,1.212,0,0,0,1.162-.7V-8.981H3.283V0H1.075ZM7.425,0H5.068V-12.75H7.425ZM8.969-4.781a4.877,4.877,0,0,1,.963-3.2A3.272,3.272,0,0,1,12.6-9.147a3.291,3.291,0,0,1,2.681,1.162,4.9,4.9,0,0,1,.963,3.221v.573a4.885,4.885,0,0,1-.955,3.2A3.277,3.277,0,0,1,12.613.166,3.293,3.293,0,0,1,9.928-.992a4.9,4.9,0,0,1-.959-3.217Zm2.357.589q0,2.407,1.287,2.407,1.187,0,1.278-2.009l.008-.988a3.779,3.779,0,0,0-.34-1.822A1.06,1.06,0,0,0,12.6-7.2a1.033,1.033,0,0,0-.934.594,3.819,3.819,0,0,0-.336,1.822ZM23.645-7.114h1.137a1.062,1.062,0,0,0,.95-.452,2.139,2.139,0,0,0,.3-1.208A1.8,1.8,0,0,0,25.724-9.9a1,1,0,0,0-.834-.4.987.987,0,0,0-.8.382,1.474,1.474,0,0,0-.311.963H21.428a3.32,3.32,0,0,1,.436-1.7,3.06,3.06,0,0,1,1.22-1.175,3.6,3.6,0,0,1,1.739-.423,3.589,3.589,0,0,1,2.615.921,3.359,3.359,0,0,1,.946,2.523,2.873,2.873,0,0,1-.427,1.523,2.911,2.911,0,0,1-1.125,1.075,2.585,2.585,0,0,1,1.274,1.1,3.41,3.41,0,0,1,.419,1.727A3.389,3.389,0,0,1,27.5-.805a3.756,3.756,0,0,1-2.694.971,3.424,3.424,0,0,1-2.519-.959,3.39,3.39,0,0,1-.967-2.519H23.67a1.724,1.724,0,0,0,.34,1.087,1.047,1.047,0,0,0,.863.44,1.155,1.155,0,0,0,.959-.448,1.879,1.879,0,0,0,.353-1.2q0-1.785-1.386-1.793H23.645Zm12.111-5.1v1.992h-.133a2.842,2.842,0,0,0-2.1.793,3.618,3.618,0,0,0-.942,2.2,2.41,2.41,0,0,1,1.893-.863,2.438,2.438,0,0,1,2.1,1.121,5.116,5.116,0,0,1,.784,2.988,4.978,4.978,0,0,1-.448,2.142A3.489,3.489,0,0,1,35.652-.361a3.28,3.28,0,0,1-1.83.527,3.135,3.135,0,0,1-2.635-1.32,5.778,5.778,0,0,1-.992-3.553v-.872a9.049,9.049,0,0,1,.627-3.5,5.083,5.083,0,0,1,1.81-2.312,4.815,4.815,0,0,1,2.76-.818ZM33.739-6.159a1.059,1.059,0,0,0-.751.283,1.746,1.746,0,0,0-.452.7v.848a4.171,4.171,0,0,0,.34,1.913,1.013,1.013,0,0,0,.9.632,1.018,1.018,0,0,0,.9-.611,3.2,3.2,0,0,0,.34-1.568,3.145,3.145,0,0,0-.353-1.584A1.049,1.049,0,0,0,33.739-6.159Z" transform="translate(-1900.65 -1667.228)" fill="#fff"/>
    <path id="Path_180211" data-name="Path 180211" d="M-28.449-2.328h-3.133L-32.191,0h-2.43l3.555-11.375h2.1L-25.387,0H-27.84Zm-2.633-1.914h2.125L-30.02-8.3Zm10.82-2.078L-21-6.383a1.206,1.206,0,0,0-1.227.8V0h-2.219V-8.453h2.086l.063.914a1.6,1.6,0,0,1,1.445-1.07,1.548,1.548,0,0,1,.609.1Zm4.094-4.211v2.078h1.133V-6.8h-1.133v4.2a1.239,1.239,0,0,0,.137.689.617.617,0,0,0,.527.188,2.066,2.066,0,0,0,.523-.055L-15-.055a3.444,3.444,0,0,1-1.219.211q-2.141,0-2.164-2.456V-6.8h-.977V-8.453h.977v-2.078ZM-11.449,0H-13.66V-8.453h2.211Zm-.641-11.883h2.484l-2.172,2.422h-1.844Zm5.516,10.2q.961,0,.977-1.25H-3.52A3.106,3.106,0,0,1-4.371-.7,2.89,2.89,0,0,1-6.527.156,3.082,3.082,0,0,1-9.02-.859a4.585,4.585,0,0,1-.875-2.992v-.672a4.732,4.732,0,0,1,.848-3.039,3.032,3.032,0,0,1,2.5-1.047,2.865,2.865,0,0,1,2.2.863A3.512,3.512,0,0,1-3.52-5.3H-5.6a2.216,2.216,0,0,0-.234-1.094.8.8,0,0,0-.75-.383.894.894,0,0,0-.828.41,3.5,3.5,0,0,0-.266,1.59v.859a6.9,6.9,0,0,0,.1,1.441,1.086,1.086,0,0,0,.336.6A1.024,1.024,0,0,0-6.574-1.68Zm8.461.906A2.178,2.178,0,0,1,.043.156a2.071,2.071,0,0,1-1.766-.8,3.839,3.839,0,0,1-.6-2.332V-8.453H-.113v5.531Q-.1-1.687.707-1.687A1.141,1.141,0,0,0,1.8-2.344V-8.453H4.027V0H1.949ZM7.926,0H5.707V-12H7.926ZM9.379-4.5a4.59,4.59,0,0,1,.906-3.016,3.079,3.079,0,0,1,2.508-1.094,3.1,3.1,0,0,1,2.523,1.094,4.616,4.616,0,0,1,.906,3.031v.539a4.6,4.6,0,0,1-.9,3.016A3.084,3.084,0,0,1,12.809.156a3.1,3.1,0,0,1-2.527-1.09,4.613,4.613,0,0,1-.9-3.027Zm2.219.555q0,2.266,1.211,2.266,1.117,0,1.2-1.891l.008-.93a3.557,3.557,0,0,0-.32-1.715,1,1,0,0,0-.906-.559.973.973,0,0,0-.879.559A3.6,3.6,0,0,0,11.6-4.5ZM26.09,0H23.871V-8.687l-2.164.836V-9.7l4.148-1.7h.234Zm3.469-9.375A2.067,2.067,0,0,1,30.2-10.9a2.06,2.06,0,0,1,1.5-.629,2,2,0,0,1,1.473.629,2.093,2.093,0,0,1,.621,1.527,2.05,2.05,0,0,1-.621,1.52,2.025,2.025,0,0,1-1.473.613A2.091,2.091,0,0,1,30.2-7.855,2.019,2.019,0,0,1,29.559-9.375Zm2.133.969a.894.894,0,0,0,.68-.281.964.964,0,0,0,.266-.687,1.02,1.02,0,0,0-.266-.7.871.871,0,0,0-.68-.3.938.938,0,0,0-.7.293.977.977,0,0,0-.285.707A.913.913,0,0,0,31-8.684.972.972,0,0,0,31.691-8.406Z" transform="translate(-1761.312 -1668.228)" fill="#fff"/>
    <path id="Path_180212" data-name="Path 180212" d="M-28.449-2.328h-3.133L-32.191,0h-2.43l3.555-11.375h2.1L-25.387,0H-27.84Zm-2.633-1.914h2.125L-30.02-8.3Zm10.82-2.078L-21-6.383a1.206,1.206,0,0,0-1.227.8V0h-2.219V-8.453h2.086l.063.914a1.6,1.6,0,0,1,1.445-1.07,1.548,1.548,0,0,1,.609.1Zm4.094-4.211v2.078h1.133V-6.8h-1.133v4.2a1.239,1.239,0,0,0,.137.689.617.617,0,0,0,.527.188,2.066,2.066,0,0,0,.523-.055L-15-.055a3.444,3.444,0,0,1-1.219.211q-2.141,0-2.164-2.456V-6.8h-.977V-8.453h.977v-2.078ZM-11.449,0H-13.66V-8.453h2.211Zm-.641-11.883h2.484l-2.172,2.422h-1.844Zm5.516,10.2q.961,0,.977-1.25H-3.52A3.106,3.106,0,0,1-4.371-.7,2.89,2.89,0,0,1-6.527.156,3.082,3.082,0,0,1-9.02-.859a4.585,4.585,0,0,1-.875-2.992v-.672a4.732,4.732,0,0,1,.848-3.039,3.032,3.032,0,0,1,2.5-1.047,2.865,2.865,0,0,1,2.2.863A3.512,3.512,0,0,1-3.52-5.3H-5.6a2.216,2.216,0,0,0-.234-1.094.8.8,0,0,0-.75-.383.894.894,0,0,0-.828.41,3.5,3.5,0,0,0-.266,1.59v.859a6.9,6.9,0,0,0,.1,1.441,1.086,1.086,0,0,0,.336.6A1.024,1.024,0,0,0-6.574-1.68Zm8.461.906A2.178,2.178,0,0,1,.043.156a2.071,2.071,0,0,1-1.766-.8,3.839,3.839,0,0,1-.6-2.332V-8.453H-.113v5.531Q-.1-1.687.707-1.687A1.141,1.141,0,0,0,1.8-2.344V-8.453H4.027V0H1.949ZM7.926,0H5.707V-12H7.926ZM9.379-4.5a4.59,4.59,0,0,1,.906-3.016,3.079,3.079,0,0,1,2.508-1.094,3.1,3.1,0,0,1,2.523,1.094,4.616,4.616,0,0,1,.906,3.031v.539a4.6,4.6,0,0,1-.9,3.016A3.084,3.084,0,0,1,12.809.156a3.1,3.1,0,0,1-2.527-1.09,4.613,4.613,0,0,1-.9-3.027Zm2.219.555q0,2.266,1.211,2.266,1.117,0,1.2-1.891l.008-.93a3.557,3.557,0,0,0-.32-1.715,1,1,0,0,0-.906-.559.973.973,0,0,0-.879.559A3.6,3.6,0,0,0,11.6-4.5ZM23.191-6.7h1.07a1,1,0,0,0,.895-.426,2.013,2.013,0,0,0,.285-1.137,1.694,1.694,0,0,0-.293-1.059.942.942,0,0,0-.785-.379.929.929,0,0,0-.754.359,1.387,1.387,0,0,0-.293.906H21.105a3.125,3.125,0,0,1,.41-1.6,2.88,2.88,0,0,1,1.148-1.105,3.39,3.39,0,0,1,1.637-.4,3.378,3.378,0,0,1,2.461.867,3.162,3.162,0,0,1,.891,2.375,2.7,2.7,0,0,1-.4,1.434,2.74,2.74,0,0,1-1.059,1.012,2.433,2.433,0,0,1,1.2,1.031,3.21,3.21,0,0,1,.395,1.625,3.19,3.19,0,0,1-.965,2.43,3.535,3.535,0,0,1-2.535.914,3.222,3.222,0,0,1-2.371-.9A3.191,3.191,0,0,1,21-3.117h2.211a1.622,1.622,0,0,0,.32,1.023.986.986,0,0,0,.813.414,1.087,1.087,0,0,0,.9-.422,1.769,1.769,0,0,0,.332-1.125q0-1.68-1.3-1.687H23.191Zm6.367-2.68A2.067,2.067,0,0,1,30.2-10.9a2.06,2.06,0,0,1,1.5-.629,2,2,0,0,1,1.473.629,2.093,2.093,0,0,1,.621,1.527,2.05,2.05,0,0,1-.621,1.52,2.025,2.025,0,0,1-1.473.613A2.091,2.091,0,0,1,30.2-7.855,2.019,2.019,0,0,1,29.559-9.375Zm2.133.969a.894.894,0,0,0,.68-.281.964.964,0,0,0,.266-.687,1.02,1.02,0,0,0-.266-.7.871.871,0,0,0-.68-.3.938.938,0,0,0-.7.293.977.977,0,0,0-.285.707A.913.913,0,0,0,31-8.684.972.972,0,0,0,31.691-8.406Z" transform="translate(-1620.46 -1668.228)" fill="#fff"/>
    <g id="Group_118122" data-name="Group 118122" transform="translate(-2095.148 -1647.672)">
      <g id="Group_118119" data-name="Group 118119" transform="translate(1.479 1.915)">
        <rect id="Rectangle_36645" data-name="Rectangle 36645" width="1.072" height="72.655" fill="#ffb600"/>
      </g>
      <g id="Group_118120" data-name="Group 118120" transform="translate(0 72.454)">
        <path id="Path_179535" data-name="Path 179535" d="M-2092.014-1556.559a2.016,2.016,0,0,1-2.016,2.016,2.016,2.016,0,0,1-2.015-2.016,2.016,2.016,0,0,1,2.015-2.015A2.016,2.016,0,0,1-2092.014-1556.559Z" transform="translate(2096.045 1558.574)" fill="#ffb600"/>
      </g>
      <g id="Group_118121" data-name="Group 118121">
        <path id="Path_179536" data-name="Path 179536" d="M-2092.014-1646.551a2.016,2.016,0,0,0-2.016-2.016,2.016,2.016,0,0,0-2.015,2.016,2.015,2.015,0,0,0,2.015,2.015A2.015,2.015,0,0,0-2092.014-1646.551Z" transform="translate(2096.045 1648.567)" fill="#ffb600"/>
      </g>
    </g>
    <g id="Group_118126" data-name="Group 118126" transform="translate(-1812.811 -1647.672)">
      <g id="Group_118123" data-name="Group 118123" transform="translate(1.479 1.915)">
        <rect id="Rectangle_36646" data-name="Rectangle 36646" width="1.072" height="72.655" fill="#5a189a"/>
      </g>
      <g id="Group_118124" data-name="Group 118124" transform="translate(0 72.454)">
        <path id="Path_179537" data-name="Path 179537" d="M-1811.476-1556.559a2.015,2.015,0,0,1-2.015,2.016,2.015,2.015,0,0,1-2.015-2.016,2.015,2.015,0,0,1,2.015-2.015A2.015,2.015,0,0,1-1811.476-1556.559Z" transform="translate(1815.506 1558.574)" fill="#5a189a"/>
      </g>
      <g id="Group_118125" data-name="Group 118125">
        <path id="Path_179538" data-name="Path 179538" d="M-1811.476-1646.551a2.015,2.015,0,0,0-2.015-2.016,2.015,2.015,0,0,0-2.015,2.016,2.014,2.014,0,0,0,2.015,2.015A2.014,2.014,0,0,0-1811.476-1646.551Z" transform="translate(1815.506 1648.567)" fill="#5a189a"/>
      </g>
    </g>
    <g id="Group_118130" data-name="Group 118130" transform="translate(-1530.685 -1647.672)">
      <g id="Group_118127" data-name="Group 118127" transform="translate(1.479 1.915)">
        <rect id="Rectangle_36647" data-name="Rectangle 36647" width="1.072" height="72.655" fill="#ffb600"/>
      </g>
      <g id="Group_118128" data-name="Group 118128" transform="translate(0 72.454)">
        <path id="Path_179539" data-name="Path 179539" d="M-1531.146-1556.559a2.016,2.016,0,0,1-2.015,2.016,2.016,2.016,0,0,1-2.016-2.016,2.016,2.016,0,0,1,2.016-2.015A2.016,2.016,0,0,1-1531.146-1556.559Z" transform="translate(1535.177 1558.574)" fill="#ffb600"/>
      </g>
      <g id="Group_118129" data-name="Group 118129">
        <path id="Path_179540" data-name="Path 179540" d="M-1531.146-1646.551a2.016,2.016,0,0,0-2.015-2.016,2.016,2.016,0,0,0-2.016,2.016,2.015,2.015,0,0,0,2.016,2.015A2.015,2.015,0,0,0-1531.146-1646.551Z" transform="translate(1535.177 1648.567)" fill="#ffb600"/>
      </g>
    </g>
    <path id="Path_180201" data-name="Path 180201" d="M2.609-1.549H5.884V0H.743V-9.242H2.609ZM9.648.127A2.816,2.816,0,0,1,7.49-.7,3.322,3.322,0,0,1,6.716-3.06v-.546a3.905,3.905,0,0,1,.711-2.507A2.465,2.465,0,0,1,9.464-7a2.333,2.333,0,0,1,1.949.827,3.947,3.947,0,0,1,.667,2.45v.881H8.506a1.87,1.87,0,0,0,.336,1.119,1.137,1.137,0,0,0,.92.354,2.02,2.02,0,0,0,1.5-.616l.7,1.085a2.32,2.32,0,0,1-.958.74A3.29,3.29,0,0,1,9.648.127ZM8.519-4.088h1.8v-.165a1.92,1.92,0,0,0-.2-.933.706.706,0,0,0-.66-.317.747.747,0,0,0-.682.336A2.316,2.316,0,0,0,8.519-4.088ZM15.3-2.99l.914-3.878h1.917l-2.26,7.9q-.508,1.746-1.911,1.746a2.659,2.659,0,0,1-.736-.121V1.25l.209.006a1.033,1.033,0,0,0,.632-.162,1.014,1.014,0,0,0,.321-.562l.14-.463-1.98-6.938h1.93Zm8.144-2.45h.87a.812.812,0,0,0,.727-.346,1.636,1.636,0,0,0,.232-.924,1.377,1.377,0,0,0-.238-.86.765.765,0,0,0-.638-.308.755.755,0,0,0-.613.292,1.127,1.127,0,0,0-.238.736h-1.8a2.539,2.539,0,0,1,.333-1.3,2.34,2.34,0,0,1,.933-.9,2.755,2.755,0,0,1,1.33-.324,2.745,2.745,0,0,1,2,.7,2.569,2.569,0,0,1,.724,1.93A2.2,2.2,0,0,1,26.74-5.57a2.226,2.226,0,0,1-.86.822,1.977,1.977,0,0,1,.974.838,2.608,2.608,0,0,1,.321,1.32A2.592,2.592,0,0,1,26.39-.616a2.872,2.872,0,0,1-2.06.743A2.618,2.618,0,0,1,22.4-.606a2.593,2.593,0,0,1-.74-1.927h1.8a1.318,1.318,0,0,0,.26.832.8.8,0,0,0,.66.336.883.883,0,0,0,.733-.343,1.437,1.437,0,0,0,.27-.914q0-1.365-1.06-1.371h-.882ZM33.789-3.821a5.177,5.177,0,0,1-.7,2.933A2.261,2.261,0,0,1,31.11.127,2.268,2.268,0,0,1,29.139-.86a5,5,0,0,1-.72-2.828V-5.434a5.166,5.166,0,0,1,.692-2.923A2.261,2.261,0,0,1,31.1-9.369a2.267,2.267,0,0,1,1.987,1,5.074,5.074,0,0,1,.7,2.863Zm-1.8-1.873a4.7,4.7,0,0,0-.216-1.638.72.72,0,0,0-.673-.546q-.857,0-.889,2v2.3a4.738,4.738,0,0,0,.219,1.663.728.728,0,0,0,.682.546.7.7,0,0,0,.651-.511,4.458,4.458,0,0,0,.225-1.565ZM37.8-3.644a4.484,4.484,0,0,1,.571-2.52A1.891,1.891,0,0,1,40.035-7a1.6,1.6,0,0,1,1.32.686V-9.75h1.809V0H41.533L41.45-.7a1.655,1.655,0,0,1-1.422.825A1.876,1.876,0,0,1,38.381-.7,4.34,4.34,0,0,1,37.8-3.123Zm1.8.451a3.277,3.277,0,0,0,.216,1.419.761.761,0,0,0,.73.4.876.876,0,0,0,.806-.476V-4.983a.856.856,0,0,0-.8-.508.773.773,0,0,0-.724.4A3.112,3.112,0,0,0,39.6-3.669ZM47.258.127A2.816,2.816,0,0,1,45.1-.7a3.322,3.322,0,0,1-.774-2.361v-.546a3.905,3.905,0,0,1,.711-2.507A2.465,2.465,0,0,1,47.074-7a2.333,2.333,0,0,1,1.949.827,3.947,3.947,0,0,1,.667,2.45v.881H46.116a1.87,1.87,0,0,0,.336,1.119,1.137,1.137,0,0,0,.92.354,2.02,2.02,0,0,0,1.5-.616l.7,1.085a2.32,2.32,0,0,1-.958.74A3.29,3.29,0,0,1,47.258.127Zm-1.13-4.215h1.8v-.165a1.92,1.92,0,0,0-.2-.933.706.706,0,0,0-.66-.317.747.747,0,0,0-.682.336A2.316,2.316,0,0,0,46.128-4.088ZM57.6,0H55.8V-7.059l-1.758.679v-1.5l3.371-1.377h.19Zm6.106-3.574a1.724,1.724,0,0,1-1.25.584,1.932,1.932,0,0,1-1.66-.847A3.813,3.813,0,0,1,60.195-6.1a4.015,4.015,0,0,1,.343-1.673,2.765,2.765,0,0,1,.955-1.177,2.368,2.368,0,0,1,1.368-.419,2.236,2.236,0,0,1,1.39.463,2.969,2.969,0,0,1,.946,1.33A5.414,5.414,0,0,1,65.533-5.6v.654A5.863,5.863,0,0,1,64.5-1.26,3.58,3.58,0,0,1,61.553.1h-.184V-1.454h.121A2.146,2.146,0,0,0,63.073-2,2.553,2.553,0,0,0,63.711-3.574ZM62.918-4.4q.521,0,.819-.711v-.825a3.359,3.359,0,0,0-.248-1.425q-.248-.517-.641-.517t-.625.511a2.941,2.941,0,0,0-.238,1.247,2.68,2.68,0,0,0,.248,1.26A.757.757,0,0,0,62.918-4.4Zm7.37.825a1.724,1.724,0,0,1-1.25.584,1.932,1.932,0,0,1-1.66-.847A3.813,3.813,0,0,1,66.771-6.1a4.015,4.015,0,0,1,.343-1.673,2.765,2.765,0,0,1,.955-1.177,2.368,2.368,0,0,1,1.368-.419,2.236,2.236,0,0,1,1.39.463,2.969,2.969,0,0,1,.946,1.33A5.414,5.414,0,0,1,72.109-5.6v.654A5.863,5.863,0,0,1,71.072-1.26,3.58,3.58,0,0,1,68.129.1h-.184V-1.454h.121A2.146,2.146,0,0,0,69.65-2,2.553,2.553,0,0,0,70.288-3.574ZM69.494-4.4q.521,0,.819-.711v-.825a3.359,3.359,0,0,0-.248-1.425q-.248-.517-.641-.517t-.625.511a2.941,2.941,0,0,0-.238,1.247,2.68,2.68,0,0,0,.248,1.26A.757.757,0,0,0,69.494-4.4ZM78.825,0H73.379V-1.27l2.5-3.18a6.967,6.967,0,0,0,.7-1.158,2.317,2.317,0,0,0,.225-.955,1.854,1.854,0,0,0-.213-.965.677.677,0,0,0-.613-.349.788.788,0,0,0-.7.406,2.136,2.136,0,0,0-.257,1.143h-1.8a3.428,3.428,0,0,1,.352-1.555,2.631,2.631,0,0,1,.99-1.095,2.711,2.711,0,0,1,1.444-.39,2.6,2.6,0,0,1,1.92.682,2.623,2.623,0,0,1,.682,1.939,3.7,3.7,0,0,1-.378,1.584A9.738,9.738,0,0,1,76.87-3.187L75.683-1.492h3.142Z" transform="translate(-2084.624 -1616.588)" fill="#12263f"/>
    <g id="Group_118135" data-name="Group 118135" transform="translate(-1953.874 -1647.672)">
      <g id="Group_118134" data-name="Group 118134">
        <g id="Group_118131" data-name="Group 118131" transform="translate(1.479 1.914)">
          <rect id="Rectangle_36648" data-name="Rectangle 36648" width="1.072" height="72.656" fill="#565656"/>
        </g>
        <g id="Group_118132" data-name="Group 118132" transform="translate(0 72.453)">
          <path id="Path_179541" data-name="Path 179541" d="M-1951.64-1699.213a2.016,2.016,0,0,1-2.015,2.015,2.016,2.016,0,0,1-2.016-2.015,2.016,2.016,0,0,1,2.016-2.016A2.016,2.016,0,0,1-1951.64-1699.213Z" transform="translate(1955.671 1701.229)" fill="#565656"/>
        </g>
        <g id="Group_118133" data-name="Group 118133">
          <path id="Path_179542" data-name="Path 179542" d="M-1951.64-1771.206a2.015,2.015,0,0,0-2.015-2.015,2.015,2.015,0,0,0-2.016,2.015,2.015,2.015,0,0,0,2.016,2.015A2.015,2.015,0,0,0-1951.64-1771.206Z" transform="translate(1955.671 1773.221)" fill="#565656"/>
        </g>
      </g>
    </g>
    <path id="Path_180206" data-name="Path 180206" d="M2.609-1.549H5.884V0H.743V-9.242H2.609ZM9.648.127A2.816,2.816,0,0,1,7.49-.7,3.322,3.322,0,0,1,6.716-3.06v-.546a3.905,3.905,0,0,1,.711-2.507A2.465,2.465,0,0,1,9.464-7a2.333,2.333,0,0,1,1.949.827,3.947,3.947,0,0,1,.667,2.45v.881H8.506a1.87,1.87,0,0,0,.336,1.119,1.137,1.137,0,0,0,.92.354,2.02,2.02,0,0,0,1.5-.616l.7,1.085a2.32,2.32,0,0,1-.958.74A3.29,3.29,0,0,1,9.648.127ZM8.519-4.088h1.8v-.165a1.92,1.92,0,0,0-.2-.933.706.706,0,0,0-.66-.317.747.747,0,0,0-.682.336A2.316,2.316,0,0,0,8.519-4.088ZM15.3-2.99l.914-3.878h1.917l-2.26,7.9q-.508,1.746-1.911,1.746a2.659,2.659,0,0,1-.736-.121V1.25l.209.006a1.033,1.033,0,0,0,.632-.162,1.014,1.014,0,0,0,.321-.562l.14-.463-1.98-6.938h1.93ZM25.8,0h-1.8V-7.059l-1.758.679v-1.5l3.371-1.377h.19Zm6.576,0h-1.8V-7.059l-1.758.679v-1.5l3.371-1.377h.19Zm2.806-4.545.457-4.7h4.475v1.536h-3l-.165,1.98a1.9,1.9,0,0,1,1.073-.349,2.083,2.083,0,0,1,1.761.813,3.725,3.725,0,0,1,.619,2.3A3.3,3.3,0,0,1,39.66-.724a2.472,2.472,0,0,1-1.968.851A2.736,2.736,0,0,1,36.34-.219a2.549,2.549,0,0,1-.981-.962,2.769,2.769,0,0,1-.365-1.4h1.777a1.673,1.673,0,0,0,.286.9.748.748,0,0,0,.622.317.752.752,0,0,0,.686-.428,2.674,2.674,0,0,0,.241-1.279,2.079,2.079,0,0,0-.289-1.206.936.936,0,0,0-.809-.406.95.95,0,0,0-.787.349l-.114.159Zm9.2.9a4.484,4.484,0,0,1,.571-2.52A1.891,1.891,0,0,1,46.611-7a1.6,1.6,0,0,1,1.32.686V-9.75H49.74V0H48.109l-.083-.7A1.655,1.655,0,0,1,46.6.127,1.876,1.876,0,0,1,44.957-.7a4.34,4.34,0,0,1-.581-2.425Zm1.8.451A3.277,3.277,0,0,0,46.4-1.774a.761.761,0,0,0,.73.4.876.876,0,0,0,.806-.476V-4.983a.856.856,0,0,0-.8-.508.773.773,0,0,0-.724.4,3.112,3.112,0,0,0-.229,1.422ZM53.834.127A2.816,2.816,0,0,1,51.676-.7,3.322,3.322,0,0,1,50.9-3.06v-.546a3.905,3.905,0,0,1,.711-2.507A2.465,2.465,0,0,1,53.65-7a2.333,2.333,0,0,1,1.949.827,3.947,3.947,0,0,1,.667,2.45v.881H52.692a1.87,1.87,0,0,0,.336,1.119,1.137,1.137,0,0,0,.92.354,2.02,2.02,0,0,0,1.5-.616l.7,1.085a2.32,2.32,0,0,1-.958.74A3.29,3.29,0,0,1,53.834.127ZM52.7-4.088h1.8v-.165a1.92,1.92,0,0,0-.2-.933.706.706,0,0,0-.66-.317.747.747,0,0,0-.682.336A2.316,2.316,0,0,0,52.7-4.088ZM64.181,0h-1.8V-7.059l-1.758.679v-1.5l3.371-1.377h.19Zm6.106-3.574a1.724,1.724,0,0,1-1.25.584,1.932,1.932,0,0,1-1.66-.847A3.813,3.813,0,0,1,66.771-6.1a4.015,4.015,0,0,1,.343-1.673,2.765,2.765,0,0,1,.955-1.177,2.368,2.368,0,0,1,1.368-.419,2.236,2.236,0,0,1,1.39.463,2.969,2.969,0,0,1,.946,1.33A5.414,5.414,0,0,1,72.109-5.6v.654A5.863,5.863,0,0,1,71.072-1.26,3.58,3.58,0,0,1,68.129.1h-.184V-1.454h.121A2.146,2.146,0,0,0,69.65-2,2.553,2.553,0,0,0,70.288-3.574ZM69.494-4.4q.521,0,.819-.711v-.825a3.359,3.359,0,0,0-.248-1.425q-.248-.517-.641-.517t-.625.511a2.941,2.941,0,0,0-.238,1.247,2.68,2.68,0,0,0,.248,1.26A.757.757,0,0,0,69.494-4.4Zm7.37.825a1.724,1.724,0,0,1-1.25.584,1.932,1.932,0,0,1-1.66-.847A3.813,3.813,0,0,1,73.347-6.1a4.015,4.015,0,0,1,.343-1.673,2.765,2.765,0,0,1,.955-1.177,2.368,2.368,0,0,1,1.368-.419,2.236,2.236,0,0,1,1.39.463,2.969,2.969,0,0,1,.946,1.33A5.414,5.414,0,0,1,78.686-5.6v.654A5.863,5.863,0,0,1,77.648-1.26,3.58,3.58,0,0,1,74.706.1h-.184V-1.454h.121A2.146,2.146,0,0,0,76.226-2,2.553,2.553,0,0,0,76.864-3.574ZM76.07-4.4q.521,0,.819-.711v-.825a3.359,3.359,0,0,0-.248-1.425q-.248-.517-.641-.517t-.625.511a2.941,2.941,0,0,0-.238,1.247,2.68,2.68,0,0,0,.248,1.26A.757.757,0,0,0,76.07-4.4Zm8.62.908h.787V-2H84.69V0h-1.8V-2h-3.06l-.083-1.162,3.136-6.081h1.8Zm-3.193,0h1.4V-6.583l-.038.07Z" transform="translate(-1943.35 -1619.525)" fill="#565656"/>
    <path id="Path_180202" data-name="Path 180202" d="M2.609-1.549H5.884V0H.743V-9.242H2.609ZM9.648.127A2.816,2.816,0,0,1,7.49-.7,3.322,3.322,0,0,1,6.716-3.06v-.546a3.905,3.905,0,0,1,.711-2.507A2.465,2.465,0,0,1,9.464-7a2.333,2.333,0,0,1,1.949.827,3.947,3.947,0,0,1,.667,2.45v.881H8.506a1.87,1.87,0,0,0,.336,1.119,1.137,1.137,0,0,0,.92.354,2.02,2.02,0,0,0,1.5-.616l.7,1.085a2.32,2.32,0,0,1-.958.74A3.29,3.29,0,0,1,9.648.127ZM8.519-4.088h1.8v-.165a1.92,1.92,0,0,0-.2-.933.706.706,0,0,0-.66-.317.747.747,0,0,0-.682.336A2.316,2.316,0,0,0,8.519-4.088ZM15.3-2.99l.914-3.878h1.917l-2.26,7.9q-.508,1.746-1.911,1.746a2.659,2.659,0,0,1-.736-.121V1.25l.209.006a1.033,1.033,0,0,0,.632-.162,1.014,1.014,0,0,0,.321-.562l.14-.463-1.98-6.938h1.93ZM25.8,0h-1.8V-7.059l-1.758.679v-1.5l3.371-1.377h.19Zm6.576,0h-1.8V-7.059l-1.758.679v-1.5l3.371-1.377h.19Zm6.106-3.574a1.724,1.724,0,0,1-1.25.584,1.932,1.932,0,0,1-1.66-.847A3.813,3.813,0,0,1,34.963-6.1a4.015,4.015,0,0,1,.343-1.673,2.765,2.765,0,0,1,.955-1.177,2.368,2.368,0,0,1,1.368-.419,2.236,2.236,0,0,1,1.39.463,2.969,2.969,0,0,1,.946,1.33A5.414,5.414,0,0,1,40.3-5.6v.654A5.863,5.863,0,0,1,39.263-1.26,3.58,3.58,0,0,1,36.321.1h-.184V-1.454h.121A2.146,2.146,0,0,0,37.842-2,2.553,2.553,0,0,0,38.479-3.574ZM37.686-4.4q.521,0,.819-.711v-.825a3.359,3.359,0,0,0-.248-1.425q-.248-.517-.641-.517t-.625.511a2.941,2.941,0,0,0-.238,1.247A2.68,2.68,0,0,0,37-4.859.757.757,0,0,0,37.686-4.4Zm6.69.755a4.484,4.484,0,0,1,.571-2.52A1.891,1.891,0,0,1,46.611-7a1.6,1.6,0,0,1,1.32.686V-9.75H49.74V0H48.109l-.083-.7A1.655,1.655,0,0,1,46.6.127,1.876,1.876,0,0,1,44.957-.7a4.34,4.34,0,0,1-.581-2.425Zm1.8.451A3.277,3.277,0,0,0,46.4-1.774a.761.761,0,0,0,.73.4.876.876,0,0,0,.806-.476V-4.983a.856.856,0,0,0-.8-.508.773.773,0,0,0-.724.4,3.112,3.112,0,0,0-.229,1.422ZM53.834.127A2.816,2.816,0,0,1,51.676-.7,3.322,3.322,0,0,1,50.9-3.06v-.546a3.905,3.905,0,0,1,.711-2.507A2.465,2.465,0,0,1,53.65-7a2.333,2.333,0,0,1,1.949.827,3.947,3.947,0,0,1,.667,2.45v.881H52.692a1.87,1.87,0,0,0,.336,1.119,1.137,1.137,0,0,0,.92.354,2.02,2.02,0,0,0,1.5-.616l.7,1.085a2.32,2.32,0,0,1-.958.74A3.29,3.29,0,0,1,53.834.127ZM52.7-4.088h1.8v-.165a1.92,1.92,0,0,0-.2-.933.706.706,0,0,0-.66-.317.747.747,0,0,0-.682.336A2.316,2.316,0,0,0,52.7-4.088ZM64.181,0h-1.8V-7.059l-1.758.679v-1.5l3.371-1.377h.19Zm6.106-3.574a1.724,1.724,0,0,1-1.25.584,1.932,1.932,0,0,1-1.66-.847A3.813,3.813,0,0,1,66.771-6.1a4.015,4.015,0,0,1,.343-1.673,2.765,2.765,0,0,1,.955-1.177,2.368,2.368,0,0,1,1.368-.419,2.236,2.236,0,0,1,1.39.463,2.969,2.969,0,0,1,.946,1.33A5.414,5.414,0,0,1,72.109-5.6v.654A5.863,5.863,0,0,1,71.072-1.26,3.58,3.58,0,0,1,68.129.1h-.184V-1.454h.121A2.146,2.146,0,0,0,69.65-2,2.553,2.553,0,0,0,70.288-3.574ZM69.494-4.4q.521,0,.819-.711v-.825a3.359,3.359,0,0,0-.248-1.425q-.248-.517-.641-.517t-.625.511a2.941,2.941,0,0,0-.238,1.247,2.68,2.68,0,0,0,.248,1.26A.757.757,0,0,0,69.494-4.4Zm7.37.825a1.724,1.724,0,0,1-1.25.584,1.932,1.932,0,0,1-1.66-.847A3.813,3.813,0,0,1,73.347-6.1a4.015,4.015,0,0,1,.343-1.673,2.765,2.765,0,0,1,.955-1.177,2.368,2.368,0,0,1,1.368-.419,2.236,2.236,0,0,1,1.39.463,2.969,2.969,0,0,1,.946,1.33A5.414,5.414,0,0,1,78.686-5.6v.654A5.863,5.863,0,0,1,77.648-1.26,3.58,3.58,0,0,1,74.706.1h-.184V-1.454h.121A2.146,2.146,0,0,0,76.226-2,2.553,2.553,0,0,0,76.864-3.574ZM76.07-4.4q.521,0,.819-.711v-.825a3.359,3.359,0,0,0-.248-1.425q-.248-.517-.641-.517t-.625.511a2.941,2.941,0,0,0-.238,1.247,2.68,2.68,0,0,0,.248,1.26A.757.757,0,0,0,76.07-4.4Zm8.62.908h.787V-2H84.69V0h-1.8V-2h-3.06l-.083-1.162,3.136-6.081h1.8Zm-3.193,0h1.4V-6.583l-.038.07Z" transform="translate(-1802.287 -1616.588)" fill="#5a189a"/>
    <path id="Path_180203" data-name="Path 180203" d="M2.609-1.549H5.884V0H.743V-9.242H2.609ZM9.648.127A2.816,2.816,0,0,1,7.49-.7,3.322,3.322,0,0,1,6.716-3.06v-.546a3.905,3.905,0,0,1,.711-2.507A2.465,2.465,0,0,1,9.464-7a2.333,2.333,0,0,1,1.949.827,3.947,3.947,0,0,1,.667,2.45v.881H8.506a1.87,1.87,0,0,0,.336,1.119,1.137,1.137,0,0,0,.92.354,2.02,2.02,0,0,0,1.5-.616l.7,1.085a2.32,2.32,0,0,1-.958.74A3.29,3.29,0,0,1,9.648.127ZM8.519-4.088h1.8v-.165a1.92,1.92,0,0,0-.2-.933.706.706,0,0,0-.66-.317.747.747,0,0,0-.682.336A2.316,2.316,0,0,0,8.519-4.088ZM15.3-2.99l.914-3.878h1.917l-2.26,7.9q-.508,1.746-1.911,1.746a2.659,2.659,0,0,1-.736-.121V1.25l.209.006a1.033,1.033,0,0,0,.632-.162,1.014,1.014,0,0,0,.321-.562l.14-.463-1.98-6.938h1.93ZM25.8,0h-1.8V-7.059l-1.758.679v-1.5l3.371-1.377h.19Zm7.992-3.821a5.177,5.177,0,0,1-.7,2.933A2.261,2.261,0,0,1,31.11.127,2.268,2.268,0,0,1,29.139-.86a5,5,0,0,1-.72-2.828V-5.434a5.166,5.166,0,0,1,.692-2.923A2.261,2.261,0,0,1,31.1-9.369a2.267,2.267,0,0,1,1.987,1,5.074,5.074,0,0,1,.7,2.863Zm-1.8-1.873a4.7,4.7,0,0,0-.216-1.638.72.72,0,0,0-.673-.546q-.857,0-.889,2v2.3a4.738,4.738,0,0,0,.219,1.663.728.728,0,0,0,.682.546.7.7,0,0,0,.651-.511,4.458,4.458,0,0,0,.225-1.565Zm7.293-3.644v1.523h-.1a2.173,2.173,0,0,0-1.6.606,2.766,2.766,0,0,0-.72,1.679,1.843,1.843,0,0,1,1.447-.66,1.864,1.864,0,0,1,1.6.857,3.913,3.913,0,0,1,.6,2.285,3.807,3.807,0,0,1-.343,1.638A2.668,2.668,0,0,1,39.2-.276a2.508,2.508,0,0,1-1.4.4A2.4,2.4,0,0,1,35.785-.882,4.418,4.418,0,0,1,35.026-3.6v-.667a6.92,6.92,0,0,1,.479-2.679,3.887,3.887,0,0,1,1.384-1.768A3.682,3.682,0,0,1,39-9.337ZM37.737-4.71a.81.81,0,0,0-.574.216,1.335,1.335,0,0,0-.346.534v.649a3.19,3.19,0,0,0,.26,1.463.775.775,0,0,0,.686.483.779.779,0,0,0,.692-.467,2.447,2.447,0,0,0,.26-1.2,2.4,2.4,0,0,0-.27-1.212A.8.8,0,0,0,37.737-4.71Zm8.569,1.219h.787V-2h-.787V0h-1.8V-2H41.45l-.083-1.162L44.5-9.242h1.8Zm-3.193,0h1.4V-6.583l-.038.07Zm7.839-.152a4.484,4.484,0,0,1,.571-2.52A1.891,1.891,0,0,1,53.187-7a1.6,1.6,0,0,1,1.32.686V-9.75h1.809V0H54.685L54.6-.7a1.655,1.655,0,0,1-1.422.825A1.876,1.876,0,0,1,51.533-.7a4.34,4.34,0,0,1-.581-2.425Zm1.8.451a3.277,3.277,0,0,0,.216,1.419.761.761,0,0,0,.73.4.876.876,0,0,0,.806-.476V-4.983a.856.856,0,0,0-.8-.508.773.773,0,0,0-.724.4,3.112,3.112,0,0,0-.229,1.422ZM60.411.127A2.816,2.816,0,0,1,58.252-.7a3.322,3.322,0,0,1-.774-2.361v-.546a3.905,3.905,0,0,1,.711-2.507A2.465,2.465,0,0,1,60.227-7a2.333,2.333,0,0,1,1.949.827,3.947,3.947,0,0,1,.667,2.45v.881H59.268A1.87,1.87,0,0,0,59.6-1.719a1.137,1.137,0,0,0,.92.354,2.02,2.02,0,0,0,1.5-.616l.7,1.085a2.32,2.32,0,0,1-.958.74A3.29,3.29,0,0,1,60.411.127Zm-1.13-4.215h1.8v-.165a1.92,1.92,0,0,0-.2-.933.706.706,0,0,0-.66-.317.747.747,0,0,0-.682.336A2.316,2.316,0,0,0,59.281-4.088ZM72.249,0H66.8V-1.27l2.5-3.18a6.967,6.967,0,0,0,.7-1.158,2.317,2.317,0,0,0,.225-.955,1.854,1.854,0,0,0-.213-.965.677.677,0,0,0-.613-.349.788.788,0,0,0-.7.406,2.136,2.136,0,0,0-.257,1.143h-1.8A3.428,3.428,0,0,1,67-7.884a2.631,2.631,0,0,1,.99-1.095,2.711,2.711,0,0,1,1.444-.39,2.6,2.6,0,0,1,1.92.682,2.623,2.623,0,0,1,.682,1.939,3.7,3.7,0,0,1-.378,1.584,9.738,9.738,0,0,1-1.368,1.977L69.107-1.492h3.142Zm6.5-3.821a5.177,5.177,0,0,1-.7,2.933A2.261,2.261,0,0,1,76.07.127,2.268,2.268,0,0,1,74.1-.86a5,5,0,0,1-.72-2.828V-5.434a5.166,5.166,0,0,1,.692-2.923,2.261,2.261,0,0,1,1.987-1.012,2.267,2.267,0,0,1,1.987,1,5.074,5.074,0,0,1,.7,2.863Zm-1.8-1.873a4.7,4.7,0,0,0-.216-1.638.72.72,0,0,0-.673-.546q-.857,0-.889,2v2.3a4.738,4.738,0,0,0,.219,1.663.728.728,0,0,0,.682.546.7.7,0,0,0,.651-.511,4.458,4.458,0,0,0,.225-1.565Zm8.379,1.873a5.177,5.177,0,0,1-.7,2.933A2.261,2.261,0,0,1,82.646.127,2.268,2.268,0,0,1,80.676-.86a5,5,0,0,1-.72-2.828V-5.434a5.166,5.166,0,0,1,.692-2.923,2.261,2.261,0,0,1,1.987-1.012,2.267,2.267,0,0,1,1.987,1,5.074,5.074,0,0,1,.7,2.863Zm-1.8-1.873a4.7,4.7,0,0,0-.216-1.638.72.72,0,0,0-.673-.546q-.857,0-.889,2v2.3a4.738,4.738,0,0,0,.219,1.663.728.728,0,0,0,.682.546.7.7,0,0,0,.651-.511,4.458,4.458,0,0,0,.225-1.565Zm7.293-3.644v1.523h-.1a2.173,2.173,0,0,0-1.6.606,2.766,2.766,0,0,0-.72,1.679,1.843,1.843,0,0,1,1.447-.66,1.864,1.864,0,0,1,1.6.857,3.913,3.913,0,0,1,.6,2.285A3.807,3.807,0,0,1,91.7-1.409a2.668,2.668,0,0,1-.962,1.133,2.508,2.508,0,0,1-1.4.4A2.4,2.4,0,0,1,87.322-.882,4.418,4.418,0,0,1,86.563-3.6v-.667a6.92,6.92,0,0,1,.479-2.679,3.887,3.887,0,0,1,1.384-1.768,3.682,3.682,0,0,1,2.111-.625ZM89.273-4.71a.81.81,0,0,0-.574.216,1.335,1.335,0,0,0-.346.534v.649a3.19,3.19,0,0,0,.26,1.463.775.775,0,0,0,.686.483.779.779,0,0,0,.692-.467,2.448,2.448,0,0,0,.26-1.2,2.4,2.4,0,0,0-.27-1.212A.8.8,0,0,0,89.273-4.71Z" transform="translate(-1520.161 -1616.588)" fill="#12263f"/>
    <g id="Group_118139" data-name="Group 118139" transform="translate(-1671.748 -1647.672)">
      <g id="Group_118136" data-name="Group 118136" transform="translate(1.48 1.914)">
        <rect id="Rectangle_36649" data-name="Rectangle 36649" width="1.072" height="72.656" fill="#ff6b00"/>
      </g>
      <g id="Group_118137" data-name="Group 118137" transform="translate(0 72.453)">
        <path id="Path_179543" data-name="Path 179543" d="M-1671.311-1699.213a2.016,2.016,0,0,1-2.015,2.015,2.016,2.016,0,0,1-2.016-2.015,2.016,2.016,0,0,1,2.016-2.016A2.016,2.016,0,0,1-1671.311-1699.213Z" transform="translate(1675.342 1701.229)" fill="#ff6b00"/>
      </g>
      <g id="Group_118138" data-name="Group 118138">
        <path id="Path_179544" data-name="Path 179544" d="M-1671.311-1771.206a2.015,2.015,0,0,0-2.015-2.015,2.015,2.015,0,0,0-2.016,2.015,2.015,2.015,0,0,0,2.016,2.015A2.015,2.015,0,0,0-1671.311-1771.206Z" transform="translate(1675.342 1773.221)" fill="#ff6b00"/>
      </g>
    </g>
    <path id="Path_180205" data-name="Path 180205" d="M2.609-1.549H5.884V0H.743V-9.242H2.609ZM9.648.127A2.816,2.816,0,0,1,7.49-.7,3.322,3.322,0,0,1,6.716-3.06v-.546a3.905,3.905,0,0,1,.711-2.507A2.465,2.465,0,0,1,9.464-7a2.333,2.333,0,0,1,1.949.827,3.947,3.947,0,0,1,.667,2.45v.881H8.506a1.87,1.87,0,0,0,.336,1.119,1.137,1.137,0,0,0,.92.354,2.02,2.02,0,0,0,1.5-.616l.7,1.085a2.32,2.32,0,0,1-.958.74A3.29,3.29,0,0,1,9.648.127ZM8.519-4.088h1.8v-.165a1.92,1.92,0,0,0-.2-.933.706.706,0,0,0-.66-.317.747.747,0,0,0-.682.336A2.316,2.316,0,0,0,8.519-4.088ZM15.3-2.99l.914-3.878h1.917l-2.26,7.9q-.508,1.746-1.911,1.746a2.659,2.659,0,0,1-.736-.121V1.25l.209.006a1.033,1.033,0,0,0,.632-.162,1.014,1.014,0,0,0,.321-.562l.14-.463-1.98-6.938h1.93ZM25.8,0h-1.8V-7.059l-1.758.679v-1.5l3.371-1.377h.19Zm6.576,0h-1.8V-7.059l-1.758.679v-1.5l3.371-1.377h.19Zm6.106-3.574a1.724,1.724,0,0,1-1.25.584,1.932,1.932,0,0,1-1.66-.847A3.813,3.813,0,0,1,34.963-6.1a4.015,4.015,0,0,1,.343-1.673,2.765,2.765,0,0,1,.955-1.177,2.368,2.368,0,0,1,1.368-.419,2.236,2.236,0,0,1,1.39.463,2.969,2.969,0,0,1,.946,1.33A5.414,5.414,0,0,1,40.3-5.6v.654A5.863,5.863,0,0,1,39.263-1.26,3.58,3.58,0,0,1,36.321.1h-.184V-1.454h.121A2.146,2.146,0,0,0,37.842-2,2.553,2.553,0,0,0,38.479-3.574ZM37.686-4.4q.521,0,.819-.711v-.825a3.359,3.359,0,0,0-.248-1.425q-.248-.517-.641-.517t-.625.511a2.941,2.941,0,0,0-.238,1.247A2.68,2.68,0,0,0,37-4.859.757.757,0,0,0,37.686-4.4Zm6.69.755a4.484,4.484,0,0,1,.571-2.52A1.891,1.891,0,0,1,46.611-7a1.6,1.6,0,0,1,1.32.686V-9.75H49.74V0H48.109l-.083-.7A1.655,1.655,0,0,1,46.6.127,1.876,1.876,0,0,1,44.957-.7a4.34,4.34,0,0,1-.581-2.425Zm1.8.451A3.277,3.277,0,0,0,46.4-1.774a.761.761,0,0,0,.73.4.876.876,0,0,0,.806-.476V-4.983a.856.856,0,0,0-.8-.508.773.773,0,0,0-.724.4,3.112,3.112,0,0,0-.229,1.422ZM53.834.127A2.816,2.816,0,0,1,51.676-.7,3.322,3.322,0,0,1,50.9-3.06v-.546a3.905,3.905,0,0,1,.711-2.507A2.465,2.465,0,0,1,53.65-7a2.333,2.333,0,0,1,1.949.827,3.947,3.947,0,0,1,.667,2.45v.881H52.692a1.87,1.87,0,0,0,.336,1.119,1.137,1.137,0,0,0,.92.354,2.02,2.02,0,0,0,1.5-.616l.7,1.085a2.32,2.32,0,0,1-.958.74A3.29,3.29,0,0,1,53.834.127ZM52.7-4.088h1.8v-.165a1.92,1.92,0,0,0-.2-.933.706.706,0,0,0-.66-.317.747.747,0,0,0-.682.336A2.316,2.316,0,0,0,52.7-4.088ZM64.181,0h-1.8V-7.059l-1.758.679v-1.5l3.371-1.377h.19Zm6.106-3.574a1.724,1.724,0,0,1-1.25.584,1.932,1.932,0,0,1-1.66-.847A3.813,3.813,0,0,1,66.771-6.1a4.015,4.015,0,0,1,.343-1.673,2.765,2.765,0,0,1,.955-1.177,2.368,2.368,0,0,1,1.368-.419,2.236,2.236,0,0,1,1.39.463,2.969,2.969,0,0,1,.946,1.33A5.414,5.414,0,0,1,72.109-5.6v.654A5.863,5.863,0,0,1,71.072-1.26,3.58,3.58,0,0,1,68.129.1h-.184V-1.454h.121A2.146,2.146,0,0,0,69.65-2,2.553,2.553,0,0,0,70.288-3.574ZM69.494-4.4q.521,0,.819-.711v-.825a3.359,3.359,0,0,0-.248-1.425q-.248-.517-.641-.517t-.625.511a2.941,2.941,0,0,0-.238,1.247,2.68,2.68,0,0,0,.248,1.26A.757.757,0,0,0,69.494-4.4Zm7.37.825a1.724,1.724,0,0,1-1.25.584,1.932,1.932,0,0,1-1.66-.847A3.813,3.813,0,0,1,73.347-6.1a4.015,4.015,0,0,1,.343-1.673,2.765,2.765,0,0,1,.955-1.177,2.368,2.368,0,0,1,1.368-.419,2.236,2.236,0,0,1,1.39.463,2.969,2.969,0,0,1,.946,1.33A5.414,5.414,0,0,1,78.686-5.6v.654A5.863,5.863,0,0,1,77.648-1.26,3.58,3.58,0,0,1,74.706.1h-.184V-1.454h.121A2.146,2.146,0,0,0,76.226-2,2.553,2.553,0,0,0,76.864-3.574ZM76.07-4.4q.521,0,.819-.711v-.825a3.359,3.359,0,0,0-.248-1.425q-.248-.517-.641-.517t-.625.511a2.941,2.941,0,0,0-.238,1.247,2.68,2.68,0,0,0,.248,1.26A.757.757,0,0,0,76.07-4.4Zm8.62.908h.787V-2H84.69V0h-1.8V-2h-3.06l-.083-1.162,3.136-6.081h1.8Zm-3.193,0h1.4V-6.583l-.038.07Z" transform="translate(-1661.35 -1616.588)" fill="#ff6b00"/>
    <g id="Group_118144" data-name="Group 118144" transform="translate(-1389.622 -1647.672)">
      <g id="Group_118143" data-name="Group 118143">
        <g id="Group_118140" data-name="Group 118140" transform="translate(1.479 1.914)">
          <rect id="Rectangle_36650" data-name="Rectangle 36650" width="1.072" height="72.656" fill="#565656"/>
        </g>
        <g id="Group_118141" data-name="Group 118141" transform="translate(0 72.453)">
          <path id="Path_179545" data-name="Path 179545" d="M-1390.982-1699.213A2.015,2.015,0,0,1-1393-1697.2a2.015,2.015,0,0,1-2.015-2.015,2.015,2.015,0,0,1,2.015-2.016A2.015,2.015,0,0,1-1390.982-1699.213Z" transform="translate(1395.012 1701.229)" fill="#565656"/>
        </g>
        <g id="Group_118142" data-name="Group 118142">
          <path id="Path_179546" data-name="Path 179546" d="M-1390.982-1771.206a2.014,2.014,0,0,0-2.015-2.015,2.014,2.014,0,0,0-2.015,2.015,2.014,2.014,0,0,0,2.015,2.015A2.014,2.014,0,0,0-1390.982-1771.206Z" transform="translate(1395.012 1773.221)" fill="#565656"/>
        </g>
      </g>
    </g>
    <path id="Path_180204" data-name="Path 180204" d="M.413-3.644a4.484,4.484,0,0,1,.571-2.52A1.891,1.891,0,0,1,2.647-7a1.6,1.6,0,0,1,1.32.686V-9.75H5.776V0H4.145L4.063-.7A1.655,1.655,0,0,1,2.641.127,1.876,1.876,0,0,1,.993-.7,4.34,4.34,0,0,1,.413-3.123Zm1.8.451a3.277,3.277,0,0,0,.216,1.419.761.761,0,0,0,.73.4.876.876,0,0,0,.806-.476V-4.983a.856.856,0,0,0-.8-.508.773.773,0,0,0-.724.4,3.112,3.112,0,0,0-.229,1.422ZM9.871.127A2.816,2.816,0,0,1,7.712-.7,3.322,3.322,0,0,1,6.938-3.06v-.546a3.905,3.905,0,0,1,.711-2.507A2.465,2.465,0,0,1,9.687-7a2.333,2.333,0,0,1,1.949.827,3.947,3.947,0,0,1,.667,2.45v.881H8.728a1.87,1.87,0,0,0,.336,1.119,1.137,1.137,0,0,0,.92.354,2.02,2.02,0,0,0,1.5-.616l.7,1.085a2.32,2.32,0,0,1-.958.74A3.29,3.29,0,0,1,9.871.127ZM8.741-4.088h1.8v-.165a1.92,1.92,0,0,0-.2-.933.706.706,0,0,0-.66-.317.747.747,0,0,0-.682.336A2.316,2.316,0,0,0,8.741-4.088ZM15.2,0H13.4V-9.75h1.8Zm9.782,0H19.538V-1.27l2.5-3.18a6.967,6.967,0,0,0,.7-1.158,2.317,2.317,0,0,0,.225-.955,1.854,1.854,0,0,0-.213-.965.677.677,0,0,0-.613-.349.788.788,0,0,0-.7.406,2.136,2.136,0,0,0-.257,1.143h-1.8a3.428,3.428,0,0,1,.352-1.555,2.631,2.631,0,0,1,.99-1.095,2.711,2.711,0,0,1,1.444-.39,2.6,2.6,0,0,1,1.92.682,2.623,2.623,0,0,1,.682,1.939A3.7,3.7,0,0,1,24.4-5.164a9.738,9.738,0,0,1-1.368,1.977L21.842-1.492h3.142Zm6.5-3.821a5.177,5.177,0,0,1-.7,2.933A2.261,2.261,0,0,1,28.806.127,2.268,2.268,0,0,1,26.835-.86a5,5,0,0,1-.72-2.828V-5.434a5.166,5.166,0,0,1,.692-2.923,2.261,2.261,0,0,1,1.987-1.012,2.267,2.267,0,0,1,1.987,1,5.074,5.074,0,0,1,.7,2.863Zm-1.8-1.873a4.7,4.7,0,0,0-.216-1.638.72.72,0,0,0-.673-.546q-.857,0-.889,2v2.3a4.738,4.738,0,0,0,.219,1.663.728.728,0,0,0,.682.546.7.7,0,0,0,.651-.511,4.458,4.458,0,0,0,.225-1.565Zm8.379,1.873a5.177,5.177,0,0,1-.7,2.933A2.261,2.261,0,0,1,35.382.127,2.268,2.268,0,0,1,33.411-.86a5,5,0,0,1-.72-2.828V-5.434a5.166,5.166,0,0,1,.692-2.923,2.261,2.261,0,0,1,1.987-1.012,2.267,2.267,0,0,1,1.987,1,5.074,5.074,0,0,1,.7,2.863Zm-1.8-1.873a4.7,4.7,0,0,0-.216-1.638.72.72,0,0,0-.673-.546q-.857,0-.889,2v2.3A4.738,4.738,0,0,0,34.7-1.911a.728.728,0,0,0,.682.546.7.7,0,0,0,.651-.511,4.458,4.458,0,0,0,.225-1.565Zm6.494,2.12a1.724,1.724,0,0,1-1.25.584,1.932,1.932,0,0,1-1.66-.847A3.813,3.813,0,0,1,39.235-6.1a4.015,4.015,0,0,1,.343-1.673,2.765,2.765,0,0,1,.955-1.177A2.368,2.368,0,0,1,41.9-9.369a2.236,2.236,0,0,1,1.39.463,2.969,2.969,0,0,1,.946,1.33A5.414,5.414,0,0,1,44.573-5.6v.654A5.863,5.863,0,0,1,43.535-1.26,3.58,3.58,0,0,1,40.593.1h-.184V-1.454h.121A2.146,2.146,0,0,0,42.114-2,2.553,2.553,0,0,0,42.751-3.574ZM41.958-4.4q.521,0,.819-.711v-.825a3.359,3.359,0,0,0-.248-1.425q-.248-.517-.641-.517t-.625.511a2.941,2.941,0,0,0-.238,1.247,2.68,2.68,0,0,0,.248,1.26A.757.757,0,0,0,41.958-4.4Z" transform="translate(-1378.769 -1618.203)" fill="#565656"/>
  </g>
</svg>
