<svg xmlns="http://www.w3.org/2000/svg" width="133.464" height="145" viewBox="0 0 133.464 145">
  <g id="t1-i1" transform="translate(-58.635 -36.478)">
    <path id="Path_101087" data-name="Path 101087" d="M63.638,49.191a7.715,7.715,0,0,1,7.713-7.713H91.925a7.716,7.716,0,0,0-7.717,7.713V61.156H67.493A3.855,3.855,0,0,1,63.638,57.3V49.191Z" transform="translate(-3.311 -3.309)" fill="#f5d380"/>
    <path id="Path_101088" data-name="Path 101088" d="M87.409,41.467h66.86a7.719,7.719,0,0,1,7.717,7.717v99.19H102.839a7.715,7.715,0,0,1-7.713-7.713V49.184a7.719,7.719,0,0,0-7.717-7.717Z" transform="translate(-19.045 -3.302)" fill="#f3f9ff"/>
    <g id="Group_55720" data-name="Group 55720" transform="translate(103.543 44.976)">
      <path id="Path_101089" data-name="Path 101089" d="M216.035,63.3a1.691,1.691,0,0,0-1.691-1.691h-21.2a1.691,1.691,0,0,0-1.691,1.691v62.146h24.58Z" transform="translate(-191.455 -61.613)" fill="#fff1db"/>
    </g>
    <g id="Group_55735" data-name="Group 55735" transform="translate(83.423 105.843)">
      <g id="Group_55728" data-name="Group 55728" transform="translate(0 0)">
        <g id="Group_55727" data-name="Group 55727">
          <g id="Group_55722" data-name="Group 55722" transform="translate(37.954)">
            <g id="Group_55721" data-name="Group 55721">
              <path id="Path_101090" data-name="Path 101090" d="M256.206,243.321a1.691,1.691,0,0,0-1.691-1.691h-8.623a1.691,1.691,0,0,0,0,3.381h8.623A1.691,1.691,0,0,0,256.206,243.321Z" transform="translate(-244.202 -241.63)" fill="#afafaf"/>
            </g>
          </g>
          <g id="Group_55724" data-name="Group 55724">
            <g id="Group_55723" data-name="Group 55723">
              <path id="Path_101091" data-name="Path 101091" d="M164.656,243.321a1.691,1.691,0,0,0-1.691-1.691H133.64a1.691,1.691,0,1,0,0,3.381h29.326A1.691,1.691,0,0,0,164.656,243.321Z" transform="translate(-131.949 -241.63)" fill="#afafaf"/>
            </g>
          </g>
          <g id="Group_55726" data-name="Group 55726" transform="translate(0 7.516)">
            <g id="Group_55725" data-name="Group 55725">
              <path id="Path_101092" data-name="Path 101092" d="M131.949,265.549a1.691,1.691,0,0,0,1.691,1.691h12.308v-3.381H133.64A1.691,1.691,0,0,0,131.949,265.549Z" transform="translate(-131.949 -263.858)" fill="#afafaf"/>
            </g>
          </g>
        </g>
      </g>
      <g id="Group_55734" data-name="Group 55734" transform="translate(0 15.031)">
        <g id="Group_55733" data-name="Group 55733">
          <g id="Group_55730" data-name="Group 55730">
            <g id="Group_55729" data-name="Group 55729">
              <path id="Path_101093" data-name="Path 101093" d="M131.949,287.777a1.691,1.691,0,0,0,1.691,1.69h12.308v-3.381H133.64A1.691,1.691,0,0,0,131.949,287.777Z" transform="translate(-131.949 -286.086)" fill="#afafaf"/>
            </g>
          </g>
          <g id="Group_55732" data-name="Group 55732" transform="translate(0 7.516)">
            <g id="Group_55731" data-name="Group 55731">
              <path id="Path_101094" data-name="Path 101094" d="M131.949,310a1.691,1.691,0,0,0,1.691,1.691h12.308v-3.381H133.64A1.691,1.691,0,0,0,131.949,310Z" transform="translate(-131.949 -308.314)" fill="#afafaf"/>
            </g>
          </g>
        </g>
      </g>
    </g>
    <path id="Path_101095" data-name="Path 101095" d="M134.667,286.674a7.715,7.715,0,0,0,7.713-7.713V258.128a7.711,7.711,0,0,1,5.31-7.328,7.619,7.619,0,0,1,2.407-.385h20.57a7.715,7.715,0,0,0-7.713,7.713v28.546Z" transform="translate(-50.325 -141.602)" fill="#ffd263"/>
    <path id="Path_101096" data-name="Path 101096" d="M248.506,250.415a7.716,7.716,0,0,1,7.717,7.713v63.261H197.075a7.715,7.715,0,0,1-7.713-7.713V258.128a7.716,7.716,0,0,0-7.717-7.713Z" transform="translate(-81.419 -141.602)" fill="#f3f9ff"/>
    <path id="Path_101097" data-name="Path 101097" d="M234.56,328.3a1.691,1.691,0,0,1-1.691-1.691V275.548a1.691,1.691,0,0,1,1.691-1.691h16.928a1.691,1.691,0,0,1,1.691,1.691V326.61a1.691,1.691,0,0,1-1.691,1.691Z" transform="translate(-115.323 -157.119)" fill="#fff1db"/>
    <path id="Path_101098" data-name="Path 101098" d="M181.65,250.415H194.7" transform="translate(-81.422 -141.602)" fill="#daffee"/>
    <path id="Path_101099" data-name="Path 101099" d="M227.807,425.592a7.716,7.716,0,0,0,7.713-7.717V411.7a3.858,3.858,0,0,1,3.859-3.855h59.144a3.858,3.858,0,0,1,3.858,3.855v6.173a7.716,7.716,0,0,1-7.713,7.717Z" transform="translate(-111.973 -245.804)" fill="#ffd263"/>
    <path id="Path_101100" data-name="Path 101100" d="M68.04,36.478a9.416,9.416,0,0,0-9.4,9.405v8.107a5.554,5.554,0,0,0,5.548,5.548H64.8a1.691,1.691,0,0,0,0-3.381h-.617a2.169,2.169,0,0,1-2.167-2.167V45.883a6.031,6.031,0,0,1,6.024-6.024h.328a6.031,6.031,0,0,1,6.024,6.024v91.474a9.416,9.416,0,0,0,9.405,9.405h22.455v2.507a1.691,1.691,0,0,0,3.381,0V116.527a9.361,9.361,0,0,0-2.188-6.024h59.642a6.031,6.031,0,0,1,6.024,6.024v43.826H127.4a5.554,5.554,0,0,0-5.548,5.548v6.172a6.031,6.031,0,0,1-6.024,6.024h-.176a6.031,6.031,0,0,1-6.024-6.024V160.706a1.691,1.691,0,0,0-3.381,0v11.366a9.416,9.416,0,0,0,9.405,9.405h67.036a9.416,9.416,0,0,0,9.405-9.405V165.9a5.554,5.554,0,0,0-5.548-5.548H176.493V116.527a9.416,9.416,0,0,0-9.405-9.4H144.633V45.883a9.416,9.416,0,0,0-9.405-9.405ZM127.4,163.734H186.55a2.169,2.169,0,0,1,2.167,2.167v6.172a6.031,6.031,0,0,1-6.024,6.024H123.05a9.363,9.363,0,0,0,2.188-6.024V165.9A2.169,2.169,0,0,1,127.4,163.734Zm-21.153-20.354H91.559a9.361,9.361,0,0,0,2.188-6.024v-20.83a6.031,6.031,0,0,1,6.024-6.024,1.641,1.641,0,0,0,.229-.023,1.693,1.693,0,0,0,.229.023,6.031,6.031,0,0,1,6.024,6.024v26.854Zm-28.479-97.5a9.363,9.363,0,0,0-2.188-6.024h59.642a6.031,6.031,0,0,1,6.024,6.024v61.239H99.771a9.416,9.416,0,0,0-9.4,9.4v20.83a6.031,6.031,0,0,1-6.024,6.024H83.8a6.031,6.031,0,0,1-6.024-6.024V45.883Z" transform="translate(0)" fill="#12263f"/>
    <g id="Group_55736" data-name="Group 55736" transform="translate(89.23 46.523)">
      <path id="Path_101101" data-name="Path 101101" d="M224.9,110.351a5.343,5.343,0,0,0,5.337,5.337h2.05a5.344,5.344,0,0,0,5.337-5.337,3.245,3.245,0,0,0-1.52-2.745l-3.21-12.028a1.691,1.691,0,0,0-3.267,0l-3.209,12.028a3.246,3.246,0,0,0-1.52,2.745Zm6.362-7.78,1.209,4.532H230.05Zm-2.977,7.913h5.954a1.959,1.959,0,0,1-1.952,1.823h-2.05A1.959,1.959,0,0,1,228.283,110.484Z" transform="translate(-199.276 -84.81)" fill="#12263f"/>
      <path id="Path_101102" data-name="Path 101102" d="M150.642,107.606a3.246,3.246,0,0,0-1.52,2.745,5.344,5.344,0,0,0,5.337,5.337h2.05a5.344,5.344,0,0,0,5.337-5.337,3.245,3.245,0,0,0-1.519-2.745l-3.21-12.028a1.691,1.691,0,0,0-3.267,0l-3.209,12.028Zm4.843-5.035,1.209,4.532h-2.419Zm-2.977,7.913h5.954a1.959,1.959,0,0,1-1.952,1.823h-2.05A1.959,1.959,0,0,1,152.508,110.484Z" transform="translate(-149.122 -84.81)" fill="#12263f"/>
      <path id="Path_101103" data-name="Path 101103" d="M162.21,99.543a1.691,1.691,0,1,0,0,3.381h17.482a1.691,1.691,0,1,0,0-3.381h-7.05V72.951h14.435a1.691,1.691,0,1,0,0-3.381H172.642V67.878a1.691,1.691,0,1,0-3.381,0v1.692H154.826a1.691,1.691,0,1,0,0,3.381h14.435V99.543Z" transform="translate(-151.778 -66.187)" fill="#12263f"/>
    </g>
    <g id="Group_55750" data-name="Group 55750" transform="translate(116.247 121.017)">
      <g id="Group_55749" data-name="Group 55749" transform="translate(0 0)">
        <g id="Group_55738" data-name="Group 55738" transform="translate(37.954)">
          <g id="Group_55737" data-name="Group 55737">
            <path id="Path_101104" data-name="Path 101104" d="M353.285,288.2a1.691,1.691,0,0,0-1.691-1.691h-8.623a1.691,1.691,0,1,0,0,3.381h8.623A1.691,1.691,0,0,0,353.285,288.2Z" transform="translate(-341.281 -286.508)" fill="#afafaf"/>
          </g>
        </g>
        <g id="Group_55740" data-name="Group 55740">
          <g id="Group_55739" data-name="Group 55739">
            <path id="Path_101105" data-name="Path 101105" d="M260.044,289.889a1.691,1.691,0,0,0,0-3.381H230.719a1.691,1.691,0,1,0,0,3.381Z" transform="translate(-229.028 -286.508)" fill="#afafaf"/>
          </g>
        </g>
        <g id="Group_55742" data-name="Group 55742" transform="translate(43.13 7.516)">
          <g id="Group_55741" data-name="Group 55741">
            <path id="Path_101106" data-name="Path 101106" d="M363.417,310.428a1.691,1.691,0,0,0-1.691-1.691h-3.448a1.691,1.691,0,1,0,0,3.381h3.448A1.691,1.691,0,0,0,363.417,310.428Z" transform="translate(-356.588 -308.737)" fill="#afafaf"/>
          </g>
        </g>
        <g id="Group_55744" data-name="Group 55744" transform="translate(0 7.516)">
          <g id="Group_55743" data-name="Group 55743">
            <path id="Path_101107" data-name="Path 101107" d="M266.91,310.428a1.691,1.691,0,0,0-1.69-1.691h-34.5a1.691,1.691,0,1,0,0,3.381h34.5A1.691,1.691,0,0,0,266.91,310.428Z" transform="translate(-229.028 -308.737)" fill="#afafaf"/>
          </g>
        </g>
        <g id="Group_55746" data-name="Group 55746" transform="translate(0 15.032)">
          <g id="Group_55745" data-name="Group 55745">
            <path id="Path_101108" data-name="Path 101108" d="M277.3,334.346a1.691,1.691,0,0,0,0-3.381H230.72a1.691,1.691,0,1,0,0,3.381Z" transform="translate(-229.029 -330.965)" fill="#afafaf"/>
          </g>
        </g>
        <g id="Group_55748" data-name="Group 55748" transform="translate(0 22.547)">
          <g id="Group_55747" data-name="Group 55747">
            <path id="Path_101109" data-name="Path 101109" d="M286.746,354.884a1.691,1.691,0,0,0,1.69,1.691H315.5a1.691,1.691,0,0,0,1.682-1.857,1.74,1.74,0,0,0-1.755-1.524h-26.99A1.69,1.69,0,0,0,286.746,354.884Z" transform="translate(-267.231 -353.193)" fill="#afafaf"/>
            <path id="Path_101110" data-name="Path 101110" d="M229.037,354.717a1.691,1.691,0,0,0,1.682,1.857h11.233a1.691,1.691,0,0,0,0-3.381h-11.16A1.739,1.739,0,0,0,229.037,354.717Z" transform="translate(-229.029 -353.193)" fill="#afafaf"/>
          </g>
        </g>
      </g>
    </g>
    <g id="Group_55760" data-name="Group 55760" transform="translate(83.423 90.811)">
      <g id="Group_55759" data-name="Group 55759" transform="translate(0)">
        <g id="Group_55752" data-name="Group 55752" transform="translate(37.954)">
          <g id="Group_55751" data-name="Group 55751">
            <path id="Path_101111" data-name="Path 101111" d="M256.206,198.865a1.691,1.691,0,0,0-1.691-1.691h-8.623a1.691,1.691,0,0,0,0,3.381h8.623A1.691,1.691,0,0,0,256.206,198.865Z" transform="translate(-244.202 -197.174)" fill="#ff6b00"/>
          </g>
        </g>
        <g id="Group_55754" data-name="Group 55754">
          <g id="Group_55753" data-name="Group 55753">
            <path id="Path_101112" data-name="Path 101112" d="M164.656,198.865a1.691,1.691,0,0,0-1.691-1.691H133.64a1.691,1.691,0,0,0,0,3.381h29.326A1.691,1.691,0,0,0,164.656,198.865Z" transform="translate(-131.949 -197.174)" fill="#ff6b00"/>
          </g>
        </g>
        <g id="Group_55756" data-name="Group 55756" transform="translate(43.13 7.516)">
          <g id="Group_55755" data-name="Group 55755">
            <path id="Path_101113" data-name="Path 101113" d="M266.338,221.093a1.691,1.691,0,0,0-1.691-1.691H261.2a1.691,1.691,0,0,0,0,3.381h3.448A1.691,1.691,0,0,0,266.338,221.093Z" transform="translate(-259.509 -219.402)" fill="#ff6b00"/>
          </g>
        </g>
        <g id="Group_55758" data-name="Group 55758" transform="translate(0 7.516)">
          <g id="Group_55757" data-name="Group 55757">
            <path id="Path_101114" data-name="Path 101114" d="M169.831,221.093a1.691,1.691,0,0,0-1.691-1.691h-34.5a1.691,1.691,0,0,0,0,3.381h34.5A1.691,1.691,0,0,0,169.831,221.093Z" transform="translate(-131.949 -219.402)" fill="#ff6b00"/>
          </g>
        </g>
      </g>
    </g>
    <g id="Group_55764" data-name="Group 55764" transform="translate(116.248 151.079)">
      <g id="Group_55763" data-name="Group 55763" transform="translate(0)">
        <g id="Group_55762" data-name="Group 55762">
          <g id="Group_55761" data-name="Group 55761">
            <path id="Path_101115" data-name="Path 101115" d="M277.3,378.8a1.691,1.691,0,0,0,0-3.381H230.72a1.691,1.691,0,1,0,0,3.381Z" transform="translate(-229.029 -375.421)" fill="#ff6b00"/>
          </g>
        </g>
      </g>
    </g>
  </g>
</svg>
