<svg xmlns="http://www.w3.org/2000/svg" width="49.023" height="50" viewBox="0 0 49.023 50">
  <g id="t1-ic3" transform="translate(-4.991)">
    <path id="Path_157163" data-name="Path 157163" d="M13.119,0H34.05a1.782,1.782,0,0,1,.88.532q4.824,4.115,9.651,8.228a1.146,1.146,0,0,1,.35,1q-.007,8.555,0,17.111,3.7,2,7.409,4a3.248,3.248,0,0,1,1.338,1.1,3.908,3.908,0,0,1,.335,2.01,19.5,19.5,0,0,1-2.813,9.3A16.746,16.746,0,0,1,45.406,49.5a3.608,3.608,0,0,1-1.336.5h-36a3.512,3.512,0,0,1-1.945-.843,3.367,3.367,0,0,1-1.136-2.576q0-18.948,0-37.9A3.366,3.366,0,0,1,7.007,5.624a8.134,8.134,0,0,1,3.063-.279c.009-.712-.009-1.423.009-2.134a3.344,3.344,0,0,1,1.289-2.5A3.586,3.586,0,0,1,13.119,0m-.275,2.1a1.4,1.4,0,0,0-.8,1.307q0,18.9,0,37.809a1.394,1.394,0,0,0,1.346,1.462c1.631.013,3.263,0,4.894.008a.984.984,0,1,1-.012,1.967q-2.433.006-4.866,0a3.362,3.362,0,0,1-3.331-3.444q0-16.948,0-33.9c-.62.008-1.242-.019-1.861.014A1.4,1.4,0,0,0,6.962,8.777q0,18.905,0,37.812a1.4,1.4,0,0,0,.8,1.31,2.629,2.629,0,0,0,1.137.129H40.452a17.5,17.5,0,0,1-2.9-3.363c-3.3-.021-6.607,0-9.911-.009a1.793,1.793,0,0,1-1.181-.214.989.989,0,0,1-.084-1.472,1.208,1.208,0,0,1,.969-.289q4.5,0,9,0a19.092,19.092,0,0,1-2.477-8.891,3.135,3.135,0,0,1,.5-2.061,5.908,5.908,0,0,1,1.7-1.137q3.437-1.856,6.874-3.708c.016-5.464,0-10.928.006-16.391-2.043,0-4.086,0-6.129,0a3.9,3.9,0,0,1-3.869-3.846c-.008-1.558,0-3.115,0-4.673q-9.538,0-19.074,0a2.331,2.331,0,0,0-1.037.129M34.927,3.12c0,1.2-.011,2.409.006,3.613a1.925,1.925,0,0,0,1.9,1.787q2.218,0,4.437,0-3.167-2.7-6.338-5.4m1.587,29.475a3.436,3.436,0,0,0-.605.374,2.461,2.461,0,0,0-.07.729,16.689,16.689,0,0,0,1.9,7.391,19.241,19.241,0,0,0,3.461,4.93,9.784,9.784,0,0,0,2.744,2.01,8.885,8.885,0,0,0,2.16-1.453,17.522,17.522,0,0,0,3.652-4.741,16.718,16.718,0,0,0,2.274-8.6c.033-.315-.293-.429-.514-.56q-3.784-2.045-7.568-4.086Q40.23,30.59,36.513,32.595Z" fill="#ffb600"/>
    <path id="Path_157164" data-name="Path 157164" d="M119.306,80.124c4-.034,8,0,11.994-.015a1.092,1.092,0,0,1,.913.344.988.988,0,0,1-.026,1.317,1.028,1.028,0,0,1-.8.312q-5.956,0-11.912,0a.983.983,0,0,1-.171-1.957Z" transform="translate(-102.377 -72.285)" fill="#ffb600"/>
    <path id="Path_157165" data-name="Path 157165" d="M119.028,130.62a1.269,1.269,0,0,1,.546-.091q10.354,0,20.708,0a.984.984,0,0,1,.524,1.838,1.788,1.788,0,0,1-.92.134q-10.206-.006-20.409,0a.985.985,0,0,1-.449-1.88Z" transform="translate(-102.378 -117.782)" fill="#ffb600"/>
    <path id="Path_157166" data-name="Path 157166" d="M119.12,180.907a1.911,1.911,0,0,1,.558-.057c2.31.006,4.619,0,6.929,0a.984.984,0,1,1,0,1.967q-3.567.007-7.132,0a.984.984,0,0,1-.356-1.916Z" transform="translate(-102.376 -163.189)" fill="#ffb600"/>
    <path id="Path_157167" data-name="Path 157167" d="M263.294,180.913a1.751,1.751,0,0,1,.548-.062c2.183,0,4.365,0,6.547,0a.985.985,0,1,1,0,1.969q-3.372,0-6.743,0a.983.983,0,0,1-.354-1.909Z" transform="translate(-232.486 -163.189)" fill="#ffb600"/>
    <path id="Path_157168" data-name="Path 157168" d="M119.226,231.268a5.02,5.02,0,0,1,.747-.024q10.156,0,20.312,0a.983.983,0,1,1,0,1.964q-10.4,0-20.794,0a.983.983,0,0,1-.263-1.942Z" transform="translate(-102.381 -208.659)" fill="#ffb600"/>
    <path id="Path_157169" data-name="Path 157169" d="M119.02,281.618a5.5,5.5,0,0,1,1.532-.092c.545.021,1.237-.133,1.615.375a.988.988,0,0,1-.578,1.572c-.7.055-1.409.015-2.112.022a.985.985,0,0,1-.457-1.878Z" transform="translate(-102.377 -254.026)" fill="#ffb600"/>
    <path id="Path_157170" data-name="Path 157170" d="M189.544,281.654a1.8,1.8,0,0,1,.657-.074c2.6.008,5.205-.006,7.808.007a.984.984,0,0,1,.933,1.171,1,1,0,0,1-1.014.795q-3.965.006-7.93,0a1.01,1.01,0,0,1-1.033-.714A.987.987,0,0,1,189.544,281.654Z" transform="translate(-165.971 -254.082)" fill="#ffb600"/>
    <path id="Path_157171" data-name="Path 157171" d="M119.123,331.972a2.711,2.711,0,0,1,.738-.054q5.763.006,11.525,0a.987.987,0,1,1,0,1.97q-5.959,0-11.917,0a.984.984,0,0,1-.351-1.919Z" transform="translate(-102.372 -299.504)" fill="#ffb600"/>
    <path id="Path_157172" data-name="Path 157172" d="M369.03,356.188a.982.982,0,0,1,1.391,1.388q-2.021,2.084-4.049,4.162a1,1,0,0,1-1.4.1q-1.015-.939-2.019-1.893a.98.98,0,0,1,1.3-1.464c.456.4.885.83,1.332,1.239C366.739,358.543,367.879,357.359,369.03,356.188Z" transform="translate(-322.74 -321.144)" fill="#ffb600"/>
    <path id="Path_157173" data-name="Path 157173" d="M176.872,437.074a.983.983,0,1,1-.429,1.619A.99.99,0,0,1,176.872,437.074Z" transform="translate(-154.465 -394.347)" fill="#ffb600"/>
  </g>
</svg>
