<svg xmlns="http://www.w3.org/2000/svg" width="42.257" height="50" viewBox="0 0 42.257 50">
  <g id="t2-ic2" transform="translate(-39.641)">
    <path id="Path_157148" data-name="Path 157148" d="M40.311,0H72.152a.855.855,0,0,1,.537.287,1.116,1.116,0,0,1,.162.687q-.006,2.974,0,5.946c2.744,0,5.488,0,8.232,0a.754.754,0,0,1,.808.8c0,2.18.012,4.36,0,6.54a.728.728,0,0,1-.89.727.767.767,0,0,1-.567-.825c0-1.926,0-3.852,0-5.776q-3.79,0-7.578,0,0,13.772,0,27.547a.855.855,0,0,1-.246.692q-3.075,3.082-6.154,6.158a.849.849,0,0,1-.7.294q-7.8,0-15.6,0,0,2.726,0,5.453,12,.006,24,0c0-1.824-.006-3.649,0-5.474a.749.749,0,0,1,.762-.787c1.833-.017,3.667,0,5.5-.007q0-12.248,0-24.5c.01-.35-.056-.76.2-1.044a.73.73,0,0,1,1.084.017.931.931,0,0,1,.184.639q0,12.746,0,25.491a.864.864,0,0,1-.287.719Q78.749,46.446,75.9,49.3a2.99,2.99,0,0,1-.832.7H49.386a.765.765,0,0,1-.691-.787c-.011-2.045,0-4.09,0-6.134-2.744,0-5.489,0-8.233,0a.753.753,0,0,1-.807-.789c-.011-4.43,0-8.858,0-13.287a.779.779,0,0,1,.613-.874.744.744,0,0,1,.849.786c.008,4.233,0,8.468,0,12.7,8,0,16,.012,24.006-.008-.006-1.759,0-3.519,0-5.278a.973.973,0,0,1,.241-.777,1.086,1.086,0,0,1,.791-.206q2.619.007,5.238,0,0-16.938,0-33.878-15.136,0-30.273,0,0,12.157,0,24.315a.764.764,0,0,1-.657.848.752.752,0,0,1-.806-.845q0-12.11,0-24.221A4.98,4.98,0,0,1,39.695.5a.771.771,0,0,1,.616-.5M66.584,36.812q0,1.879,0,3.759c1.257-1.249,2.506-2.507,3.76-3.76H66.584m9.045,6.922q0,1.881,0,3.762,1.884-1.879,3.761-3.763Q77.509,43.731,75.629,43.733Z" fill="#ffb600"/>
    <path id="Path_157149" data-name="Path 157149" d="M103.819,56.063a10.763,10.763,0,1,1-9.361,12.314A10.654,10.654,0,0,1,96.646,60.1a.729.729,0,0,1,1.2.266.867.867,0,0,1-.207.84A9.188,9.188,0,0,0,95.9,65.346a9.3,9.3,0,1,0,10.611-7.779A9.221,9.221,0,0,0,99.968,59a1.287,1.287,0,0,1-.688.293.729.729,0,0,1-.716-.77.743.743,0,0,1,.328-.566A10.663,10.663,0,0,1,103.819,56.063Z" transform="translate(-49.348 -50.519)" fill="#ffb600"/>
    <path id="Path_157150" data-name="Path 157150" d="M149.83,118.216a1.988,1.988,0,0,1,2.893,1.936,2.081,2.081,0,0,1-.68,1.352c-1.892,1.884-3.77,3.78-5.667,5.657a2,2,0,0,1-2.727.009c-.953-.93-1.887-1.882-2.832-2.819a2.07,2.07,0,0,1-.664-1.476,1.986,1.986,0,0,1,3.329-1.488c.521.49,1.013,1.012,1.527,1.51l3.923-3.923a3.8,3.8,0,0,1,.9-.757m.7,1.29a3.316,3.316,0,0,0-.56.507l-4.349,4.349a.821.821,0,0,1-.7.293,1.062,1.062,0,0,1-.615-.38c-.55-.557-1.106-1.106-1.657-1.662a.761.761,0,0,0-.481-.282.527.527,0,0,0-.552.544c0,.227.188.383.332.535.9.888,1.785,1.8,2.693,2.68a.547.547,0,0,0,.8-.057q2.782-2.777,5.56-5.559a.674.674,0,0,0,.265-.524A.527.527,0,0,0,150.528,119.506Z" transform="translate(-90.696 -106.472)" fill="#ffb600"/>
    <path id="Path_157151" data-name="Path 157151" d="M111.008,301.4a7.141,7.141,0,0,1,.926-.024q8.646,0,17.291,0a.868.868,0,0,1,.8.324.732.732,0,0,1-.259,1.054,2.036,2.036,0,0,1-.838.094q-8.839-.007-17.678,0a.773.773,0,0,1-.776-.446A.725.725,0,0,1,111.008,301.4Z" transform="translate(-63.863 -271.94)" fill="#ffb600"/>
    <path id="Path_157152" data-name="Path 157152" d="M110.9,336.787a1.51,1.51,0,0,1,.459-.057c4.1,0,8.208,0,12.312,0a.735.735,0,1,1,.006,1.461q-6.211.006-12.421,0a.774.774,0,0,1-.743-.4A.73.73,0,0,1,110.9,336.787Z" transform="translate(-63.88 -303.846)" fill="#ffb600"/>
  </g>
</svg>
