<svg xmlns="http://www.w3.org/2000/svg" width="190" height="85" viewBox="0 0 190 85">
  <g id="t2-i5" transform="translate(-180 -2209)">
    <g id="Group_118112" data-name="Group 118112">
      <g id="Group_118109" data-name="Group 118109">
        <path id="Path_178448" data-name="Path 178448" d="M791.013-1163H941.987c-.282-39.809-33.964-72-75.487-72S791.295-1202.809,791.013-1163Z" transform="translate(-591.5 3457)" fill="#ff6b00" opacity="0.15"/>
        <circle id="Ellipse_5703" data-name="Ellipse 5703" cx="11.5" cy="11.5" r="11.5" transform="translate(180 2209)" fill="#ffe9d9"/>
        <circle id="Ellipse_5704" data-name="Ellipse 5704" cx="7.5" cy="7.5" r="7.5" transform="translate(355 2241)" fill="#ffe9d9"/>
      </g>
      <g id="Group_118108" data-name="Group 118108" transform="translate(179.713 2131.765)">
        <path id="Path_179513" data-name="Path 179513" d="M348.216,103.723q9.524-.012,19.047-.005c0,1.857-.011,3.712,0,5.569q-9.524,0-19.045,0C348.218,107.435,348.214,105.578,348.216,103.723Z" transform="translate(-234.478 -14.693)" fill="#ff6b00"/>
        <path id="Path_179514" data-name="Path 179514" d="M345.643,378.865q10.051-.014,20.1-.006c0,2.16-.009,4.316-.007,6.476q-10.047,0-20.094,0C345.643,383.178,345.648,381.022,345.643,378.865Z" transform="translate(-232.434 -233.441)" fill="#ff6b00"/>
        <path id="Path_179515" data-name="Path 179515" d="M68.391,378.868c6.687-.015,13.376-.006,20.063-.009.007,2.16-.012,4.32-.007,6.479q-10.027,0-20.054,0Q68.39,382.1,68.391,378.868Z" transform="translate(-12.008 -233.442)" fill="#ff6b00"/>
        <path id="Path_179516" data-name="Path 179516" d="M68.393,97.943q10.031-.028,20.061-.011c.007,2.648-.014,5.3,0,7.944-6.687-.011-13.372,0-20.059,0Q68.394,101.905,68.393,97.943Z" transform="translate(-12.008 -10.093)" fill="#ff6b00"/>
        <path id="Path_179517" data-name="Path 179517" d="M68.393,97.943c4.887-.019,9.773-.011,14.66-.011.005,2.648-.01,5.3,0,7.944-4.887-.011-9.772,0-14.658,0Q68.393,101.905,68.393,97.943Z" transform="translate(-12.008 -10.093)" fill="#ff974d"/>
        <path id="Path_179518" data-name="Path 179518" d="M68.393,375.295c4.711-.019,9.422-.011,14.133-.011,0,2.648-.01,5.3,0,7.944-4.711-.011-9.42,0-14.131,0Q68.393,379.257,68.393,375.295Z" transform="translate(-12.008 -230.598)" fill="#ff974d"/>
        <path id="Path_179519" data-name="Path 179519" d="M345.645,375.295c4.711-.019,9.422-.011,14.133-.011.005,2.648-.01,5.3,0,7.944-4.711-.011-9.42,0-14.131,0Q345.645,379.257,345.645,375.295Z" transform="translate(-226.465 -230.598)" fill="#f5a770"/>
        <path id="Path_179520" data-name="Path 179520" d="M345.645,97.942c4.711-.019,9.422-.011,14.133-.011.005,2.648-.01,5.3,0,7.944-4.711-.011-9.42,0-14.131,0Q345.645,101.9,345.645,97.942Z" transform="translate(-226.465 -10.092)" fill="#f5a770"/>
        <g id="_ffd871ff" data-name="#ffd871ff" transform="translate(75.937 112.081)">
          <path id="Path_179521" data-name="Path 179521" d="M163.8,216.225q18.9-.023,37.8-.008,0,8.149,0,16.3H163.8Q163.8,224.372,163.8,216.225Z" transform="translate(-163.796 -216.216)" fill="#ffb600"/>
        </g>
        <g id="_ffd871ff-2" data-name="#ffd871ff" transform="translate(76.757 112.697)">
          <path id="Path_179522" data-name="Path 179522" d="M167.8,219.224q15.671-.016,31.343-.006,0,3.228,0,6.457a5.27,5.27,0,0,1-5.271,5.269H167.8Q167.8,225.085,167.8,219.224Z" transform="translate(-167.798 -219.218)" fill="#ffd059"/>
        </g>
        <path id="Path_179523" data-name="Path 179523" d="M110.86,154.643c.994.885,2.431.494,3.638.57,0,0,14.315,0,19.291.008a2.293,2.293,0,0,0,2.591-2.6c-.006-2.6-.01-5.2,0-7.795a2.723,2.723,0,0,0-.574-2.007,2.318,2.318,0,0,0-1.826-.724c-5.042-.012-19.488.006-19.488.006-1.234.068-2.74-.334-3.714.644-.937.931-.576,2.369-.637,3.55a15.407,15.407,0,0,1-10.357-6.393A15.7,15.7,0,0,1,97,131.185c5.766-.045,11.533,0,17.3-.018a2.29,2.29,0,0,0,2.015-.955,3.743,3.743,0,0,0,.394-2.191c-.021-5.468.006-10.935-.01-16.4a2.192,2.192,0,0,0-2.187-2.3c-5.837-.043-11.675.02-17.512-.031a15.571,15.571,0,0,1,3.572-9.748,15.366,15.366,0,0,1,9.574-5.368c.061,1.181-.3,2.619.637,3.55.972.98,2.48.578,3.714.646l19.287.01a2.625,2.625,0,0,0,1.808-.519,2.4,2.4,0,0,0,.789-2.007c-.012-2.8.012-5.591-.01-8.387a2.189,2.189,0,0,0-2.2-2.2c-5.1-.021-19.668-.006-19.668-.006-1.246.078-2.773-.34-3.747.674-.959,1.033-.51,2.564-.621,3.833a19.8,19.8,0,0,0-15.294,10.562,20.632,20.632,0,0,0-3.322-4.638,19.7,19.7,0,0,0-11.974-5.925c-.107-1.269.338-2.8-.617-3.829-.976-1.015-2.5-.6-3.749-.674,0,0-14.452-.006-19.5,0a2.293,2.293,0,0,0-1.929.863,2.952,2.952,0,0,0-.459,1.929q.018,3.8,0,7.6a2.8,2.8,0,0,0,.486,1.9,2.287,2.287,0,0,0,1.91.828c5.042.012,19.492,0,19.492,0,1.23-.068,2.73.33,3.706-.635.945-.931.584-2.378.648-3.562a15.366,15.366,0,0,1,10.205,6.188,15.65,15.65,0,0,1,2.935,8.934c-5.153.031-10.306.006-15.456.012a14.612,14.612,0,0,0-2.662.1,2.184,2.184,0,0,0-1.576,2.2q-.009,8.624,0,17.252a2.193,2.193,0,0,0,2.193,2.3c5.833.041,11.669-.016,17.5.029a15.614,15.614,0,0,1-3.3,9.416,15.362,15.362,0,0,1-9.84,5.7c-.059-1.189.3-2.64-.654-3.566-.978-.957-2.472-.56-3.7-.627,0,0-14.583-.037-19.7.006a2.16,2.16,0,0,0-2.169,2.089c-.047,2.667.008,5.335-.025,8a3.262,3.262,0,0,0,.48,2.173,2.314,2.314,0,0,0,1.914.84c5.042,0,19.492,0,19.492,0,1.248-.076,2.775.336,3.749-.68.951-1.031.51-2.558.617-3.825a20.436,20.436,0,0,0,4.979-1.238,19.841,19.841,0,0,0,10.318-9.328,20.339,20.339,0,0,0,3.423,4.741,19.8,19.8,0,0,0,11.876,5.827C110.238,152.015,109.767,153.643,110.86,154.643Zm21.146-8.172c0,1.457-.008,2.913-.006,4.37q-8.741,0-17.481,0c0-1.457,0-2.913,0-4.368Q123.26,146.466,132.006,146.471ZM114.518,89.629q8.744-.009,17.487,0c0,1.457-.01,2.913,0,4.37q-8.744,0-17.485,0C114.52,92.541,114.516,91.084,114.518,89.629ZM75.155,94q-8.744-.009-17.485,0c0-1.455,0-2.91,0-4.364q8.744-.015,17.487-.006C75.165,91.082,75.147,92.539,75.155,94Zm0,56.846q-8.741,0-17.481,0c0-1.455,0-2.908,0-4.364q8.744-.015,17.489-.006C75.165,147.928,75.149,149.385,75.153,150.843Zm2.193-24.054q0-6.552,0-13.105,17.49-.018,34.981-.006,0,6.555,0,13.111Z" transform="translate(0 0)"/>
      </g>
    </g>
  </g>
</svg>
