<svg xmlns="http://www.w3.org/2000/svg" xmlns:xlink="http://www.w3.org/1999/xlink" width="610" height="450" viewBox="0 0 610 450">
  <defs>
    <radialGradient id="radial-gradient" cx="0.5" cy="0.5" r="0.5" gradientUnits="objectBoundingBox">
      <stop offset="0"/>
      <stop offset="0.621"/>
      <stop offset="0.963" stop-color="#fff"/>
      <stop offset="1" stop-color="#fff"/>
    </radialGradient>
  </defs>
  <g id="t5-i2" transform="translate(-5653 10796)">
    <path id="Trazado_157088" data-name="Trazado 157088" d="M-3949.734-2089.107h610v450h-610Z" transform="translate(9602.734 -8706.893)" fill="none"/>
    <path id="Path_179676" data-name="Path 179676" d="M-3410.968-1851.454l-3.253-18.321a4.819,4.819,0,0,0-4.939-3.973l-10.308.414a4.859,4.859,0,0,1-4.6-2.758,72.159,72.159,0,0,0-10.012-15.656,4.79,4.79,0,0,1-.565-5.261l4.734-9.225a4.822,4.822,0,0,0-1.529-6.153l-15.254-10.654a4.821,4.821,0,0,0-6.3.683l-7.032,7.621a4.789,4.789,0,0,1-5.133,1.281,72.169,72.169,0,0,0-18.146-4.01,4.859,4.859,0,0,1-4.173-3.37l-3.16-9.82a4.82,4.82,0,0,0-5.431-3.269l-18.321,3.253a4.819,4.819,0,0,0-3.973,4.939l.413,10.308a4.858,4.858,0,0,1-2.757,4.6,72.158,72.158,0,0,0-15.656,10.012,4.79,4.79,0,0,1-5.261.565l-9.226-4.734a4.82,4.82,0,0,0-6.152,1.529l-10.654,15.255a4.82,4.82,0,0,0,.683,6.3l7.621,7.032a4.79,4.79,0,0,1,1.281,5.133,72.122,72.122,0,0,0-4.01,18.146,4.858,4.858,0,0,1-3.37,4.173l-9.82,3.16a4.819,4.819,0,0,0-3.269,5.431l3.253,18.321a4.821,4.821,0,0,0,4.939,3.974l10.308-.414a4.858,4.858,0,0,1,4.6,2.757,72.2,72.2,0,0,0,10.012,15.657,4.788,4.788,0,0,1,.565,5.26l-4.734,9.226a4.821,4.821,0,0,0,1.529,6.152l15.255,10.654a4.82,4.82,0,0,0,6.3-.683l7.032-7.621a4.789,4.789,0,0,1,5.133-1.281,72.093,72.093,0,0,0,18.146,4.01,4.86,4.86,0,0,1,4.173,3.37l3.16,9.82a4.82,4.82,0,0,0,5.431,3.27l18.321-3.254a4.819,4.819,0,0,0,3.973-4.939l-.413-10.308a4.857,4.857,0,0,1,2.757-4.6,72.163,72.163,0,0,0,15.656-10.012,4.789,4.789,0,0,1,5.261-.565l9.226,4.734a4.82,4.82,0,0,0,6.152-1.528l10.654-15.255a4.82,4.82,0,0,0-.683-6.3l-7.621-7.033a4.789,4.789,0,0,1-1.281-5.133,72.167,72.167,0,0,0,4.01-18.146,4.861,4.861,0,0,1,3.37-4.173l9.82-3.16A4.82,4.82,0,0,0-3410.968-1851.454Z" transform="translate(9602.617 -8706)" fill="#5a189a"/>
    <path id="Path_180237" data-name="Path 180237" d="M-128.729-4.026a4.277,4.277,0,0,1-1.44,3.071A5.058,5.058,0,0,1-133.593.166,4.548,4.548,0,0,1-137.249-1.4a6.416,6.416,0,0,1-1.332-4.3v-.739a7.245,7.245,0,0,1,.614-3.071,4.6,4.6,0,0,1,1.756-2.038,4.918,4.918,0,0,1,2.652-.71,4.927,4.927,0,0,1,3.37,1.121,4.6,4.6,0,0,1,1.478,3.146h-2.49a2.524,2.524,0,0,0-.652-1.7,2.413,2.413,0,0,0-1.706-.527,2.116,2.116,0,0,0-1.864.892,5,5,0,0,0-.635,2.768v.913a5.352,5.352,0,0,0,.594,2.864,2.077,2.077,0,0,0,1.872.9,2.458,2.458,0,0,0,1.722-.527,2.381,2.381,0,0,0,.652-1.631Zm1.1-.548a5.326,5.326,0,0,1,.515-2.382,3.768,3.768,0,0,1,1.482-1.619,4.323,4.323,0,0,1,2.245-.573,4.09,4.09,0,0,1,2.968,1.112,4.464,4.464,0,0,1,1.282,3.021l.017.614a4.694,4.694,0,0,1-1.154,3.316,4.011,4.011,0,0,1-3.1,1.249,4.031,4.031,0,0,1-3.1-1.245,4.777,4.777,0,0,1-1.158-3.387Zm2.4.17a3.357,3.357,0,0,0,.481,1.958,1.588,1.588,0,0,0,1.378.678A1.592,1.592,0,0,0-122-2.437a3.674,3.674,0,0,0,.49-2.141A3.324,3.324,0,0,0-122-6.523a1.592,1.592,0,0,0-1.378-.69,1.566,1.566,0,0,0-1.361.686A3.736,3.736,0,0,0-125.226-4.4Zm9.836-4.578.075,1a3.156,3.156,0,0,1,2.582-1.17,2.4,2.4,0,0,1,2.382,1.37,3.084,3.084,0,0,1,2.7-1.37,2.679,2.679,0,0,1,2.175.851,3.911,3.911,0,0,1,.714,2.561V0h-2.407V-5.741a1.717,1.717,0,0,0-.3-1.119,1.322,1.322,0,0,0-1.054-.354,1.5,1.5,0,0,0-1.494,1.032L-110.01,0h-2.4V-5.732a1.7,1.7,0,0,0-.307-1.132,1.335,1.335,0,0,0-1.046-.349,1.554,1.554,0,0,0-1.478.849V0h-2.4V-8.981Zm20.553,4.574a5.387,5.387,0,0,1-.942,3.324A3.021,3.021,0,0,1-98.323.166a2.8,2.8,0,0,1-2.2-.946V3.453h-2.4V-8.981h2.225l.083.88a2.819,2.819,0,0,1,2.274-1.046,3.041,3.041,0,0,1,2.582,1.229,5.532,5.532,0,0,1,.921,3.387Zm-2.4-.183a3.554,3.554,0,0,0-.444-1.94,1.445,1.445,0,0,0-1.291-.683,1.57,1.57,0,0,0-1.552.866v3.689a1.6,1.6,0,0,0,1.569.891Q-97.235-1.768-97.235-4.591Zm3.511.017a5.326,5.326,0,0,1,.515-2.382,3.768,3.768,0,0,1,1.482-1.619,4.323,4.323,0,0,1,2.245-.573,4.09,4.09,0,0,1,2.968,1.112,4.464,4.464,0,0,1,1.282,3.021l.017.614A4.694,4.694,0,0,1-86.37-1.083a4.011,4.011,0,0,1-3.1,1.249,4.031,4.031,0,0,1-3.1-1.245,4.777,4.777,0,0,1-1.158-3.387Zm2.4.17a3.357,3.357,0,0,0,.481,1.958,1.588,1.588,0,0,0,1.378.678A1.592,1.592,0,0,0-88.1-2.437a3.674,3.674,0,0,0,.49-2.141,3.324,3.324,0,0,0-.49-1.945,1.592,1.592,0,0,0-1.378-.69,1.566,1.566,0,0,0-1.361.686A3.736,3.736,0,0,0-91.325-4.4Zm9.795-4.578.075,1.038a3.136,3.136,0,0,1,2.582-1.2,2.606,2.606,0,0,1,2.125.838A3.912,3.912,0,0,1-76.035-5.8V0h-2.4V-5.757a1.562,1.562,0,0,0-.332-1.111,1.484,1.484,0,0,0-1.1-.345,1.65,1.65,0,0,0-1.519.865V0h-2.4V-8.981ZM-70.083.166A4.409,4.409,0,0,1-73.3-1.046a4.308,4.308,0,0,1-1.241-3.229v-.232a5.426,5.426,0,0,1,.523-2.42,3.838,3.838,0,0,1,1.482-1.644,4.159,4.159,0,0,1,2.187-.577,3.727,3.727,0,0,1,2.9,1.162,4.722,4.722,0,0,1,1.058,3.3v.979h-5.719a2.229,2.229,0,0,0,.7,1.411,2.12,2.12,0,0,0,1.482.531,2.589,2.589,0,0,0,2.167-1l1.179,1.32A3.6,3.6,0,0,1-68.042-.261,4.793,4.793,0,0,1-70.083.166Zm-.274-7.379a1.5,1.5,0,0,0-1.158.484,2.5,2.5,0,0,0-.569,1.384h3.337v-.192a1.786,1.786,0,0,0-.432-1.238A1.547,1.547,0,0,0-70.357-7.213Zm7.537-1.768.075,1.038a3.136,3.136,0,0,1,2.582-1.2,2.606,2.606,0,0,1,2.125.838A3.912,3.912,0,0,1-57.325-5.8V0h-2.4V-5.757a1.562,1.562,0,0,0-.332-1.111,1.484,1.484,0,0,0-1.1-.345,1.65,1.65,0,0,0-1.519.865V0h-2.4V-8.981Zm10.185-2.208v2.208H-51.1v1.76h-1.536v4.482a1.07,1.07,0,0,0,.191.714.959.959,0,0,0,.73.216,3.826,3.826,0,0,0,.706-.058V-.05a4.939,4.939,0,0,1-1.453.216,2.29,2.29,0,0,1-2.573-2.548V-7.222h-1.312v-1.76h1.312v-2.208ZM-45.629.166a4.409,4.409,0,0,1-3.217-1.212,4.308,4.308,0,0,1-1.241-3.229v-.232a5.426,5.426,0,0,1,.523-2.42,3.838,3.838,0,0,1,1.482-1.644A4.159,4.159,0,0,1-45.9-9.147a3.727,3.727,0,0,1,2.9,1.162,4.722,4.722,0,0,1,1.058,3.3v.979h-5.719a2.229,2.229,0,0,0,.7,1.411,2.12,2.12,0,0,0,1.482.531,2.589,2.589,0,0,0,2.167-1l1.179,1.32A3.6,3.6,0,0,1-43.587-.261,4.793,4.793,0,0,1-45.629.166ZM-45.9-7.213a1.5,1.5,0,0,0-1.158.484,2.5,2.5,0,0,0-.569,1.384h3.337v-.192a1.786,1.786,0,0,0-.432-1.238A1.547,1.547,0,0,0-45.9-7.213ZM-35.71-2.482a.773.773,0,0,0-.436-.693,4.95,4.95,0,0,0-1.4-.452q-3.2-.672-3.2-2.723a2.468,2.468,0,0,1,.992-2,4,4,0,0,1,2.594-.8,4.307,4.307,0,0,1,2.735.805A2.538,2.538,0,0,1-33.4-6.25h-2.4a1.161,1.161,0,0,0-.332-.851,1.405,1.405,0,0,0-1.038-.336,1.436,1.436,0,0,0-.938.274.865.865,0,0,0-.332.7.739.739,0,0,0,.378.643,3.885,3.885,0,0,0,1.274.423,10.407,10.407,0,0,1,1.511.4,2.482,2.482,0,0,1,1.9,2.416A2.343,2.343,0,0,1-34.432-.594a4.548,4.548,0,0,1-2.723.76,4.75,4.75,0,0,1-2-.4,3.363,3.363,0,0,1-1.374-1.1,2.565,2.565,0,0,1-.5-1.515h2.274a1.252,1.252,0,0,0,.473.979,1.877,1.877,0,0,0,1.179.34A1.737,1.737,0,0,0-36.063-1.8.814.814,0,0,0-35.71-2.482ZM-24.247-3.4l1.66-5.586h2.573L-23.624,1.395l-.2.473a2.738,2.738,0,0,1-2.656,1.76,3.775,3.775,0,0,1-1.062-.158V1.652l.365.008a1.973,1.973,0,0,0,1.017-.208,1.363,1.363,0,0,0,.527-.689l.282-.739L-28.5-8.981h2.582Zm9.04-1.162A5.413,5.413,0,0,1-14.265-7.9a3.057,3.057,0,0,1,2.577-1.245,2.751,2.751,0,0,1,2.167.979V-12.75h2.407V0H-9.28L-9.4-.955A2.823,2.823,0,0,1-11.7.166a3.049,3.049,0,0,1-2.544-1.249A5.587,5.587,0,0,1-15.207-4.557Zm2.4.171a3.565,3.565,0,0,0,.44,1.943,1.432,1.432,0,0,0,1.278.675A1.6,1.6,0,0,0-9.521-2.71V-6.271a1.582,1.582,0,0,0-1.552-.942Q-12.808-7.213-12.808-4.386ZM-2.723,0H-5.13V-8.981h2.407ZM-5.271-11.306a1.181,1.181,0,0,1,.361-.888,1.356,1.356,0,0,1,.984-.349,1.36,1.36,0,0,1,.979.349,1.175,1.175,0,0,1,.365.888,1.178,1.178,0,0,1-.369.9,1.363,1.363,0,0,1-.975.349,1.363,1.363,0,0,1-.975-.349A1.178,1.178,0,0,1-5.271-11.306ZM1.5-8.981l.075,1a3.156,3.156,0,0,1,2.582-1.17,2.4,2.4,0,0,1,2.382,1.37,3.084,3.084,0,0,1,2.7-1.37,2.679,2.679,0,0,1,2.175.851,3.911,3.911,0,0,1,.714,2.561V0H9.72V-5.741a1.717,1.717,0,0,0-.3-1.119,1.322,1.322,0,0,0-1.054-.354A1.5,1.5,0,0,0,6.873-6.182L6.881,0h-2.4V-5.732a1.7,1.7,0,0,0-.307-1.132,1.335,1.335,0,0,0-1.046-.349,1.554,1.554,0,0,0-1.478.849V0h-2.4V-8.981ZM18.1.166a4.409,4.409,0,0,1-3.217-1.212,4.308,4.308,0,0,1-1.241-3.229v-.232a5.426,5.426,0,0,1,.523-2.42,3.838,3.838,0,0,1,1.482-1.644,4.159,4.159,0,0,1,2.187-.577,3.727,3.727,0,0,1,2.9,1.162A4.722,4.722,0,0,1,21.8-4.69v.979H16.079a2.229,2.229,0,0,0,.7,1.411,2.12,2.12,0,0,0,1.482.531,2.589,2.589,0,0,0,2.167-1l1.179,1.32A3.6,3.6,0,0,1,20.146-.261,4.793,4.793,0,0,1,18.1.166ZM17.83-7.213a1.5,1.5,0,0,0-1.158.484A2.5,2.5,0,0,0,16.1-5.346H19.44v-.192a1.786,1.786,0,0,0-.432-1.238A1.547,1.547,0,0,0,17.83-7.213Zm7.537-1.768.075,1.038a3.136,3.136,0,0,1,2.582-1.2,2.606,2.606,0,0,1,2.125.838A3.912,3.912,0,0,1,30.862-5.8V0h-2.4V-5.757a1.562,1.562,0,0,0-.332-1.111,1.484,1.484,0,0,0-1.1-.345,1.65,1.65,0,0,0-1.519.865V0h-2.4V-8.981Zm12.177,6.5a.773.773,0,0,0-.436-.693,4.95,4.95,0,0,0-1.4-.452q-3.2-.672-3.2-2.723a2.468,2.468,0,0,1,.992-2,4,4,0,0,1,2.594-.8,4.307,4.307,0,0,1,2.735.805A2.538,2.538,0,0,1,39.852-6.25h-2.4a1.161,1.161,0,0,0-.332-.851,1.405,1.405,0,0,0-1.038-.336,1.436,1.436,0,0,0-.938.274.865.865,0,0,0-.332.7.739.739,0,0,0,.378.643,3.885,3.885,0,0,0,1.274.423,10.407,10.407,0,0,1,1.511.4,2.482,2.482,0,0,1,1.9,2.416A2.343,2.343,0,0,1,38.823-.594,4.548,4.548,0,0,1,36.1.166a4.75,4.75,0,0,1-2-.4,3.363,3.363,0,0,1-1.374-1.1,2.565,2.565,0,0,1-.5-1.515H34.5a1.252,1.252,0,0,0,.473.979,1.877,1.877,0,0,0,1.179.34A1.737,1.737,0,0,0,37.192-1.8.814.814,0,0,0,37.544-2.482ZM43.953,0H41.545V-8.981h2.407ZM41.4-11.306a1.181,1.181,0,0,1,.361-.888,1.356,1.356,0,0,1,.984-.349,1.36,1.36,0,0,1,.979.349,1.175,1.175,0,0,1,.365.888,1.178,1.178,0,0,1-.369.9,1.363,1.363,0,0,1-.975.349,1.363,1.363,0,0,1-.975-.349A1.178,1.178,0,0,1,41.4-11.306Zm4.15,6.732a5.327,5.327,0,0,1,.515-2.382,3.767,3.767,0,0,1,1.482-1.619A4.323,4.323,0,0,1,49.8-9.147a4.09,4.09,0,0,1,2.968,1.112,4.464,4.464,0,0,1,1.282,3.021l.017.614a4.694,4.694,0,0,1-1.154,3.316,4.011,4.011,0,0,1-3.1,1.249,4.031,4.031,0,0,1-3.1-1.245,4.777,4.777,0,0,1-1.158-3.387Zm2.4.17a3.357,3.357,0,0,0,.481,1.958,1.588,1.588,0,0,0,1.378.678,1.592,1.592,0,0,0,1.361-.669,3.674,3.674,0,0,0,.49-2.141,3.324,3.324,0,0,0-.49-1.945,1.592,1.592,0,0,0-1.378-.69,1.566,1.566,0,0,0-1.361.686A3.735,3.735,0,0,0,47.954-4.4Zm9.795-4.578.075,1.038a3.136,3.136,0,0,1,2.582-1.2,2.606,2.606,0,0,1,2.125.838A3.912,3.912,0,0,1,63.244-5.8V0h-2.4V-5.757a1.562,1.562,0,0,0-.332-1.111,1.484,1.484,0,0,0-1.1-.345,1.65,1.65,0,0,0-1.519.865V0h-2.4V-8.981ZM69.2.166a4.409,4.409,0,0,1-3.217-1.212,4.308,4.308,0,0,1-1.241-3.229v-.232a5.426,5.426,0,0,1,.523-2.42,3.838,3.838,0,0,1,1.482-1.644,4.159,4.159,0,0,1,2.187-.577,3.727,3.727,0,0,1,2.9,1.162,4.722,4.722,0,0,1,1.058,3.3v.979H67.17a2.229,2.229,0,0,0,.7,1.411,2.12,2.12,0,0,0,1.482.531,2.589,2.589,0,0,0,2.167-1L72.7-1.453A3.6,3.6,0,0,1,71.237-.261,4.793,4.793,0,0,1,69.2.166Zm-.274-7.379a1.5,1.5,0,0,0-1.158.484,2.5,2.5,0,0,0-.569,1.384h3.337v-.192A1.786,1.786,0,0,0,70.1-6.776,1.547,1.547,0,0,0,68.921-7.213ZM79.115-2.482a.773.773,0,0,0-.436-.693,4.95,4.95,0,0,0-1.4-.452q-3.2-.672-3.2-2.723a2.468,2.468,0,0,1,.992-2,4,4,0,0,1,2.594-.8,4.307,4.307,0,0,1,2.735.805A2.538,2.538,0,0,1,81.422-6.25h-2.4a1.161,1.161,0,0,0-.332-.851,1.405,1.405,0,0,0-1.038-.336,1.436,1.436,0,0,0-.938.274.865.865,0,0,0-.332.7.739.739,0,0,0,.378.643,3.885,3.885,0,0,0,1.274.423,10.407,10.407,0,0,1,1.511.4,2.482,2.482,0,0,1,1.9,2.416A2.343,2.343,0,0,1,80.393-.594a4.548,4.548,0,0,1-2.723.76,4.75,4.75,0,0,1-2-.4,3.363,3.363,0,0,1-1.374-1.1,2.565,2.565,0,0,1-.5-1.515h2.274a1.252,1.252,0,0,0,.473.979,1.877,1.877,0,0,0,1.179.34A1.737,1.737,0,0,0,78.762-1.8.814.814,0,0,0,79.115-2.482Zm7.736-2.075A5.413,5.413,0,0,1,87.793-7.9a3.057,3.057,0,0,1,2.577-1.245,2.751,2.751,0,0,1,2.167.979V-12.75h2.407V0H92.778l-.116-.955A2.823,2.823,0,0,1,90.354.166,3.049,3.049,0,0,1,87.81-1.083,5.587,5.587,0,0,1,86.851-4.557Zm2.4.171a3.565,3.565,0,0,0,.44,1.943,1.432,1.432,0,0,0,1.278.675,1.6,1.6,0,0,0,1.569-.942V-6.271a1.582,1.582,0,0,0-1.552-.942Q89.25-7.213,89.25-4.386ZM100.938.166a4.409,4.409,0,0,1-3.217-1.212A4.308,4.308,0,0,1,96.48-4.275v-.232A5.426,5.426,0,0,1,97-6.927a3.838,3.838,0,0,1,1.482-1.644,4.159,4.159,0,0,1,2.187-.577,3.727,3.727,0,0,1,2.9,1.162,4.722,4.722,0,0,1,1.058,3.3v.979H98.912a2.229,2.229,0,0,0,.7,1.411,2.12,2.12,0,0,0,1.482.531,2.589,2.589,0,0,0,2.167-1l1.179,1.32a3.6,3.6,0,0,1-1.461,1.191A4.793,4.793,0,0,1,100.938.166Zm-.274-7.379a1.5,1.5,0,0,0-1.158.484,2.5,2.5,0,0,0-.569,1.384h3.337v-.192a1.786,1.786,0,0,0-.432-1.238A1.547,1.547,0,0,0,100.664-7.213ZM108.524,0h-2.407V-12.75h2.407Zm8.857-4.258V0h-2.49V-12.086h4.715a5.455,5.455,0,0,1,2.395.5,3.67,3.67,0,0,1,1.59,1.415,3.946,3.946,0,0,1,.556,2.088,3.47,3.47,0,0,1-1.216,2.8,5.065,5.065,0,0,1-3.366,1.025Zm0-2.017h2.225a2.187,2.187,0,0,0,1.507-.465,1.691,1.691,0,0,0,.519-1.328,1.994,1.994,0,0,0-.523-1.436,1.953,1.953,0,0,0-1.444-.564h-2.283Zm15.747,1.021h-4.781V-2h5.611V0h-8.1V-12.086h8.085v2.017h-5.595v2.88h4.781ZM138.067,0h-2.49V-12.086h2.49Z" transform="translate(5957.662 -10771.875)" fill="#12263f"/>
    <path id="Path_180231" data-name="Path 180231" d="M-44.711,0h-2.344V-11.375h2.344Zm4.1-8.453.07.977a2.951,2.951,0,0,1,2.43-1.133,2.453,2.453,0,0,1,2,.789,3.682,3.682,0,0,1,.672,2.359V0H-37.7V-5.419a1.47,1.47,0,0,0-.312-1.045,1.4,1.4,0,0,0-1.039-.325,1.553,1.553,0,0,0-1.43.814V0h-2.258V-8.453Zm10.047,5.7,1.57-5.7h2.359L-29.484,0h-2.156l-2.852-8.453h2.359ZM-21.852.156A4.15,4.15,0,0,1-24.879-.984a4.054,4.054,0,0,1-1.168-3.039v-.219a5.106,5.106,0,0,1,.492-2.277A3.612,3.612,0,0,1-24.16-8.066,3.914,3.914,0,0,1-22.1-8.609a3.508,3.508,0,0,1,2.73,1.094,4.444,4.444,0,0,1,1,3.1v.922h-5.383a2.1,2.1,0,0,0,.66,1.328,2,2,0,0,0,1.395.5,2.437,2.437,0,0,0,2.039-.945l1.109,1.242A3.389,3.389,0,0,1-19.93-.246,4.511,4.511,0,0,1-21.852.156Zm-.258-6.945a1.411,1.411,0,0,0-1.09.455,2.357,2.357,0,0,0-.535,1.3h3.141v-.181A1.681,1.681,0,0,0-21-6.377,1.456,1.456,0,0,0-22.109-6.789Zm9.594,4.453a.727.727,0,0,0-.41-.652,4.659,4.659,0,0,0-1.316-.426q-3.016-.633-3.016-2.562a2.323,2.323,0,0,1,.934-1.879,3.766,3.766,0,0,1,2.441-.754,4.053,4.053,0,0,1,2.574.758,2.388,2.388,0,0,1,.965,1.969H-12.6a1.092,1.092,0,0,0-.312-.8A1.322,1.322,0,0,0-13.891-7a1.351,1.351,0,0,0-.883.258.814.814,0,0,0-.312.656.7.7,0,0,0,.355.605,3.657,3.657,0,0,0,1.2.4,9.8,9.8,0,0,1,1.422.379A2.336,2.336,0,0,1-10.32-2.43a2.2,2.2,0,0,1-.992,1.871,4.28,4.28,0,0,1-2.562.715,4.47,4.47,0,0,1-1.887-.379,3.166,3.166,0,0,1-1.293-1.039,2.414,2.414,0,0,1-.469-1.426h2.141a1.179,1.179,0,0,0,.445.922,1.766,1.766,0,0,0,1.109.32,1.635,1.635,0,0,0,.98-.246A.766.766,0,0,0-12.516-2.336Zm6.352-8.2v2.078h1.445V-6.8H-6.164v4.219a1.007,1.007,0,0,0,.18.672.9.9,0,0,0,.688.2,3.6,3.6,0,0,0,.664-.055V-.047A4.648,4.648,0,0,1-6,.156a2.156,2.156,0,0,1-2.422-2.4V-6.8H-9.656V-8.453h1.234v-2.078ZM-1.078,0H-3.344V-8.453h2.266Zm-2.4-10.641a1.112,1.112,0,0,1,.34-.836,1.277,1.277,0,0,1,.926-.328,1.28,1.28,0,0,1,.922.328,1.105,1.105,0,0,1,.344.836,1.108,1.108,0,0,1-.348.844,1.283,1.283,0,0,1-.918.328A1.283,1.283,0,0,1-3.129-9.8,1.108,1.108,0,0,1-3.477-10.641ZM.453-4.289a4.954,4.954,0,0,1,.926-3.133,3,3,0,0,1,2.5-1.187,2.631,2.631,0,0,1,2.164.953l.094-.8H8.18V-.281a3.613,3.613,0,0,1-.5,1.93A3.236,3.236,0,0,1,6.258,2.9a4.985,4.985,0,0,1-2.141.43A4.635,4.635,0,0,1,2.3,2.957,3.217,3.217,0,0,1,.969,2l1-1.375a2.645,2.645,0,0,0,2.047.945,1.936,1.936,0,0,0,1.4-.48,1.8,1.8,0,0,0,.5-1.363V-.727A2.612,2.612,0,0,1,3.859.156,2.992,2.992,0,0,1,1.395-1.035,4.953,4.953,0,0,1,.453-4.2Zm2.258.161a3.1,3.1,0,0,0,.461,1.809,1.465,1.465,0,0,0,1.266.655,1.567,1.567,0,0,0,1.477-.777V-6.012a1.563,1.563,0,0,0-1.461-.777,1.474,1.474,0,0,0-1.277.667A3.5,3.5,0,0,0,2.711-4.128ZM14.813,0a2.507,2.507,0,0,1-.227-.758,2.732,2.732,0,0,1-2.133.914,3,3,0,0,1-2.059-.719,2.312,2.312,0,0,1-.816-1.812,2.389,2.389,0,0,1,1-2.062,4.915,4.915,0,0,1,2.879-.727h1.039v-.484a1.393,1.393,0,0,0-.3-.937,1.183,1.183,0,0,0-.949-.352,1.345,1.345,0,0,0-.895.273.929.929,0,0,0-.324.75H9.766a2.268,2.268,0,0,1,.453-1.359,3,3,0,0,1,1.281-.98,4.669,4.669,0,0,1,1.859-.355,3.689,3.689,0,0,1,2.48.785,2.747,2.747,0,0,1,.918,2.207v3.664a4.041,4.041,0,0,0,.336,1.82V0ZM12.945-1.57a1.945,1.945,0,0,0,.922-.223,1.462,1.462,0,0,0,.625-.6V-3.844h-.844q-1.7,0-1.8,1.172l-.008.133a.9.9,0,0,0,.3.7A1.153,1.153,0,0,0,12.945-1.57Zm9.063-.094a1.481,1.481,0,0,0,1.016-.344,1.2,1.2,0,0,0,.406-.914h2.117a2.9,2.9,0,0,1-.469,1.574A3.093,3.093,0,0,1,23.816-.238a3.949,3.949,0,0,1-1.77.395A3.67,3.67,0,0,1,19.188-1,4.56,4.56,0,0,1,18.141-4.18v-.148A4.508,4.508,0,0,1,19.18-7.445a3.627,3.627,0,0,1,2.852-1.164,3.555,3.555,0,0,1,2.543.9,3.2,3.2,0,0,1,.973,2.4H23.43a1.551,1.551,0,0,0-.406-1.072,1.354,1.354,0,0,0-1.031-.412,1.36,1.36,0,0,0-1.191.575,3.333,3.333,0,0,0-.4,1.866v.235a3.375,3.375,0,0,0,.4,1.878A1.377,1.377,0,0,0,22.008-1.664ZM29.219,0H26.953V-8.453h2.266Zm-2.4-10.641a1.112,1.112,0,0,1,.34-.836,1.277,1.277,0,0,1,.926-.328,1.28,1.28,0,0,1,.922.328,1.105,1.105,0,0,1,.344.836A1.108,1.108,0,0,1,29-9.8a1.283,1.283,0,0,1-.918.328,1.283,1.283,0,0,1-.918-.328A1.108,1.108,0,0,1,26.82-10.641ZM30.727-4.3a5.013,5.013,0,0,1,.484-2.242A3.546,3.546,0,0,1,32.605-8.07a4.069,4.069,0,0,1,2.113-.539,3.849,3.849,0,0,1,2.793,1.047,4.2,4.2,0,0,1,1.207,2.844l.016.578A4.418,4.418,0,0,1,37.648-1.02,3.775,3.775,0,0,1,34.734.156a3.793,3.793,0,0,1-2.918-1.172A4.5,4.5,0,0,1,30.727-4.2Zm2.258.16A3.16,3.16,0,0,0,33.438-2.3a1.5,1.5,0,0,0,1.3.638,1.5,1.5,0,0,0,1.281-.63,3.457,3.457,0,0,0,.461-2.015,3.128,3.128,0,0,0-.461-1.831,1.5,1.5,0,0,0-1.3-.649,1.474,1.474,0,0,0-1.281.646A3.516,3.516,0,0,0,32.984-4.144ZM35.164-12h2.461L35.461-9.578H33.625ZM42.2-8.453l.07.977A2.951,2.951,0,0,1,44.7-8.609a2.453,2.453,0,0,1,2,.789,3.682,3.682,0,0,1,.672,2.359V0H45.117V-5.419A1.47,1.47,0,0,0,44.8-6.464a1.4,1.4,0,0,0-1.039-.325,1.553,1.553,0,0,0-1.43.814V0H40.078V-8.453Z" transform="translate(5737.501 -10391.691) rotate(-20)" fill="#12263f"/>
    <g id="Group_118265" data-name="Group 118265" transform="translate(9602.734 -8705.893)">
      <g id="Group_118264" data-name="Group 118264">
        <path id="Path_179670" data-name="Path 179670" d="M-3801.254-1683.155a3.2,3.2,0,0,1-1.613.146,3.165,3.165,0,0,1-2.5-2.066l-2.689-7.388a1.2,1.2,0,0,0-1.542-.719l-121.778,44.324a3.208,3.208,0,0,1-4.106-1.914l-9.472-26.024a3.207,3.207,0,0,1,1.915-4.106l121.778-44.323a1.2,1.2,0,0,0,.719-1.542l-2.689-7.388a3.166,3.166,0,0,1,.584-3.187,3.164,3.164,0,0,1,3.066-1.047l48.946,9.976h0a3.184,3.184,0,0,1,2.37,2.044,3.184,3.184,0,0,1-.5,3.089l-31.084,39.1A3.2,3.2,0,0,1-3801.254-1683.155Zm-141.1,4.133a1.2,1.2,0,0,0-.719,1.542l9.472,26.024a1.205,1.205,0,0,0,1.542.719l121.778-44.324a3.206,3.206,0,0,1,4.1,1.914l2.689,7.388a1.189,1.189,0,0,0,.938.776,1.186,1.186,0,0,0,1.134-.439l31.084-39.1a1.182,1.182,0,0,0,.189-1.16,1.184,1.184,0,0,0-.891-.768l-48.947-9.975a1.185,1.185,0,0,0-1.151.393,1.185,1.185,0,0,0-.219,1.2l2.689,7.388a3.207,3.207,0,0,1-1.915,4.105Z" fill="#12263f"/>
      </g>
    </g>
    <g id="Group_118268" data-name="Group 118268" transform="translate(9602.734 -8705.893)">
      <g id="Group_118267" data-name="Group 118267">
        <path id="Path_179671" data-name="Path 179671" d="M-3821.313-1956.888a3.2,3.2,0,0,1-1.33-.925,3.165,3.165,0,0,1-.584-3.187l2.689-7.387a1.2,1.2,0,0,0-.719-1.542l-121.778-44.324a3.206,3.206,0,0,1-1.915-4.1l9.472-26.024a3.207,3.207,0,0,1,4.106-1.915l121.778,44.324a1.2,1.2,0,0,0,1.542-.719l2.689-7.388a3.165,3.165,0,0,1,2.5-2.066,3.165,3.165,0,0,1,3.021,1.169l31.083,39.1h0a3.181,3.181,0,0,1,.5,3.089,3.183,3.183,0,0,1-2.37,2.043l-48.947,9.975A3.2,3.2,0,0,1-3821.313-1956.888Zm-110.743-87.529a1.2,1.2,0,0,0-1.542.719l-9.472,26.024a1.2,1.2,0,0,0,.719,1.542l121.778,44.323a3.206,3.206,0,0,1,1.914,4.106l-2.688,7.388a1.185,1.185,0,0,0,.219,1.2,1.189,1.189,0,0,0,1.151.393l48.947-9.976a1.179,1.179,0,0,0,.89-.767,1.178,1.178,0,0,0-.189-1.161l-31.082-39.1a1.189,1.189,0,0,0-1.135-.439,1.189,1.189,0,0,0-.938.776l-2.689,7.388a3.205,3.205,0,0,1-4.1,1.914Z" fill="#12263f"/>
      </g>
    </g>
    <path id="Path_180229" data-name="Path 180229" d="M-41.594-3.757V0h-2.2V-10.664h4.16a4.813,4.813,0,0,1,2.113.439,3.238,3.238,0,0,1,1.4,1.249,3.482,3.482,0,0,1,.491,1.842A3.062,3.062,0,0,1-36.7-4.662a4.469,4.469,0,0,1-2.97.9Zm0-1.78h1.963a1.93,1.93,0,0,0,1.329-.41,1.492,1.492,0,0,0,.458-1.172,1.759,1.759,0,0,0-.461-1.267,1.724,1.724,0,0,0-1.274-.5h-2.014ZM-29.744,0a2.351,2.351,0,0,1-.212-.71,2.561,2.561,0,0,1-2,.857,2.814,2.814,0,0,1-1.93-.674,2.167,2.167,0,0,1-.765-1.7,2.24,2.24,0,0,1,.934-1.934,4.608,4.608,0,0,1,2.7-.681h.974V-5.3a1.306,1.306,0,0,0-.282-.879,1.109,1.109,0,0,0-.89-.33,1.261,1.261,0,0,0-.839.256.871.871,0,0,0-.3.7h-2.117a2.126,2.126,0,0,1,.425-1.274,2.808,2.808,0,0,1,1.2-.919,4.378,4.378,0,0,1,1.743-.333,3.459,3.459,0,0,1,2.325.736,2.575,2.575,0,0,1,.861,2.069v3.435A3.789,3.789,0,0,0-27.6-.125V0Zm-1.75-1.472a1.823,1.823,0,0,0,.864-.209,1.371,1.371,0,0,0,.586-.56V-3.6h-.791q-1.589,0-1.692,1.1l-.007.125a.847.847,0,0,0,.278.652A1.081,1.081,0,0,0-31.494-1.472Zm9.653-4.468A5.751,5.751,0,0,0-22.6-6a1.55,1.55,0,0,0-1.575.813V0h-2.117V-7.925h2l.059.945a1.961,1.961,0,0,1,1.765-1.091,2.218,2.218,0,0,1,.659.1Zm3.918-3.933v1.948h1.355v1.553h-1.355v3.955a.944.944,0,0,0,.168.63.846.846,0,0,0,.645.19,3.376,3.376,0,0,0,.623-.051v1.6a4.358,4.358,0,0,1-1.282.19A2.021,2.021,0,0,1-20.039-2.1v-4.27H-21.2V-7.925h1.157V-9.873ZM-13.154,0h-2.124V-7.925h2.124ZM-15.4-9.976a1.042,1.042,0,0,1,.319-.784,1.2,1.2,0,0,1,.868-.308,1.2,1.2,0,0,1,.864.308,1.036,1.036,0,0,1,.322.784,1.039,1.039,0,0,1-.326.791,1.2,1.2,0,0,1-.861.308,1.2,1.2,0,0,1-.861-.308A1.039,1.039,0,0,1-15.4-9.976ZM-8.115-1.56a1.388,1.388,0,0,0,.952-.322,1.129,1.129,0,0,0,.381-.857H-4.8a2.715,2.715,0,0,1-.439,1.476A2.9,2.9,0,0,1-6.42-.223a3.7,3.7,0,0,1-1.659.37,3.44,3.44,0,0,1-2.681-1.08,4.275,4.275,0,0,1-.981-2.985v-.139a4.226,4.226,0,0,1,.974-2.922A3.4,3.4,0,0,1-8.093-8.071a3.333,3.333,0,0,1,2.384.846A3,3,0,0,1-4.8-4.973H-6.782a1.455,1.455,0,0,0-.381-1.005,1.27,1.27,0,0,0-.967-.387,1.275,1.275,0,0,0-1.117.539,3.125,3.125,0,0,0-.377,1.749v.22A3.164,3.164,0,0,0-9.25-2.1,1.291,1.291,0,0,0-8.115-1.56ZM-1.355,0H-3.479V-7.925h2.124ZM-3.6-9.976a1.042,1.042,0,0,1,.319-.784,1.2,1.2,0,0,1,.868-.308,1.2,1.2,0,0,1,.864.308,1.036,1.036,0,0,1,.322.784,1.039,1.039,0,0,1-.326.791,1.2,1.2,0,0,1-.861.308,1.2,1.2,0,0,1-.861-.308A1.039,1.039,0,0,1-3.6-9.976ZM7.522-3.889A4.753,4.753,0,0,1,6.691-.956,2.665,2.665,0,0,1,4.446.146,2.469,2.469,0,0,1,2.5-.688V3.047H.388V-7.925H2.351l.073.776a2.488,2.488,0,0,1,2.007-.923A2.683,2.683,0,0,1,6.709-6.987,4.882,4.882,0,0,1,7.522-4ZM5.405-4.051a3.136,3.136,0,0,0-.392-1.712,1.275,1.275,0,0,0-1.139-.6A1.385,1.385,0,0,0,2.5-5.6v3.255a1.409,1.409,0,0,0,1.384.786Q5.405-1.56,5.405-4.051ZM13.425,0a2.351,2.351,0,0,1-.212-.71,2.561,2.561,0,0,1-2,.857,2.814,2.814,0,0,1-1.93-.674,2.167,2.167,0,0,1-.765-1.7A2.24,2.24,0,0,1,9.452-4.16a4.608,4.608,0,0,1,2.7-.681h.974V-5.3a1.306,1.306,0,0,0-.282-.879,1.109,1.109,0,0,0-.89-.33,1.261,1.261,0,0,0-.839.256.871.871,0,0,0-.3.7H8.694a2.126,2.126,0,0,1,.425-1.274,2.808,2.808,0,0,1,1.2-.919,4.378,4.378,0,0,1,1.743-.333,3.459,3.459,0,0,1,2.325.736,2.575,2.575,0,0,1,.861,2.069v3.435a3.789,3.789,0,0,0,.315,1.707V0Zm-1.75-1.472a1.823,1.823,0,0,0,.864-.209,1.371,1.371,0,0,0,.586-.56V-3.6h-.791q-1.589,0-1.692,1.1l-.007.125a.847.847,0,0,0,.278.652A1.081,1.081,0,0,0,11.675-1.472Zm8.5-.088a1.388,1.388,0,0,0,.952-.322,1.129,1.129,0,0,0,.381-.857h1.985a2.715,2.715,0,0,1-.439,1.476,2.9,2.9,0,0,1-1.183,1.04,3.7,3.7,0,0,1-1.659.37,3.44,3.44,0,0,1-2.681-1.08,4.275,4.275,0,0,1-.981-2.985v-.139A4.226,4.226,0,0,1,17.52-6.98a3.4,3.4,0,0,1,2.673-1.091,3.333,3.333,0,0,1,2.384.846,3,3,0,0,1,.912,2.252H21.5a1.455,1.455,0,0,0-.381-1.005,1.27,1.27,0,0,0-.967-.387,1.275,1.275,0,0,0-1.117.539,3.125,3.125,0,0,0-.377,1.749v.22A3.164,3.164,0,0,0,19.036-2.1,1.291,1.291,0,0,0,20.171-1.56ZM26.931,0H24.807V-7.925h2.124ZM24.683-9.976A1.042,1.042,0,0,1,25-10.759a1.2,1.2,0,0,1,.868-.308,1.2,1.2,0,0,1,.864.308,1.036,1.036,0,0,1,.322.784,1.039,1.039,0,0,1-.326.791,1.2,1.2,0,0,1-.861.308,1.2,1.2,0,0,1-.861-.308A1.039,1.039,0,0,1,24.683-9.976Zm3.662,5.94a4.7,4.7,0,0,1,.454-2.1,3.324,3.324,0,0,1,1.307-1.428,3.814,3.814,0,0,1,1.981-.505,3.609,3.609,0,0,1,2.618.981,3.939,3.939,0,0,1,1.132,2.666l.015.542A4.142,4.142,0,0,1,34.834-.956,3.539,3.539,0,0,1,32.1.146a3.556,3.556,0,0,1-2.736-1.1A4.215,4.215,0,0,1,28.345-3.94Zm2.117.15a2.962,2.962,0,0,0,.425,1.727,1.4,1.4,0,0,0,1.216.6,1.4,1.4,0,0,0,1.2-.591,3.241,3.241,0,0,0,.432-1.889A2.933,2.933,0,0,0,33.3-5.756a1.4,1.4,0,0,0-1.216-.609,1.382,1.382,0,0,0-1.2.605A3.3,3.3,0,0,0,30.461-3.885ZM32.5-11.25h2.307L32.783-8.979H31.062Zm6.6,3.325.066.916a2.767,2.767,0,0,1,2.278-1.062,2.3,2.3,0,0,1,1.875.74,3.451,3.451,0,0,1,.63,2.212V0H41.836V-5.08a1.379,1.379,0,0,0-.293-.98,1.31,1.31,0,0,0-.974-.3,1.456,1.456,0,0,0-1.34.763V0H37.112V-7.925Z" transform="translate(5734.104 -10705.925) rotate(20)" fill="#12263f"/>
    <path id="Path_180235" data-name="Path 180235" d="M-60.707-2.344h-4.109L-65.6,0H-68.09l4.234-11.375h2.172L-57.426,0h-2.492Zm-3.477-1.9h2.844L-62.77-8.5Zm9.375-4.211.07.977a2.951,2.951,0,0,1,2.43-1.133,2.453,2.453,0,0,1,2,.789,3.682,3.682,0,0,1,.672,2.359V0h-2.258V-5.419a1.47,1.47,0,0,0-.312-1.045,1.4,1.4,0,0,0-1.039-.325,1.553,1.553,0,0,0-1.43.814V0h-2.258V-8.453ZM-43.027,0a2.507,2.507,0,0,1-.227-.758,2.732,2.732,0,0,1-2.133.914,3,3,0,0,1-2.059-.719,2.312,2.312,0,0,1-.816-1.812,2.389,2.389,0,0,1,1-2.062,4.915,4.915,0,0,1,2.879-.727h1.039v-.484a1.393,1.393,0,0,0-.3-.937,1.183,1.183,0,0,0-.949-.352,1.345,1.345,0,0,0-.895.273.929.929,0,0,0-.324.75h-2.258a2.268,2.268,0,0,1,.453-1.359,3,3,0,0,1,1.281-.98,4.669,4.669,0,0,1,1.859-.355A3.689,3.689,0,0,1-42-7.824a2.747,2.747,0,0,1,.918,2.207v3.664a4.041,4.041,0,0,0,.336,1.82V0Zm-1.867-1.57a1.945,1.945,0,0,0,.922-.223,1.462,1.462,0,0,0,.625-.6V-3.844h-.844q-1.7,0-1.8,1.172L-46-2.539a.9.9,0,0,0,.3.7A1.153,1.153,0,0,0-44.895-1.57ZM-44.035-12h2.461l-2.164,2.422h-1.836Zm7.07,12H-39.23V-12h2.266Zm4.242,0h-2.266V-8.453h2.266Zm-2.4-10.641a1.112,1.112,0,0,1,.34-.836,1.277,1.277,0,0,1,.926-.328,1.28,1.28,0,0,1,.922.328,1.105,1.105,0,0,1,.344.836,1.108,1.108,0,0,1-.348.844,1.283,1.283,0,0,1-.918.328,1.283,1.283,0,0,1-.918-.328A1.108,1.108,0,0,1-35.121-10.641Zm8.836,8.3a.727.727,0,0,0-.41-.652,4.659,4.659,0,0,0-1.316-.426q-3.016-.633-3.016-2.562a2.323,2.323,0,0,1,.934-1.879,3.766,3.766,0,0,1,2.441-.754,4.053,4.053,0,0,1,2.574.758,2.388,2.388,0,0,1,.965,1.969h-2.258a1.092,1.092,0,0,0-.312-.8A1.322,1.322,0,0,0-27.66-7a1.351,1.351,0,0,0-.883.258.814.814,0,0,0-.312.656.7.7,0,0,0,.355.605,3.657,3.657,0,0,0,1.2.4,9.8,9.8,0,0,1,1.422.379A2.336,2.336,0,0,1-24.09-2.43a2.2,2.2,0,0,1-.992,1.871,4.28,4.28,0,0,1-2.562.715,4.47,4.47,0,0,1-1.887-.379,3.166,3.166,0,0,1-1.293-1.039,2.414,2.414,0,0,1-.469-1.426h2.141a1.179,1.179,0,0,0,.445.922,1.766,1.766,0,0,0,1.109.32,1.635,1.635,0,0,0,.98-.246A.766.766,0,0,0-26.285-2.336ZM-20.254,0H-22.52V-8.453h2.266Zm-2.4-10.641a1.112,1.112,0,0,1,.34-.836,1.277,1.277,0,0,1,.926-.328,1.28,1.28,0,0,1,.922.328,1.105,1.105,0,0,1,.344.836,1.108,1.108,0,0,1-.348.844,1.283,1.283,0,0,1-.918.328A1.283,1.283,0,0,1-22.3-9.8,1.108,1.108,0,0,1-22.652-10.641Zm8.836,8.3a.727.727,0,0,0-.41-.652,4.659,4.659,0,0,0-1.316-.426q-3.016-.633-3.016-2.562a2.323,2.323,0,0,1,.934-1.879,3.766,3.766,0,0,1,2.441-.754,4.053,4.053,0,0,1,2.574.758,2.388,2.388,0,0,1,.965,1.969H-13.9a1.092,1.092,0,0,0-.312-.8A1.322,1.322,0,0,0-15.191-7a1.351,1.351,0,0,0-.883.258.814.814,0,0,0-.312.656.7.7,0,0,0,.355.605,3.657,3.657,0,0,0,1.2.4A9.8,9.8,0,0,1-13.41-4.7,2.336,2.336,0,0,1-11.621-2.43a2.2,2.2,0,0,1-.992,1.871,4.28,4.28,0,0,1-2.562.715,4.47,4.47,0,0,1-1.887-.379,3.166,3.166,0,0,1-1.293-1.039,2.414,2.414,0,0,1-.469-1.426h2.141a1.179,1.179,0,0,0,.445.922,1.766,1.766,0,0,0,1.109.32,1.635,1.635,0,0,0,.98-.246A.766.766,0,0,0-13.816-2.336ZM-3.027-3.2l1.563-5.258H.957l-3.4,9.766-.187.445a2.577,2.577,0,0,1-2.5,1.656,3.552,3.552,0,0,1-1-.148V1.555l.344.008a1.857,1.857,0,0,0,.957-.2,1.283,1.283,0,0,0,.5-.648l.266-.7L-7.027-8.453H-4.6ZM10.582-6.336A6.134,6.134,0,0,0,9.77-6.4a1.654,1.654,0,0,0-1.68.867V0H5.832V-8.453H7.965l.063,1.008A2.092,2.092,0,0,1,9.91-8.609a2.366,2.366,0,0,1,.7.1ZM15.41.156A4.15,4.15,0,0,1,12.383-.984a4.054,4.054,0,0,1-1.168-3.039v-.219a5.106,5.106,0,0,1,.492-2.277A3.612,3.612,0,0,1,13.1-8.066a3.914,3.914,0,0,1,2.059-.543,3.508,3.508,0,0,1,2.73,1.094,4.444,4.444,0,0,1,1,3.1v.922H13.5a2.1,2.1,0,0,0,.66,1.328,2,2,0,0,0,1.395.5A2.437,2.437,0,0,0,17.6-2.609l1.109,1.242A3.389,3.389,0,0,1,17.332-.246,4.511,4.511,0,0,1,15.41.156Zm-.258-6.945a1.411,1.411,0,0,0-1.09.455,2.357,2.357,0,0,0-.535,1.3h3.141v-.181a1.681,1.681,0,0,0-.406-1.165A1.456,1.456,0,0,0,15.152-6.789Zm10.68-3.476a10.85,10.85,0,0,0-1.25-.078q-1.531,0-1.531,1.316v.575h1.68V-6.8h-1.68V0H20.785V-6.8H19.527V-8.453h1.258v-.656a2.888,2.888,0,0,1,.922-2.262,3.769,3.769,0,0,1,2.563-.793q1.18,0,3.828.25V0H25.832ZM33.863.156A4.15,4.15,0,0,1,30.836-.984a4.054,4.054,0,0,1-1.168-3.039v-.219A5.106,5.106,0,0,1,30.16-6.52a3.612,3.612,0,0,1,1.395-1.547,3.914,3.914,0,0,1,2.059-.543,3.508,3.508,0,0,1,2.73,1.094,4.444,4.444,0,0,1,1,3.1v.922H31.957a2.1,2.1,0,0,0,.66,1.328,2,2,0,0,0,1.395.5,2.437,2.437,0,0,0,2.039-.945L37.16-1.367A3.389,3.389,0,0,1,35.785-.246,4.511,4.511,0,0,1,33.863.156Zm-.258-6.945a1.411,1.411,0,0,0-1.09.455,2.357,2.357,0,0,0-.535,1.3h3.141v-.181a1.681,1.681,0,0,0-.406-1.165A1.456,1.456,0,0,0,33.605-6.789Zm8.234.859,1.422-2.523h2.414L43.27-4.312,45.777,0H43.355L41.848-2.656,40.348,0h-2.43l2.508-4.312-2.4-4.141h2.422ZM49.145,0H46.879V-8.453h2.266Zm-2.4-10.641a1.112,1.112,0,0,1,.34-.836,1.277,1.277,0,0,1,.926-.328,1.28,1.28,0,0,1,.922.328,1.105,1.105,0,0,1,.344.836,1.108,1.108,0,0,1-.348.844,1.283,1.283,0,0,1-.918.328,1.283,1.283,0,0,1-.918-.328A1.108,1.108,0,0,1,46.746-10.641ZM50.652-4.3a5.013,5.013,0,0,1,.484-2.242A3.546,3.546,0,0,1,52.531-8.07a4.069,4.069,0,0,1,2.113-.539,3.849,3.849,0,0,1,2.793,1.047,4.2,4.2,0,0,1,1.207,2.844l.016.578A4.418,4.418,0,0,1,57.574-1.02,3.775,3.775,0,0,1,54.66.156a3.793,3.793,0,0,1-2.918-1.172A4.5,4.5,0,0,1,50.652-4.2Zm2.258.16A3.16,3.16,0,0,0,53.363-2.3a1.5,1.5,0,0,0,1.3.638,1.5,1.5,0,0,0,1.281-.63A3.457,3.457,0,0,0,56.4-4.309a3.128,3.128,0,0,0-.461-1.831,1.5,1.5,0,0,0-1.3-.649,1.474,1.474,0,0,0-1.281.646A3.516,3.516,0,0,0,52.91-4.144ZM55.09-12h2.461L55.387-9.578H53.551Zm7.039,3.547.07.977a2.951,2.951,0,0,1,2.43-1.133,2.453,2.453,0,0,1,2,.789A3.682,3.682,0,0,1,67.3-5.461V0H65.043V-5.419a1.47,1.47,0,0,0-.312-1.045,1.4,1.4,0,0,0-1.039-.325,1.553,1.553,0,0,0-1.43.814V0H60V-8.453Z" transform="translate(6179.414 -10391.348) rotate(20)" fill="#12263f"/>
    <g id="Group_118271" data-name="Group 118271" transform="translate(9602.734 -8705.893)">
      <path id="Path_179672" data-name="Path 179672" d="M-3488.214-2012a3.21,3.21,0,0,1,1.613-.147,3.169,3.169,0,0,1,2.5,2.066l2.688,7.388a1.2,1.2,0,0,0,1.543.719L-3358.1-2046.3a3.207,3.207,0,0,1,4.1,1.915l9.472,26.024a3.207,3.207,0,0,1-1.914,4.1l-121.779,44.324a1.2,1.2,0,0,0-.719,1.542l2.689,7.388a3.164,3.164,0,0,1-.584,3.186,3.165,3.165,0,0,1-3.065,1.048l-48.947-9.976h0a3.183,3.183,0,0,1-2.37-2.043,3.184,3.184,0,0,1,.5-3.089l31.083-39.1A3.187,3.187,0,0,1-3488.214-2012Zm141.1-4.133a1.2,1.2,0,0,0,.719-1.542l-9.472-26.024a1.2,1.2,0,0,0-1.542-.719l-121.778,44.324a3.207,3.207,0,0,1-4.106-1.915l-2.689-7.388a1.188,1.188,0,0,0-.937-.776,1.187,1.187,0,0,0-1.135.439l-31.083,39.1a1.181,1.181,0,0,0-.189,1.16,1.178,1.178,0,0,0,.891.767l48.946,9.976a1.19,1.19,0,0,0,1.152-.393,1.189,1.189,0,0,0,.219-1.2l-2.689-7.388a3.208,3.208,0,0,1,1.914-4.106Z" fill="#12263f"/>
    </g>
    <g id="Group_118273" data-name="Group 118273" transform="translate(9602.734 -8705.893)">
      <path id="Path_179673" data-name="Path 179673" d="M-3468.155-1738.266a3.2,3.2,0,0,1,1.329.924,3.166,3.166,0,0,1,.584,3.187l-2.689,7.388a1.205,1.205,0,0,0,.72,1.542l121.778,44.323a3.207,3.207,0,0,1,1.914,4.106l-9.472,26.024a3.207,3.207,0,0,1-4.1,1.914l-121.778-44.324a1.2,1.2,0,0,0-1.542.719l-2.689,7.388a3.165,3.165,0,0,1-2.5,2.066,3.165,3.165,0,0,1-3.022-1.168l-31.083-39.1h0a3.184,3.184,0,0,1-.5-3.089,3.181,3.181,0,0,1,2.37-2.043l48.947-9.976A3.186,3.186,0,0,1-3468.155-1738.266Zm110.743,87.529a1.205,1.205,0,0,0,1.542-.719l9.472-26.024a1.2,1.2,0,0,0-.719-1.542l-121.779-44.324a3.207,3.207,0,0,1-1.914-4.105l2.689-7.388a1.189,1.189,0,0,0-.219-1.2,1.186,1.186,0,0,0-1.152-.393l-48.947,9.975a1.182,1.182,0,0,0-.89.768,1.181,1.181,0,0,0,.189,1.16l31.083,39.1a1.188,1.188,0,0,0,1.135.439,1.188,1.188,0,0,0,.937-.776l2.689-7.388a3.207,3.207,0,0,1,4.106-1.914Z" fill="#12263f"/>
    </g>
    <path id="Path_180236" data-name="Path 180236" d="M-41.574-3.789A4.025,4.025,0,0,1-42.93-.9,4.76,4.76,0,0,1-46.152.156a4.28,4.28,0,0,1-3.441-1.473,6.038,6.038,0,0,1-1.254-4.043v-.7a6.819,6.819,0,0,1,.578-2.891,4.332,4.332,0,0,1,1.652-1.918,4.629,4.629,0,0,1,2.5-.668,4.637,4.637,0,0,1,3.172,1.055,4.326,4.326,0,0,1,1.391,2.961H-43.9a2.376,2.376,0,0,0-.613-1.6,2.271,2.271,0,0,0-1.605-.5,1.991,1.991,0,0,0-1.754.84,4.707,4.707,0,0,0-.6,2.605V-5.3a5.038,5.038,0,0,0,.559,2.7,1.954,1.954,0,0,0,1.762.852,2.314,2.314,0,0,0,1.621-.5,2.241,2.241,0,0,0,.613-1.535Zm1.039-.516a5.013,5.013,0,0,1,.484-2.242A3.546,3.546,0,0,1-38.656-8.07a4.069,4.069,0,0,1,2.113-.539A3.849,3.849,0,0,1-33.75-7.562a4.2,4.2,0,0,1,1.207,2.844l.016.578A4.418,4.418,0,0,1-33.613-1.02,3.775,3.775,0,0,1-36.527.156a3.793,3.793,0,0,1-2.918-1.172A4.5,4.5,0,0,1-40.535-4.2Zm2.258.16A3.16,3.16,0,0,0-37.824-2.3a1.5,1.5,0,0,0,1.3.638,1.5,1.5,0,0,0,1.281-.63,3.457,3.457,0,0,0,.461-2.015,3.128,3.128,0,0,0-.461-1.831,1.5,1.5,0,0,0-1.3-.649,1.474,1.474,0,0,0-1.281.646A3.516,3.516,0,0,0-38.277-4.144Zm9.258-4.309.07.945a2.971,2.971,0,0,1,2.43-1.1A2.255,2.255,0,0,1-24.277-7.32a2.9,2.9,0,0,1,2.539-1.289,2.521,2.521,0,0,1,2.047.8A3.681,3.681,0,0,1-19.02-5.4V0h-2.266V-5.4a1.616,1.616,0,0,0-.281-1.053,1.245,1.245,0,0,0-.992-.333,1.409,1.409,0,0,0-1.406.971L-23.957,0h-2.258V-5.4A1.6,1.6,0,0,0-26.5-6.46a1.257,1.257,0,0,0-.984-.329,1.463,1.463,0,0,0-1.391.8V0h-2.258V-8.453Zm16.8,7.594A2.831,2.831,0,0,1-14.535.156a2.67,2.67,0,0,1-2.074-.781,3.335,3.335,0,0,1-.73-2.289V-8.453h2.258v5.467q0,1.322,1.2,1.322a1.63,1.63,0,0,0,1.578-.8V-8.453h2.266V0H-12.16Zm5.969-7.594.07.977a2.951,2.951,0,0,1,2.43-1.133,2.453,2.453,0,0,1,2,.789,3.682,3.682,0,0,1,.672,2.359V0H-3.34V-5.419a1.47,1.47,0,0,0-.312-1.045,1.4,1.4,0,0,0-1.039-.325,1.553,1.553,0,0,0-1.43.814V0H-8.379V-8.453ZM3.012,0H.746V-8.453H3.012ZM.613-10.641a1.112,1.112,0,0,1,.34-.836,1.277,1.277,0,0,1,.926-.328,1.28,1.28,0,0,1,.922.328,1.105,1.105,0,0,1,.344.836A1.108,1.108,0,0,1,2.8-9.8a1.283,1.283,0,0,1-.918.328A1.283,1.283,0,0,1,.961-9.8,1.108,1.108,0,0,1,.613-10.641ZM8.387-1.664A1.481,1.481,0,0,0,9.4-2.008a1.2,1.2,0,0,0,.406-.914h2.117a2.9,2.9,0,0,1-.469,1.574A3.093,3.093,0,0,1,10.2-.238a3.949,3.949,0,0,1-1.77.395A3.67,3.67,0,0,1,5.566-1,4.56,4.56,0,0,1,4.52-4.18v-.148A4.508,4.508,0,0,1,5.559-7.445,3.627,3.627,0,0,1,8.41-8.609a3.555,3.555,0,0,1,2.543.9,3.2,3.2,0,0,1,.973,2.4H9.809A1.551,1.551,0,0,0,9.4-6.377a1.354,1.354,0,0,0-1.031-.412,1.36,1.36,0,0,0-1.191.575,3.333,3.333,0,0,0-.4,1.866v.235a3.375,3.375,0,0,0,.4,1.878A1.377,1.377,0,0,0,8.387-1.664ZM18.113,0a2.507,2.507,0,0,1-.227-.758,2.732,2.732,0,0,1-2.133.914A3,3,0,0,1,13.7-.562a2.312,2.312,0,0,1-.816-1.812,2.389,2.389,0,0,1,1-2.062,4.915,4.915,0,0,1,2.879-.727h1.039v-.484a1.393,1.393,0,0,0-.3-.937,1.183,1.183,0,0,0-.949-.352,1.345,1.345,0,0,0-.895.273.929.929,0,0,0-.324.75H13.066a2.268,2.268,0,0,1,.453-1.359,3,3,0,0,1,1.281-.98,4.669,4.669,0,0,1,1.859-.355,3.689,3.689,0,0,1,2.48.785,2.747,2.747,0,0,1,.918,2.207v3.664a4.041,4.041,0,0,0,.336,1.82V0ZM16.246-1.57a1.945,1.945,0,0,0,.922-.223,1.462,1.462,0,0,0,.625-.6V-3.844h-.844q-1.7,0-1.8,1.172l-.008.133a.9.9,0,0,0,.3.7A1.153,1.153,0,0,0,16.246-1.57Zm9.063-.094a1.481,1.481,0,0,0,1.016-.344,1.2,1.2,0,0,0,.406-.914h2.117a2.9,2.9,0,0,1-.469,1.574A3.093,3.093,0,0,1,27.117-.238a3.949,3.949,0,0,1-1.77.395A3.67,3.67,0,0,1,22.488-1,4.56,4.56,0,0,1,21.441-4.18v-.148A4.508,4.508,0,0,1,22.48-7.445a3.627,3.627,0,0,1,2.852-1.164,3.555,3.555,0,0,1,2.543.9,3.2,3.2,0,0,1,.973,2.4H26.73a1.551,1.551,0,0,0-.406-1.072,1.354,1.354,0,0,0-1.031-.412,1.36,1.36,0,0,0-1.191.575,3.333,3.333,0,0,0-.4,1.866v.235a3.375,3.375,0,0,0,.4,1.878A1.377,1.377,0,0,0,25.309-1.664ZM32.52,0H30.254V-8.453H32.52Zm-2.4-10.641a1.112,1.112,0,0,1,.34-.836,1.277,1.277,0,0,1,.926-.328,1.28,1.28,0,0,1,.922.328,1.105,1.105,0,0,1,.344.836A1.108,1.108,0,0,1,32.3-9.8a1.283,1.283,0,0,1-.918.328,1.283,1.283,0,0,1-.918-.328A1.108,1.108,0,0,1,30.121-10.641ZM34.027-4.3a5.013,5.013,0,0,1,.484-2.242A3.546,3.546,0,0,1,35.906-8.07a4.069,4.069,0,0,1,2.113-.539,3.849,3.849,0,0,1,2.793,1.047A4.2,4.2,0,0,1,42.02-4.719l.016.578A4.418,4.418,0,0,1,40.949-1.02,3.775,3.775,0,0,1,38.035.156a3.793,3.793,0,0,1-2.918-1.172A4.5,4.5,0,0,1,34.027-4.2Zm2.258.16A3.16,3.16,0,0,0,36.738-2.3a1.5,1.5,0,0,0,1.3.638,1.5,1.5,0,0,0,1.281-.63,3.457,3.457,0,0,0,.461-2.015,3.128,3.128,0,0,0-.461-1.831,1.5,1.5,0,0,0-1.3-.649,1.474,1.474,0,0,0-1.281.646A3.516,3.516,0,0,0,36.285-4.144ZM38.465-12h2.461L38.762-9.578H36.926ZM45.5-8.453l.07.977A2.951,2.951,0,0,1,48-8.609a2.453,2.453,0,0,1,2,.789,3.682,3.682,0,0,1,.672,2.359V0H48.418V-5.419a1.47,1.47,0,0,0-.312-1.045,1.4,1.4,0,0,0-1.039-.325,1.553,1.553,0,0,0-1.43.814V0H43.379V-8.453Z" transform="translate(6182.813 -10706.265) rotate(-20)" fill="#12263f"/>
    <rect id="BG" width="177.643" height="2.874" transform="translate(5868.841 -10761.738)" fill="#ff6b00"/>
    <path id="Trazado_1367" data-name="Trazado 1367" d="M-3648.576-2053h7.955l-3.978,3.978Z" transform="translate(9602.734 -8705.893)" fill="#ff6b00"/>
    <path id="Path_179674" data-name="Path 179674" d="M-3590.946-1860.308l12.568-12.568a4.6,4.6,0,0,0,.41-6.041l-5.962-7.846a4.641,4.641,0,0,1-.356-5.11,68.919,68.919,0,0,0,6.784-16.4,4.576,4.576,0,0,1,3.811-3.32l9.814-1.339a4.6,4.6,0,0,0,3.981-4.561v-17.773a4.6,4.6,0,0,0-3.981-4.562l-9.814-1.339a4.575,4.575,0,0,1-3.811-3.319,68.926,68.926,0,0,0-6.784-16.4,4.641,4.641,0,0,1,.356-5.11l5.962-7.846a4.6,4.6,0,0,0-.41-6.041l-12.568-12.568a4.6,4.6,0,0,0-6.041-.41l-7.846,5.962a4.639,4.639,0,0,1-5.11.356,68.963,68.963,0,0,0-16.4-6.784,4.575,4.575,0,0,1-3.319-3.811l-1.339-9.814a4.6,4.6,0,0,0-4.561-3.981h-17.774a4.6,4.6,0,0,0-4.561,3.981l-1.339,9.814a4.575,4.575,0,0,1-3.319,3.811,68.922,68.922,0,0,0-16.4,6.784,4.639,4.639,0,0,1-5.11-.356l-7.846-5.962a4.6,4.6,0,0,0-6.041.41l-12.568,12.568a4.6,4.6,0,0,0-.41,6.041l5.962,7.846a4.639,4.639,0,0,1,.356,5.11,68.926,68.926,0,0,0-6.784,16.4,4.574,4.574,0,0,1-3.811,3.319l-9.814,1.339a4.6,4.6,0,0,0-3.981,4.562v17.773a4.6,4.6,0,0,0,3.981,4.561l9.814,1.339a4.575,4.575,0,0,1,3.811,3.32,68.919,68.919,0,0,0,6.784,16.4,4.639,4.639,0,0,1-.356,5.11l-5.962,7.846a4.6,4.6,0,0,0,.41,6.041l12.568,12.568a4.6,4.6,0,0,0,6.041.41l7.846-5.961a4.639,4.639,0,0,1,5.11-.357,68.926,68.926,0,0,0,16.4,6.785,4.573,4.573,0,0,1,3.319,3.81l1.339,9.814a4.6,4.6,0,0,0,4.561,3.982h17.774a4.6,4.6,0,0,0,4.561-3.982l1.339-9.814a4.573,4.573,0,0,1,3.319-3.81,68.926,68.926,0,0,0,16.4-6.785,4.639,4.639,0,0,1,5.11.357l7.846,5.961A4.6,4.6,0,0,0-3590.946-1860.308Z" transform="translate(9602.734 -8705.893)" fill="gray"/>
    <path id="Path_179675" data-name="Path 179675" d="M-3564.848-1747.765l-8.559-4.985a4.572,4.572,0,0,1-2.254-4.522,69,69,0,0,0-.006-17.752,4.639,4.639,0,0,1,2.281-4.587l8.506-4.974a4.6,4.6,0,0,0,1.928-5.74l-6.816-16.415a4.6,4.6,0,0,0-5.426-2.686l-9.528,2.514a4.642,4.642,0,0,1-4.86-1.622,68.885,68.885,0,0,0-12.569-12.535,4.575,4.575,0,0,1-1.613-4.789l2.511-9.581a4.6,4.6,0,0,0-2.7-5.422l-16.426-6.788a4.6,4.6,0,0,0-5.736,1.938l-4.985,8.559a4.575,4.575,0,0,1-4.523,2.254,68.936,68.936,0,0,0-17.751.006,4.641,4.641,0,0,1-4.587-2.281l-4.975-8.506a4.6,4.6,0,0,0-5.74-1.928l-16.414,6.816a4.6,4.6,0,0,0-2.687,5.426l2.514,9.528a4.639,4.639,0,0,1-1.622,4.859,68.959,68.959,0,0,0-12.534,12.57,4.574,4.574,0,0,1-4.79,1.612l-9.581-2.51a4.6,4.6,0,0,0-5.422,2.7l-6.787,16.426a4.6,4.6,0,0,0,1.938,5.737l8.558,4.985a4.576,4.576,0,0,1,2.255,4.523,68.934,68.934,0,0,0,0,17.751,4.639,4.639,0,0,1-2.281,4.587l-8.506,4.975a4.6,4.6,0,0,0-1.928,5.739l6.816,16.415a4.6,4.6,0,0,0,5.426,2.686l9.529-2.514a4.642,4.642,0,0,1,4.859,1.623,68.942,68.942,0,0,0,12.569,12.534,4.576,4.576,0,0,1,1.613,4.79l-2.511,9.581a4.6,4.6,0,0,0,2.7,5.422l16.426,6.787a4.6,4.6,0,0,0,5.736-1.938l4.985-8.559a4.577,4.577,0,0,1,4.523-2.254,68.9,68.9,0,0,0,17.752-.006,4.64,4.64,0,0,1,4.586,2.281l4.975,8.507a4.606,4.606,0,0,0,5.74,1.928l16.414-6.816a4.6,4.6,0,0,0,2.687-5.427l-2.514-9.528a4.639,4.639,0,0,1,1.622-4.859,68.926,68.926,0,0,0,12.534-12.569,4.575,4.575,0,0,1,4.79-1.613l9.581,2.511a4.6,4.6,0,0,0,5.422-2.7l6.788-16.426A4.605,4.605,0,0,0-3564.848-1747.765Z" transform="translate(9602.734 -8705.893)" fill="#ffb600"/>
    <path id="Path_179677" data-name="Path 179677" d="M-3704.405-1819.868l3.388-18.3a4.82,4.82,0,0,0-3.229-5.455l-9.8-3.232a4.86,4.86,0,0,1-3.338-4.2,72.133,72.133,0,0,0-3.876-18.175,4.789,4.789,0,0,1,1.319-5.124l7.672-6.975a4.82,4.82,0,0,0,.73-6.3l-10.541-15.333a4.819,4.819,0,0,0-6.141-1.574l-9.26,4.665a4.788,4.788,0,0,1-5.256-.6,72.159,72.159,0,0,0-15.582-10.128,4.86,4.86,0,0,1-2.724-4.621l.49-10.3a4.82,4.82,0,0,0-3.937-4.969l-18.3-3.388a4.82,4.82,0,0,0-5.455,3.229l-3.233,9.8a4.857,4.857,0,0,1-4.2,3.338,72.188,72.188,0,0,0-18.175,3.876,4.789,4.789,0,0,1-5.124-1.319l-6.976-7.672a4.819,4.819,0,0,0-6.3-.73l-15.333,10.541a4.821,4.821,0,0,0-1.574,6.141l4.666,9.261a4.787,4.787,0,0,1-.6,5.255,72.158,72.158,0,0,0-10.127,15.583,4.861,4.861,0,0,1-4.621,2.723l-10.3-.49a4.82,4.82,0,0,0-4.968,3.937l-3.388,18.3a4.819,4.819,0,0,0,3.229,5.455l9.8,3.233a4.858,4.858,0,0,1,3.339,4.2,72.1,72.1,0,0,0,3.876,18.176,4.788,4.788,0,0,1-1.319,5.123l-7.673,6.976a4.82,4.82,0,0,0-.729,6.3l10.541,15.333a4.821,4.821,0,0,0,6.141,1.574l9.26-4.666a4.789,4.789,0,0,1,5.256.6,72.195,72.195,0,0,0,15.582,10.128,4.858,4.858,0,0,1,2.724,4.62l-.49,10.305a4.82,4.82,0,0,0,3.936,4.968l18.3,3.388a4.82,4.82,0,0,0,5.455-3.228l3.233-9.8a4.858,4.858,0,0,1,4.2-3.339,72.108,72.108,0,0,0,18.175-3.876,4.791,4.791,0,0,1,5.124,1.319l6.975,7.673a4.82,4.82,0,0,0,6.3.729l15.334-10.541a4.82,4.82,0,0,0,1.574-6.14l-4.666-9.261a4.787,4.787,0,0,1,.6-5.256A72.188,72.188,0,0,0-3724.3-1813.7a4.858,4.858,0,0,1,4.621-2.723l10.3.489A4.819,4.819,0,0,0-3704.405-1819.868Z" transform="translate(9602.734 -8705.893)" fill="#ff6b00"/>
    <ellipse id="Ellipse_5758" data-name="Ellipse 5758" cx="70.175" cy="70.008" rx="70.175" ry="70.008" transform="translate(5888.106 -10702.283)" opacity="0.9" fill="url(#radial-gradient)" style="mix-blend-mode: multiply;isolation: isolate"/>
    <ellipse id="Ellipse_5771" data-name="Ellipse 5771" cx="70.175" cy="70.008" rx="70.175" ry="70.008" transform="translate(5888.106 -10542.008)" opacity="0.7" fill="url(#radial-gradient)" style="mix-blend-mode: multiply;isolation: isolate"/>
    <ellipse id="Ellipse_5770" data-name="Ellipse 5770" cx="73.175" cy="73.008" rx="73.175" ry="73.008" transform="translate(6030 -10624)" opacity="0.9" fill="url(#radial-gradient)" style="mix-blend-mode: multiply;isolation: isolate"/>
    <ellipse id="Ellipse_5772" data-name="Ellipse 5772" cx="73.175" cy="73.008" rx="73.175" ry="73.008" transform="translate(5739.803 -10624)" opacity="0.9" fill="url(#radial-gradient)" style="mix-blend-mode: multiply;isolation: isolate"/>
    <circle id="Ellipse_5759" data-name="Ellipse 5759" cx="61.607" cy="61.607" r="61.607" transform="translate(5896.674 -10693.883)" fill="gray"/>
    <circle id="Ellipse_5765" data-name="Ellipse 5765" cx="54.116" cy="54.116" r="54.116" transform="translate(5904.165 -10686.392)" fill="#fff"/>
    <path id="Path_180233" data-name="Path 180233" d="M-36.885-3.757V0h-2.2V-10.664h4.16a4.813,4.813,0,0,1,2.113.439,3.238,3.238,0,0,1,1.4,1.249,3.482,3.482,0,0,1,.491,1.842,3.062,3.062,0,0,1-1.073,2.472,4.469,4.469,0,0,1-2.97.9Zm0-1.78h1.963a1.93,1.93,0,0,0,1.329-.41,1.492,1.492,0,0,0,.458-1.172A1.759,1.759,0,0,0-33.6-8.386a1.724,1.724,0,0,0-1.274-.5h-2.014ZM-25.994.146A3.89,3.89,0,0,1-28.832-.923a3.8,3.8,0,0,1-1.095-2.849v-.205a4.787,4.787,0,0,1,.461-2.135,3.386,3.386,0,0,1,1.307-1.45,3.669,3.669,0,0,1,1.93-.509,3.289,3.289,0,0,1,2.56,1.025,4.167,4.167,0,0,1,.934,2.908v.864h-5.046a1.966,1.966,0,0,0,.619,1.245,1.871,1.871,0,0,0,1.307.469,2.285,2.285,0,0,0,1.912-.886l1.04,1.165A3.178,3.178,0,0,1-24.192-.231,4.229,4.229,0,0,1-25.994.146Zm-.242-6.511a1.323,1.323,0,0,0-1.022.427,2.209,2.209,0,0,0-.5,1.221h2.944v-.169A1.576,1.576,0,0,0-25.2-5.979,1.365,1.365,0,0,0-26.235-6.365Zm4.373,2.344a4.776,4.776,0,0,1,.831-2.952,2.7,2.7,0,0,1,2.274-1.1,2.427,2.427,0,0,1,1.912.864V-11.25h2.124V0h-1.912l-.1-.842a2.491,2.491,0,0,1-2.036.989,2.69,2.69,0,0,1-2.245-1.1A4.93,4.93,0,0,1-21.863-4.021Zm2.117.151a3.146,3.146,0,0,0,.388,1.714,1.263,1.263,0,0,0,1.128.6,1.416,1.416,0,0,0,1.384-.831V-5.533a1.4,1.4,0,0,0-1.37-.831Q-19.746-6.365-19.746-3.87ZM-8.489,0A2.351,2.351,0,0,1-8.7-.71a2.561,2.561,0,0,1-2,.857,2.814,2.814,0,0,1-1.93-.674,2.167,2.167,0,0,1-.765-1.7,2.24,2.24,0,0,1,.934-1.934,4.608,4.608,0,0,1,2.7-.681h.974V-5.3a1.306,1.306,0,0,0-.282-.879,1.109,1.109,0,0,0-.89-.33,1.261,1.261,0,0,0-.839.256.871.871,0,0,0-.3.7H-13.22A2.126,2.126,0,0,1-12.8-6.819a2.808,2.808,0,0,1,1.2-.919,4.378,4.378,0,0,1,1.743-.333,3.459,3.459,0,0,1,2.325.736,2.575,2.575,0,0,1,.861,2.069v3.435A3.789,3.789,0,0,0-6.35-.125V0Zm-1.75-1.472a1.823,1.823,0,0,0,.864-.209,1.371,1.371,0,0,0,.586-.56V-3.6H-9.58q-1.589,0-1.692,1.1l-.007.125A.847.847,0,0,0-11-1.729,1.081,1.081,0,0,0-10.239-1.472Zm4.893-2.549a4.644,4.644,0,0,1,.868-2.937,2.812,2.812,0,0,1,2.34-1.113A2.466,2.466,0,0,1-.11-7.178l.088-.747H1.9V-.264a3.387,3.387,0,0,1-.472,1.809A3.034,3.034,0,0,1,.1,2.717a4.673,4.673,0,0,1-2.007.4,4.346,4.346,0,0,1-1.7-.348,3.016,3.016,0,0,1-1.252-.9L-3.926.586a2.48,2.48,0,0,0,1.919.886A1.815,1.815,0,0,0-.7,1.022,1.69,1.69,0,0,0-.227-.256V-.681A2.448,2.448,0,0,1-2.153.146,2.8,2.8,0,0,1-4.464-.97a4.643,4.643,0,0,1-.883-2.963Zm2.117.151a2.907,2.907,0,0,0,.432,1.7,1.373,1.373,0,0,0,1.187.614A1.469,1.469,0,0,0-.227-2.288V-5.636A1.465,1.465,0,0,0-1.6-6.365a1.382,1.382,0,0,0-1.2.625A3.278,3.278,0,0,0-3.23-3.87Zm6.423-.165a4.7,4.7,0,0,1,.454-2.1A3.324,3.324,0,0,1,4.955-7.566a3.814,3.814,0,0,1,1.981-.505,3.609,3.609,0,0,1,2.618.981,3.939,3.939,0,0,1,1.132,2.666l.015.542A4.142,4.142,0,0,1,9.683-.956,3.539,3.539,0,0,1,6.951.146a3.556,3.556,0,0,1-2.736-1.1A4.215,4.215,0,0,1,3.193-3.94Zm2.117.15a2.962,2.962,0,0,0,.425,1.727,1.4,1.4,0,0,0,1.216.6,1.4,1.4,0,0,0,1.2-.591,3.241,3.241,0,0,0,.432-1.889,2.933,2.933,0,0,0-.432-1.716,1.4,1.4,0,0,0-1.216-.609,1.382,1.382,0,0,0-1.2.605A3.3,3.3,0,0,0,5.31-3.885ZM7.354-11.25H9.661L7.632-8.979H5.911ZM11.7-4.021a4.644,4.644,0,0,1,.868-2.937A2.812,2.812,0,0,1,14.9-8.071a2.466,2.466,0,0,1,2.029.894l.088-.747H18.94V-.264a3.387,3.387,0,0,1-.472,1.809,3.034,3.034,0,0,1-1.329,1.172,4.673,4.673,0,0,1-2.007.4,4.346,4.346,0,0,1-1.7-.348,3.016,3.016,0,0,1-1.252-.9L13.118.586a2.48,2.48,0,0,0,1.919.886,1.815,1.815,0,0,0,1.311-.45,1.69,1.69,0,0,0,.469-1.278V-.681A2.448,2.448,0,0,1,14.89.146,2.8,2.8,0,0,1,12.579-.97,4.643,4.643,0,0,1,11.7-3.933Zm2.117.151a2.907,2.907,0,0,0,.432,1.7,1.373,1.373,0,0,0,1.187.614,1.469,1.469,0,0,0,1.384-.728V-5.636a1.465,1.465,0,0,0-1.37-.728,1.382,1.382,0,0,0-1.2.625A3.278,3.278,0,0,0,13.813-3.87ZM22.8,0H20.676V-7.925H22.8ZM20.552-9.976a1.042,1.042,0,0,1,.319-.784,1.2,1.2,0,0,1,.868-.308,1.2,1.2,0,0,1,.864.308,1.036,1.036,0,0,1,.322.784,1.039,1.039,0,0,1-.326.791,1.2,1.2,0,0,1-.861.308,1.2,1.2,0,0,1-.861-.308A1.039,1.039,0,0,1,20.552-9.976ZM27.839-1.56a1.388,1.388,0,0,0,.952-.322,1.129,1.129,0,0,0,.381-.857h1.985a2.715,2.715,0,0,1-.439,1.476,2.9,2.9,0,0,1-1.183,1.04,3.7,3.7,0,0,1-1.659.37A3.44,3.44,0,0,1,25.2-.934a4.275,4.275,0,0,1-.981-2.985v-.139a4.226,4.226,0,0,1,.974-2.922,3.4,3.4,0,0,1,2.673-1.091,3.333,3.333,0,0,1,2.384.846,3,3,0,0,1,.912,2.252H29.172a1.455,1.455,0,0,0-.381-1.005,1.27,1.27,0,0,0-.967-.387,1.275,1.275,0,0,0-1.117.539,3.125,3.125,0,0,0-.377,1.749v.22A3.164,3.164,0,0,0,26.7-2.1,1.291,1.291,0,0,0,27.839-1.56Zm4.2-2.476a4.7,4.7,0,0,1,.454-2.1A3.324,3.324,0,0,1,33.8-7.566a3.814,3.814,0,0,1,1.981-.505A3.609,3.609,0,0,1,38.4-7.09a3.939,3.939,0,0,1,1.132,2.666l.015.542A4.142,4.142,0,0,1,38.525-.956a3.539,3.539,0,0,1-2.732,1.1,3.556,3.556,0,0,1-2.736-1.1A4.215,4.215,0,0,1,32.036-3.94Zm2.117.15a2.962,2.962,0,0,0,.425,1.727,1.4,1.4,0,0,0,1.216.6,1.4,1.4,0,0,0,1.2-.591,3.241,3.241,0,0,0,.432-1.889,2.933,2.933,0,0,0-.432-1.716,1.4,1.4,0,0,0-1.216-.609,1.382,1.382,0,0,0-1.2.605A3.3,3.3,0,0,0,34.153-3.885Z" transform="translate(5958.281 -10627.892)" fill="#12263f"/>
    <circle id="Ellipse_5763" data-name="Ellipse 5763" cx="64.498" cy="64.498" r="64.498" transform="translate(6038.48 -10615.527)" fill="#5a189a"/>
    <circle id="Ellipse_5766" data-name="Ellipse 5766" cx="56.418" cy="56.418" r="56.418" transform="translate(6046.56 -10607.448)" fill="#fff"/>
    <path id="Path_180234" data-name="Path 180234" d="M-42.506-2.2h-3.853L-47.091,0h-2.336l3.97-10.664h2.036L-39.43,0h-2.336Zm-3.259-1.78H-43.1l-1.34-3.992Zm6.863-.044a4.776,4.776,0,0,1,.831-2.952,2.7,2.7,0,0,1,2.274-1.1,2.427,2.427,0,0,1,1.912.864V-11.25h2.124V0h-1.912l-.1-.842a2.491,2.491,0,0,1-2.036.989,2.69,2.69,0,0,1-2.245-1.1A4.93,4.93,0,0,1-38.9-4.021Zm2.117.151A3.146,3.146,0,0,0-36.4-2.156a1.263,1.263,0,0,0,1.128.6,1.416,1.416,0,0,0,1.384-.831V-5.533a1.4,1.4,0,0,0-1.37-.831Q-36.786-6.365-36.786-3.87Zm8.65-4.054.066.886a2.785,2.785,0,0,1,2.278-1.033,2.114,2.114,0,0,1,2.1,1.208,2.721,2.721,0,0,1,2.38-1.208,2.364,2.364,0,0,1,1.919.751,3.451,3.451,0,0,1,.63,2.26V0h-2.124V-5.065a1.515,1.515,0,0,0-.264-.987,1.167,1.167,0,0,0-.93-.312,1.321,1.321,0,0,0-1.318.91L-23.39,0h-2.117V-5.058a1.5,1.5,0,0,0-.271-1,1.178,1.178,0,0,0-.923-.308,1.371,1.371,0,0,0-1.3.749V0h-2.117V-7.925ZM-14.9,0h-2.124V-7.925H-14.9ZM-17.15-9.976a1.042,1.042,0,0,1,.319-.784,1.2,1.2,0,0,1,.868-.308,1.2,1.2,0,0,1,.864.308,1.036,1.036,0,0,1,.322.784,1.039,1.039,0,0,1-.326.791,1.2,1.2,0,0,1-.861.308,1.2,1.2,0,0,1-.861-.308A1.039,1.039,0,0,1-17.15-9.976Zm5.94,2.051.066.916A2.767,2.767,0,0,1-8.866-8.071a2.3,2.3,0,0,1,1.875.74,3.451,3.451,0,0,1,.63,2.212V0H-8.478V-5.08a1.379,1.379,0,0,0-.293-.98,1.31,1.31,0,0,0-.974-.3,1.456,1.456,0,0,0-1.34.763V0H-13.2V-7.925ZM-2.523,0H-4.647V-7.925h2.124ZM-4.772-9.976a1.042,1.042,0,0,1,.319-.784,1.2,1.2,0,0,1,.868-.308,1.2,1.2,0,0,1,.864.308,1.036,1.036,0,0,1,.322.784,1.039,1.039,0,0,1-.326.791,1.2,1.2,0,0,1-.861.308,1.2,1.2,0,0,1-.861-.308A1.039,1.039,0,0,1-4.772-9.976ZM3.512-2.19A.682.682,0,0,0,3.127-2.8a4.368,4.368,0,0,0-1.234-.4Q-.934-3.794-.934-5.6A2.178,2.178,0,0,1-.059-7.365,3.531,3.531,0,0,1,2.23-8.071a3.8,3.8,0,0,1,2.413.71,2.239,2.239,0,0,1,.9,1.846H3.431a1.024,1.024,0,0,0-.293-.751,1.24,1.24,0,0,0-.916-.3,1.267,1.267,0,0,0-.828.242.763.763,0,0,0-.293.615.652.652,0,0,0,.333.568,3.428,3.428,0,0,0,1.124.374,9.183,9.183,0,0,1,1.333.355A2.19,2.19,0,0,1,5.57-2.278,2.067,2.067,0,0,1,4.64-.524a4.013,4.013,0,0,1-2.4.67A4.191,4.191,0,0,1,.469-.209,2.968,2.968,0,0,1-.743-1.183,2.263,2.263,0,0,1-1.183-2.52H.824a1.105,1.105,0,0,0,.417.864,1.656,1.656,0,0,0,1.04.3A1.533,1.533,0,0,0,3.2-1.586.718.718,0,0,0,3.512-2.19ZM9.467-9.873v1.948h1.355v1.553H9.467v3.955a.944.944,0,0,0,.168.63.846.846,0,0,0,.645.19,3.376,3.376,0,0,0,.623-.051v1.6A4.358,4.358,0,0,1,9.62.146,2.021,2.021,0,0,1,7.35-2.1v-4.27H6.193V-7.925H7.35V-9.873ZM16.454-5.94A5.751,5.751,0,0,0,15.692-6a1.55,1.55,0,0,0-1.575.813V0H12V-7.925h2l.059.945a1.961,1.961,0,0,1,1.765-1.091,2.218,2.218,0,0,1,.659.1ZM21.844,0a2.351,2.351,0,0,1-.212-.71,2.561,2.561,0,0,1-2,.857A2.814,2.814,0,0,1,17.7-.527a2.167,2.167,0,0,1-.765-1.7,2.24,2.24,0,0,1,.934-1.934,4.608,4.608,0,0,1,2.7-.681h.974V-5.3a1.306,1.306,0,0,0-.282-.879,1.109,1.109,0,0,0-.89-.33,1.261,1.261,0,0,0-.839.256.871.871,0,0,0-.3.7H17.113a2.126,2.126,0,0,1,.425-1.274,2.808,2.808,0,0,1,1.2-.919,4.378,4.378,0,0,1,1.743-.333,3.459,3.459,0,0,1,2.325.736,2.575,2.575,0,0,1,.861,2.069v3.435a3.789,3.789,0,0,0,.315,1.707V0Zm-1.75-1.472a1.823,1.823,0,0,0,.864-.209,1.371,1.371,0,0,0,.586-.56V-3.6h-.791q-1.589,0-1.692,1.1l-.007.125a.847.847,0,0,0,.278.652A1.081,1.081,0,0,0,20.094-1.472Zm7.734-8.4v1.948h1.355v1.553H27.828v3.955a.944.944,0,0,0,.168.63.846.846,0,0,0,.645.19,3.376,3.376,0,0,0,.623-.051v1.6a4.358,4.358,0,0,1-1.282.19A2.021,2.021,0,0,1,25.712-2.1v-4.27H24.554V-7.925h1.157V-9.873ZM32.6,0H30.472V-7.925H32.6ZM30.348-9.976a1.042,1.042,0,0,1,.319-.784,1.2,1.2,0,0,1,.868-.308,1.2,1.2,0,0,1,.864.308,1.036,1.036,0,0,1,.322.784,1.039,1.039,0,0,1-.326.791,1.2,1.2,0,0,1-.861.308,1.2,1.2,0,0,1-.861-.308A1.039,1.039,0,0,1,30.348-9.976Zm6.958,7.39,1.472-5.339H40.99L38.317,0H36.3L33.622-7.925h2.212Zm4.175-1.45a4.7,4.7,0,0,1,.454-2.1,3.324,3.324,0,0,1,1.307-1.428,3.814,3.814,0,0,1,1.981-.505,3.609,3.609,0,0,1,2.618.981,3.939,3.939,0,0,1,1.132,2.666l.015.542A4.142,4.142,0,0,1,47.97-.956a3.539,3.539,0,0,1-2.732,1.1A3.556,3.556,0,0,1,42.5-.952,4.215,4.215,0,0,1,41.481-3.94Zm2.117.15a2.962,2.962,0,0,0,.425,1.727,1.4,1.4,0,0,0,1.216.6,1.4,1.4,0,0,0,1.2-.591,3.241,3.241,0,0,0,.432-1.889,2.933,2.933,0,0,0-.432-1.716,1.4,1.4,0,0,0-1.216-.609,1.382,1.382,0,0,0-1.2.605A3.3,3.3,0,0,0,43.6-3.885Z" transform="translate(6102.979 -10546.646)" fill="#12263f"/>
    <circle id="Ellipse_5761" data-name="Ellipse 5761" cx="61.607" cy="61.607" r="61.607" transform="translate(5896.674 -10533.606)" fill="#ffb600"/>
    <circle id="Ellipse_5764" data-name="Ellipse 5764" cx="54.116" cy="54.116" r="54.116" transform="translate(5904.165 -10526.114)" fill="#fff"/>
    <path id="Path_180232" data-name="Path 180232" d="M-35.061-3.552a3.774,3.774,0,0,1-1.271,2.71,4.463,4.463,0,0,1-3.021.989,4.013,4.013,0,0,1-3.226-1.381,5.661,5.661,0,0,1-1.176-3.79v-.652a6.393,6.393,0,0,1,.542-2.71,4.062,4.062,0,0,1,1.549-1.8,4.339,4.339,0,0,1,2.34-.626,4.348,4.348,0,0,1,2.974.989,4.055,4.055,0,0,1,1.3,2.776h-2.2a2.227,2.227,0,0,0-.575-1.5,2.129,2.129,0,0,0-1.505-.465,1.867,1.867,0,0,0-1.644.787,4.413,4.413,0,0,0-.56,2.443v.806A4.723,4.723,0,0,0-41-2.446a1.832,1.832,0,0,0,1.652.8,2.169,2.169,0,0,0,1.52-.465,2.1,2.1,0,0,0,.575-1.439Zm.974-.483a4.7,4.7,0,0,1,.454-2.1,3.324,3.324,0,0,1,1.307-1.428,3.814,3.814,0,0,1,1.981-.505,3.609,3.609,0,0,1,2.618.981,3.939,3.939,0,0,1,1.132,2.666l.015.542A4.142,4.142,0,0,1-27.6-.956,3.539,3.539,0,0,1-30.33.146a3.556,3.556,0,0,1-2.736-1.1A4.215,4.215,0,0,1-34.087-3.94Zm2.117.15a2.962,2.962,0,0,0,.425,1.727,1.4,1.4,0,0,0,1.216.6,1.4,1.4,0,0,0,1.2-.591A3.241,3.241,0,0,0-28.7-4.039a2.933,2.933,0,0,0-.432-1.716,1.4,1.4,0,0,0-1.216-.609,1.382,1.382,0,0,0-1.2.605A3.3,3.3,0,0,0-31.97-3.885Zm8.643-4.039.066.916a2.767,2.767,0,0,1,2.278-1.062,2.3,2.3,0,0,1,1.875.74,3.451,3.451,0,0,1,.63,2.212V0H-20.6V-5.08a1.379,1.379,0,0,0-.293-.98,1.31,1.31,0,0,0-.974-.3A1.456,1.456,0,0,0-23.2-5.6V0H-25.32V-7.925Zm9.749,6.365a1.388,1.388,0,0,0,.952-.322,1.129,1.129,0,0,0,.381-.857h1.985A2.715,2.715,0,0,1-10.7-1.263a2.9,2.9,0,0,1-1.183,1.04,3.7,3.7,0,0,1-1.659.37,3.44,3.44,0,0,1-2.681-1.08A4.275,4.275,0,0,1-17.2-3.918v-.139A4.226,4.226,0,0,1-16.23-6.98a3.4,3.4,0,0,1,2.673-1.091,3.333,3.333,0,0,1,2.384.846,3,3,0,0,1,.912,2.252h-1.985a1.455,1.455,0,0,0-.381-1.005,1.27,1.27,0,0,0-.967-.387,1.275,1.275,0,0,0-1.117.539,3.125,3.125,0,0,0-.377,1.749v.22A3.164,3.164,0,0,0-14.714-2.1,1.291,1.291,0,0,0-13.579-1.56ZM-5.405.146A3.89,3.89,0,0,1-8.243-.923,3.8,3.8,0,0,1-9.338-3.772v-.205a4.787,4.787,0,0,1,.461-2.135A3.386,3.386,0,0,1-7.57-7.562a3.669,3.669,0,0,1,1.93-.509A3.289,3.289,0,0,1-3.08-7.046a4.167,4.167,0,0,1,.934,2.908v.864H-7.192a1.966,1.966,0,0,0,.619,1.245,1.871,1.871,0,0,0,1.307.469,2.285,2.285,0,0,0,1.912-.886l1.04,1.165A3.178,3.178,0,0,1-3.6-.231,4.229,4.229,0,0,1-5.405.146Zm-.242-6.511a1.323,1.323,0,0,0-1.022.427,2.209,2.209,0,0,0-.5,1.221h2.944v-.169a1.576,1.576,0,0,0-.381-1.092A1.365,1.365,0,0,0-5.647-6.365ZM6.189-3.889A4.753,4.753,0,0,1,5.358-.956,2.665,2.665,0,0,1,3.113.146,2.469,2.469,0,0,1,1.172-.688V3.047H-.945V-7.925H1.018l.073.776A2.488,2.488,0,0,1,3.1-8.071,2.683,2.683,0,0,1,5.376-6.987,4.882,4.882,0,0,1,6.189-4ZM4.072-4.051A3.136,3.136,0,0,0,3.68-5.762a1.275,1.275,0,0,0-1.139-.6,1.385,1.385,0,0,0-1.37.764v3.255a1.409,1.409,0,0,0,1.384.786Q4.072-1.56,4.072-4.051Zm5.962-5.823v1.948h1.355v1.553H10.034v3.955a.944.944,0,0,0,.168.63.846.846,0,0,0,.645.19,3.376,3.376,0,0,0,.623-.051v1.6a4.358,4.358,0,0,1-1.282.19A2.021,2.021,0,0,1,7.917-2.1v-4.27H6.76V-7.925H7.917V-9.873Zm7.28,9.067a2.654,2.654,0,0,1-2.168.952A2.5,2.5,0,0,1,13.2-.586a3.127,3.127,0,0,1-.685-2.146V-7.925h2.117V-2.8q0,1.239,1.128,1.239a1.528,1.528,0,0,0,1.479-.748V-7.925h2.124V0H17.373ZM25.554,0a2.351,2.351,0,0,1-.212-.71,2.561,2.561,0,0,1-2,.857,2.814,2.814,0,0,1-1.93-.674,2.167,2.167,0,0,1-.765-1.7,2.24,2.24,0,0,1,.934-1.934,4.608,4.608,0,0,1,2.7-.681h.974V-5.3a1.306,1.306,0,0,0-.282-.879,1.109,1.109,0,0,0-.89-.33,1.261,1.261,0,0,0-.839.256.871.871,0,0,0-.3.7H20.823a2.126,2.126,0,0,1,.425-1.274,2.808,2.808,0,0,1,1.2-.919,4.378,4.378,0,0,1,1.743-.333,3.459,3.459,0,0,1,2.325.736,2.575,2.575,0,0,1,.861,2.069v3.435a3.789,3.789,0,0,0,.315,1.707V0ZM23.8-1.472a1.823,1.823,0,0,0,.864-.209,1.371,1.371,0,0,0,.586-.56V-3.6h-.791q-1.589,0-1.692,1.1l-.007.125a.847.847,0,0,0,.278.652A1.081,1.081,0,0,0,23.8-1.472ZM31.238,0H29.114V-11.25h2.124Zm5.149-4.036a4.7,4.7,0,0,1,.454-2.1,3.324,3.324,0,0,1,1.307-1.428,3.814,3.814,0,0,1,1.981-.505,3.609,3.609,0,0,1,2.618.981,3.939,3.939,0,0,1,1.132,2.666l.015.542A4.142,4.142,0,0,1,42.876-.956a3.539,3.539,0,0,1-2.732,1.1,3.556,3.556,0,0,1-2.736-1.1A4.215,4.215,0,0,1,36.387-3.94Zm2.117.15a2.962,2.962,0,0,0,.425,1.727,1.4,1.4,0,0,0,1.216.6,1.4,1.4,0,0,0,1.2-.591,3.241,3.241,0,0,0,.432-1.889,2.933,2.933,0,0,0-.432-1.716,1.4,1.4,0,0,0-1.216-.609,1.382,1.382,0,0,0-1.2.605A3.3,3.3,0,0,0,38.5-3.885ZM-34.175,8.127v1.948h1.355v1.553h-1.355v3.955a.944.944,0,0,0,.168.63.846.846,0,0,0,.645.19,3.376,3.376,0,0,0,.623-.051v1.6a4.358,4.358,0,0,1-1.282.19A2.021,2.021,0,0,1-36.292,15.9v-4.27h-1.157V10.075h1.157V8.127Zm6.182,10.02a3.89,3.89,0,0,1-2.838-1.069,3.8,3.8,0,0,1-1.095-2.849v-.205a4.787,4.787,0,0,1,.461-2.135,3.386,3.386,0,0,1,1.307-1.45,3.669,3.669,0,0,1,1.93-.509,3.289,3.289,0,0,1,2.56,1.025,4.167,4.167,0,0,1,.934,2.908v.864H-29.78a1.966,1.966,0,0,0,.619,1.245,1.871,1.871,0,0,0,1.307.469,2.285,2.285,0,0,0,1.912-.886l1.04,1.165a3.178,3.178,0,0,1-1.289,1.051A4.229,4.229,0,0,1-27.993,18.146Zm-.242-6.511a1.323,1.323,0,0,0-1.022.427,2.209,2.209,0,0,0-.5,1.221h2.944v-.169a1.576,1.576,0,0,0-.381-1.092A1.365,1.365,0,0,0-28.235,11.635ZM-21.3,18h-2.124V6.75H-21.3Zm5.391.146a3.89,3.89,0,0,1-2.838-1.069,3.8,3.8,0,0,1-1.095-2.849v-.205a4.787,4.787,0,0,1,.461-2.135,3.386,3.386,0,0,1,1.307-1.45,3.669,3.669,0,0,1,1.93-.509,3.289,3.289,0,0,1,2.56,1.025,4.167,4.167,0,0,1,.934,2.908v.864H-17.7a1.966,1.966,0,0,0,.619,1.245,1.871,1.871,0,0,0,1.307.469,2.285,2.285,0,0,0,1.912-.886l1.04,1.165a3.178,3.178,0,0,1-1.289,1.051A4.229,4.229,0,0,1-15.908,18.146Zm-.242-6.511a1.323,1.323,0,0,0-1.022.427,2.209,2.209,0,0,0-.5,1.221h2.944v-.169a1.576,1.576,0,0,0-.381-1.092A1.365,1.365,0,0,0-16.15,11.635Zm4.373,2.329a4.7,4.7,0,0,1,.454-2.1,3.324,3.324,0,0,1,1.307-1.428,3.814,3.814,0,0,1,1.981-.505,3.609,3.609,0,0,1,2.618.981,3.939,3.939,0,0,1,1.132,2.666l.015.542a4.142,4.142,0,0,1-1.018,2.926,3.539,3.539,0,0,1-2.732,1.1,3.556,3.556,0,0,1-2.736-1.1,4.215,4.215,0,0,1-1.022-2.988Zm2.117.15a2.962,2.962,0,0,0,.425,1.727,1.4,1.4,0,0,0,1.216.6,1.4,1.4,0,0,0,1.2-.591,3.241,3.241,0,0,0,.432-1.889,2.933,2.933,0,0,0-.432-1.716,1.4,1.4,0,0,0-1.216-.609,1.382,1.382,0,0,0-1.2.605A3.3,3.3,0,0,0-9.661,14.115ZM-.732,18H-2.856V6.75H-.732ZM.681,13.964a4.7,4.7,0,0,1,.454-2.1,3.324,3.324,0,0,1,1.307-1.428,3.814,3.814,0,0,1,1.981-.505,3.609,3.609,0,0,1,2.618.981,3.939,3.939,0,0,1,1.132,2.666l.015.542A4.142,4.142,0,0,1,7.17,17.044a3.539,3.539,0,0,1-2.732,1.1,3.556,3.556,0,0,1-2.736-1.1A4.215,4.215,0,0,1,.681,14.06Zm2.117.15a2.962,2.962,0,0,0,.425,1.727,1.4,1.4,0,0,0,1.216.6,1.4,1.4,0,0,0,1.2-.591,3.241,3.241,0,0,0,.432-1.889,2.933,2.933,0,0,0-.432-1.716,1.4,1.4,0,0,0-1.216-.609,1.382,1.382,0,0,0-1.2.605A3.3,3.3,0,0,0,2.8,14.115ZM4.841,6.75H7.148L5.12,9.021H3.4Zm4.343,7.229a4.644,4.644,0,0,1,.868-2.937,2.812,2.812,0,0,1,2.34-1.113,2.466,2.466,0,0,1,2.029.894l.088-.747h1.919v7.661a3.387,3.387,0,0,1-.472,1.809,3.034,3.034,0,0,1-1.329,1.172,4.673,4.673,0,0,1-2.007.4,4.346,4.346,0,0,1-1.7-.348,3.016,3.016,0,0,1-1.252-.9l.938-1.289a2.48,2.48,0,0,0,1.919.886,1.815,1.815,0,0,0,1.311-.45,1.69,1.69,0,0,0,.469-1.278v-.425a2.448,2.448,0,0,1-1.926.828,2.8,2.8,0,0,1-2.311-1.117,4.643,4.643,0,0,1-.883-2.963Zm2.117.151a2.907,2.907,0,0,0,.432,1.7,1.373,1.373,0,0,0,1.187.614,1.469,1.469,0,0,0,1.384-.728V12.364a1.465,1.465,0,0,0-1.37-.728,1.382,1.382,0,0,0-1.2.625A3.278,3.278,0,0,0,11.3,14.13ZM20.288,18H18.164V10.075h2.124ZM18.04,8.024a1.042,1.042,0,0,1,.319-.784,1.373,1.373,0,0,1,1.732,0,1.118,1.118,0,0,1,0,1.575,1.358,1.358,0,0,1-1.721,0A1.039,1.039,0,0,1,18.04,8.024Zm7.288,8.416a1.388,1.388,0,0,0,.952-.322,1.129,1.129,0,0,0,.381-.857h1.985a2.715,2.715,0,0,1-.439,1.476,2.9,2.9,0,0,1-1.183,1.04,3.7,3.7,0,0,1-1.659.37,3.44,3.44,0,0,1-2.681-1.08,4.275,4.275,0,0,1-.981-2.985v-.139a4.226,4.226,0,0,1,.974-2.922,3.4,3.4,0,0,1,2.673-1.091,3.333,3.333,0,0,1,2.384.846,3,3,0,0,1,.912,2.252H26.66a1.455,1.455,0,0,0-.381-1.005,1.416,1.416,0,0,0-2.084.153,3.125,3.125,0,0,0-.377,1.749v.22a3.164,3.164,0,0,0,.374,1.761A1.291,1.291,0,0,0,25.327,16.44Zm4.2-2.476a4.7,4.7,0,0,1,.454-2.1,3.324,3.324,0,0,1,1.307-1.428,3.814,3.814,0,0,1,1.981-.505,3.609,3.609,0,0,1,2.618.981,3.939,3.939,0,0,1,1.132,2.666l.015.542a4.142,4.142,0,0,1-1.018,2.926,3.946,3.946,0,0,1-5.468,0,4.215,4.215,0,0,1-1.022-2.988Zm2.117.15a2.962,2.962,0,0,0,.425,1.727,1.526,1.526,0,0,0,2.417.007,3.241,3.241,0,0,0,.432-1.889,2.933,2.933,0,0,0-.432-1.716,1.4,1.4,0,0,0-1.216-.609,1.382,1.382,0,0,0-1.2.605A3.3,3.3,0,0,0,31.641,14.115Z" transform="translate(5958.281 -10476.615)" fill="#12263f"/>
    <circle id="Ellipse_5768" data-name="Ellipse 5768" cx="64.498" cy="64.498" r="64.498" transform="translate(5748.48 -10615.527)" fill="#ff6b00"/>
    <circle id="Ellipse_5769" data-name="Ellipse 5769" cx="56.418" cy="56.418" r="56.418" transform="translate(5756.56 -10607.448)" fill="#fff"/>
    <path id="Path_180230" data-name="Path 180230" d="M-36.891,0h-2.344V-11.375h2.344Zm4.1-8.453.07.977a2.951,2.951,0,0,1,2.43-1.133,2.453,2.453,0,0,1,2,.789,3.682,3.682,0,0,1,.672,2.359V0h-2.258V-5.419a1.47,1.47,0,0,0-.312-1.045,1.4,1.4,0,0,0-1.039-.325,1.553,1.553,0,0,0-1.43.814V0h-2.258V-8.453Zm9.586-2.078v2.078h1.445V-6.8H-23.2v4.219a1.007,1.007,0,0,0,.18.672.9.9,0,0,0,.688.2,3.6,3.6,0,0,0,.664-.055V-.047a4.648,4.648,0,0,1-1.367.2,2.156,2.156,0,0,1-2.422-2.4V-6.8H-26.7V-8.453h1.234v-2.078ZM-16.609.156A4.15,4.15,0,0,1-19.637-.984,4.054,4.054,0,0,1-20.8-4.023v-.219a5.106,5.106,0,0,1,.492-2.277,3.612,3.612,0,0,1,1.395-1.547,3.914,3.914,0,0,1,2.059-.543,3.508,3.508,0,0,1,2.73,1.094,4.444,4.444,0,0,1,1,3.1v.922h-5.383a2.1,2.1,0,0,0,.66,1.328,2,2,0,0,0,1.395.5,2.437,2.437,0,0,0,2.039-.945l1.109,1.242A3.389,3.389,0,0,1-14.687-.246,4.511,4.511,0,0,1-16.609.156Zm-.258-6.945a1.411,1.411,0,0,0-1.09.455,2.357,2.357,0,0,0-.535,1.3h3.141v-.181a1.681,1.681,0,0,0-.406-1.165A1.456,1.456,0,0,0-16.867-6.789Zm9.766.453A6.134,6.134,0,0,0-7.914-6.4a1.654,1.654,0,0,0-1.68.867V0h-2.258V-8.453h2.133l.063,1.008A2.092,2.092,0,0,1-7.773-8.609a2.366,2.366,0,0,1,.7.1ZM-1.352,0a2.507,2.507,0,0,1-.227-.758A2.732,2.732,0,0,1-3.711.156,3,3,0,0,1-5.77-.562a2.312,2.312,0,0,1-.816-1.812,2.389,2.389,0,0,1,1-2.062,4.915,4.915,0,0,1,2.879-.727h1.039v-.484a1.393,1.393,0,0,0-.3-.937,1.183,1.183,0,0,0-.949-.352,1.345,1.345,0,0,0-.895.273.929.929,0,0,0-.324.75H-6.4a2.268,2.268,0,0,1,.453-1.359,3,3,0,0,1,1.281-.98A4.669,4.669,0,0,1-2.8-8.609a3.689,3.689,0,0,1,2.48.785A2.747,2.747,0,0,1,.594-5.617v3.664A4.041,4.041,0,0,0,.93-.133V0ZM-3.219-1.57A1.945,1.945,0,0,0-2.3-1.793a1.462,1.462,0,0,0,.625-.6V-3.844h-.844q-1.7,0-1.8,1.172l-.008.133a.9.9,0,0,0,.3.7A1.153,1.153,0,0,0-3.219-1.57Zm9.063-.094a1.481,1.481,0,0,0,1.016-.344,1.2,1.2,0,0,0,.406-.914H9.383a2.9,2.9,0,0,1-.469,1.574A3.093,3.093,0,0,1,7.652-.238a3.949,3.949,0,0,1-1.77.395A3.67,3.67,0,0,1,3.023-1,4.56,4.56,0,0,1,1.977-4.18v-.148A4.508,4.508,0,0,1,3.016-7.445,3.627,3.627,0,0,1,5.867-8.609a3.555,3.555,0,0,1,2.543.9,3.2,3.2,0,0,1,.973,2.4H7.266a1.551,1.551,0,0,0-.406-1.072,1.354,1.354,0,0,0-1.031-.412,1.36,1.36,0,0,0-1.191.575,3.333,3.333,0,0,0-.4,1.866v.235a3.375,3.375,0,0,0,.4,1.878A1.377,1.377,0,0,0,5.844-1.664Zm8.344,0A1.481,1.481,0,0,0,15.2-2.008a1.2,1.2,0,0,0,.406-.914h2.117a2.9,2.9,0,0,1-.469,1.574A3.093,3.093,0,0,1,16-.238a3.949,3.949,0,0,1-1.77.395A3.67,3.67,0,0,1,11.367-1,4.56,4.56,0,0,1,10.32-4.18v-.148a4.508,4.508,0,0,1,1.039-3.117,3.627,3.627,0,0,1,2.852-1.164,3.555,3.555,0,0,1,2.543.9,3.2,3.2,0,0,1,.973,2.4H15.609A1.551,1.551,0,0,0,15.2-6.377a1.354,1.354,0,0,0-1.031-.412,1.36,1.36,0,0,0-1.191.575,3.333,3.333,0,0,0-.4,1.866v.235a3.375,3.375,0,0,0,.4,1.878A1.377,1.377,0,0,0,14.188-1.664ZM21.4,0H19.133V-8.453H21.4ZM19-10.641a1.112,1.112,0,0,1,.34-.836,1.277,1.277,0,0,1,.926-.328,1.28,1.28,0,0,1,.922.328,1.105,1.105,0,0,1,.344.836,1.108,1.108,0,0,1-.348.844,1.283,1.283,0,0,1-.918.328,1.283,1.283,0,0,1-.918-.328A1.108,1.108,0,0,1,19-10.641ZM22.906-4.3a5.013,5.013,0,0,1,.484-2.242A3.546,3.546,0,0,1,24.785-8.07,4.069,4.069,0,0,1,26.9-8.609a3.849,3.849,0,0,1,2.793,1.047A4.2,4.2,0,0,1,30.9-4.719l.016.578A4.418,4.418,0,0,1,29.828-1.02,3.775,3.775,0,0,1,26.914.156,3.793,3.793,0,0,1,24-1.016,4.5,4.5,0,0,1,22.906-4.2Zm2.258.16A3.16,3.16,0,0,0,25.617-2.3a1.5,1.5,0,0,0,1.3.638,1.5,1.5,0,0,0,1.281-.63,3.457,3.457,0,0,0,.461-2.015A3.128,3.128,0,0,0,28.2-6.14a1.5,1.5,0,0,0-1.3-.649,1.474,1.474,0,0,0-1.281.646A3.516,3.516,0,0,0,25.164-4.144ZM27.344-12H29.8L27.641-9.578H25.8Zm7.039,3.547.07.977a2.951,2.951,0,0,1,2.43-1.133,2.453,2.453,0,0,1,2,.789,3.682,3.682,0,0,1,.672,2.359V0H37.3V-5.419a1.47,1.47,0,0,0-.312-1.045,1.4,1.4,0,0,0-1.039-.325,1.553,1.553,0,0,0-1.43.814V0H32.258V-8.453ZM-17.2,17.536a1.481,1.481,0,0,0,1.016-.344,1.2,1.2,0,0,0,.406-.914h2.117a2.9,2.9,0,0,1-.469,1.574,3.093,3.093,0,0,1-1.262,1.109,3.949,3.949,0,0,1-1.77.395A3.67,3.67,0,0,1-20.016,18.2a4.56,4.56,0,0,1-1.047-3.184v-.148a4.508,4.508,0,0,1,1.039-3.117,3.627,3.627,0,0,1,2.852-1.164,3.555,3.555,0,0,1,2.543.9,3.2,3.2,0,0,1,.973,2.4h-2.117a1.551,1.551,0,0,0-.406-1.072,1.354,1.354,0,0,0-1.031-.412,1.36,1.36,0,0,0-1.191.575,3.333,3.333,0,0,0-.4,1.866v.235a3.375,3.375,0,0,0,.4,1.878A1.377,1.377,0,0,0-17.2,17.536Zm4.477-2.641a5.013,5.013,0,0,1,.484-2.242A3.546,3.546,0,0,1-10.84,11.13a4.069,4.069,0,0,1,2.113-.539,3.849,3.849,0,0,1,2.793,1.047,4.2,4.2,0,0,1,1.207,2.844l.016.578A4.418,4.418,0,0,1-5.8,18.18a3.775,3.775,0,0,1-2.914,1.176,3.793,3.793,0,0,1-2.918-1.172A4.5,4.5,0,0,1-12.719,15Zm2.258.16a3.16,3.16,0,0,0,.453,1.843,1.5,1.5,0,0,0,1.3.638,1.5,1.5,0,0,0,1.281-.63,3.457,3.457,0,0,0,.461-2.015A3.128,3.128,0,0,0-7.43,13.06a1.5,1.5,0,0,0-1.3-.649,1.474,1.474,0,0,0-1.281.646A3.516,3.516,0,0,0-10.461,15.056Zm9.219-4.309.07.977a2.951,2.951,0,0,1,2.43-1.133,2.453,2.453,0,0,1,2,.789,3.682,3.682,0,0,1,.672,2.359V19.2H1.672V13.781a1.47,1.47,0,0,0-.312-1.045A1.4,1.4,0,0,0,.32,12.411a1.553,1.553,0,0,0-1.43.814V19.2H-3.367V10.747ZM12.008,19.2H9.742V7.2h2.266Zm6.758,0a2.507,2.507,0,0,1-.227-.758,2.732,2.732,0,0,1-2.133.914,3,3,0,0,1-2.059-.719,2.312,2.312,0,0,1-.816-1.812,2.389,2.389,0,0,1,1-2.062,4.915,4.915,0,0,1,2.879-.727h1.039v-.484a1.393,1.393,0,0,0-.3-.937,1.183,1.183,0,0,0-.949-.352,1.345,1.345,0,0,0-.895.273.929.929,0,0,0-.324.75H13.719a2.268,2.268,0,0,1,.453-1.359,3,3,0,0,1,1.281-.98,4.669,4.669,0,0,1,1.859-.355,3.689,3.689,0,0,1,2.48.785,2.747,2.747,0,0,1,.918,2.207v3.664a4.041,4.041,0,0,0,.336,1.82V19.2ZM16.9,17.63a1.945,1.945,0,0,0,.922-.223,1.462,1.462,0,0,0,.625-.6V15.356H17.6q-1.7,0-1.8,1.172l-.008.133a.9.9,0,0,0,.3.7A1.153,1.153,0,0,0,16.9,17.63Zm-52.52,19.106a1.481,1.481,0,0,0,1.016-.344,1.2,1.2,0,0,0,.406-.914h2.117a2.9,2.9,0,0,1-.469,1.574,3.093,3.093,0,0,1-1.262,1.109,3.949,3.949,0,0,1-1.77.395A3.67,3.67,0,0,1-38.441,37.4a4.56,4.56,0,0,1-1.047-3.184v-.148a4.508,4.508,0,0,1,1.039-3.117A3.627,3.627,0,0,1-35.6,29.791a3.555,3.555,0,0,1,2.543.9,3.2,3.2,0,0,1,.973,2.4H-34.2a1.551,1.551,0,0,0-.406-1.072,1.354,1.354,0,0,0-1.031-.412,1.36,1.36,0,0,0-1.191.575,3.333,3.333,0,0,0-.4,1.866v.235a3.375,3.375,0,0,0,.4,1.878A1.377,1.377,0,0,0-35.621,36.736Zm4.477-2.641a5.013,5.013,0,0,1,.484-2.242,3.546,3.546,0,0,1,1.395-1.523,4.069,4.069,0,0,1,2.113-.539,3.849,3.849,0,0,1,2.793,1.047,4.2,4.2,0,0,1,1.207,2.844l.016.578a4.418,4.418,0,0,1-1.086,3.121,3.775,3.775,0,0,1-2.914,1.176,3.793,3.793,0,0,1-2.918-1.172,4.5,4.5,0,0,1-1.09-3.187Zm2.258.16a3.16,3.16,0,0,0,.453,1.843,1.5,1.5,0,0,0,1.3.638,1.5,1.5,0,0,0,1.281-.63,3.457,3.457,0,0,0,.461-2.015,3.128,3.128,0,0,0-.461-1.831,1.5,1.5,0,0,0-1.3-.649,1.474,1.474,0,0,0-1.281.646A3.516,3.516,0,0,0-28.887,34.256Zm9.258-4.309.07.945a2.971,2.971,0,0,1,2.43-1.1,2.255,2.255,0,0,1,2.242,1.289,2.9,2.9,0,0,1,2.539-1.289,2.521,2.521,0,0,1,2.047.8A3.681,3.681,0,0,1-9.629,33v5.4h-2.266V33a1.616,1.616,0,0,0-.281-1.053,1.245,1.245,0,0,0-.992-.333,1.409,1.409,0,0,0-1.406.971l.008,5.818h-2.258V33a1.6,1.6,0,0,0-.289-1.065,1.257,1.257,0,0,0-.984-.329,1.463,1.463,0,0,0-1.391.8V38.4h-2.258V29.947Zm16.8,7.594a2.831,2.831,0,0,1-2.312,1.016,2.67,2.67,0,0,1-2.074-.781,3.335,3.335,0,0,1-.73-2.289V29.947h2.258v5.467q0,1.322,1.2,1.322a1.63,1.63,0,0,0,1.578-.8V29.947H-.645V38.4H-2.77Zm5.969-7.594.07.977a2.951,2.951,0,0,1,2.43-1.133,2.453,2.453,0,0,1,2,.789,3.682,3.682,0,0,1,.672,2.359V38.4H6.051V32.981a1.47,1.47,0,0,0-.312-1.045A1.4,1.4,0,0,0,4.7,31.611a1.553,1.553,0,0,0-1.43.814V38.4H1.012V29.947ZM12.4,38.4H10.137V29.947H12.4ZM10,27.759a1.112,1.112,0,0,1,.34-.836,1.277,1.277,0,0,1,.926-.328,1.28,1.28,0,0,1,.922.328,1.193,1.193,0,0,1,0,1.68,1.283,1.283,0,0,1-.918.328,1.283,1.283,0,0,1-.918-.328A1.108,1.108,0,0,1,10,27.759Zm3.906,6.352a5.094,5.094,0,0,1,.887-3.148,2.877,2.877,0,0,1,2.426-1.172,2.589,2.589,0,0,1,2.039.922V26.4h2.266v12H19.488l-.109-.9a2.657,2.657,0,0,1-2.172,1.055,2.869,2.869,0,0,1-2.395-1.176A5.258,5.258,0,0,1,13.91,34.111Zm2.258.161a3.355,3.355,0,0,0,.414,1.829,1.348,1.348,0,0,0,1.2.636,1.51,1.51,0,0,0,1.477-.887V32.5a1.489,1.489,0,0,0-1.461-.887Q16.168,31.611,16.168,34.272ZM28.176,38.4a2.507,2.507,0,0,1-.227-.758,2.732,2.732,0,0,1-2.133.914,3,3,0,0,1-2.059-.719,2.312,2.312,0,0,1-.816-1.812,2.389,2.389,0,0,1,1-2.062,4.915,4.915,0,0,1,2.879-.727h1.039v-.484a1.393,1.393,0,0,0-.3-.938,1.183,1.183,0,0,0-.949-.352,1.345,1.345,0,0,0-.895.273.929.929,0,0,0-.324.75H23.129a2.268,2.268,0,0,1,.453-1.359,3,3,0,0,1,1.281-.98,4.669,4.669,0,0,1,1.859-.355,3.689,3.689,0,0,1,2.48.785,2.747,2.747,0,0,1,.918,2.207v3.664a4.041,4.041,0,0,0,.336,1.82V38.4Zm-1.867-1.57a1.945,1.945,0,0,0,.922-.223,1.462,1.462,0,0,0,.625-.6V34.556h-.844q-1.7,0-1.8,1.172l-.008.133a.9.9,0,0,0,.3.7A1.153,1.153,0,0,0,26.309,36.83Zm5.2-2.719a5.094,5.094,0,0,1,.887-3.148,2.877,2.877,0,0,1,2.426-1.172,2.589,2.589,0,0,1,2.039.922V26.4h2.266v12H37.082l-.109-.9A2.657,2.657,0,0,1,34.8,38.556a2.869,2.869,0,0,1-2.395-1.176A5.258,5.258,0,0,1,31.5,34.111Zm2.258.161a3.355,3.355,0,0,0,.414,1.829,1.348,1.348,0,0,0,1.2.636,1.51,1.51,0,0,0,1.477-.887V32.5a1.489,1.489,0,0,0-1.461-.887Q33.762,31.611,33.762,34.272Z" transform="translate(5812.979 -10565.554)" fill="#12263f"/>
  </g>
</svg>
