<svg xmlns="http://www.w3.org/2000/svg" width="190" height="100" viewBox="0 0 190 100">
  <g id="t7-i2" transform="translate(-180 -909)">
    <g id="Group_117215" data-name="Group 117215" transform="translate(0 -3721)">
      <path id="Path_178448" data-name="Path 178448" d="M791.013-1163H941.987c-.282-39.809-33.964-72-75.487-72S791.295-1202.809,791.013-1163Z" transform="translate(-591.5 5893)" fill="#ff6b00" opacity="0.15"/>
      <circle id="Ellipse_5703" data-name="Ellipse 5703" cx="11.5" cy="11.5" r="11.5" transform="translate(180 4630)" fill="#ffe9d9"/>
      <circle id="Ellipse_5704" data-name="Ellipse 5704" cx="7.5" cy="7.5" r="7.5" transform="translate(355 4662)" fill="#ffe9d9"/>
    </g>
    <g id="t7-i2-2" data-name="t7-i2" transform="translate(224.798 867.041)">
      <path id="Path_178565" data-name="Path 178565" d="M304.327,81.107V148.6H265.383l-2.794,5.1H256V143.494l9.316-4.835h29.5V81.107Z" transform="translate(-205.81 -23.433)" fill="#ff3b00"/>
      <path id="Path_178566" data-name="Path 178566" d="M11.679,81.107v67.87H50.056l2.269,4.726h7.254V143.494l-7.065-3.076-30.626-1.083L20.76,81.107Z" transform="translate(-9.389 -23.433)" fill="#ff7612"/>
      <path id="Path_178567" data-name="Path 178567" d="M58,63.118c9.693.012,19.391-.027,29.084.021,2.572,1.274,5.869,2.68,8.43,3.985.054,2.674-.015,5.352.033,8.026.027,1.129.348,2.067,1.469,1.928C98.08,77,98.157,76,98.1,74.935c.015-2.6-.006-5.193.008-7.79,2.386-1.243,5.549-2.5,7.922-3.767.768-.487,2.116-.174,2.969-.257,0,6.974,0,12.576,0,19.55a2.089,2.089,0,0,0,1.479,2.092,3.145,3.145,0,0,0,2-.263c1.727-.574,2.274-1.748,4-2.326,1.953.638,2.322,1.908,4.274,2.548a2.121,2.121,0,0,0,2.808-2.26c-.006-6.905,0-12.435,0-19.339,3.239-.008,8.835,0,12.074,0v61.057q-14.751.009-29.5,0a2.589,2.589,0,0,0-1.334.365c-1.966,1.05-4.334,2.47-6.3,3.51q-.006-16.957-.006-33.912a2.075,2.075,0,0,0-2.069-2.067c-1.11-.027-.925.78-.884,1.89-.015,11.3.332,22.791.328,34.09-1.649-.876-4.42-2.136-6.071-3.008a9.69,9.69,0,0,0-1.653-.793,8.613,8.613,0,0,0-1.665-.077q-14.238.006-28.477,0V63.118" transform="translate(-46.629 -8.954)" fill="#faf7f5"/>
      <g id="_ff7d97ff" data-name="#ff7d97ff" transform="translate(64.398 54.143)">
        <path id="Path_178568" data-name="Path 178568" d="M328.478,63.1h10.279q0,10.341,0,20.683c-1.411-.493-2.833-.958-4.25-1.429a2.518,2.518,0,0,0-1.679-.028q-2.176.733-4.354,1.458C328.485,76.886,328.473,69.991,328.478,63.1Z" transform="translate(-328.473 -63.097)" fill="#81679a"/>
      </g>
      <path id="Path_178569" data-name="Path 178569" d="M9.575,53.54a1.959,1.959,0,0,1,1.974-1.566c9.875-.016,19.75,0,29.626-.008a2.777,2.777,0,0,1,1.431.339q3.794,2,7.583,4,3.473-1.82,6.936-3.656a3.767,3.767,0,0,1,2.08-.682q14.31,0,28.618,0a3.212,3.212,0,0,1,2.408.539c.918.847.553,2.2.623,3.305,2.521.012,5.044-.014,7.566.01a2,2,0,0,1,1.959,1.715v68.515a2.083,2.083,0,0,1-1.4,1.57,10.905,10.905,0,0,1-2.131.092q-17.848,0-35.7.006a4.631,4.631,0,0,1-4.494,4.233c-4.247.02-8.5,0-12.743.006a4.6,4.6,0,0,1-3.952-2.094,5.613,5.613,0,0,1-.755-2.159q-18.524.021-37.046.006A2.046,2.046,0,0,1,0,126V57.541a1.994,1.994,0,0,1,1.953-1.723c2.523-.022,5.048,0,7.572-.01a19.442,19.442,0,0,1,.051-2.268m3.87,2.349v57.8q13.478,0,26.955,0a8.147,8.147,0,0,1,1.576.073,9.175,9.175,0,0,1,1.565.751q2.344,1.238,4.688,2.478.006-16.042.006-32.084a1.955,1.955,0,1,1,3.909-.018q.024,16.048.006,32.1c1.864-.984,3.735-1.957,5.6-2.951a2.451,2.451,0,0,1,1.263-.345q13.963-.009,27.926,0V55.888c-3.066,0-6.135,0-9.2,0q.009,9.8,0,19.605a2.008,2.008,0,0,1-2.658,2.139c-1.847-.606-3.682-1.251-5.531-1.855-1.633.547-3.264,1.1-4.9,1.645a2.978,2.978,0,0,1-1.9.249,1.978,1.978,0,0,1-1.4-1.98q-.012-9.9,0-19.805c-.808.078-1.712-.218-2.439.243q-3.37,1.8-6.756,3.566c-.014,2.459.006,4.917-.008,7.374a1.954,1.954,0,0,1-3.9.2c-.045-2.531.02-5.066-.031-7.6-2.423-1.235-4.8-2.566-7.236-3.772-9.175-.045-18.355-.008-27.53-.02m51.825,0c0,5.731.006,11.461,0,17.192q1.812-.6,3.619-1.212a2.093,2.093,0,0,1,1.4.024c1.178.392,2.36.778,3.533,1.188q0-8.6,0-17.192H65.27M3.923,59.731q0,32.028,0,64.057,18.621,0,37.244,0a1.961,1.961,0,0,1,1.874,1.306,21.024,21.024,0,0,1,.161,2.513.663.663,0,0,0,.7.422c1.443.014,2.886,0,4.331,0q0-3.314,0-6.627c-2.415-1.253-4.8-2.572-7.232-3.784-9.865-.055-19.733.01-29.6-.031a1.987,1.987,0,0,1-1.874-2.117q0-27.873,0-55.746h-5.6m86.932,55.76a1.985,1.985,0,0,1-1.88,2.1c-9.862.043-19.727-.025-29.586.033-2.431,1.225-4.819,2.539-7.238,3.79v6.619c1.447-.006,2.894.01,4.341,0a.664.664,0,0,0,.692-.439c.118-.769-.049-1.557.1-2.323a1.961,1.961,0,0,1,1.929-1.478q18.621-.012,37.24,0,0-32.028,0-64.057h-5.6Q90.851,87.61,90.855,115.491Z"/>
      <path id="Path_178570" data-name="Path 178570" d="M119.151,102.269q5.861-.018,11.724,0a1.959,1.959,0,1,1-.024,3.915c-3.917,0-7.834.008-11.751,0a1.955,1.955,0,0,1,.051-3.909Z" transform="translate(-94.205 -40.44)"/>
      <path id="Path_178571" data-name="Path 178571" d="M93.378,164.809a2.89,2.89,0,0,1,1.119-.159c7.058.01,14.116,0,21.172.008a1.959,1.959,0,1,1,.006,3.915q-10.7.006-21.391,0a2,2,0,0,1-2.027-1.388A1.966,1.966,0,0,1,93.378,164.809Z" transform="translate(-74.098 -90.597)"/>
      <path id="Path_178572" data-name="Path 178572" d="M247.317,164.962a1.955,1.955,0,1,1-.559,3.309A1.971,1.971,0,0,1,247.317,164.962Z" transform="translate(-197.835 -90.73)"/>
      <path id="Path_178573" data-name="Path 178573" d="M93.4,213.135a3.007,3.007,0,0,1,1.08-.145c7.06.008,14.122-.006,21.184.008a1.958,1.958,0,1,1-.006,3.913q-10.693.006-21.387,0a1.986,1.986,0,0,1-2.039-1.449A1.967,1.967,0,0,1,93.4,213.135Z" transform="translate(-74.095 -129.46)"/>
      <path id="Path_178574" data-name="Path 178574" d="M290.938,213.1a3.663,3.663,0,0,1,1.084-.11c7.066.014,14.132-.014,21.2.014a1.961,1.961,0,0,1,1.876,2.319,1.983,1.983,0,0,1-2.074,1.59q-10.487,0-20.974,0a2.2,2.2,0,0,1-2.108-.865A1.969,1.969,0,0,1,290.938,213.1Z" transform="translate(-232.826 -129.46)"/>
      <path id="Path_178575" data-name="Path 178575" d="M94.149,261.335q10.752-.021,21.507,0a1.96,1.96,0,1,1,.006,3.917q-10.784,0-21.568,0a1.955,1.955,0,0,1,.055-3.909Z" transform="translate(-74.103 -168.32)"/>
      <path id="Path_178576" data-name="Path 178576" d="M291.474,261.331c7.17-.026,14.339,0,21.509-.01a2,2,0,0,1,2.1,1.676,1.958,1.958,0,0,1-1.9,2.239q-10.784.015-21.572,0a1.956,1.956,0,1,1-.135-3.909Z" transform="translate(-232.801 -168.312)"/>
      <path id="Path_178577" data-name="Path 178577" d="M93.372,309.871a2.3,2.3,0,0,1,.921-.149q10.687.006,21.37,0a1.959,1.959,0,1,1,0,3.915q-10.69.015-21.384,0a2.017,2.017,0,0,1-2.029-1.414A1.968,1.968,0,0,1,93.372,309.871Z" transform="translate(-74.096 -207.225)"/>
      <path id="Path_178578" data-name="Path 178578" d="M290.744,309.867a4.188,4.188,0,0,1,1.682-.176q10.1,0,20.194,0a2.415,2.415,0,0,1,1.876.514,1.97,1.97,0,0,1,.149,2.733,2.078,2.078,0,0,1-1.631.676q-10.59,0-21.182,0a2.1,2.1,0,0,1-1.939-.945A1.97,1.97,0,0,1,290.744,309.867Z" transform="translate(-232.826 -207.196)"/>
    </g>
  </g>
</svg>
